<svg width="644" height="495" viewBox="0 0 644 495" fill="none" xmlns="http://www.w3.org/2000/svg">
<path d="M762.589 21.1901C747.596 21.1901 740.202 16.0103 732.809 10.9875C725.415 5.96463 718.432 1.09875 703.849 1.09875C689.267 1.09875 682.49 5.96463 674.89 10.9875C667.497 16.0103 660.103 21.1901 645.11 21.1901C630.117 21.1901 622.723 16.0103 615.329 10.9875C607.935 5.96463 600.952 1.09875 586.37 1.09875C571.993 1.09875 565.01 5.96463 557.411 10.9875C550.017 16.0103 542.623 21.1901 527.63 21.1901C512.637 21.1901 505.244 16.0103 497.85 10.9875C490.456 5.96463 483.473 1.09875 468.891 1.09875C454.514 1.09875 447.531 5.96463 439.932 10.9875C432.538 16.0103 425.144 21.1901 410.151 21.1901C395.158 21.1901 387.764 16.0103 380.37 10.9875C372.977 5.96463 365.994 1.09875 351.617 1.09875C337.24 1.09875 330.257 5.96463 322.863 10.9875C315.469 16.0103 308.075 21.1901 293.082 21.1901C278.089 21.1901 270.696 16.0103 263.302 10.9875C255.908 5.96463 248.925 1.09875 234.343 1.09875C219.966 1.09875 212.983 5.96463 205.384 10.9875C197.99 16.0103 190.596 21.1901 175.603 21.1901C160.61 21.1901 153.216 16.0103 145.822 10.9875C138.429 5.96463 131.445 1.09875 117.069 1.09875C102.692 1.09875 95.7087 5.96463 88.3149 10.9875C80.9211 16.0103 73.5273 21.1901 58.5343 21.1901C43.5413 21.1901 36.1475 16.0103 28.7537 10.9875C21.3599 5.96463 14.3768 1.09875 0 1.09875V0C14.993 0 22.3868 5.17981 29.7806 10.2027C37.1744 15.2255 44.1575 20.0914 58.5343 20.0914C72.9112 20.0914 79.8942 15.2255 87.288 10.2027C94.6818 5.17981 102.076 0 117.069 0C132.062 0 139.455 5.17981 146.849 10.2027C154.243 15.2255 161.226 20.0914 175.603 20.0914C189.98 20.0914 196.963 15.2255 204.562 10.2027C211.956 5.17981 219.35 0 234.343 0C249.336 0 256.729 5.17981 264.123 10.2027C271.517 15.2255 278.5 20.0914 293.082 20.0914C307.459 20.0914 314.442 15.2255 321.836 10.2027C329.23 5.17981 336.624 0 351.617 0C366.61 0 374.003 5.17981 381.397 10.2027C388.791 15.2255 395.774 20.0914 410.151 20.0914C424.528 20.0914 431.511 15.2255 439.11 10.2027C446.504 5.17981 453.898 0 468.891 0C483.884 0 491.277 5.17981 498.671 10.2027C506.681 15.3825 513.664 20.0914 528.041 20.0914C542.418 20.0914 549.401 15.2255 557 10.2027C564.394 5.17981 571.788 0 586.781 0C601.774 0 609.168 5.17981 616.561 10.2027C623.955 15.2255 630.938 20.0914 645.521 20.0914C659.897 20.0914 666.88 15.2255 674.48 10.2027C681.873 5.17981 689.267 0 704.26 0C719.253 0 726.647 5.17981 734.041 10.2027C741.435 15.2255 748.418 20.0914 763 20.0914V21.1901H762.589Z" fill="#202994"/>
<path d="M762.589 40.9673C747.596 40.9673 740.202 35.7875 732.809 30.7646C725.415 25.7418 718.432 20.8759 703.849 20.8759C689.267 20.8759 682.49 25.7418 674.89 30.7646C667.497 35.7875 660.103 40.9673 645.11 40.9673C630.117 40.9673 622.723 35.7875 615.329 30.7646C607.935 25.7418 600.952 20.8759 586.37 20.8759C571.993 20.8759 565.01 25.7418 557.411 30.7646C550.017 35.7875 542.623 40.9673 527.63 40.9673C512.637 40.9673 505.244 35.7875 497.85 30.7646C490.456 25.7418 483.473 20.8759 468.891 20.8759C454.514 20.8759 447.531 25.7418 439.932 30.7646C432.538 35.7875 425.144 40.9673 410.151 40.9673C395.158 40.9673 387.764 35.7875 380.37 30.7646C372.977 25.7418 365.994 20.8759 351.617 20.8759C337.24 20.8759 330.257 25.7418 322.863 30.7646C315.469 35.7875 308.075 40.9673 293.082 40.9673C278.089 40.9673 270.696 35.7875 263.302 30.7646C255.908 25.7418 248.925 20.8759 234.343 20.8759C219.966 20.8759 212.983 25.7418 205.384 30.7646C197.99 35.7875 190.596 40.9673 175.603 40.9673C160.61 40.9673 153.216 35.7875 145.822 30.7646C138.429 25.7418 131.445 20.8759 117.069 20.8759C102.692 20.8759 95.7087 25.7418 88.3149 30.7646C80.9211 35.7875 73.5273 40.9673 58.5343 40.9673C43.5413 40.9673 36.1475 35.7875 28.7537 30.7646C21.3599 25.7418 14.3768 20.8759 0 20.8759V19.7772C14.993 19.7772 22.3868 24.957 29.7806 29.9798C37.1744 35.0027 44.1575 39.8685 58.5343 39.8685C72.9112 39.8685 79.8942 35.0027 87.288 29.9798C94.6818 24.957 102.076 19.7772 117.069 19.7772C132.062 19.7772 139.455 24.957 146.849 29.9798C154.243 35.0027 161.226 39.8685 175.603 39.8685C189.98 39.8685 196.963 35.0027 204.562 29.9798C211.956 24.957 219.35 19.7772 234.343 19.7772C249.336 19.7772 256.729 24.957 264.123 29.9798C271.517 35.0027 278.5 39.8685 293.082 39.8685C307.459 39.8685 314.442 35.0027 321.836 29.9798C329.23 24.957 336.624 19.7772 351.617 19.7772C366.61 19.7772 374.003 24.957 381.397 29.9798C388.791 35.0027 395.774 39.8685 410.151 39.8685C424.528 39.8685 431.511 35.0027 439.11 29.9798C446.504 24.957 453.898 19.7772 468.891 19.7772C483.884 19.7772 491.277 24.957 498.671 29.9798C506.065 35.0027 513.048 39.8685 527.63 39.8685C542.007 39.8685 548.99 35.0027 556.589 29.9798C563.983 24.957 571.377 19.7772 586.37 19.7772C601.363 19.7772 608.757 24.957 616.151 29.9798C623.545 35.0027 630.528 39.8685 645.11 39.8685C659.487 39.8685 666.47 35.0027 674.069 29.9798C681.463 24.957 688.856 19.7772 703.849 19.7772C718.842 19.7772 726.236 24.957 733.63 29.9798C741.024 35.0027 748.007 39.8685 762.589 39.8685V40.9673Z" fill="#202994"/>
<path d="M762.589 60.7445C747.596 60.7445 740.202 55.5647 732.809 50.5418C725.415 45.519 718.432 40.6531 703.849 40.6531C689.267 40.6531 682.49 45.519 674.89 50.5418C667.497 55.5647 660.103 60.7445 645.11 60.7445C630.117 60.7445 622.723 55.5647 615.329 50.5418C607.935 45.519 600.952 40.6531 586.37 40.6531C571.993 40.6531 565.01 45.519 557.411 50.5418C550.017 55.5647 542.623 60.7445 527.63 60.7445C512.637 60.7445 505.244 55.5647 497.85 50.5418C490.456 45.519 483.473 40.6531 468.891 40.6531C454.514 40.6531 447.531 45.519 439.932 50.5418C432.538 55.5647 425.144 60.7445 410.151 60.7445C395.158 60.7445 387.764 55.5647 380.37 50.5418C372.977 45.519 365.994 40.6531 351.617 40.6531C337.24 40.6531 330.257 45.519 322.863 50.5418C315.469 55.5647 308.075 60.7445 293.082 60.7445C278.089 60.7445 270.696 55.5647 263.302 50.5418C255.908 45.519 248.925 40.6531 234.343 40.6531C219.966 40.6531 212.983 45.519 205.384 50.5418C197.99 55.5647 190.596 60.7445 175.603 60.7445C160.61 60.7445 153.216 55.5647 145.822 50.5418C138.429 45.519 131.445 40.6531 117.069 40.6531C102.692 40.6531 95.7087 45.519 88.3149 50.5418C80.9211 55.5647 73.5273 60.7445 58.5343 60.7445C43.5413 60.7445 36.1475 55.5647 28.7537 50.5418C21.3599 45.519 14.3768 40.6531 0 40.6531V39.5543C14.993 39.5543 22.3868 44.7341 29.7806 49.757C37.1744 54.7798 44.1575 59.6457 58.5343 59.6457C72.9112 59.6457 79.8942 54.7798 87.288 49.757C94.6818 44.7341 102.076 39.5543 117.069 39.5543C132.062 39.5543 139.455 44.7341 146.849 49.757C154.243 54.7798 161.226 59.6457 175.603 59.6457C189.98 59.6457 196.963 54.7798 204.562 49.757C211.956 44.7341 219.35 39.5543 234.343 39.5543C249.336 39.5543 256.729 44.7341 264.123 49.757C271.517 54.7798 278.5 59.6457 293.082 59.6457C307.459 59.6457 314.442 54.7798 321.836 49.757C329.23 44.7341 336.624 39.5543 351.617 39.5543C366.61 39.5543 374.003 44.7341 381.397 49.757C388.791 54.7798 395.774 59.6457 410.151 59.6457C424.528 59.6457 431.511 54.7798 439.11 49.757C446.504 44.7341 453.898 39.5543 468.891 39.5543C483.884 39.5543 491.277 44.7341 498.671 49.757C506.065 54.7798 513.048 59.6457 527.63 59.6457C542.007 59.6457 548.99 54.7798 556.589 49.757C563.983 44.7341 571.377 39.5543 586.37 39.5543C601.363 39.5543 608.757 44.7341 616.151 49.757C623.545 54.7798 630.528 59.6457 645.11 59.6457C659.487 59.6457 666.47 54.7798 674.069 49.757C681.463 44.7341 688.856 39.5543 703.849 39.5543C718.842 39.5543 726.236 44.7341 733.63 49.757C741.024 54.7798 748.007 59.6457 762.589 59.6457V60.7445Z" fill="#202994"/>
<path d="M762.589 80.3647C747.596 80.3647 740.202 75.1849 732.809 70.162C725.415 65.1392 718.432 60.2733 703.849 60.2733C689.267 60.2733 682.49 65.1392 674.89 70.162C667.497 75.1849 660.103 80.3647 645.11 80.3647C630.117 80.3647 622.723 75.1849 615.329 70.162C607.935 65.1392 600.952 60.2733 586.37 60.2733C571.993 60.2733 565.01 65.1392 557.411 70.162C550.017 75.1849 542.623 80.3647 527.63 80.3647C512.637 80.3647 505.244 75.1849 497.85 70.162C490.456 65.1392 483.473 60.2733 468.891 60.2733C454.514 60.2733 447.531 65.1392 439.932 70.162C432.538 75.1849 425.144 80.3647 410.151 80.3647C395.158 80.3647 387.764 75.1849 380.37 70.162C372.977 65.1392 365.994 60.2733 351.617 60.2733C337.24 60.2733 330.257 65.1392 322.863 70.162C315.469 75.1849 308.075 80.3647 293.082 80.3647C278.089 80.3647 270.696 75.1849 263.302 70.162C255.908 65.1392 248.925 60.2733 234.343 60.2733C219.966 60.2733 212.983 65.1392 205.384 70.162C197.99 75.1849 190.596 80.3647 175.603 80.3647C160.61 80.3647 153.216 75.1849 145.822 70.162C138.429 65.1392 131.445 60.2733 117.069 60.2733C102.692 60.2733 95.7087 65.1392 88.3149 70.162C80.9211 75.1849 73.5273 80.3647 58.5343 80.3647C43.5413 80.3647 36.1475 75.1849 28.7537 70.162C21.3599 65.1392 14.3768 60.2733 0 60.2733V59.3315C14.993 59.3315 22.3868 64.5113 29.7806 69.5342C37.1744 74.557 44.1575 79.4229 58.5343 79.4229C72.9112 79.4229 79.8942 74.557 87.288 69.5342C94.6818 64.5113 102.076 59.3315 117.069 59.3315C132.062 59.3315 139.455 64.5113 146.849 69.5342C154.243 74.557 161.226 79.4229 175.603 79.4229C189.98 79.4229 196.963 74.557 204.562 69.5342C211.956 64.5113 219.35 59.3315 234.343 59.3315C249.336 59.3315 256.729 64.5113 264.123 69.5342C271.517 74.557 278.5 79.4229 293.082 79.4229C307.459 79.4229 314.442 74.557 321.836 69.5342C329.23 64.5113 336.624 59.3315 351.617 59.3315C366.61 59.3315 374.003 64.5113 381.397 69.5342C388.791 74.557 395.774 79.4229 410.151 79.4229C424.528 79.4229 431.511 74.557 439.11 69.5342C446.504 64.5113 453.898 59.3315 468.891 59.3315C483.884 59.3315 491.277 64.5113 498.671 69.5342C506.065 74.557 513.048 79.4229 527.63 79.4229C542.007 79.4229 548.99 74.557 556.589 69.5342C563.983 64.5113 571.377 59.3315 586.37 59.3315C601.363 59.3315 608.757 64.5113 616.151 69.5342C623.545 74.557 630.528 79.4229 645.11 79.4229C659.487 79.4229 666.47 74.557 674.069 69.5342C681.463 64.5113 688.856 59.3315 703.849 59.3315C718.842 59.3315 726.236 64.5113 733.63 69.5342C741.024 74.557 748.007 79.4229 762.589 79.4229V80.3647Z" fill="#202994"/>
<path d="M762.588 100.143C747.595 100.143 740.201 94.9635 732.808 89.9406C725.414 84.9178 718.431 80.0519 703.849 80.0519C689.266 80.0519 682.489 84.9178 674.889 89.9406C667.496 94.9635 660.102 100.143 645.109 100.143C630.116 100.143 622.722 94.9635 615.328 89.9406C607.934 84.9178 600.951 80.0519 586.369 80.0519C571.992 80.0519 565.009 84.9178 557.41 89.9406C550.632 94.9635 543.033 100.143 528.04 100.143C513.047 100.143 505.653 94.9635 498.26 89.9406C490.866 84.9178 483.883 80.0519 469.301 80.0519C454.924 80.0519 447.941 84.9178 440.341 89.9406C432.948 94.9635 425.554 100.143 410.561 100.143C395.568 100.143 388.174 94.9635 380.78 89.9406C373.386 84.9178 366.403 80.0519 352.026 80.0519C337.65 80.0519 330.667 84.9178 323.273 89.9406C315.879 94.9635 308.485 100.143 293.492 100.143C278.499 100.143 271.105 94.9635 263.712 89.9406C256.318 84.9178 249.335 80.0519 234.753 80.0519C220.376 80.0519 213.393 84.9178 205.793 89.9406C198.4 94.9635 191.006 100.143 176.013 100.143C161.02 100.143 153.626 94.9635 146.232 89.9406C138.838 84.9178 131.855 80.0519 117.478 80.0519C103.102 80.0519 96.1186 84.9178 88.7248 89.9406C81.331 94.9635 73.9372 100.143 58.9442 100.143C43.9512 100.143 36.5574 94.9635 29.1636 89.9406C21.7697 84.9178 14.7867 80.0519 0.409853 80.0519V78.9532C15.4029 78.9532 22.7967 84.133 30.1905 89.1558C37.5843 94.1787 44.5673 99.0445 58.9442 99.0445C73.321 99.0445 80.3041 94.1787 87.6979 89.1558C95.0917 84.133 102.485 78.9532 117.478 78.9532C132.471 78.9532 139.865 84.133 147.259 89.1558C154.653 94.1787 161.636 99.0445 176.013 99.0445C190.39 99.0445 197.373 94.1787 204.972 89.1558C212.366 84.133 219.76 78.9532 234.753 78.9532C249.745 78.9532 257.139 84.133 264.533 89.1558C271.927 94.1787 278.91 99.0445 293.492 99.0445C307.869 99.0445 314.852 94.1787 322.246 89.1558C329.64 84.133 337.033 78.9532 352.026 78.9532C367.019 78.9532 374.413 84.133 381.807 89.1558C389.201 94.1787 396.184 99.0445 410.561 99.0445C424.938 99.0445 431.921 94.1787 439.52 89.1558C446.914 84.133 454.307 78.9532 469.301 78.9532C484.293 78.9532 491.687 84.133 499.081 89.1558C506.475 94.1787 513.458 99.0445 528.04 99.0445C542.417 99.0445 549.4 94.1787 556.999 89.1558C564.393 84.133 571.787 78.9532 586.78 78.9532C601.773 78.9532 609.167 84.133 616.56 89.1558C623.954 94.1787 630.937 99.0445 645.52 99.0445C659.896 99.0445 666.879 94.1787 674.479 89.1558C681.872 84.133 689.266 78.9532 704.259 78.9532C719.252 78.9532 726.646 84.133 734.04 89.1558C741.434 94.1787 748.417 99.0445 762.999 99.0445V100.143H762.588Z" fill="#202994"/>
<path d="M762.589 119.92C747.596 119.92 740.202 114.741 732.809 109.718C725.415 104.695 718.432 99.8291 703.849 99.8291C689.267 99.8291 682.49 104.695 674.89 109.718C667.497 114.741 660.103 119.92 645.11 119.92C630.117 119.92 622.723 114.741 615.329 109.718C607.935 104.695 600.952 99.8291 586.37 99.8291C571.993 99.8291 565.01 104.695 557.411 109.718C550.017 114.741 542.623 119.92 527.63 119.92C512.637 119.92 505.244 114.741 497.85 109.718C490.456 104.695 483.473 99.8291 468.891 99.8291C454.514 99.8291 447.531 104.695 439.932 109.718C432.538 114.741 425.144 119.92 410.151 119.92C395.158 119.92 387.764 114.741 380.37 109.718C372.977 104.695 365.994 99.8291 351.617 99.8291C337.24 99.8291 330.257 104.695 322.863 109.718C315.469 114.741 308.075 119.92 293.082 119.92C278.089 119.92 270.696 114.741 263.302 109.718C255.908 104.695 248.925 99.8291 234.343 99.8291C219.966 99.8291 212.983 104.695 205.384 109.718C197.99 114.741 190.596 119.92 175.603 119.92C160.61 119.92 153.216 114.741 145.822 109.718C138.429 104.695 131.445 99.8291 117.069 99.8291C102.692 99.8291 95.7087 104.695 88.3149 109.718C80.9211 114.741 73.5273 119.92 58.5343 119.92C43.5413 119.92 36.1475 114.741 28.7537 109.718C21.3599 104.695 14.3768 99.8291 0 99.8291V98.7303C14.993 98.7303 22.3868 103.91 29.7806 108.933C37.1744 113.956 44.1575 118.822 58.5343 118.822C72.9112 118.822 79.8942 113.956 87.288 108.933C94.6818 103.91 102.076 98.7303 117.069 98.7303C132.062 98.7303 139.455 103.91 146.849 108.933C154.243 113.956 161.226 118.822 175.603 118.822C189.98 118.822 196.963 113.956 204.562 108.933C211.956 103.91 219.35 98.7303 234.343 98.7303C249.336 98.7303 256.729 103.91 264.123 108.933C271.517 113.956 278.5 118.822 293.082 118.822C307.459 118.822 314.442 113.956 321.836 108.933C329.23 103.91 336.624 98.7303 351.617 98.7303C366.61 98.7303 374.003 103.91 381.397 108.933C388.791 113.956 395.774 118.822 410.151 118.822C424.528 118.822 431.511 113.956 439.11 108.933C446.504 103.91 453.898 98.7303 468.891 98.7303C483.884 98.7303 491.277 103.91 498.671 108.933C506.065 113.956 513.048 118.822 527.63 118.822C542.007 118.822 548.99 113.956 556.589 108.933C563.983 103.91 571.377 98.7303 586.37 98.7303C601.363 98.7303 608.757 103.91 616.151 108.933C623.545 113.956 630.528 118.822 645.11 118.822C659.487 118.822 666.47 113.956 674.069 108.933C681.463 103.91 688.856 98.7303 703.849 98.7303C718.842 98.7303 726.236 103.91 733.63 108.933C741.024 113.956 748.007 118.822 762.589 118.822V119.92Z" fill="#202994"/>
<path d="M762.589 139.698C747.596 139.698 740.202 134.518 732.809 129.495C725.415 124.472 718.432 119.606 703.849 119.606C689.267 119.606 682.49 124.472 674.89 129.495C667.497 134.518 660.103 139.698 645.11 139.698C630.117 139.698 622.723 134.518 615.329 129.495C607.935 124.472 600.952 119.606 586.37 119.606C571.993 119.606 565.01 124.472 557.411 129.495C550.017 134.518 542.623 139.698 527.63 139.698C512.637 139.698 505.244 134.518 497.85 129.495C490.456 124.472 483.473 119.606 468.891 119.606C454.514 119.606 447.531 124.472 439.932 129.495C432.538 134.518 425.144 139.698 410.151 139.698C395.158 139.698 387.764 134.518 380.37 129.495C372.977 124.472 365.994 119.606 351.617 119.606C337.24 119.606 330.257 124.472 322.863 129.495C315.469 134.518 308.075 139.698 293.082 139.698C278.089 139.698 270.696 134.518 263.302 129.495C255.908 124.472 248.925 119.606 234.343 119.606C219.966 119.606 212.983 124.472 205.384 129.495C197.99 134.518 190.596 139.698 175.603 139.698C160.61 139.698 153.216 134.518 145.822 129.495C138.429 124.472 131.445 119.606 117.069 119.606C102.692 119.606 95.7087 124.472 88.3149 129.495C80.9211 134.518 73.5273 139.698 58.5343 139.698C43.5413 139.698 36.1475 134.518 28.7537 129.495C21.3599 124.472 14.3768 119.606 0 119.606V118.508C14.993 118.508 22.3868 123.687 29.7806 128.71C37.1744 133.733 44.1575 138.599 58.5343 138.599C72.9112 138.599 79.8942 133.733 87.288 128.71C94.6818 123.687 102.076 118.508 117.069 118.508C132.062 118.508 139.455 123.687 146.849 128.71C154.243 133.733 161.226 138.599 175.603 138.599C189.98 138.599 196.963 133.733 204.562 128.71C211.956 123.687 219.35 118.508 234.343 118.508C249.336 118.508 256.729 123.687 264.123 128.71C271.517 133.733 278.5 138.599 293.082 138.599C307.459 138.599 314.442 133.733 321.836 128.71C329.23 123.687 336.624 118.508 351.617 118.508C366.61 118.508 374.003 123.687 381.397 128.71C388.791 133.733 395.774 138.599 410.151 138.599C424.528 138.599 431.511 133.733 439.11 128.71C446.504 123.687 453.898 118.508 468.891 118.508C483.884 118.508 491.277 123.687 498.671 128.71C506.065 133.733 513.048 138.599 527.63 138.599C542.007 138.599 548.99 133.733 556.589 128.71C563.983 123.687 571.377 118.508 586.37 118.508C601.363 118.508 608.757 123.687 616.151 128.71C623.545 133.733 630.528 138.599 645.11 138.599C659.487 138.599 666.47 133.733 674.069 128.71C681.463 123.687 688.856 118.508 703.849 118.508C718.842 118.508 726.236 123.687 733.63 128.71C741.024 133.733 748.007 138.599 762.589 138.599V139.698Z" fill="#202994"/>
<path d="M762.589 159.318C747.596 159.318 740.202 154.138 732.809 149.115C725.415 144.092 718.432 139.226 703.849 139.226C689.267 139.226 682.49 144.092 674.89 149.115C667.497 154.138 660.103 159.318 645.11 159.318C630.117 159.318 622.723 154.138 615.329 149.115C607.935 144.092 600.952 139.226 586.37 139.226C571.993 139.226 565.01 144.092 557.411 149.115C550.017 154.138 542.623 159.318 527.63 159.318C512.637 159.318 505.244 154.138 497.85 149.115C490.456 144.092 483.473 139.226 468.891 139.226C454.514 139.226 447.531 144.092 439.932 149.115C432.538 154.138 425.144 159.318 410.151 159.318C395.158 159.318 387.764 154.138 380.37 149.115C372.977 144.092 365.994 139.226 351.617 139.226C337.24 139.226 330.257 144.092 322.863 149.115C315.469 154.138 308.075 159.318 293.082 159.318C278.089 159.318 270.696 154.138 263.302 149.115C255.908 144.092 248.925 139.226 234.343 139.226C219.966 139.226 212.983 144.092 205.384 149.115C197.99 154.138 190.596 159.318 175.603 159.318C160.61 159.318 153.216 154.138 145.822 149.115C138.429 144.092 131.445 139.226 117.069 139.226C102.692 139.226 95.7087 144.092 88.3149 149.115C80.9211 154.138 73.5273 159.318 58.5343 159.318C43.5413 159.318 36.1475 154.138 28.7537 149.115C21.3599 144.092 14.3768 139.226 0 139.226V138.127C14.993 138.127 22.3868 143.307 29.7806 148.33C37.1744 153.353 44.1575 158.219 58.5343 158.219C72.9112 158.219 79.8942 153.353 87.288 148.33C94.6818 143.307 102.076 138.127 117.069 138.127C132.062 138.127 139.455 143.307 146.849 148.33C154.243 153.353 161.226 158.219 175.603 158.219C189.98 158.219 196.963 153.353 204.562 148.33C211.956 143.307 219.35 138.127 234.343 138.127C249.336 138.127 256.729 143.307 264.123 148.33C271.517 153.353 278.5 158.219 293.082 158.219C307.459 158.219 314.442 153.353 321.836 148.33C329.23 143.307 336.624 138.127 351.617 138.127C366.61 138.127 374.003 143.307 381.397 148.33C388.791 153.353 395.774 158.219 410.151 158.219C424.528 158.219 431.511 153.353 439.11 148.33C446.504 143.307 453.898 138.127 468.891 138.127C483.884 138.127 491.277 143.307 498.671 148.33C506.065 153.353 513.048 158.219 527.63 158.219C542.007 158.219 548.99 153.353 556.589 148.33C563.983 143.307 571.377 138.127 586.37 138.127C601.363 138.127 608.757 143.307 616.151 148.33C623.545 153.353 630.528 158.219 645.11 158.219C659.487 158.219 666.47 153.353 674.069 148.33C681.463 143.307 688.856 138.127 703.849 138.127C718.842 138.127 726.236 143.307 733.63 148.33C741.024 153.353 748.007 158.219 762.589 158.219V159.318Z" fill="#202994"/>
<path d="M762.589 179.095C747.596 179.095 740.202 173.915 732.809 168.892C725.415 163.869 718.432 159.003 703.849 159.003C689.267 159.003 682.49 163.869 674.89 168.892C667.497 173.915 660.103 179.095 645.11 179.095C630.117 179.095 622.723 173.915 615.329 168.892C607.935 163.869 600.952 159.003 586.37 159.003C571.993 159.003 565.01 163.869 557.411 168.892C550.017 173.915 542.623 179.095 527.63 179.095C512.637 179.095 505.244 173.915 497.85 168.892C490.456 163.869 483.473 159.003 468.891 159.003C454.514 159.003 447.531 163.869 439.932 168.892C432.538 173.915 425.144 179.095 410.151 179.095C395.158 179.095 387.764 173.915 380.37 168.892C372.977 163.869 365.994 159.003 351.617 159.003C337.24 159.003 330.257 163.869 322.863 168.892C315.469 173.915 308.075 179.095 293.082 179.095C278.089 179.095 270.696 173.915 263.302 168.892C255.908 163.869 248.925 159.003 234.343 159.003C219.966 159.003 212.983 163.869 205.384 168.892C197.99 173.915 190.596 179.095 175.603 179.095C160.61 179.095 153.216 173.915 145.822 168.892C138.429 163.869 131.445 159.003 117.069 159.003C102.692 159.003 95.7087 163.869 88.3149 168.892C80.9211 173.915 73.5273 179.095 58.5343 179.095C43.5413 179.095 36.1475 173.915 28.7537 168.892C21.3599 163.869 14.3768 159.003 0 159.003V157.905C14.993 157.905 22.3868 163.085 29.7806 168.107C37.1744 173.13 44.1575 177.996 58.5343 177.996C72.9112 177.996 79.8942 173.13 87.288 168.107C94.6818 163.085 102.076 157.905 117.069 157.905C132.062 157.905 139.455 163.085 146.849 168.107C154.243 173.13 161.226 177.996 175.603 177.996C189.98 177.996 196.963 173.13 204.562 168.107C211.956 163.085 219.35 157.905 234.343 157.905C249.336 157.905 256.729 163.085 264.123 168.107C271.517 173.13 278.5 177.996 293.082 177.996C307.459 177.996 314.442 173.13 321.836 168.107C329.23 163.085 336.624 157.905 351.617 157.905C366.61 157.905 374.003 163.085 381.397 168.107C388.791 173.13 395.774 177.996 410.151 177.996C424.528 177.996 431.511 173.13 439.11 168.107C446.504 163.085 453.898 157.905 468.891 157.905C483.884 157.905 491.277 163.085 498.671 168.107C506.065 173.13 513.048 177.996 527.63 177.996C542.007 177.996 548.99 173.13 556.589 168.107C563.983 163.085 571.377 157.905 586.37 157.905C601.363 157.905 608.757 163.085 616.151 168.107C623.545 173.13 630.528 177.996 645.11 177.996C659.487 177.996 666.47 173.13 674.069 168.107C681.463 163.085 688.856 157.905 703.849 157.905C718.842 157.905 726.236 163.085 733.63 168.107C741.024 173.13 748.007 177.996 762.589 177.996V179.095Z" fill="#202994"/>
<path d="M762.589 198.874C747.596 198.874 740.202 193.694 732.809 188.671C725.415 183.648 718.432 178.782 703.849 178.782C689.267 178.782 682.49 183.648 674.89 188.671C667.497 193.694 660.103 198.874 645.11 198.874C630.117 198.874 622.723 193.694 615.329 188.671C607.935 183.648 600.952 178.782 586.37 178.782C571.993 178.782 565.01 183.648 557.411 188.671C550.017 193.694 542.623 198.874 527.63 198.874C512.637 198.874 505.244 193.694 497.85 188.671C490.456 183.648 483.473 178.782 468.891 178.782C454.514 178.782 447.531 183.648 439.932 188.671C432.538 193.694 425.144 198.874 410.151 198.874C395.158 198.874 387.764 193.694 380.37 188.671C372.977 183.648 365.994 178.782 351.617 178.782C337.24 178.782 330.257 183.648 322.863 188.671C315.469 193.694 308.075 198.874 293.082 198.874C278.089 198.874 270.696 193.694 263.302 188.671C255.908 183.648 248.925 178.782 234.343 178.782C219.966 178.782 212.983 183.648 205.384 188.671C197.99 193.694 190.596 198.874 175.603 198.874C160.61 198.874 153.216 193.694 145.822 188.671C138.429 183.648 131.445 178.782 117.069 178.782C102.692 178.782 95.7087 183.648 88.3149 188.671C80.9211 193.694 73.5273 198.874 58.5343 198.874C43.5413 198.874 36.1475 193.694 28.7537 188.671C21.3599 183.648 14.3768 178.782 0 178.782V177.684C14.993 177.684 22.3868 182.863 29.7806 187.886C37.1744 192.909 44.1575 197.775 58.5343 197.775C72.9112 197.775 79.8942 192.909 87.288 187.886C94.6818 182.863 102.076 177.684 117.069 177.684C132.062 177.684 139.455 182.863 146.849 187.886C154.243 192.909 161.226 197.775 175.603 197.775C189.98 197.775 196.963 192.909 204.562 187.886C211.956 182.863 219.35 177.684 234.343 177.684C249.336 177.684 256.729 182.863 264.123 187.886C271.517 192.909 278.5 197.775 293.082 197.775C307.459 197.775 314.442 192.909 321.836 187.886C329.23 182.863 336.624 177.684 351.617 177.684C366.61 177.684 374.003 182.863 381.397 187.886C388.791 192.909 395.774 197.775 410.151 197.775C424.528 197.775 431.511 192.909 439.11 187.886C446.504 182.863 453.898 177.684 468.891 177.684C483.884 177.684 491.277 182.863 498.671 187.886C506.065 192.909 513.048 197.775 527.63 197.775C542.007 197.775 548.99 192.909 556.589 187.886C563.983 182.863 571.377 177.684 586.37 177.684C601.363 177.684 608.757 182.863 616.151 187.886C623.545 192.909 630.528 197.775 645.11 197.775C659.487 197.775 666.47 192.909 674.069 187.886C681.463 182.863 688.856 177.684 703.849 177.684C718.842 177.684 726.236 182.863 733.63 187.886C741.024 192.909 748.007 197.775 762.589 197.775V198.874Z" fill="#202994"/>
<path d="M762.589 218.649C747.596 218.649 740.202 213.469 732.809 208.446C725.415 203.424 718.432 198.558 703.849 198.558C689.267 198.558 682.49 203.424 674.89 208.446C667.497 213.469 660.103 218.649 645.11 218.649C630.117 218.649 622.723 213.469 615.329 208.446C607.935 203.424 600.952 198.558 586.37 198.558C571.993 198.558 565.01 203.424 557.411 208.446C550.017 213.469 542.623 218.649 527.63 218.649C512.637 218.649 505.244 213.469 497.85 208.446C490.456 203.424 483.473 198.558 468.891 198.558C454.514 198.558 447.531 203.424 439.932 208.446C432.538 213.469 425.144 218.649 410.151 218.649C395.158 218.649 387.764 213.469 380.37 208.446C372.977 203.424 365.994 198.558 351.617 198.558C337.24 198.558 330.257 203.424 322.863 208.446C315.469 213.469 308.075 218.649 293.082 218.649C278.089 218.649 270.696 213.469 263.302 208.446C255.908 203.424 248.925 198.558 234.343 198.558C219.966 198.558 212.983 203.424 205.384 208.446C197.99 213.469 190.596 218.649 175.603 218.649C160.61 218.649 153.216 213.469 145.822 208.446C138.429 203.424 131.445 198.558 117.069 198.558C102.692 198.558 95.7087 203.424 88.3149 208.446C80.9211 213.469 73.5273 218.649 58.5343 218.649C43.5413 218.649 36.1475 213.469 28.7537 208.446C21.3599 203.424 14.3768 198.558 0 198.558V197.459C14.993 197.459 22.3868 202.639 29.7806 207.662C37.1744 212.684 44.1575 217.55 58.5343 217.55C72.9112 217.55 79.8942 212.684 87.288 207.662C94.6818 202.639 102.076 197.459 117.069 197.459C132.062 197.459 139.455 202.639 146.849 207.662C154.243 212.684 161.226 217.55 175.603 217.55C189.98 217.55 196.963 212.684 204.562 207.662C211.956 202.639 219.35 197.459 234.343 197.459C249.336 197.459 256.729 202.639 264.123 207.662C271.517 212.684 278.5 217.55 293.082 217.55C307.459 217.55 314.442 212.684 321.836 207.662C329.23 202.639 336.624 197.459 351.617 197.459C366.61 197.459 374.003 202.639 381.397 207.662C388.791 212.684 395.774 217.55 410.151 217.55C424.528 217.55 431.511 212.684 439.11 207.662C446.504 202.639 453.898 197.459 468.891 197.459C483.884 197.459 491.277 202.639 498.671 207.662C506.065 212.684 513.048 217.55 527.63 217.55C542.007 217.55 548.99 212.684 556.589 207.662C563.983 202.639 571.377 197.459 586.37 197.459C601.363 197.459 608.757 202.639 616.151 207.662C623.545 212.684 630.528 217.55 645.11 217.55C659.487 217.55 666.47 212.684 674.069 207.662C681.463 202.639 688.856 197.459 703.849 197.459C718.842 197.459 726.236 202.639 733.63 207.662C741.024 212.684 748.007 217.55 762.589 217.55V218.649Z" fill="#202994"/>
<path d="M762.589 238.271C747.596 238.271 740.202 233.091 732.809 228.068C725.415 223.045 718.432 218.179 703.849 218.179C689.267 218.179 682.49 223.045 674.89 228.068C667.497 233.091 660.103 238.271 645.11 238.271C630.117 238.271 622.723 233.091 615.329 228.068C607.935 223.045 600.952 218.179 586.37 218.179C571.993 218.179 565.01 223.045 557.411 228.068C550.017 233.091 542.623 238.271 527.63 238.271C512.637 238.271 505.244 233.091 497.85 228.068C490.456 223.045 483.473 218.179 468.891 218.179C454.514 218.179 447.531 223.045 439.932 228.068C432.538 233.091 425.144 238.271 410.151 238.271C395.158 238.271 387.764 233.091 380.37 228.068C372.977 223.045 365.994 218.179 351.617 218.179C337.24 218.179 330.257 223.045 322.863 228.068C315.469 233.091 308.075 238.271 293.082 238.271C278.089 238.271 270.696 233.091 263.302 228.068C255.908 223.045 248.925 218.179 234.343 218.179C219.966 218.179 212.983 223.045 205.384 228.068C197.99 233.091 190.596 238.271 175.603 238.271C160.61 238.271 153.216 233.091 145.822 228.068C138.429 223.045 131.445 218.179 117.069 218.179C102.692 218.179 95.7087 223.045 88.3149 228.068C80.9211 233.091 73.5273 238.271 58.5343 238.271C43.5413 238.271 36.1475 233.091 28.7537 228.068C21.3599 223.045 14.3768 218.179 0 218.179V217.081C14.993 217.081 22.3868 222.26 29.7806 227.283C37.1744 232.306 44.1575 237.172 58.5343 237.172C72.9112 237.172 79.8942 232.306 87.288 227.283C94.6818 222.26 102.076 217.081 117.069 217.081C132.062 217.081 139.455 222.26 146.849 227.283C154.243 232.306 161.226 237.172 175.603 237.172C189.98 237.172 196.963 232.306 204.562 227.283C211.956 222.26 219.35 217.081 234.343 217.081C249.336 217.081 256.729 222.26 264.123 227.283C271.517 232.306 278.5 237.172 293.082 237.172C307.459 237.172 314.442 232.306 321.836 227.283C329.23 222.26 336.624 217.081 351.617 217.081C366.61 217.081 374.003 222.26 381.397 227.283C388.791 232.306 395.774 237.172 410.151 237.172C424.528 237.172 431.511 232.306 439.11 227.283C446.504 222.26 453.898 217.081 468.891 217.081C483.884 217.081 491.277 222.26 498.671 227.283C506.065 232.306 513.048 237.172 527.63 237.172C542.007 237.172 548.99 232.306 556.589 227.283C563.983 222.26 571.377 217.081 586.37 217.081C601.363 217.081 608.757 222.26 616.151 227.283C623.545 232.306 630.528 237.172 645.11 237.172C659.487 237.172 666.47 232.306 674.069 227.283C681.463 222.26 688.856 217.081 703.849 217.081C718.842 217.081 726.236 222.26 733.63 227.283C741.024 232.306 748.007 237.172 762.589 237.172V238.271Z" fill="#202994"/>
<path d="M762.589 258.05C747.596 258.05 740.202 252.87 732.809 247.847C725.415 242.824 718.432 237.958 703.849 237.958C689.267 237.958 682.49 242.824 674.89 247.847C667.497 252.87 660.103 258.05 645.11 258.05C630.117 258.05 622.723 252.87 615.329 247.847C607.935 242.824 600.952 237.958 586.37 237.958C571.993 237.958 565.01 242.824 557.411 247.847C550.017 252.87 542.623 258.05 527.63 258.05C512.637 258.05 505.244 252.87 497.85 247.847C490.456 242.824 483.473 237.958 468.891 237.958C454.514 237.958 447.531 242.824 439.932 247.847C432.538 252.87 425.144 258.05 410.151 258.05C395.158 258.05 387.764 252.87 380.37 247.847C372.977 242.824 365.994 237.958 351.617 237.958C337.24 237.958 330.257 242.824 322.863 247.847C315.469 252.87 308.075 258.05 293.082 258.05C278.089 258.05 270.696 252.87 263.302 247.847C255.908 242.824 248.925 237.958 234.343 237.958C219.966 237.958 212.983 242.824 205.384 247.847C197.99 252.87 190.596 258.05 175.603 258.05C160.61 258.05 153.216 252.87 145.822 247.847C138.429 242.824 131.445 237.958 117.069 237.958C102.692 237.958 95.7087 242.824 88.3149 247.847C80.9211 252.87 73.5273 258.05 58.5343 258.05C43.5413 258.05 36.1475 252.87 28.7537 247.847C21.3599 242.824 14.3768 237.958 0 237.958V236.86C14.993 236.86 22.3868 242.039 29.7806 247.062C37.1744 252.085 44.1575 256.951 58.5343 256.951C72.9112 256.951 79.8942 252.085 87.288 247.062C94.6818 242.039 102.076 236.86 117.069 236.86C132.062 236.86 139.455 242.039 146.849 247.062C154.243 252.085 161.226 256.951 175.603 256.951C189.98 256.951 196.963 252.085 204.562 247.062C211.956 242.039 219.35 236.86 234.343 236.86C249.336 236.86 256.729 242.039 264.123 247.062C271.517 252.085 278.5 256.951 293.082 256.951C307.459 256.951 314.442 252.085 321.836 247.062C329.23 242.039 336.624 236.86 351.617 236.86C366.61 236.86 374.003 242.039 381.397 247.062C388.791 252.085 395.774 256.951 410.151 256.951C424.528 256.951 431.511 252.085 439.11 247.062C446.504 242.039 453.898 236.86 468.891 236.86C483.884 236.86 491.277 242.039 498.671 247.062C506.065 252.085 513.048 256.951 527.63 256.951C542.007 256.951 548.99 252.085 556.589 247.062C563.983 242.039 571.377 236.86 586.37 236.86C601.363 236.86 608.757 242.039 616.151 247.062C623.545 252.085 630.528 256.951 645.11 256.951C659.487 256.951 666.47 252.085 674.069 247.062C681.463 242.039 688.856 236.86 703.849 236.86C718.842 236.86 726.236 242.039 733.63 247.062C741.024 252.085 748.007 256.951 762.589 256.951V258.05Z" fill="#202994"/>
<path d="M762.589 277.827C747.596 277.827 740.202 272.647 732.809 267.624C725.415 262.601 718.432 257.735 703.849 257.735C689.267 257.735 682.49 262.601 674.89 267.624C667.497 272.647 660.103 277.827 645.11 277.827C630.117 277.827 622.723 272.647 615.329 267.624C607.935 262.601 600.952 257.735 586.37 257.735C571.993 257.735 565.01 262.601 557.411 267.624C550.017 272.647 542.623 277.827 527.63 277.827C512.637 277.827 505.244 272.647 497.85 267.624C490.456 262.601 483.473 257.735 468.891 257.735C454.514 257.735 447.531 262.601 439.932 267.624C432.538 272.647 425.144 277.827 410.151 277.827C395.158 277.827 387.764 272.647 380.37 267.624C372.977 262.601 365.994 257.735 351.617 257.735C337.24 257.735 330.257 262.601 322.863 267.624C315.469 272.647 308.075 277.827 293.082 277.827C278.089 277.827 270.696 272.647 263.302 267.624C255.908 262.601 248.925 257.735 234.343 257.735C219.966 257.735 212.983 262.601 205.384 267.624C197.99 272.647 190.596 277.827 175.603 277.827C160.61 277.827 153.216 272.647 145.822 267.624C138.429 262.601 131.445 257.735 117.069 257.735C102.692 257.735 95.7087 262.601 88.3149 267.624C80.9211 272.647 73.5273 277.827 58.5343 277.827C43.5413 277.827 36.1475 272.647 28.7537 267.624C21.3599 262.601 14.3768 257.735 0 257.735V256.637C14.993 256.637 22.3868 261.816 29.7806 266.839C37.1744 271.862 44.1575 276.728 58.5343 276.728C72.9112 276.728 79.8942 271.862 87.288 266.839C94.6818 261.816 102.076 256.637 117.069 256.637C132.062 256.637 139.455 261.816 146.849 266.839C154.243 271.862 161.226 276.728 175.603 276.728C189.98 276.728 196.963 271.862 204.562 266.839C211.956 261.816 219.35 256.637 234.343 256.637C249.336 256.637 256.729 261.816 264.123 266.839C271.517 271.862 278.5 276.728 293.082 276.728C307.459 276.728 314.442 271.862 321.836 266.839C329.23 261.816 336.624 256.637 351.617 256.637C366.61 256.637 374.003 261.816 381.397 266.839C388.791 271.862 395.774 276.728 410.151 276.728C424.528 276.728 431.511 271.862 439.11 266.839C446.504 261.816 453.898 256.637 468.891 256.637C483.884 256.637 491.277 261.816 498.671 266.839C506.065 271.862 513.048 276.728 527.63 276.728C542.007 276.728 548.99 271.862 556.589 266.839C563.983 261.816 571.377 256.637 586.37 256.637C601.363 256.637 608.757 261.816 616.151 266.839C623.545 271.862 630.528 276.728 645.11 276.728C659.487 276.728 666.47 271.862 674.069 266.839C681.463 261.816 688.856 256.637 703.849 256.637C718.842 256.637 726.236 261.816 733.63 266.839C741.024 271.862 748.007 276.728 762.589 276.728V277.827Z" fill="#202994"/>
<path d="M762.589 297.447C747.596 297.447 740.202 292.267 732.809 287.244C725.415 282.221 718.432 277.355 703.849 277.355C689.267 277.355 682.49 282.221 674.89 287.244C667.497 292.267 660.103 297.447 645.11 297.447C630.117 297.447 622.723 292.267 615.329 287.244C607.935 282.221 600.952 277.355 586.37 277.355C571.993 277.355 565.01 282.221 557.411 287.244C550.017 292.267 542.623 297.447 527.63 297.447C512.637 297.447 505.244 292.267 497.85 287.244C490.456 282.221 483.473 277.355 468.891 277.355C454.514 277.355 447.531 282.221 439.932 287.244C432.538 292.267 425.144 297.447 410.151 297.447C395.158 297.447 387.764 292.267 380.37 287.244C372.977 282.221 365.994 277.355 351.617 277.355C337.24 277.355 330.257 282.221 322.863 287.244C315.469 292.267 308.075 297.447 293.082 297.447C278.089 297.447 270.696 292.267 263.302 287.244C255.908 282.221 248.925 277.355 234.343 277.355C219.966 277.355 212.983 282.221 205.384 287.244C197.99 292.267 190.596 297.447 175.603 297.447C160.61 297.447 153.216 292.267 145.822 287.244C138.429 282.221 131.445 277.355 117.069 277.355C102.692 277.355 95.7087 282.221 88.3149 287.244C80.9211 292.267 73.5273 297.447 58.5343 297.447C43.5413 297.447 36.1475 292.267 28.7537 287.244C21.3599 282.221 14.3768 277.355 0 277.355V276.257C14.993 276.257 22.3868 281.436 29.7806 286.459C37.1744 291.482 44.1575 296.348 58.5343 296.348C72.9112 296.348 79.8942 291.482 87.288 286.459C94.6818 281.436 102.076 276.257 117.069 276.257C132.062 276.257 139.455 281.436 146.849 286.459C154.243 291.482 161.226 296.348 175.603 296.348C189.98 296.348 196.963 291.482 204.562 286.459C211.956 281.436 219.35 276.257 234.343 276.257C249.336 276.257 256.729 281.436 264.123 286.459C271.517 291.482 278.5 296.348 293.082 296.348C307.459 296.348 314.442 291.482 321.836 286.459C329.23 281.436 336.624 276.257 351.617 276.257C366.61 276.257 374.003 281.436 381.397 286.459C388.791 291.482 395.774 296.348 410.151 296.348C424.528 296.348 431.511 291.482 439.11 286.459C446.504 281.436 453.898 276.257 468.891 276.257C483.884 276.257 491.277 281.436 498.671 286.459C506.065 291.482 513.048 296.348 527.63 296.348C542.007 296.348 548.99 291.482 556.589 286.459C563.983 281.436 571.377 276.257 586.37 276.257C601.363 276.257 608.757 281.436 616.151 286.459C623.545 291.482 630.528 296.348 645.11 296.348C659.487 296.348 666.47 291.482 674.069 286.459C681.463 281.436 688.856 276.257 703.849 276.257C718.842 276.257 726.236 281.436 733.63 286.459C741.024 291.482 748.007 296.348 762.589 296.348V297.447Z" fill="#202994"/>
<path d="M762.589 317.224C747.596 317.224 740.202 312.044 732.809 307.021C725.415 301.998 718.432 297.133 703.849 297.133C689.267 297.133 682.49 301.998 674.89 307.021C667.497 312.044 660.103 317.224 645.11 317.224C630.117 317.224 622.723 312.044 615.329 307.021C607.935 301.998 600.952 297.133 586.37 297.133C571.993 297.133 565.01 301.998 557.411 307.021C550.017 312.044 542.623 317.224 527.63 317.224C512.637 317.224 505.244 312.044 497.85 307.021C490.456 301.998 483.473 297.133 468.891 297.133C454.514 297.133 447.531 301.998 439.932 307.021C432.538 312.044 425.144 317.224 410.151 317.224C395.158 317.224 387.764 312.044 380.37 307.021C372.977 301.998 365.994 297.133 351.617 297.133C337.24 297.133 330.257 301.998 322.863 307.021C315.469 312.044 308.075 317.224 293.082 317.224C278.089 317.224 270.696 312.044 263.302 307.021C255.908 301.998 248.925 297.133 234.343 297.133C219.966 297.133 212.983 301.998 205.384 307.021C197.99 312.044 190.596 317.224 175.603 317.224C160.61 317.224 153.216 312.044 145.822 307.021C138.429 301.998 131.445 297.133 117.069 297.133C102.692 297.133 95.7087 301.998 88.3149 307.021C80.9211 312.044 73.5273 317.224 58.5343 317.224C43.5413 317.224 36.1475 312.044 28.7537 307.021C21.3599 301.998 14.3768 297.133 0 297.133V296.034C14.993 296.034 22.3868 301.214 29.7806 306.236C37.1744 311.259 44.1575 316.125 58.5343 316.125C72.9112 316.125 79.8942 311.259 87.288 306.236C94.6818 301.214 102.076 296.034 117.069 296.034C132.062 296.034 139.455 301.214 146.849 306.236C154.243 311.259 161.226 316.125 175.603 316.125C189.98 316.125 196.963 311.259 204.562 306.236C211.956 301.214 219.35 296.034 234.343 296.034C249.336 296.034 256.729 301.214 264.123 306.236C271.517 311.259 278.5 316.125 293.082 316.125C307.459 316.125 314.442 311.259 321.836 306.236C329.23 301.214 336.624 296.034 351.617 296.034C366.61 296.034 374.003 301.214 381.397 306.236C388.791 311.259 395.774 316.125 410.151 316.125C424.528 316.125 431.511 311.259 439.11 306.236C446.504 301.214 453.898 296.034 468.891 296.034C483.884 296.034 491.277 301.214 498.671 306.236C506.065 311.259 513.048 316.125 527.63 316.125C542.007 316.125 548.99 311.259 556.589 306.236C563.983 301.214 571.377 296.034 586.37 296.034C601.363 296.034 608.757 301.214 616.151 306.236C623.545 311.259 630.528 316.125 645.11 316.125C659.487 316.125 666.47 311.259 674.069 306.236C681.463 301.214 688.856 296.034 703.849 296.034C718.842 296.034 726.236 301.214 733.63 306.236C741.024 311.259 748.007 316.125 762.589 316.125V317.224Z" fill="#202994"/>
<path d="M762.589 337.001C747.596 337.001 740.202 331.821 732.809 326.798C725.415 321.775 718.432 316.91 703.849 316.91C689.267 316.91 682.49 321.775 674.89 326.798C667.497 331.821 660.103 337.001 645.11 337.001C630.117 337.001 622.723 331.821 615.329 326.798C607.935 321.775 600.952 316.91 586.37 316.91C571.993 316.91 565.01 321.775 557.411 326.798C550.017 331.821 542.623 337.001 527.63 337.001C512.637 337.001 505.244 331.821 497.85 326.798C490.456 321.775 483.473 316.91 468.891 316.91C454.514 316.91 447.531 321.775 439.932 326.798C432.538 331.821 425.144 337.001 410.151 337.001C395.158 337.001 387.764 331.821 380.37 326.798C372.977 321.775 365.994 316.91 351.617 316.91C337.24 316.91 330.257 321.775 322.863 326.798C315.469 331.821 308.075 337.001 293.082 337.001C278.089 337.001 270.696 331.821 263.302 326.798C255.908 321.775 248.925 316.91 234.343 316.91C219.966 316.91 212.983 321.775 205.384 326.798C197.99 331.821 190.596 337.001 175.603 337.001C160.61 337.001 153.216 331.821 145.822 326.798C138.429 321.775 131.445 316.91 117.069 316.91C102.692 316.91 95.7087 321.775 88.3149 326.798C80.9211 331.821 73.5273 337.001 58.5343 337.001C43.5413 337.001 36.1475 331.821 28.7537 326.798C21.3599 321.775 14.3768 316.91 0 316.91V315.811C14.993 315.811 22.3868 320.991 29.7806 326.014C37.1744 331.036 44.1575 335.902 58.5343 335.902C72.9112 335.902 79.8942 331.036 87.288 326.014C94.6818 320.991 102.076 315.811 117.069 315.811C132.062 315.811 139.455 320.991 146.849 326.014C154.243 331.036 161.226 335.902 175.603 335.902C189.98 335.902 196.963 331.036 204.562 326.014C211.956 320.991 219.35 315.811 234.343 315.811C249.336 315.811 256.729 320.991 264.123 326.014C271.517 331.036 278.5 335.902 293.082 335.902C307.459 335.902 314.442 331.036 321.836 326.014C329.23 320.991 336.624 315.811 351.617 315.811C366.61 315.811 374.003 320.991 381.397 326.014C388.791 331.036 395.774 335.902 410.151 335.902C424.528 335.902 431.511 331.036 439.11 326.014C446.504 320.991 453.898 315.811 468.891 315.811C483.884 315.811 491.277 320.991 498.671 326.014C506.065 331.036 513.048 335.902 527.63 335.902C542.007 335.902 548.99 331.036 556.589 326.014C563.983 320.991 571.377 315.811 586.37 315.811C601.363 315.811 608.757 320.991 616.151 326.014C623.545 331.036 630.528 335.902 645.11 335.902C659.487 335.902 666.47 331.036 674.069 326.014C681.463 320.991 688.856 315.811 703.849 315.811C718.842 315.811 726.236 320.991 733.63 326.014C741.024 331.036 748.007 335.902 762.589 335.902V337.001Z" fill="#202994"/>
<path d="M762.589 356.78C747.596 356.78 740.202 351.6 732.809 346.577C725.415 341.554 718.432 336.689 703.849 336.689C689.267 336.689 682.49 341.554 674.89 346.577C667.497 351.6 660.103 356.78 645.11 356.78C630.117 356.78 622.723 351.6 615.329 346.577C607.935 341.554 600.952 336.689 586.37 336.689C571.993 336.689 565.01 341.554 557.411 346.577C550.017 351.6 542.623 356.78 527.63 356.78C512.637 356.78 505.244 351.6 497.85 346.577C490.456 341.554 483.473 336.689 468.891 336.689C454.514 336.689 447.531 341.554 439.932 346.577C432.538 351.6 425.144 356.78 410.151 356.78C395.158 356.78 387.764 351.6 380.37 346.577C372.977 341.554 365.994 336.689 351.617 336.689C337.24 336.689 330.257 341.554 322.863 346.577C315.469 351.6 308.075 356.78 293.082 356.78C278.089 356.78 270.696 351.6 263.302 346.577C255.908 341.554 248.925 336.689 234.343 336.689C219.966 336.689 212.983 341.554 205.384 346.577C197.99 351.6 190.596 356.78 175.603 356.78C160.61 356.78 153.216 351.6 145.822 346.577C138.429 341.554 131.445 336.689 117.069 336.689C102.692 336.689 95.7087 341.554 88.3149 346.577C80.9211 351.6 73.5273 356.78 58.5343 356.78C43.5413 356.78 36.1475 351.6 28.7537 346.577C21.3599 341.554 14.3768 336.689 0 336.689V335.59C14.993 335.59 22.3868 340.77 29.7806 345.792C37.1744 350.815 44.1575 355.681 58.5343 355.681C72.9112 355.681 79.8942 350.815 87.288 345.792C94.6818 340.77 102.076 335.59 117.069 335.59C132.062 335.59 139.455 340.77 146.849 345.792C154.243 350.815 161.226 355.681 175.603 355.681C189.98 355.681 196.963 350.815 204.562 345.792C211.956 340.77 219.35 335.59 234.343 335.59C249.336 335.59 256.729 340.77 264.123 345.792C271.517 350.815 278.5 355.681 293.082 355.681C307.459 355.681 314.442 350.815 321.836 345.792C329.23 340.77 336.624 335.59 351.617 335.59C366.61 335.59 374.003 340.77 381.397 345.792C388.791 350.815 395.774 355.681 410.151 355.681C424.528 355.681 431.511 350.815 439.11 345.792C446.504 340.77 453.898 335.59 468.891 335.59C483.884 335.59 491.277 340.77 498.671 345.792C506.065 350.815 513.048 355.681 527.63 355.681C542.007 355.681 548.99 350.815 556.589 345.792C563.983 340.77 571.377 335.59 586.37 335.59C601.363 335.59 608.757 340.77 616.151 345.792C623.545 350.815 630.528 355.681 645.11 355.681C659.487 355.681 666.47 350.815 674.069 345.792C681.463 340.77 688.856 335.59 703.849 335.59C718.842 335.59 726.236 340.77 733.63 345.792C741.024 350.815 748.007 355.681 762.589 355.681V356.78Z" fill="#202994"/>
<path d="M762.589 376.4C747.596 376.4 740.202 371.22 732.809 366.197C725.415 361.174 718.432 356.309 703.849 356.309C689.267 356.309 682.49 361.174 674.89 366.197C667.497 371.22 660.103 376.4 645.11 376.4C630.117 376.4 622.723 371.22 615.329 366.197C607.935 361.174 600.952 356.309 586.37 356.309C571.993 356.309 565.01 361.174 557.411 366.197C550.017 371.22 542.623 376.4 527.63 376.4C512.637 376.4 505.244 371.22 497.85 366.197C490.456 361.174 483.473 356.309 468.891 356.309C454.514 356.309 447.531 361.174 439.932 366.197C432.538 371.22 425.144 376.4 410.151 376.4C395.158 376.4 387.764 371.22 380.37 366.197C372.977 361.174 365.994 356.309 351.617 356.309C337.24 356.309 330.257 361.174 322.863 366.197C315.469 371.22 308.075 376.4 293.082 376.4C278.089 376.4 270.696 371.22 263.302 366.197C255.908 361.174 248.925 356.309 234.343 356.309C219.966 356.309 212.983 361.174 205.384 366.197C197.99 371.22 190.596 376.4 175.603 376.4C160.61 376.4 153.216 371.22 145.822 366.197C138.429 361.174 131.445 356.309 117.069 356.309C102.692 356.309 95.7087 361.174 88.3149 366.197C80.9211 371.22 73.5273 376.4 58.5343 376.4C43.5413 376.4 36.1475 371.22 28.7537 366.197C21.3599 361.174 14.3768 356.309 0 356.309V355.21C14.993 355.21 22.3868 360.39 29.7806 365.412C37.1744 370.435 44.1575 375.301 58.5343 375.301C72.9112 375.301 79.8942 370.435 87.288 365.412C94.6818 360.39 102.076 355.21 117.069 355.21C132.062 355.21 139.455 360.39 146.849 365.412C154.243 370.435 161.226 375.301 175.603 375.301C189.98 375.301 196.963 370.435 204.562 365.412C211.956 360.39 219.35 355.21 234.343 355.21C249.336 355.21 256.729 360.39 264.123 365.412C271.517 370.435 278.5 375.301 293.082 375.301C307.459 375.301 314.442 370.435 321.836 365.412C329.23 360.39 336.624 355.21 351.617 355.21C366.61 355.21 374.003 360.39 381.397 365.412C388.791 370.435 395.774 375.301 410.151 375.301C424.528 375.301 431.511 370.435 439.11 365.412C446.504 360.39 453.898 355.21 468.891 355.21C483.884 355.21 491.277 360.39 498.671 365.412C506.065 370.435 513.048 375.301 527.63 375.301C542.007 375.301 548.99 370.435 556.589 365.412C563.983 360.39 571.377 355.21 586.37 355.21C601.363 355.21 608.757 360.39 616.151 365.412C623.545 370.435 630.528 375.301 645.11 375.301C659.487 375.301 666.47 370.435 674.069 365.412C681.463 360.39 688.856 355.21 703.849 355.21C718.842 355.21 726.236 360.39 733.63 365.412C741.024 370.435 748.007 375.301 762.589 375.301V376.4Z" fill="#202994"/>
<path d="M762.589 396.177C747.596 396.177 740.202 390.997 732.809 385.974C725.415 380.952 718.432 376.086 703.849 376.086C689.267 376.086 682.49 380.952 674.89 385.974C667.497 390.997 660.103 396.177 645.11 396.177C630.117 396.177 622.723 390.997 615.329 385.974C607.935 380.952 600.952 376.086 586.37 376.086C571.993 376.086 565.01 380.952 557.411 385.974C550.017 390.997 542.623 396.177 527.63 396.177C512.637 396.177 505.244 390.997 497.85 385.974C490.456 380.952 483.473 376.086 468.891 376.086C454.514 376.086 447.531 380.952 439.932 385.974C432.538 390.997 425.144 396.177 410.151 396.177C395.158 396.177 387.764 390.997 380.37 385.974C372.977 380.952 365.994 376.086 351.617 376.086C337.24 376.086 330.257 380.952 322.863 385.974C315.469 390.997 308.075 396.177 293.082 396.177C278.089 396.177 270.696 390.997 263.302 385.974C255.908 380.952 248.925 376.086 234.343 376.086C219.966 376.086 212.983 380.952 205.384 385.974C197.99 390.997 190.596 396.177 175.603 396.177C160.61 396.177 153.216 390.997 145.822 385.974C138.429 380.952 131.445 376.086 117.069 376.086C102.692 376.086 95.7087 380.952 88.3149 385.974C80.9211 390.997 73.5273 396.177 58.5343 396.177C43.5413 396.177 36.1475 390.997 28.7537 385.974C21.3599 380.952 14.3768 376.086 0 376.086V374.987C14.993 374.987 22.3868 380.167 29.7806 385.19C37.1744 390.212 44.1575 395.078 58.5343 395.078C72.9112 395.078 79.8942 390.212 87.288 385.19C94.6818 380.167 102.076 374.987 117.069 374.987C132.062 374.987 139.455 380.167 146.849 385.19C154.243 390.212 161.226 395.078 175.603 395.078C189.98 395.078 196.963 390.212 204.562 385.19C211.956 380.167 219.35 374.987 234.343 374.987C249.336 374.987 256.729 380.167 264.123 385.19C271.517 390.212 278.5 395.078 293.082 395.078C307.459 395.078 314.442 390.212 321.836 385.19C329.23 380.167 336.624 374.987 351.617 374.987C366.61 374.987 374.003 380.167 381.397 385.19C388.791 390.212 395.774 395.078 410.151 395.078C424.528 395.078 431.511 390.212 439.11 385.19C446.504 380.167 453.898 374.987 468.891 374.987C483.884 374.987 491.277 380.167 498.671 385.19C506.065 390.212 513.048 395.078 527.63 395.078C542.007 395.078 548.99 390.212 556.589 385.19C563.983 380.167 571.377 374.987 586.37 374.987C601.363 374.987 608.757 380.167 616.151 385.19C623.545 390.212 630.528 395.078 645.11 395.078C659.487 395.078 666.47 390.212 674.069 385.19C681.463 380.167 688.856 374.987 703.849 374.987C718.842 374.987 726.236 380.167 733.63 385.19C741.024 390.212 748.007 395.078 762.589 395.078V396.177Z" fill="#202994"/>
<path d="M762.589 415.954C747.596 415.954 740.203 410.774 732.809 405.751C725.415 400.729 718.432 395.863 703.85 395.863C689.267 395.863 682.49 400.729 674.891 405.751C667.497 410.774 660.103 415.954 645.11 415.954C630.117 415.954 622.723 410.774 615.329 405.751C607.935 400.729 600.953 395.863 586.37 395.863C571.993 395.863 565.01 400.729 557.411 405.751C550.017 410.774 542.624 415.954 527.63 415.954C512.638 415.954 505.244 410.774 497.85 405.751C490.456 400.729 483.473 395.863 468.891 395.863C454.514 395.863 447.531 400.729 439.932 405.751C432.538 410.774 425.144 415.954 410.151 415.954C395.158 415.954 387.764 410.774 380.371 405.751C372.977 400.729 365.994 395.863 351.617 395.863C337.24 395.863 330.257 400.729 322.863 405.751C315.469 410.774 308.076 415.954 293.083 415.954C278.09 415.954 270.696 410.774 263.302 405.751C255.908 400.729 248.925 395.863 234.343 395.863C219.966 395.863 212.983 400.729 205.384 405.751C197.99 410.774 190.596 415.954 175.603 415.954C160.61 415.954 153.216 410.774 145.823 405.751C138.429 400.729 131.446 395.863 117.069 395.863C102.692 395.863 95.7089 400.729 88.3151 405.751C80.9213 410.774 73.5275 415.954 58.5345 415.954C43.5415 415.954 36.1477 410.774 28.7539 405.751C21.3601 400.729 14.377 395.863 0.000181304 395.863V394.764C14.9932 394.764 22.387 399.944 29.7808 404.967C37.1746 409.989 44.1576 414.855 58.5345 414.855C72.9113 414.855 79.8944 409.989 87.2882 404.967C94.682 399.944 102.076 394.764 117.069 394.764C132.062 394.764 139.456 399.944 146.849 404.967C154.243 409.989 161.226 414.855 175.603 414.855C189.98 414.855 196.963 409.989 204.562 404.967C211.956 399.944 219.35 394.764 234.343 394.764C249.336 394.764 256.73 399.944 264.123 404.967C271.517 409.989 278.5 414.855 293.083 414.855C307.459 414.855 314.442 409.989 321.836 404.967C329.23 399.944 336.624 394.764 351.617 394.764C366.61 394.764 374.004 399.944 381.397 404.967C388.791 409.989 395.774 414.855 410.151 414.855C424.528 414.855 431.511 409.989 439.11 404.967C446.504 399.944 453.898 394.764 468.891 394.764C483.884 394.764 491.278 399.944 498.671 404.967C506.065 409.989 513.048 414.855 527.63 414.855C542.007 414.855 548.99 409.989 556.59 404.967C563.983 399.944 571.377 394.764 586.37 394.764C601.363 394.764 608.757 399.944 616.151 404.967C623.545 409.989 630.528 414.855 645.11 414.855C659.487 414.855 666.47 409.989 674.069 404.967C681.463 399.944 688.857 394.764 703.85 394.764C718.843 394.764 726.236 399.944 733.63 404.967C741.024 409.989 748.007 414.855 762.589 414.855V415.954Z" fill="#202994"/>
<path d="M762.589 435.731C747.596 435.731 740.202 430.552 732.809 425.529C725.415 420.506 718.432 415.64 703.849 415.64C689.267 415.64 682.49 420.506 674.89 425.529C667.497 430.552 660.103 435.731 645.11 435.731C630.117 435.731 622.723 430.552 615.329 425.529C607.935 420.506 600.952 415.64 586.37 415.64C571.993 415.64 565.01 420.506 557.411 425.529C550.017 430.552 542.623 435.731 527.63 435.731C512.637 435.731 505.244 430.552 497.85 425.529C490.456 420.506 483.473 415.64 468.891 415.64C454.514 415.64 447.531 420.506 439.932 425.529C432.538 430.552 425.144 435.731 410.151 435.731C395.158 435.731 387.764 430.552 380.37 425.529C372.977 420.506 365.994 415.64 351.617 415.64C337.24 415.64 330.257 420.506 322.863 425.529C315.469 430.552 308.075 435.731 293.082 435.731C278.089 435.731 270.696 430.552 263.302 425.529C255.908 420.506 248.925 415.64 234.343 415.64C219.966 415.64 212.983 420.506 205.384 425.529C197.99 430.552 190.596 435.731 175.603 435.731C160.61 435.731 153.216 430.552 145.822 425.529C138.429 420.506 131.445 415.64 117.069 415.64C102.692 415.64 95.7087 420.506 88.3149 425.529C80.9211 430.552 73.5273 435.731 58.5343 435.731C43.5413 435.731 36.1475 430.552 28.7537 425.529C21.3599 420.506 14.3768 415.64 0 415.64V414.541C14.993 414.541 22.3868 419.721 29.7806 424.744C37.1744 429.767 44.1575 434.633 58.5343 434.633C72.9112 434.633 79.8942 429.767 87.288 424.744C94.6818 419.721 102.076 414.541 117.069 414.541C132.062 414.541 139.455 419.721 146.849 424.744C154.243 429.767 161.226 434.633 175.603 434.633C189.98 434.633 196.963 429.767 204.562 424.744C211.956 419.721 219.35 414.541 234.343 414.541C249.336 414.541 256.729 419.721 264.123 424.744C271.517 429.767 278.5 434.633 293.082 434.633C307.459 434.633 314.442 429.767 321.836 424.744C329.23 419.721 336.624 414.541 351.617 414.541C366.61 414.541 374.003 419.721 381.397 424.744C388.791 429.767 395.774 434.633 410.151 434.633C424.528 434.633 431.511 429.767 439.11 424.744C446.504 419.721 453.898 414.541 468.891 414.541C483.884 414.541 491.277 419.721 498.671 424.744C506.065 429.767 513.048 434.633 527.63 434.633C542.007 434.633 548.99 429.767 556.589 424.744C563.983 419.721 571.377 414.541 586.37 414.541C601.363 414.541 608.757 419.721 616.151 424.744C623.545 429.767 630.528 434.633 645.11 434.633C659.487 434.633 666.47 429.767 674.069 424.744C681.463 419.721 688.856 414.541 703.849 414.541C718.842 414.541 726.236 419.721 733.63 424.744C741.024 429.767 748.007 434.633 762.589 434.633V435.731Z" fill="#202994"/>
<path d="M762.589 455.351C747.596 455.351 740.202 450.172 732.809 445.149C725.415 440.126 718.432 435.26 703.849 435.26C689.267 435.26 682.49 440.126 674.89 445.149C667.497 450.172 660.103 455.351 645.11 455.351C630.117 455.351 622.723 450.172 615.329 445.149C607.935 440.126 600.952 435.26 586.37 435.26C571.993 435.26 565.01 440.126 557.411 445.149C550.017 450.172 542.623 455.351 527.63 455.351C512.637 455.351 505.244 450.172 497.85 445.149C490.456 440.126 483.473 435.26 468.891 435.26C454.514 435.26 447.531 440.126 439.932 445.149C432.538 450.172 425.144 455.351 410.151 455.351C395.158 455.351 387.764 450.172 380.37 445.149C372.977 440.126 365.994 435.26 351.617 435.26C337.24 435.26 330.257 440.126 322.863 445.149C315.469 450.172 308.075 455.351 293.082 455.351C278.089 455.351 270.696 450.172 263.302 445.149C255.908 440.126 248.925 435.26 234.343 435.26C219.966 435.26 212.983 440.126 205.384 445.149C197.99 450.172 190.596 455.351 175.603 455.351C160.61 455.351 153.216 450.172 145.822 445.149C138.429 440.126 131.445 435.26 117.069 435.26C102.692 435.26 95.7087 440.126 88.3149 445.149C80.9211 450.172 73.5273 455.351 58.5343 455.351C43.5413 455.351 36.1475 450.172 28.7537 445.149C21.3599 440.126 14.3768 435.26 0 435.26V434.161C14.993 434.161 22.3868 439.341 29.7806 444.364C37.1744 449.387 44.1575 454.253 58.5343 454.253C72.9112 454.253 79.8942 449.387 87.288 444.364C94.6818 439.341 102.076 434.161 117.069 434.161C132.062 434.161 139.455 439.341 146.849 444.364C154.243 449.387 161.226 454.253 175.603 454.253C189.98 454.253 196.963 449.387 204.562 444.364C211.956 439.341 219.35 434.161 234.343 434.161C249.336 434.161 256.729 439.341 264.123 444.364C271.517 449.387 278.5 454.253 293.082 454.253C307.459 454.253 314.442 449.387 321.836 444.364C329.23 439.341 336.624 434.161 351.617 434.161C366.61 434.161 374.003 439.341 381.397 444.364C388.791 449.387 395.774 454.253 410.151 454.253C424.528 454.253 431.511 449.387 439.11 444.364C446.504 439.341 453.898 434.161 468.891 434.161C483.884 434.161 491.277 439.341 498.671 444.364C506.065 449.387 513.048 454.253 527.63 454.253C542.007 454.253 548.99 449.387 556.589 444.364C563.983 439.341 571.377 434.161 586.37 434.161C601.363 434.161 608.757 439.341 616.151 444.364C623.545 449.387 630.528 454.253 645.11 454.253C659.487 454.253 666.47 449.387 674.069 444.364C681.463 439.341 688.856 434.161 703.849 434.161C718.842 434.161 726.236 439.341 733.63 444.364C741.024 449.387 748.007 454.253 762.589 454.253V455.351Z" fill="#202994"/>
<path d="M762.589 475.13C747.596 475.13 740.202 469.95 732.809 464.927C725.415 459.905 718.432 455.039 703.849 455.039C689.267 455.039 682.49 459.905 674.89 464.927C667.497 469.95 660.103 475.13 645.11 475.13C630.117 475.13 622.723 469.95 615.329 464.927C607.935 459.905 600.952 455.039 586.37 455.039C571.993 455.039 565.01 459.905 557.411 464.927C550.017 469.95 542.623 475.13 527.63 475.13C512.637 475.13 505.244 469.95 497.85 464.927C490.456 459.905 483.473 455.039 468.891 455.039C454.514 455.039 447.531 459.905 439.932 464.927C432.538 469.95 425.144 475.13 410.151 475.13C395.158 475.13 387.764 469.95 380.37 464.927C372.977 459.905 365.994 455.039 351.617 455.039C337.24 455.039 330.257 459.905 322.863 464.927C315.469 469.95 308.075 475.13 293.082 475.13C278.089 475.13 270.696 469.95 263.302 464.927C255.908 459.905 248.925 455.039 234.343 455.039C219.966 455.039 212.983 459.905 205.384 464.927C197.99 469.95 190.596 475.13 175.603 475.13C160.61 475.13 153.216 469.95 145.822 464.927C138.429 459.905 131.445 455.039 117.069 455.039C102.692 455.039 95.7087 459.905 88.3149 464.927C80.9211 469.95 73.5273 475.13 58.5343 475.13C43.5413 475.13 36.1475 469.95 28.7537 464.927C21.3599 459.905 14.3768 455.039 0 455.039V453.94C14.993 453.94 22.3868 459.12 29.7806 464.143C37.1744 469.165 44.1575 474.031 58.5343 474.031C72.9112 474.031 79.8942 469.165 87.288 464.143C94.6818 459.12 102.076 453.94 117.069 453.94C132.062 453.94 139.455 459.12 146.849 464.143C154.243 469.165 161.226 474.031 175.603 474.031C189.98 474.031 196.963 469.165 204.562 464.143C211.956 459.12 219.35 453.94 234.343 453.94C249.336 453.94 256.729 459.12 264.123 464.143C271.517 469.165 278.5 474.031 293.082 474.031C307.459 474.031 314.442 469.165 321.836 464.143C329.23 459.12 336.624 453.94 351.617 453.94C366.61 453.94 374.003 459.12 381.397 464.143C388.791 469.165 395.774 474.031 410.151 474.031C424.528 474.031 431.511 469.165 439.11 464.143C446.504 459.12 453.898 453.94 468.891 453.94C483.884 453.94 491.277 459.12 498.671 464.143C506.065 469.165 513.048 474.031 527.63 474.031C542.007 474.031 548.99 469.165 556.589 464.143C563.983 459.12 571.377 453.94 586.37 453.94C601.363 453.94 608.757 459.12 616.151 464.143C623.545 469.165 630.528 474.031 645.11 474.031C659.487 474.031 666.47 469.165 674.069 464.143C681.463 459.12 688.856 453.94 703.849 453.94C718.842 453.94 726.236 459.12 733.63 464.143C741.024 469.165 748.007 474.031 762.589 474.031V475.13Z" fill="#202994"/>
<path d="M762.589 494.907C747.596 494.907 740.202 489.728 732.809 484.705C725.415 479.682 718.432 474.816 703.849 474.816C689.267 474.816 682.49 479.682 674.89 484.705C667.497 489.728 660.103 494.907 645.11 494.907C630.117 494.907 622.723 489.728 615.329 484.705C607.935 479.682 600.952 474.816 586.37 474.816C571.993 474.816 565.01 479.682 557.411 484.705C550.017 489.728 542.623 494.907 527.63 494.907C512.637 494.907 505.244 489.728 497.85 484.705C490.456 479.682 483.473 474.816 468.891 474.816C454.514 474.816 447.531 479.682 439.932 484.705C432.538 489.728 425.144 494.907 410.151 494.907C395.158 494.907 387.764 489.728 380.37 484.705C372.977 479.682 365.994 474.816 351.617 474.816C337.24 474.816 330.257 479.682 322.863 484.705C315.469 489.728 308.075 494.907 293.082 494.907C278.089 494.907 270.696 489.728 263.302 484.705C255.908 479.682 248.925 474.816 234.343 474.816C219.966 474.816 212.983 479.682 205.384 484.705C197.99 489.728 190.596 494.907 175.603 494.907C160.61 494.907 153.216 489.728 145.822 484.705C138.429 479.682 131.445 474.816 117.069 474.816C102.692 474.816 95.7087 479.682 88.3149 484.705C80.9211 489.728 73.5273 494.907 58.5343 494.907C43.5413 494.907 36.1475 489.728 28.7537 484.705C21.3599 479.682 14.3768 474.816 0 474.816V473.717C14.993 473.717 22.3868 478.897 29.7806 483.92C37.1744 488.943 44.1575 493.809 58.5343 493.809C72.9112 493.809 79.8942 488.943 87.288 483.92C94.6818 478.897 102.076 473.717 117.069 473.717C132.062 473.717 139.455 478.897 146.849 483.92C154.243 488.943 161.226 493.809 175.603 493.809C189.98 493.809 196.963 488.943 204.562 483.92C211.956 478.897 219.35 473.717 234.343 473.717C249.336 473.717 256.729 478.897 264.123 483.92C271.517 488.943 278.5 493.809 293.082 493.809C307.459 493.809 314.442 488.943 321.836 483.92C329.23 478.897 336.624 473.717 351.617 473.717C366.61 473.717 374.003 478.897 381.397 483.92C388.791 488.943 395.774 493.809 410.151 493.809C424.528 493.809 431.511 488.943 439.11 483.92C446.504 478.897 453.898 473.717 468.891 473.717C483.884 473.717 491.277 478.897 498.671 483.92C506.065 488.943 513.048 493.809 527.63 493.809C542.007 493.809 548.99 488.943 556.589 483.92C563.983 478.897 571.377 473.717 586.37 473.717C601.363 473.717 608.757 478.897 616.151 483.92C623.545 488.943 630.528 493.809 645.11 493.809C659.487 493.809 666.47 488.943 674.069 483.92C681.463 478.897 688.856 473.717 703.849 473.717C718.842 473.717 726.236 478.897 733.63 483.92C741.024 488.943 748.007 493.809 762.589 493.809V494.907Z" fill="#202994"/>
</svg>
