<svg width="225" height="293" viewBox="0 0 225 293" fill="none" xmlns="http://www.w3.org/2000/svg">
<path d="M452.756 12.5452C443.855 12.5452 439.465 9.47859 435.075 6.50491C430.685 3.53124 426.539 0.650491 417.882 0.650491C409.224 0.650491 405.2 3.53124 400.689 6.50491C396.299 9.47859 391.909 12.5452 383.007 12.5452C374.106 12.5452 369.716 9.47859 365.326 6.50491C360.937 3.53124 356.791 0.650491 348.133 0.650491C339.598 0.650491 335.452 3.53124 330.94 6.50491C326.55 9.47859 322.16 12.5452 313.259 12.5452C304.357 12.5452 299.968 9.47859 295.578 6.50491C291.188 3.53124 287.042 0.650491 278.385 0.650491C269.849 0.650491 265.703 3.53124 261.191 6.50491C256.802 9.47859 252.412 12.5452 243.51 12.5452C234.609 12.5452 230.219 9.47859 225.829 6.50491C221.44 3.53124 217.294 0.650491 208.758 0.650491C200.222 0.650491 196.076 3.53124 191.687 6.50491C187.297 9.47859 182.907 12.5452 174.006 12.5452C165.104 12.5452 160.714 9.47859 156.325 6.50491C151.935 3.53124 147.789 0.650491 139.131 0.650491C130.596 0.650491 126.45 3.53124 121.938 6.50491C117.548 9.47859 113.159 12.5452 104.257 12.5452C95.3556 12.5452 90.9658 9.47859 86.576 6.50491C82.1863 3.53124 78.0404 0.650491 69.5047 0.650491C60.969 0.650491 56.8231 3.53124 52.4334 6.50491C48.0436 9.47859 43.6538 12.5452 34.7523 12.5452C25.8509 12.5452 21.4611 9.47859 17.0713 6.50491C12.6816 3.53124 8.53567 0.650491 0 0.650491V0C8.90148 0 13.2913 3.0666 17.681 6.04028C22.0708 9.01395 26.2167 11.8947 34.7523 11.8947C43.288 11.8947 47.4339 9.01395 51.8237 6.04028C56.2135 3.0666 60.6032 0 69.5047 0C78.4062 0 82.796 3.0666 87.1857 6.04028C91.5755 9.01395 95.7214 11.8947 104.257 11.8947C112.793 11.8947 116.939 9.01395 121.45 6.04028C125.84 3.0666 130.23 0 139.131 0C148.033 0 152.423 3.0666 156.812 6.04028C161.202 9.01395 165.348 11.8947 174.006 11.8947C182.541 11.8947 186.687 9.01395 191.077 6.04028C195.467 3.0666 199.857 0 208.758 0C217.659 0 222.049 3.0666 226.439 6.04028C230.829 9.01395 234.975 11.8947 243.51 11.8947C252.046 11.8947 256.192 9.01395 260.704 6.04028C265.093 3.0666 269.483 0 278.385 0C287.286 0 291.676 3.0666 296.066 6.04028C300.821 9.10688 304.967 11.8947 313.503 11.8947C322.038 11.8947 326.184 9.01395 330.696 6.04028C335.086 3.0666 339.476 0 348.377 0C357.279 0 361.668 3.0666 366.058 6.04028C370.448 9.01395 374.594 11.8947 383.251 11.8947C391.787 11.8947 395.933 9.01395 400.445 6.04028C404.834 3.0666 409.224 0 418.126 0C427.027 0 431.417 3.0666 435.807 6.04028C440.196 9.01395 444.342 11.8947 453 11.8947V12.5452H452.756Z" fill="#202994"/>
<path d="M452.756 24.2539C443.855 24.2539 439.465 21.1873 435.075 18.2136C430.685 15.2399 426.539 12.3592 417.882 12.3592C409.224 12.3592 405.2 15.2399 400.689 18.2136C396.299 21.1873 391.909 24.2539 383.007 24.2539C374.106 24.2539 369.716 21.1873 365.326 18.2136C360.937 15.2399 356.791 12.3592 348.133 12.3592C339.598 12.3592 335.452 15.2399 330.94 18.2136C326.55 21.1873 322.16 24.2539 313.259 24.2539C304.357 24.2539 299.968 21.1873 295.578 18.2136C291.188 15.2399 287.042 12.3592 278.385 12.3592C269.849 12.3592 265.703 15.2399 261.191 18.2136C256.802 21.1873 252.412 24.2539 243.51 24.2539C234.609 24.2539 230.219 21.1873 225.829 18.2136C221.44 15.2399 217.294 12.3592 208.758 12.3592C200.222 12.3592 196.076 15.2399 191.687 18.2136C187.297 21.1873 182.907 24.2539 174.006 24.2539C165.104 24.2539 160.714 21.1873 156.325 18.2136C151.935 15.2399 147.789 12.3592 139.131 12.3592C130.596 12.3592 126.45 15.2399 121.938 18.2136C117.548 21.1873 113.159 24.2539 104.257 24.2539C95.3556 24.2539 90.9658 21.1873 86.576 18.2136C82.1863 15.2399 78.0404 12.3592 69.5047 12.3592C60.969 12.3592 56.8231 15.2399 52.4334 18.2136C48.0436 21.1873 43.6538 24.2539 34.7523 24.2539C25.8509 24.2539 21.4611 21.1873 17.0713 18.2136C12.6816 15.2399 8.53567 12.3592 0 12.3592V11.7087C8.90148 11.7087 13.2913 14.7753 17.681 17.749C22.0708 20.7226 26.2167 23.6034 34.7523 23.6034C43.288 23.6034 47.4339 20.7226 51.8237 17.749C56.2135 14.7753 60.6032 11.7087 69.5047 11.7087C78.4062 11.7087 82.796 14.7753 87.1857 17.749C91.5755 20.7226 95.7214 23.6034 104.257 23.6034C112.793 23.6034 116.939 20.7226 121.45 17.749C125.84 14.7753 130.23 11.7087 139.131 11.7087C148.033 11.7087 152.423 14.7753 156.812 17.749C161.202 20.7226 165.348 23.6034 174.006 23.6034C182.541 23.6034 186.687 20.7226 191.077 17.749C195.467 14.7753 199.857 11.7087 208.758 11.7087C217.659 11.7087 222.049 14.7753 226.439 17.749C230.829 20.7226 234.975 23.6034 243.51 23.6034C252.046 23.6034 256.192 20.7226 260.704 17.749C265.093 14.7753 269.483 11.7087 278.385 11.7087C287.286 11.7087 291.676 14.7753 296.066 17.749C300.455 20.7226 304.601 23.6034 313.259 23.6034C321.795 23.6034 325.94 20.7226 330.452 17.749C334.842 14.7753 339.232 11.7087 348.133 11.7087C357.035 11.7087 361.424 14.7753 365.814 17.749C370.204 20.7226 374.35 23.6034 383.007 23.6034C391.543 23.6034 395.689 20.7226 400.201 17.749C404.59 14.7753 408.98 11.7087 417.882 11.7087C426.783 11.7087 431.173 14.7753 435.563 17.749C439.953 20.7226 444.098 23.6034 452.756 23.6034V24.2539Z" fill="#202994"/>
<path d="M452.756 35.9625C443.855 35.9625 439.465 32.8959 435.075 29.9223C430.685 26.9486 426.539 24.0678 417.882 24.0678C409.224 24.0678 405.2 26.9486 400.689 29.9223C396.299 32.8959 391.909 35.9625 383.007 35.9625C374.106 35.9625 369.716 32.8959 365.326 29.9223C360.937 26.9486 356.791 24.0678 348.133 24.0678C339.598 24.0678 335.452 26.9486 330.94 29.9223C326.55 32.8959 322.16 35.9625 313.259 35.9625C304.357 35.9625 299.968 32.8959 295.578 29.9223C291.188 26.9486 287.042 24.0678 278.385 24.0678C269.849 24.0678 265.703 26.9486 261.191 29.9223C256.802 32.8959 252.412 35.9625 243.51 35.9625C234.609 35.9625 230.219 32.8959 225.829 29.9223C221.44 26.9486 217.294 24.0678 208.758 24.0678C200.222 24.0678 196.076 26.9486 191.687 29.9223C187.297 32.8959 182.907 35.9625 174.006 35.9625C165.104 35.9625 160.714 32.8959 156.325 29.9223C151.935 26.9486 147.789 24.0678 139.131 24.0678C130.596 24.0678 126.45 26.9486 121.938 29.9223C117.548 32.8959 113.159 35.9625 104.257 35.9625C95.3556 35.9625 90.9658 32.8959 86.576 29.9223C82.1863 26.9486 78.0404 24.0678 69.5047 24.0678C60.969 24.0678 56.8231 26.9486 52.4334 29.9223C48.0436 32.8959 43.6538 35.9625 34.7523 35.9625C25.8509 35.9625 21.4611 32.8959 17.0713 29.9223C12.6816 26.9486 8.53567 24.0678 0 24.0678V23.4174C8.90148 23.4174 13.2913 26.484 17.681 29.4576C22.0708 32.4313 26.2167 35.3121 34.7523 35.3121C43.288 35.3121 47.4339 32.4313 51.8237 29.4576C56.2135 26.484 60.6032 23.4174 69.5047 23.4174C78.4062 23.4174 82.796 26.484 87.1857 29.4576C91.5755 32.4313 95.7214 35.3121 104.257 35.3121C112.793 35.3121 116.939 32.4313 121.45 29.4576C125.84 26.484 130.23 23.4174 139.131 23.4174C148.033 23.4174 152.423 26.484 156.812 29.4576C161.202 32.4313 165.348 35.3121 174.006 35.3121C182.541 35.3121 186.687 32.4313 191.077 29.4576C195.467 26.484 199.857 23.4174 208.758 23.4174C217.659 23.4174 222.049 26.484 226.439 29.4576C230.829 32.4313 234.975 35.3121 243.51 35.3121C252.046 35.3121 256.192 32.4313 260.704 29.4576C265.093 26.484 269.483 23.4174 278.385 23.4174C287.286 23.4174 291.676 26.484 296.066 29.4576C300.455 32.4313 304.601 35.3121 313.259 35.3121C321.795 35.3121 325.94 32.4313 330.452 29.4576C334.842 26.484 339.232 23.4174 348.133 23.4174C357.035 23.4174 361.424 26.484 365.814 29.4576C370.204 32.4313 374.35 35.3121 383.007 35.3121C391.543 35.3121 395.689 32.4313 400.201 29.4576C404.59 26.484 408.98 23.4174 417.882 23.4174C426.783 23.4174 431.173 26.484 435.563 29.4576C439.953 32.4313 444.098 35.3121 452.756 35.3121V35.9625Z" fill="#202994"/>
<path d="M452.756 47.5783C443.855 47.5783 439.465 44.5117 435.075 41.538C430.685 38.5643 426.539 35.6836 417.882 35.6836C409.224 35.6836 405.2 38.5643 400.689 41.538C396.299 44.5117 391.909 47.5783 383.007 47.5783C374.106 47.5783 369.716 44.5117 365.326 41.538C360.937 38.5643 356.791 35.6836 348.133 35.6836C339.598 35.6836 335.452 38.5643 330.94 41.538C326.55 44.5117 322.16 47.5783 313.259 47.5783C304.357 47.5783 299.968 44.5117 295.578 41.538C291.188 38.5643 287.042 35.6836 278.385 35.6836C269.849 35.6836 265.703 38.5643 261.191 41.538C256.802 44.5117 252.412 47.5783 243.51 47.5783C234.609 47.5783 230.219 44.5117 225.829 41.538C221.44 38.5643 217.294 35.6836 208.758 35.6836C200.222 35.6836 196.076 38.5643 191.687 41.538C187.297 44.5117 182.907 47.5783 174.006 47.5783C165.104 47.5783 160.714 44.5117 156.325 41.538C151.935 38.5643 147.789 35.6836 139.131 35.6836C130.596 35.6836 126.45 38.5643 121.938 41.538C117.548 44.5117 113.159 47.5783 104.257 47.5783C95.3556 47.5783 90.9658 44.5117 86.576 41.538C82.1863 38.5643 78.0404 35.6836 69.5047 35.6836C60.969 35.6836 56.8231 38.5643 52.4334 41.538C48.0436 44.5117 43.6538 47.5783 34.7523 47.5783C25.8509 47.5783 21.4611 44.5117 17.0713 41.538C12.6816 38.5643 8.53567 35.6836 0 35.6836V35.126C8.90148 35.126 13.2913 38.1926 17.681 41.1663C22.0708 44.14 26.2167 47.0207 34.7523 47.0207C43.288 47.0207 47.4339 44.14 51.8237 41.1663C56.2135 38.1926 60.6032 35.126 69.5047 35.126C78.4062 35.126 82.796 38.1926 87.1857 41.1663C91.5755 44.14 95.7214 47.0207 104.257 47.0207C112.793 47.0207 116.939 44.14 121.45 41.1663C125.84 38.1926 130.23 35.126 139.131 35.126C148.033 35.126 152.423 38.1926 156.812 41.1663C161.202 44.14 165.348 47.0207 174.006 47.0207C182.541 47.0207 186.687 44.14 191.077 41.1663C195.467 38.1926 199.857 35.126 208.758 35.126C217.659 35.126 222.049 38.1926 226.439 41.1663C230.829 44.14 234.975 47.0207 243.51 47.0207C252.046 47.0207 256.192 44.14 260.704 41.1663C265.093 38.1926 269.483 35.126 278.385 35.126C287.286 35.126 291.676 38.1926 296.066 41.1663C300.455 44.14 304.601 47.0207 313.259 47.0207C321.795 47.0207 325.94 44.14 330.452 41.1663C334.842 38.1926 339.232 35.126 348.133 35.126C357.035 35.126 361.424 38.1926 365.814 41.1663C370.204 44.14 374.35 47.0207 383.007 47.0207C391.543 47.0207 395.689 44.14 400.201 41.1663C404.59 38.1926 408.98 35.126 417.882 35.126C426.783 35.126 431.173 38.1926 435.563 41.1663C439.953 44.14 444.098 47.0207 452.756 47.0207V47.5783Z" fill="#202994"/>
<path d="M452.756 59.2878C443.854 59.2878 439.464 56.2212 435.075 53.2475C430.685 50.2739 426.539 47.3931 417.881 47.3931C409.224 47.3931 405.2 50.2739 400.688 53.2475C396.298 56.2212 391.908 59.2878 383.007 59.2878C374.105 59.2878 369.716 56.2212 365.326 53.2475C360.936 50.2739 356.79 47.3931 348.133 47.3931C339.597 47.3931 335.451 50.2739 330.939 53.2475C326.915 56.2212 322.404 59.2878 313.502 59.2878C304.601 59.2878 300.211 56.2212 295.821 53.2475C291.431 50.2739 287.286 47.3931 278.628 47.3931C270.092 47.3931 265.946 50.2739 261.435 53.2475C257.045 56.2212 252.655 59.2878 243.754 59.2878C234.852 59.2878 230.462 56.2212 226.073 53.2475C221.683 50.2739 217.537 47.3931 209.001 47.3931C200.466 47.3931 196.32 50.2739 191.93 53.2475C187.54 56.2212 183.15 59.2878 174.249 59.2878C165.347 59.2878 160.958 56.2212 156.568 53.2475C152.178 50.2739 148.032 47.3931 139.375 47.3931C130.839 47.3931 126.693 50.2739 122.181 53.2475C117.792 56.2212 113.402 59.2878 104.5 59.2878C95.5989 59.2878 91.2091 56.2212 86.8194 53.2475C82.4296 50.2739 78.2837 47.3931 69.748 47.3931C61.2124 47.3931 57.0665 50.2739 52.6767 53.2475C48.2869 56.2212 43.8972 59.2878 34.9957 59.2878C26.0942 59.2878 21.7044 56.2212 17.3147 53.2475C12.9249 50.2739 8.779 47.3931 0.243333 47.3931V46.7426C9.14481 46.7426 13.5346 49.8092 17.9244 52.7829C22.3141 55.7566 26.46 58.6373 34.9957 58.6373C43.5313 58.6373 47.6772 55.7566 52.067 52.7829C56.4568 49.8092 60.8466 46.7426 69.748 46.7426C78.6495 46.7426 83.0393 49.8092 87.4291 52.7829C91.8188 55.7566 95.9647 58.6373 104.5 58.6373C113.036 58.6373 117.182 55.7566 121.694 52.7829C126.083 49.8092 130.473 46.7426 139.375 46.7426C148.276 46.7426 152.666 49.8092 157.056 52.7829C161.445 55.7566 165.591 58.6373 174.249 58.6373C182.785 58.6373 186.93 55.7566 191.32 52.7829C195.71 49.8092 200.1 46.7426 209.001 46.7426C217.903 46.7426 222.293 49.8092 226.682 52.7829C231.072 55.7566 235.218 58.6373 243.754 58.6373C252.289 58.6373 256.435 55.7566 260.947 52.7829C265.337 49.8092 269.726 46.7426 278.628 46.7426C287.529 46.7426 291.919 49.8092 296.309 52.7829C300.699 55.7566 304.845 58.6373 313.502 58.6373C322.038 58.6373 326.184 55.7566 330.695 52.7829C335.085 49.8092 339.475 46.7426 348.376 46.7426C357.278 46.7426 361.668 49.8092 366.058 52.7829C370.447 55.7566 374.593 58.6373 383.251 58.6373C391.786 58.6373 395.932 55.7566 400.444 52.7829C404.834 49.8092 409.224 46.7426 418.125 46.7426C427.027 46.7426 431.416 49.8092 435.806 52.7829C440.196 55.7566 444.342 58.6373 452.999 58.6373V59.2878H452.756Z" fill="#202994"/>
<path d="M452.756 70.9965C443.855 70.9965 439.465 67.9299 435.075 64.9562C430.685 61.9826 426.539 59.1018 417.882 59.1018C409.224 59.1018 405.2 61.9826 400.689 64.9562C396.299 67.9299 391.909 70.9965 383.007 70.9965C374.106 70.9965 369.716 67.9299 365.326 64.9562C360.937 61.9826 356.791 59.1018 348.133 59.1018C339.598 59.1018 335.452 61.9826 330.94 64.9562C326.55 67.9299 322.16 70.9965 313.259 70.9965C304.357 70.9965 299.968 67.9299 295.578 64.9562C291.188 61.9826 287.042 59.1018 278.385 59.1018C269.849 59.1018 265.703 61.9826 261.191 64.9562C256.802 67.9299 252.412 70.9965 243.51 70.9965C234.609 70.9965 230.219 67.9299 225.829 64.9562C221.44 61.9826 217.294 59.1018 208.758 59.1018C200.222 59.1018 196.076 61.9826 191.687 64.9562C187.297 67.9299 182.907 70.9965 174.006 70.9965C165.104 70.9965 160.714 67.9299 156.325 64.9562C151.935 61.9826 147.789 59.1018 139.131 59.1018C130.596 59.1018 126.45 61.9826 121.938 64.9562C117.548 67.9299 113.159 70.9965 104.257 70.9965C95.3556 70.9965 90.9658 67.9299 86.576 64.9562C82.1863 61.9826 78.0404 59.1018 69.5047 59.1018C60.969 59.1018 56.8231 61.9826 52.4334 64.9562C48.0436 67.9299 43.6538 70.9965 34.7523 70.9965C25.8509 70.9965 21.4611 67.9299 17.0713 64.9562C12.6816 61.9826 8.53567 59.1018 0 59.1018V58.4513C8.90148 58.4513 13.2913 61.5179 17.681 64.4916C22.0708 67.4653 26.2167 70.346 34.7523 70.346C43.288 70.346 47.4339 67.4653 51.8237 64.4916C56.2135 61.5179 60.6032 58.4513 69.5047 58.4513C78.4062 58.4513 82.796 61.5179 87.1857 64.4916C91.5755 67.4653 95.7214 70.346 104.257 70.346C112.793 70.346 116.939 67.4653 121.45 64.4916C125.84 61.5179 130.23 58.4513 139.131 58.4513C148.033 58.4513 152.423 61.5179 156.812 64.4916C161.202 67.4653 165.348 70.346 174.006 70.346C182.541 70.346 186.687 67.4653 191.077 64.4916C195.467 61.5179 199.857 58.4513 208.758 58.4513C217.659 58.4513 222.049 61.5179 226.439 64.4916C230.829 67.4653 234.975 70.346 243.51 70.346C252.046 70.346 256.192 67.4653 260.704 64.4916C265.093 61.5179 269.483 58.4513 278.385 58.4513C287.286 58.4513 291.676 61.5179 296.066 64.4916C300.455 67.4653 304.601 70.346 313.259 70.346C321.795 70.346 325.94 67.4653 330.452 64.4916C334.842 61.5179 339.232 58.4513 348.133 58.4513C357.035 58.4513 361.424 61.5179 365.814 64.4916C370.204 67.4653 374.35 70.346 383.007 70.346C391.543 70.346 395.689 67.4653 400.201 64.4916C404.59 61.5179 408.98 58.4513 417.882 58.4513C426.783 58.4513 431.173 61.5179 435.563 64.4916C439.953 67.4653 444.098 70.346 452.756 70.346V70.9965Z" fill="#202994"/>
<path d="M452.756 82.7052C443.855 82.7052 439.465 79.6386 435.075 76.6649C430.685 73.6912 426.539 70.8105 417.882 70.8105C409.224 70.8105 405.2 73.6912 400.689 76.6649C396.299 79.6386 391.909 82.7052 383.007 82.7052C374.106 82.7052 369.716 79.6386 365.326 76.6649C360.937 73.6912 356.791 70.8105 348.133 70.8105C339.598 70.8105 335.452 73.6912 330.94 76.6649C326.55 79.6386 322.16 82.7052 313.259 82.7052C304.357 82.7052 299.968 79.6386 295.578 76.6649C291.188 73.6912 287.042 70.8105 278.385 70.8105C269.849 70.8105 265.703 73.6912 261.191 76.6649C256.802 79.6386 252.412 82.7052 243.51 82.7052C234.609 82.7052 230.219 79.6386 225.829 76.6649C221.44 73.6912 217.294 70.8105 208.758 70.8105C200.222 70.8105 196.076 73.6912 191.687 76.6649C187.297 79.6386 182.907 82.7052 174.006 82.7052C165.104 82.7052 160.714 79.6386 156.325 76.6649C151.935 73.6912 147.789 70.8105 139.131 70.8105C130.596 70.8105 126.45 73.6912 121.938 76.6649C117.548 79.6386 113.159 82.7052 104.257 82.7052C95.3556 82.7052 90.9658 79.6386 86.576 76.6649C82.1863 73.6912 78.0404 70.8105 69.5047 70.8105C60.969 70.8105 56.8231 73.6912 52.4334 76.6649C48.0436 79.6386 43.6538 82.7052 34.7523 82.7052C25.8509 82.7052 21.4611 79.6386 17.0713 76.6649C12.6816 73.6912 8.53567 70.8105 0 70.8105V70.16C8.90148 70.16 13.2913 73.2266 17.681 76.2003C22.0708 79.1739 26.2167 82.0547 34.7523 82.0547C43.288 82.0547 47.4339 79.1739 51.8237 76.2003C56.2135 73.2266 60.6032 70.16 69.5047 70.16C78.4062 70.16 82.796 73.2266 87.1857 76.2003C91.5755 79.1739 95.7214 82.0547 104.257 82.0547C112.793 82.0547 116.939 79.1739 121.45 76.2003C125.84 73.2266 130.23 70.16 139.131 70.16C148.033 70.16 152.423 73.2266 156.812 76.2003C161.202 79.1739 165.348 82.0547 174.006 82.0547C182.541 82.0547 186.687 79.1739 191.077 76.2003C195.467 73.2266 199.857 70.16 208.758 70.16C217.659 70.16 222.049 73.2266 226.439 76.2003C230.829 79.1739 234.975 82.0547 243.51 82.0547C252.046 82.0547 256.192 79.1739 260.704 76.2003C265.093 73.2266 269.483 70.16 278.385 70.16C287.286 70.16 291.676 73.2266 296.066 76.2003C300.455 79.1739 304.601 82.0547 313.259 82.0547C321.795 82.0547 325.94 79.1739 330.452 76.2003C334.842 73.2266 339.232 70.16 348.133 70.16C357.035 70.16 361.424 73.2266 365.814 76.2003C370.204 79.1739 374.35 82.0547 383.007 82.0547C391.543 82.0547 395.689 79.1739 400.201 76.2003C404.59 73.2266 408.98 70.16 417.882 70.16C426.783 70.16 431.173 73.2266 435.563 76.2003C439.953 79.1739 444.098 82.0547 452.756 82.0547V82.7052Z" fill="#202994"/>
<path d="M452.756 94.3208C443.855 94.3208 439.465 91.2542 435.075 88.2805C430.685 85.3068 426.539 82.4261 417.882 82.4261C409.224 82.4261 405.2 85.3068 400.689 88.2805C396.299 91.2542 391.909 94.3208 383.007 94.3208C374.106 94.3208 369.716 91.2542 365.326 88.2805C360.937 85.3068 356.791 82.4261 348.133 82.4261C339.598 82.4261 335.452 85.3068 330.94 88.2805C326.55 91.2542 322.16 94.3208 313.259 94.3208C304.357 94.3208 299.968 91.2542 295.578 88.2805C291.188 85.3068 287.042 82.4261 278.385 82.4261C269.849 82.4261 265.703 85.3068 261.191 88.2805C256.802 91.2542 252.412 94.3208 243.51 94.3208C234.609 94.3208 230.219 91.2542 225.829 88.2805C221.44 85.3068 217.294 82.4261 208.758 82.4261C200.222 82.4261 196.076 85.3068 191.687 88.2805C187.297 91.2542 182.907 94.3208 174.006 94.3208C165.104 94.3208 160.714 91.2542 156.325 88.2805C151.935 85.3068 147.789 82.4261 139.131 82.4261C130.596 82.4261 126.45 85.3068 121.938 88.2805C117.548 91.2542 113.159 94.3208 104.257 94.3208C95.3556 94.3208 90.9658 91.2542 86.576 88.2805C82.1863 85.3068 78.0404 82.4261 69.5047 82.4261C60.969 82.4261 56.8231 85.3068 52.4334 88.2805C48.0436 91.2542 43.6538 94.3208 34.7523 94.3208C25.8509 94.3208 21.4611 91.2542 17.0713 88.2805C12.6816 85.3068 8.53567 82.4261 0 82.4261V81.7756C8.90148 81.7756 13.2913 84.8422 17.681 87.8159C22.0708 90.7895 26.2167 93.6703 34.7523 93.6703C43.288 93.6703 47.4339 90.7895 51.8237 87.8159C56.2135 84.8422 60.6032 81.7756 69.5047 81.7756C78.4062 81.7756 82.796 84.8422 87.1857 87.8159C91.5755 90.7895 95.7214 93.6703 104.257 93.6703C112.793 93.6703 116.939 90.7895 121.45 87.8159C125.84 84.8422 130.23 81.7756 139.131 81.7756C148.033 81.7756 152.423 84.8422 156.812 87.8159C161.202 90.7895 165.348 93.6703 174.006 93.6703C182.541 93.6703 186.687 90.7895 191.077 87.8159C195.467 84.8422 199.857 81.7756 208.758 81.7756C217.659 81.7756 222.049 84.8422 226.439 87.8159C230.829 90.7895 234.975 93.6703 243.51 93.6703C252.046 93.6703 256.192 90.7895 260.704 87.8159C265.093 84.8422 269.483 81.7756 278.385 81.7756C287.286 81.7756 291.676 84.8422 296.066 87.8159C300.455 90.7895 304.601 93.6703 313.259 93.6703C321.795 93.6703 325.94 90.7895 330.452 87.8159C334.842 84.8422 339.232 81.7756 348.133 81.7756C357.035 81.7756 361.424 84.8422 365.814 87.8159C370.204 90.7895 374.35 93.6703 383.007 93.6703C391.543 93.6703 395.689 90.7895 400.201 87.8159C404.59 84.8422 408.98 81.7756 417.882 81.7756C426.783 81.7756 431.173 84.8422 435.563 87.8159C439.953 90.7895 444.098 93.6703 452.756 93.6703V94.3208Z" fill="#202994"/>
<path d="M452.756 106.029C443.855 106.029 439.465 102.963 435.075 99.9892C430.685 97.0155 426.539 94.1348 417.882 94.1348C409.224 94.1348 405.2 97.0155 400.689 99.9892C396.299 102.963 391.909 106.029 383.007 106.029C374.106 106.029 369.716 102.963 365.326 99.9892C360.937 97.0155 356.791 94.1348 348.133 94.1348C339.598 94.1348 335.452 97.0155 330.94 99.9892C326.55 102.963 322.16 106.029 313.259 106.029C304.357 106.029 299.968 102.963 295.578 99.9892C291.188 97.0155 287.042 94.1348 278.385 94.1348C269.849 94.1348 265.703 97.0155 261.191 99.9892C256.802 102.963 252.412 106.029 243.51 106.029C234.609 106.029 230.219 102.963 225.829 99.9892C221.44 97.0155 217.294 94.1348 208.758 94.1348C200.222 94.1348 196.076 97.0155 191.687 99.9892C187.297 102.963 182.907 106.029 174.006 106.029C165.104 106.029 160.714 102.963 156.325 99.9892C151.935 97.0155 147.789 94.1348 139.131 94.1348C130.596 94.1348 126.45 97.0155 121.938 99.9892C117.548 102.963 113.159 106.029 104.257 106.029C95.3556 106.029 90.9658 102.963 86.576 99.9892C82.1863 97.0155 78.0404 94.1348 69.5047 94.1348C60.969 94.1348 56.8231 97.0155 52.4334 99.9892C48.0436 102.963 43.6538 106.029 34.7523 106.029C25.8509 106.029 21.4611 102.963 17.0713 99.9892C12.6816 97.0155 8.53567 94.1348 0 94.1348V93.4843C8.90148 93.4843 13.2913 96.5509 17.681 99.5246C22.0708 102.498 26.2167 105.379 34.7523 105.379C43.288 105.379 47.4339 102.498 51.8237 99.5246C56.2135 96.5509 60.6032 93.4843 69.5047 93.4843C78.4062 93.4843 82.796 96.5509 87.1857 99.5246C91.5755 102.498 95.7214 105.379 104.257 105.379C112.793 105.379 116.939 102.498 121.45 99.5246C125.84 96.5509 130.23 93.4843 139.131 93.4843C148.033 93.4843 152.423 96.5509 156.812 99.5246C161.202 102.498 165.348 105.379 174.006 105.379C182.541 105.379 186.687 102.498 191.077 99.5246C195.467 96.5509 199.857 93.4843 208.758 93.4843C217.659 93.4843 222.049 96.5509 226.439 99.5246C230.829 102.498 234.975 105.379 243.51 105.379C252.046 105.379 256.192 102.498 260.704 99.5246C265.093 96.5509 269.483 93.4843 278.385 93.4843C287.286 93.4843 291.676 96.5509 296.066 99.5246C300.455 102.498 304.601 105.379 313.259 105.379C321.795 105.379 325.94 102.498 330.452 99.5246C334.842 96.5509 339.232 93.4843 348.133 93.4843C357.035 93.4843 361.424 96.5509 365.814 99.5246C370.204 102.498 374.35 105.379 383.007 105.379C391.543 105.379 395.689 102.498 400.201 99.5246C404.59 96.5509 408.98 93.4843 417.882 93.4843C426.783 93.4843 431.173 96.5509 435.563 99.5246C439.953 102.498 444.098 105.379 452.756 105.379V106.029Z" fill="#202994"/>
<path d="M452.756 117.739C443.855 117.739 439.465 114.673 435.075 111.699C430.685 108.725 426.539 105.844 417.882 105.844C409.224 105.844 405.2 108.725 400.689 111.699C396.299 114.673 391.909 117.739 383.007 117.739C374.106 117.739 369.716 114.673 365.326 111.699C360.937 108.725 356.791 105.844 348.133 105.844C339.598 105.844 335.452 108.725 330.94 111.699C326.55 114.673 322.16 117.739 313.259 117.739C304.357 117.739 299.968 114.673 295.578 111.699C291.188 108.725 287.042 105.844 278.385 105.844C269.849 105.844 265.703 108.725 261.191 111.699C256.802 114.673 252.412 117.739 243.51 117.739C234.609 117.739 230.219 114.673 225.829 111.699C221.44 108.725 217.294 105.844 208.758 105.844C200.222 105.844 196.076 108.725 191.687 111.699C187.297 114.673 182.907 117.739 174.006 117.739C165.104 117.739 160.714 114.673 156.325 111.699C151.935 108.725 147.789 105.844 139.131 105.844C130.596 105.844 126.45 108.725 121.938 111.699C117.548 114.673 113.159 117.739 104.257 117.739C95.3556 117.739 90.9658 114.673 86.576 111.699C82.1863 108.725 78.0404 105.844 69.5047 105.844C60.969 105.844 56.8231 108.725 52.4334 111.699C48.0436 114.673 43.6538 117.739 34.7523 117.739C25.8509 117.739 21.4611 114.673 17.0713 111.699C12.6816 108.725 8.53567 105.844 0 105.844V105.194C8.90148 105.194 13.2913 108.261 17.681 111.234C22.0708 114.208 26.2167 117.089 34.7523 117.089C43.288 117.089 47.4339 114.208 51.8237 111.234C56.2135 108.261 60.6032 105.194 69.5047 105.194C78.4062 105.194 82.796 108.261 87.1857 111.234C91.5755 114.208 95.7214 117.089 104.257 117.089C112.793 117.089 116.939 114.208 121.45 111.234C125.84 108.261 130.23 105.194 139.131 105.194C148.033 105.194 152.423 108.261 156.812 111.234C161.202 114.208 165.348 117.089 174.006 117.089C182.541 117.089 186.687 114.208 191.077 111.234C195.467 108.261 199.857 105.194 208.758 105.194C217.659 105.194 222.049 108.261 226.439 111.234C230.829 114.208 234.975 117.089 243.51 117.089C252.046 117.089 256.192 114.208 260.704 111.234C265.093 108.261 269.483 105.194 278.385 105.194C287.286 105.194 291.676 108.261 296.066 111.234C300.455 114.208 304.601 117.089 313.259 117.089C321.795 117.089 325.94 114.208 330.452 111.234C334.842 108.261 339.232 105.194 348.133 105.194C357.035 105.194 361.424 108.261 365.814 111.234C370.204 114.208 374.35 117.089 383.007 117.089C391.543 117.089 395.689 114.208 400.201 111.234C404.59 108.261 408.98 105.194 417.882 105.194C426.783 105.194 431.173 108.261 435.563 111.234C439.953 114.208 444.098 117.089 452.756 117.089V117.739Z" fill="#202994"/>
<path d="M452.756 129.447C443.855 129.447 439.465 126.38 435.075 123.407C430.685 120.433 426.539 117.552 417.882 117.552C409.224 117.552 405.2 120.433 400.689 123.407C396.299 126.38 391.909 129.447 383.007 129.447C374.106 129.447 369.716 126.38 365.326 123.407C360.937 120.433 356.791 117.552 348.133 117.552C339.598 117.552 335.452 120.433 330.94 123.407C326.55 126.38 322.16 129.447 313.259 129.447C304.357 129.447 299.968 126.38 295.578 123.407C291.188 120.433 287.042 117.552 278.385 117.552C269.849 117.552 265.703 120.433 261.191 123.407C256.802 126.38 252.412 129.447 243.51 129.447C234.609 129.447 230.219 126.38 225.829 123.407C221.44 120.433 217.294 117.552 208.758 117.552C200.222 117.552 196.076 120.433 191.687 123.407C187.297 126.38 182.907 129.447 174.006 129.447C165.104 129.447 160.714 126.38 156.325 123.407C151.935 120.433 147.789 117.552 139.131 117.552C130.596 117.552 126.45 120.433 121.938 123.407C117.548 126.38 113.159 129.447 104.257 129.447C95.3556 129.447 90.9658 126.38 86.576 123.407C82.1863 120.433 78.0404 117.552 69.5047 117.552C60.969 117.552 56.8231 120.433 52.4334 123.407C48.0436 126.38 43.6538 129.447 34.7523 129.447C25.8509 129.447 21.4611 126.38 17.0713 123.407C12.6816 120.433 8.53567 117.552 0 117.552V116.902C8.90148 116.902 13.2913 119.968 17.681 122.942C22.0708 125.916 26.2167 128.796 34.7523 128.796C43.288 128.796 47.4339 125.916 51.8237 122.942C56.2135 119.968 60.6032 116.902 69.5047 116.902C78.4062 116.902 82.796 119.968 87.1857 122.942C91.5755 125.916 95.7214 128.796 104.257 128.796C112.793 128.796 116.939 125.916 121.45 122.942C125.84 119.968 130.23 116.902 139.131 116.902C148.033 116.902 152.423 119.968 156.812 122.942C161.202 125.916 165.348 128.796 174.006 128.796C182.541 128.796 186.687 125.916 191.077 122.942C195.467 119.968 199.857 116.902 208.758 116.902C217.659 116.902 222.049 119.968 226.439 122.942C230.829 125.916 234.975 128.796 243.51 128.796C252.046 128.796 256.192 125.916 260.704 122.942C265.093 119.968 269.483 116.902 278.385 116.902C287.286 116.902 291.676 119.968 296.066 122.942C300.455 125.916 304.601 128.796 313.259 128.796C321.795 128.796 325.94 125.916 330.452 122.942C334.842 119.968 339.232 116.902 348.133 116.902C357.035 116.902 361.424 119.968 365.814 122.942C370.204 125.916 374.35 128.796 383.007 128.796C391.543 128.796 395.689 125.916 400.201 122.942C404.59 119.968 408.98 116.902 417.882 116.902C426.783 116.902 431.173 119.968 435.563 122.942C439.953 125.916 444.098 128.796 452.756 128.796V129.447Z" fill="#202994"/>
<path d="M452.756 141.063C443.855 141.063 439.465 137.997 435.075 135.023C430.685 132.049 426.539 129.169 417.882 129.169C409.224 129.169 405.2 132.049 400.689 135.023C396.299 137.997 391.909 141.063 383.007 141.063C374.106 141.063 369.716 137.997 365.326 135.023C360.937 132.049 356.791 129.169 348.133 129.169C339.598 129.169 335.452 132.049 330.94 135.023C326.55 137.997 322.16 141.063 313.259 141.063C304.357 141.063 299.968 137.997 295.578 135.023C291.188 132.049 287.042 129.169 278.385 129.169C269.849 129.169 265.703 132.049 261.191 135.023C256.802 137.997 252.412 141.063 243.51 141.063C234.609 141.063 230.219 137.997 225.829 135.023C221.44 132.049 217.294 129.169 208.758 129.169C200.222 129.169 196.076 132.049 191.687 135.023C187.297 137.997 182.907 141.063 174.006 141.063C165.104 141.063 160.714 137.997 156.325 135.023C151.935 132.049 147.789 129.169 139.131 129.169C130.596 129.169 126.45 132.049 121.938 135.023C117.548 137.997 113.159 141.063 104.257 141.063C95.3556 141.063 90.9658 137.997 86.576 135.023C82.1863 132.049 78.0404 129.169 69.5047 129.169C60.969 129.169 56.8231 132.049 52.4334 135.023C48.0436 137.997 43.6538 141.063 34.7523 141.063C25.8509 141.063 21.4611 137.997 17.0713 135.023C12.6816 132.049 8.53567 129.169 0 129.169V128.518C8.90148 128.518 13.2913 131.585 17.681 134.558C22.0708 137.532 26.2167 140.413 34.7523 140.413C43.288 140.413 47.4339 137.532 51.8237 134.558C56.2135 131.585 60.6032 128.518 69.5047 128.518C78.4062 128.518 82.796 131.585 87.1857 134.558C91.5755 137.532 95.7214 140.413 104.257 140.413C112.793 140.413 116.939 137.532 121.45 134.558C125.84 131.585 130.23 128.518 139.131 128.518C148.033 128.518 152.423 131.585 156.812 134.558C161.202 137.532 165.348 140.413 174.006 140.413C182.541 140.413 186.687 137.532 191.077 134.558C195.467 131.585 199.857 128.518 208.758 128.518C217.659 128.518 222.049 131.585 226.439 134.558C230.829 137.532 234.975 140.413 243.51 140.413C252.046 140.413 256.192 137.532 260.704 134.558C265.093 131.585 269.483 128.518 278.385 128.518C287.286 128.518 291.676 131.585 296.066 134.558C300.455 137.532 304.601 140.413 313.259 140.413C321.795 140.413 325.94 137.532 330.452 134.558C334.842 131.585 339.232 128.518 348.133 128.518C357.035 128.518 361.424 131.585 365.814 134.558C370.204 137.532 374.35 140.413 383.007 140.413C391.543 140.413 395.689 137.532 400.201 134.558C404.59 131.585 408.98 128.518 417.882 128.518C426.783 128.518 431.173 131.585 435.563 134.558C439.953 137.532 444.098 140.413 452.756 140.413V141.063Z" fill="#202994"/>
<path d="M452.756 152.773C443.855 152.773 439.465 149.707 435.075 146.733C430.685 143.759 426.539 140.878 417.882 140.878C409.224 140.878 405.2 143.759 400.689 146.733C396.299 149.707 391.909 152.773 383.007 152.773C374.106 152.773 369.716 149.707 365.326 146.733C360.937 143.759 356.791 140.878 348.133 140.878C339.598 140.878 335.452 143.759 330.94 146.733C326.55 149.707 322.16 152.773 313.259 152.773C304.357 152.773 299.968 149.707 295.578 146.733C291.188 143.759 287.042 140.878 278.385 140.878C269.849 140.878 265.703 143.759 261.191 146.733C256.802 149.707 252.412 152.773 243.51 152.773C234.609 152.773 230.219 149.707 225.829 146.733C221.44 143.759 217.294 140.878 208.758 140.878C200.222 140.878 196.076 143.759 191.687 146.733C187.297 149.707 182.907 152.773 174.006 152.773C165.104 152.773 160.714 149.707 156.325 146.733C151.935 143.759 147.789 140.878 139.131 140.878C130.596 140.878 126.45 143.759 121.938 146.733C117.548 149.707 113.159 152.773 104.257 152.773C95.3556 152.773 90.9658 149.707 86.576 146.733C82.1863 143.759 78.0404 140.878 69.5047 140.878C60.969 140.878 56.8231 143.759 52.4334 146.733C48.0436 149.707 43.6538 152.773 34.7523 152.773C25.8509 152.773 21.4611 149.707 17.0713 146.733C12.6816 143.759 8.53567 140.878 0 140.878V140.228C8.90148 140.228 13.2913 143.295 17.681 146.268C22.0708 149.242 26.2167 152.123 34.7523 152.123C43.288 152.123 47.4339 149.242 51.8237 146.268C56.2135 143.295 60.6032 140.228 69.5047 140.228C78.4062 140.228 82.796 143.295 87.1857 146.268C91.5755 149.242 95.7214 152.123 104.257 152.123C112.793 152.123 116.939 149.242 121.45 146.268C125.84 143.295 130.23 140.228 139.131 140.228C148.033 140.228 152.423 143.295 156.812 146.268C161.202 149.242 165.348 152.123 174.006 152.123C182.541 152.123 186.687 149.242 191.077 146.268C195.467 143.295 199.857 140.228 208.758 140.228C217.659 140.228 222.049 143.295 226.439 146.268C230.829 149.242 234.975 152.123 243.51 152.123C252.046 152.123 256.192 149.242 260.704 146.268C265.093 143.295 269.483 140.228 278.385 140.228C287.286 140.228 291.676 143.295 296.066 146.268C300.455 149.242 304.601 152.123 313.259 152.123C321.795 152.123 325.94 149.242 330.452 146.268C334.842 143.295 339.232 140.228 348.133 140.228C357.035 140.228 361.424 143.295 365.814 146.268C370.204 149.242 374.35 152.123 383.007 152.123C391.543 152.123 395.689 149.242 400.201 146.268C404.59 143.295 408.98 140.228 417.882 140.228C426.783 140.228 431.173 143.295 435.563 146.268C439.953 149.242 444.098 152.123 452.756 152.123V152.773Z" fill="#202994"/>
<path d="M452.756 164.482C443.855 164.482 439.465 161.415 435.075 158.442C430.685 155.468 426.539 152.587 417.882 152.587C409.224 152.587 405.2 155.468 400.689 158.442C396.299 161.415 391.909 164.482 383.007 164.482C374.106 164.482 369.716 161.415 365.326 158.442C360.937 155.468 356.791 152.587 348.133 152.587C339.598 152.587 335.452 155.468 330.94 158.442C326.55 161.415 322.16 164.482 313.259 164.482C304.357 164.482 299.968 161.415 295.578 158.442C291.188 155.468 287.042 152.587 278.385 152.587C269.849 152.587 265.703 155.468 261.191 158.442C256.802 161.415 252.412 164.482 243.51 164.482C234.609 164.482 230.219 161.415 225.829 158.442C221.44 155.468 217.294 152.587 208.758 152.587C200.222 152.587 196.076 155.468 191.687 158.442C187.297 161.415 182.907 164.482 174.006 164.482C165.104 164.482 160.714 161.415 156.325 158.442C151.935 155.468 147.789 152.587 139.131 152.587C130.596 152.587 126.45 155.468 121.938 158.442C117.548 161.415 113.159 164.482 104.257 164.482C95.3556 164.482 90.9658 161.415 86.576 158.442C82.1863 155.468 78.0404 152.587 69.5047 152.587C60.969 152.587 56.8231 155.468 52.4334 158.442C48.0436 161.415 43.6538 164.482 34.7523 164.482C25.8509 164.482 21.4611 161.415 17.0713 158.442C12.6816 155.468 8.53567 152.587 0 152.587V151.937C8.90148 151.937 13.2913 155.003 17.681 157.977C22.0708 160.951 26.2167 163.831 34.7523 163.831C43.288 163.831 47.4339 160.951 51.8237 157.977C56.2135 155.003 60.6032 151.937 69.5047 151.937C78.4062 151.937 82.796 155.003 87.1857 157.977C91.5755 160.951 95.7214 163.831 104.257 163.831C112.793 163.831 116.939 160.951 121.45 157.977C125.84 155.003 130.23 151.937 139.131 151.937C148.033 151.937 152.423 155.003 156.812 157.977C161.202 160.951 165.348 163.831 174.006 163.831C182.541 163.831 186.687 160.951 191.077 157.977C195.467 155.003 199.857 151.937 208.758 151.937C217.659 151.937 222.049 155.003 226.439 157.977C230.829 160.951 234.975 163.831 243.51 163.831C252.046 163.831 256.192 160.951 260.704 157.977C265.093 155.003 269.483 151.937 278.385 151.937C287.286 151.937 291.676 155.003 296.066 157.977C300.455 160.951 304.601 163.831 313.259 163.831C321.795 163.831 325.94 160.951 330.452 157.977C334.842 155.003 339.232 151.937 348.133 151.937C357.035 151.937 361.424 155.003 365.814 157.977C370.204 160.951 374.35 163.831 383.007 163.831C391.543 163.831 395.689 160.951 400.201 157.977C404.59 155.003 408.98 151.937 417.882 151.937C426.783 151.937 431.173 155.003 435.563 157.977C439.953 160.951 444.098 163.831 452.756 163.831V164.482Z" fill="#202994"/>
<path d="M452.756 176.097C443.855 176.097 439.465 173.031 435.075 170.057C430.685 167.083 426.539 164.203 417.882 164.203C409.224 164.203 405.2 167.083 400.689 170.057C396.299 173.031 391.909 176.097 383.007 176.097C374.106 176.097 369.716 173.031 365.326 170.057C360.937 167.083 356.791 164.203 348.133 164.203C339.598 164.203 335.452 167.083 330.94 170.057C326.55 173.031 322.16 176.097 313.259 176.097C304.357 176.097 299.968 173.031 295.578 170.057C291.188 167.083 287.042 164.203 278.385 164.203C269.849 164.203 265.703 167.083 261.191 170.057C256.802 173.031 252.412 176.097 243.51 176.097C234.609 176.097 230.219 173.031 225.829 170.057C221.44 167.083 217.294 164.203 208.758 164.203C200.222 164.203 196.076 167.083 191.687 170.057C187.297 173.031 182.907 176.097 174.006 176.097C165.104 176.097 160.714 173.031 156.325 170.057C151.935 167.083 147.789 164.203 139.131 164.203C130.596 164.203 126.45 167.083 121.938 170.057C117.548 173.031 113.159 176.097 104.257 176.097C95.3556 176.097 90.9658 173.031 86.576 170.057C82.1863 167.083 78.0404 164.203 69.5047 164.203C60.969 164.203 56.8231 167.083 52.4334 170.057C48.0436 173.031 43.6538 176.097 34.7523 176.097C25.8509 176.097 21.4611 173.031 17.0713 170.057C12.6816 167.083 8.53567 164.203 0 164.203V163.552C8.90148 163.552 13.2913 166.619 17.681 169.592C22.0708 172.566 26.2167 175.447 34.7523 175.447C43.288 175.447 47.4339 172.566 51.8237 169.592C56.2135 166.619 60.6032 163.552 69.5047 163.552C78.4062 163.552 82.796 166.619 87.1857 169.592C91.5755 172.566 95.7214 175.447 104.257 175.447C112.793 175.447 116.939 172.566 121.45 169.592C125.84 166.619 130.23 163.552 139.131 163.552C148.033 163.552 152.423 166.619 156.812 169.592C161.202 172.566 165.348 175.447 174.006 175.447C182.541 175.447 186.687 172.566 191.077 169.592C195.467 166.619 199.857 163.552 208.758 163.552C217.659 163.552 222.049 166.619 226.439 169.592C230.829 172.566 234.975 175.447 243.51 175.447C252.046 175.447 256.192 172.566 260.704 169.592C265.093 166.619 269.483 163.552 278.385 163.552C287.286 163.552 291.676 166.619 296.066 169.592C300.455 172.566 304.601 175.447 313.259 175.447C321.795 175.447 325.94 172.566 330.452 169.592C334.842 166.619 339.232 163.552 348.133 163.552C357.035 163.552 361.424 166.619 365.814 169.592C370.204 172.566 374.35 175.447 383.007 175.447C391.543 175.447 395.689 172.566 400.201 169.592C404.59 166.619 408.98 163.552 417.882 163.552C426.783 163.552 431.173 166.619 435.563 169.592C439.953 172.566 444.098 175.447 452.756 175.447V176.097Z" fill="#202994"/>
<path d="M452.756 187.806C443.855 187.806 439.465 184.739 435.075 181.766C430.685 178.792 426.539 175.911 417.882 175.911C409.224 175.911 405.2 178.792 400.689 181.766C396.299 184.739 391.909 187.806 383.007 187.806C374.106 187.806 369.716 184.739 365.326 181.766C360.937 178.792 356.791 175.911 348.133 175.911C339.598 175.911 335.452 178.792 330.94 181.766C326.55 184.739 322.16 187.806 313.259 187.806C304.357 187.806 299.968 184.739 295.578 181.766C291.188 178.792 287.042 175.911 278.385 175.911C269.849 175.911 265.703 178.792 261.191 181.766C256.802 184.739 252.412 187.806 243.51 187.806C234.609 187.806 230.219 184.739 225.829 181.766C221.44 178.792 217.294 175.911 208.758 175.911C200.222 175.911 196.076 178.792 191.687 181.766C187.297 184.739 182.907 187.806 174.006 187.806C165.104 187.806 160.714 184.739 156.325 181.766C151.935 178.792 147.789 175.911 139.131 175.911C130.596 175.911 126.45 178.792 121.938 181.766C117.548 184.739 113.159 187.806 104.257 187.806C95.3556 187.806 90.9658 184.739 86.576 181.766C82.1863 178.792 78.0404 175.911 69.5047 175.911C60.969 175.911 56.8231 178.792 52.4334 181.766C48.0436 184.739 43.6538 187.806 34.7523 187.806C25.8509 187.806 21.4611 184.739 17.0713 181.766C12.6816 178.792 8.53567 175.911 0 175.911V175.261C8.90148 175.261 13.2913 178.327 17.681 181.301C22.0708 184.275 26.2167 187.156 34.7523 187.156C43.288 187.156 47.4339 184.275 51.8237 181.301C56.2135 178.327 60.6032 175.261 69.5047 175.261C78.4062 175.261 82.796 178.327 87.1857 181.301C91.5755 184.275 95.7214 187.156 104.257 187.156C112.793 187.156 116.939 184.275 121.45 181.301C125.84 178.327 130.23 175.261 139.131 175.261C148.033 175.261 152.423 178.327 156.812 181.301C161.202 184.275 165.348 187.156 174.006 187.156C182.541 187.156 186.687 184.275 191.077 181.301C195.467 178.327 199.857 175.261 208.758 175.261C217.659 175.261 222.049 178.327 226.439 181.301C230.829 184.275 234.975 187.156 243.51 187.156C252.046 187.156 256.192 184.275 260.704 181.301C265.093 178.327 269.483 175.261 278.385 175.261C287.286 175.261 291.676 178.327 296.066 181.301C300.455 184.275 304.601 187.156 313.259 187.156C321.795 187.156 325.94 184.275 330.452 181.301C334.842 178.327 339.232 175.261 348.133 175.261C357.035 175.261 361.424 178.327 365.814 181.301C370.204 184.275 374.35 187.156 383.007 187.156C391.543 187.156 395.689 184.275 400.201 181.301C404.59 178.327 408.98 175.261 417.882 175.261C426.783 175.261 431.173 178.327 435.563 181.301C439.953 184.275 444.098 187.156 452.756 187.156V187.806Z" fill="#202994"/>
<path d="M452.756 199.515C443.855 199.515 439.465 196.448 435.075 193.474C430.685 190.501 426.539 187.62 417.882 187.62C409.224 187.62 405.2 190.501 400.689 193.474C396.299 196.448 391.909 199.515 383.007 199.515C374.106 199.515 369.716 196.448 365.326 193.474C360.937 190.501 356.791 187.62 348.133 187.62C339.598 187.62 335.452 190.501 330.94 193.474C326.55 196.448 322.16 199.515 313.259 199.515C304.357 199.515 299.968 196.448 295.578 193.474C291.188 190.501 287.042 187.62 278.385 187.62C269.849 187.62 265.703 190.501 261.191 193.474C256.802 196.448 252.412 199.515 243.51 199.515C234.609 199.515 230.219 196.448 225.829 193.474C221.44 190.501 217.294 187.62 208.758 187.62C200.222 187.62 196.076 190.501 191.687 193.474C187.297 196.448 182.907 199.515 174.006 199.515C165.104 199.515 160.714 196.448 156.325 193.474C151.935 190.501 147.789 187.62 139.131 187.62C130.596 187.62 126.45 190.501 121.938 193.474C117.548 196.448 113.159 199.515 104.257 199.515C95.3556 199.515 90.9658 196.448 86.576 193.474C82.1863 190.501 78.0404 187.62 69.5047 187.62C60.969 187.62 56.8231 190.501 52.4334 193.474C48.0436 196.448 43.6538 199.515 34.7523 199.515C25.8509 199.515 21.4611 196.448 17.0713 193.474C12.6816 190.501 8.53567 187.62 0 187.62V186.969C8.90148 186.969 13.2913 190.036 17.681 193.01C22.0708 195.983 26.2167 198.864 34.7523 198.864C43.288 198.864 47.4339 195.983 51.8237 193.01C56.2135 190.036 60.6032 186.969 69.5047 186.969C78.4062 186.969 82.796 190.036 87.1857 193.01C91.5755 195.983 95.7214 198.864 104.257 198.864C112.793 198.864 116.939 195.983 121.45 193.01C125.84 190.036 130.23 186.969 139.131 186.969C148.033 186.969 152.423 190.036 156.812 193.01C161.202 195.983 165.348 198.864 174.006 198.864C182.541 198.864 186.687 195.983 191.077 193.01C195.467 190.036 199.857 186.969 208.758 186.969C217.659 186.969 222.049 190.036 226.439 193.01C230.829 195.983 234.975 198.864 243.51 198.864C252.046 198.864 256.192 195.983 260.704 193.01C265.093 190.036 269.483 186.969 278.385 186.969C287.286 186.969 291.676 190.036 296.066 193.01C300.455 195.983 304.601 198.864 313.259 198.864C321.795 198.864 325.94 195.983 330.452 193.01C334.842 190.036 339.232 186.969 348.133 186.969C357.035 186.969 361.424 190.036 365.814 193.01C370.204 195.983 374.35 198.864 383.007 198.864C391.543 198.864 395.689 195.983 400.201 193.01C404.59 190.036 408.98 186.969 417.882 186.969C426.783 186.969 431.173 190.036 435.563 193.01C439.953 195.983 444.098 198.864 452.756 198.864V199.515Z" fill="#202994"/>
<path d="M452.756 211.224C443.855 211.224 439.465 208.158 435.075 205.184C430.685 202.21 426.539 199.33 417.882 199.33C409.224 199.33 405.2 202.21 400.689 205.184C396.299 208.158 391.909 211.224 383.007 211.224C374.106 211.224 369.716 208.158 365.326 205.184C360.937 202.21 356.791 199.33 348.133 199.33C339.598 199.33 335.452 202.21 330.94 205.184C326.55 208.158 322.16 211.224 313.259 211.224C304.357 211.224 299.968 208.158 295.578 205.184C291.188 202.21 287.042 199.33 278.385 199.33C269.849 199.33 265.703 202.21 261.191 205.184C256.802 208.158 252.412 211.224 243.51 211.224C234.609 211.224 230.219 208.158 225.829 205.184C221.44 202.21 217.294 199.33 208.758 199.33C200.222 199.33 196.076 202.21 191.687 205.184C187.297 208.158 182.907 211.224 174.006 211.224C165.104 211.224 160.714 208.158 156.325 205.184C151.935 202.21 147.789 199.33 139.131 199.33C130.596 199.33 126.45 202.21 121.938 205.184C117.548 208.158 113.159 211.224 104.257 211.224C95.3556 211.224 90.9658 208.158 86.576 205.184C82.1863 202.21 78.0404 199.33 69.5047 199.33C60.969 199.33 56.8231 202.21 52.4334 205.184C48.0436 208.158 43.6538 211.224 34.7523 211.224C25.8509 211.224 21.4611 208.158 17.0713 205.184C12.6816 202.21 8.53567 199.33 0 199.33V198.679C8.90148 198.679 13.2913 201.746 17.681 204.72C22.0708 207.693 26.2167 210.574 34.7523 210.574C43.288 210.574 47.4339 207.693 51.8237 204.72C56.2135 201.746 60.6032 198.679 69.5047 198.679C78.4062 198.679 82.796 201.746 87.1857 204.72C91.5755 207.693 95.7214 210.574 104.257 210.574C112.793 210.574 116.939 207.693 121.45 204.72C125.84 201.746 130.23 198.679 139.131 198.679C148.033 198.679 152.423 201.746 156.812 204.72C161.202 207.693 165.348 210.574 174.006 210.574C182.541 210.574 186.687 207.693 191.077 204.72C195.467 201.746 199.857 198.679 208.758 198.679C217.659 198.679 222.049 201.746 226.439 204.72C230.829 207.693 234.975 210.574 243.51 210.574C252.046 210.574 256.192 207.693 260.704 204.72C265.093 201.746 269.483 198.679 278.385 198.679C287.286 198.679 291.676 201.746 296.066 204.72C300.455 207.693 304.601 210.574 313.259 210.574C321.795 210.574 325.94 207.693 330.452 204.72C334.842 201.746 339.232 198.679 348.133 198.679C357.035 198.679 361.424 201.746 365.814 204.72C370.204 207.693 374.35 210.574 383.007 210.574C391.543 210.574 395.689 207.693 400.201 204.72C404.59 201.746 408.98 198.679 417.882 198.679C426.783 198.679 431.173 201.746 435.563 204.72C439.953 207.693 444.098 210.574 452.756 210.574V211.224Z" fill="#202994"/>
<path d="M452.756 222.84C443.855 222.84 439.465 219.773 435.075 216.8C430.685 213.826 426.539 210.945 417.882 210.945C409.224 210.945 405.2 213.826 400.689 216.8C396.299 219.773 391.909 222.84 383.007 222.84C374.106 222.84 369.716 219.773 365.326 216.8C360.937 213.826 356.791 210.945 348.133 210.945C339.598 210.945 335.452 213.826 330.94 216.8C326.55 219.773 322.16 222.84 313.259 222.84C304.357 222.84 299.968 219.773 295.578 216.8C291.188 213.826 287.042 210.945 278.385 210.945C269.849 210.945 265.703 213.826 261.191 216.8C256.802 219.773 252.412 222.84 243.51 222.84C234.609 222.84 230.219 219.773 225.829 216.8C221.44 213.826 217.294 210.945 208.758 210.945C200.222 210.945 196.076 213.826 191.687 216.8C187.297 219.773 182.907 222.84 174.006 222.84C165.104 222.84 160.714 219.773 156.325 216.8C151.935 213.826 147.789 210.945 139.131 210.945C130.596 210.945 126.45 213.826 121.938 216.8C117.548 219.773 113.159 222.84 104.257 222.84C95.3556 222.84 90.9658 219.773 86.576 216.8C82.1863 213.826 78.0404 210.945 69.5047 210.945C60.969 210.945 56.8231 213.826 52.4334 216.8C48.0436 219.773 43.6538 222.84 34.7523 222.84C25.8509 222.84 21.4611 219.773 17.0713 216.8C12.6816 213.826 8.53567 210.945 0 210.945V210.295C8.90148 210.295 13.2913 213.361 17.681 216.335C22.0708 219.309 26.2167 222.19 34.7523 222.19C43.288 222.19 47.4339 219.309 51.8237 216.335C56.2135 213.361 60.6032 210.295 69.5047 210.295C78.4062 210.295 82.796 213.361 87.1857 216.335C91.5755 219.309 95.7214 222.19 104.257 222.19C112.793 222.19 116.939 219.309 121.45 216.335C125.84 213.361 130.23 210.295 139.131 210.295C148.033 210.295 152.423 213.361 156.812 216.335C161.202 219.309 165.348 222.19 174.006 222.19C182.541 222.19 186.687 219.309 191.077 216.335C195.467 213.361 199.857 210.295 208.758 210.295C217.659 210.295 222.049 213.361 226.439 216.335C230.829 219.309 234.975 222.19 243.51 222.19C252.046 222.19 256.192 219.309 260.704 216.335C265.093 213.361 269.483 210.295 278.385 210.295C287.286 210.295 291.676 213.361 296.066 216.335C300.455 219.309 304.601 222.19 313.259 222.19C321.795 222.19 325.94 219.309 330.452 216.335C334.842 213.361 339.232 210.295 348.133 210.295C357.035 210.295 361.424 213.361 365.814 216.335C370.204 219.309 374.35 222.19 383.007 222.19C391.543 222.19 395.689 219.309 400.201 216.335C404.59 213.361 408.98 210.295 417.882 210.295C426.783 210.295 431.173 213.361 435.563 216.335C439.953 219.309 444.098 222.19 452.756 222.19V222.84Z" fill="#202994"/>
<path d="M452.756 234.549C443.855 234.549 439.465 231.482 435.075 228.508C430.685 225.535 426.539 222.654 417.882 222.654C409.224 222.654 405.2 225.535 400.689 228.508C396.299 231.482 391.909 234.549 383.007 234.549C374.106 234.549 369.716 231.482 365.326 228.508C360.937 225.535 356.791 222.654 348.133 222.654C339.598 222.654 335.452 225.535 330.94 228.508C326.55 231.482 322.16 234.549 313.259 234.549C304.357 234.549 299.968 231.482 295.578 228.508C291.188 225.535 287.042 222.654 278.385 222.654C269.849 222.654 265.703 225.535 261.191 228.508C256.802 231.482 252.412 234.549 243.51 234.549C234.609 234.549 230.219 231.482 225.829 228.508C221.44 225.535 217.294 222.654 208.758 222.654C200.222 222.654 196.076 225.535 191.687 228.508C187.297 231.482 182.907 234.549 174.006 234.549C165.104 234.549 160.714 231.482 156.325 228.508C151.935 225.535 147.789 222.654 139.131 222.654C130.596 222.654 126.45 225.535 121.938 228.508C117.548 231.482 113.159 234.549 104.257 234.549C95.3556 234.549 90.9658 231.482 86.576 228.508C82.1863 225.535 78.0404 222.654 69.5047 222.654C60.969 222.654 56.8231 225.535 52.4334 228.508C48.0436 231.482 43.6538 234.549 34.7523 234.549C25.8509 234.549 21.4611 231.482 17.0713 228.508C12.6816 225.535 8.53567 222.654 0 222.654V222.003C8.90148 222.003 13.2913 225.07 17.681 228.044C22.0708 231.017 26.2167 233.898 34.7523 233.898C43.288 233.898 47.4339 231.017 51.8237 228.044C56.2135 225.07 60.6032 222.003 69.5047 222.003C78.4062 222.003 82.796 225.07 87.1857 228.044C91.5755 231.017 95.7214 233.898 104.257 233.898C112.793 233.898 116.939 231.017 121.45 228.044C125.84 225.07 130.23 222.003 139.131 222.003C148.033 222.003 152.423 225.07 156.812 228.044C161.202 231.017 165.348 233.898 174.006 233.898C182.541 233.898 186.687 231.017 191.077 228.044C195.467 225.07 199.857 222.003 208.758 222.003C217.659 222.003 222.049 225.07 226.439 228.044C230.829 231.017 234.975 233.898 243.51 233.898C252.046 233.898 256.192 231.017 260.704 228.044C265.093 225.07 269.483 222.003 278.385 222.003C287.286 222.003 291.676 225.07 296.066 228.044C300.455 231.017 304.601 233.898 313.259 233.898C321.795 233.898 325.94 231.017 330.452 228.044C334.842 225.07 339.232 222.003 348.133 222.003C357.035 222.003 361.424 225.07 365.814 228.044C370.204 231.017 374.35 233.898 383.007 233.898C391.543 233.898 395.689 231.017 400.201 228.044C404.59 225.07 408.98 222.003 417.882 222.003C426.783 222.003 431.173 225.07 435.563 228.044C439.953 231.017 444.098 233.898 452.756 233.898V234.549Z" fill="#202994"/>
<path d="M452.756 246.257C443.855 246.257 439.465 243.191 435.075 240.217C430.685 237.243 426.539 234.363 417.882 234.363C409.224 234.363 405.2 237.243 400.689 240.217C396.299 243.191 391.909 246.257 383.008 246.257C374.106 246.257 369.716 243.191 365.327 240.217C360.937 237.243 356.791 234.363 348.133 234.363C339.598 234.363 335.452 237.243 330.94 240.217C326.55 243.191 322.16 246.257 313.259 246.257C304.358 246.257 299.968 243.191 295.578 240.217C291.188 237.243 287.042 234.363 278.385 234.363C269.849 234.363 265.703 237.243 261.191 240.217C256.802 243.191 252.412 246.257 243.51 246.257C234.609 246.257 230.219 243.191 225.829 240.217C221.44 237.243 217.294 234.363 208.758 234.363C200.222 234.363 196.077 237.243 191.687 240.217C187.297 243.191 182.907 246.257 174.006 246.257C165.104 246.257 160.715 243.191 156.325 240.217C151.935 237.243 147.789 234.363 139.131 234.363C130.596 234.363 126.45 237.243 121.938 240.217C117.548 243.191 113.159 246.257 104.257 246.257C95.3557 246.257 90.9659 243.191 86.5761 240.217C82.1864 237.243 78.0405 234.363 69.5048 234.363C60.9691 234.363 56.8232 237.243 52.4335 240.217C48.0437 243.191 43.6539 246.257 34.7525 246.257C25.851 246.257 21.4612 243.191 17.0714 240.217C12.6817 237.243 8.53577 234.363 0.000107642 234.363V233.712C8.90159 233.712 13.2914 236.779 17.6811 239.752C22.0709 242.726 26.2168 245.607 34.7525 245.607C43.2881 245.607 47.434 242.726 51.8238 239.752C56.2136 236.779 60.6033 233.712 69.5048 233.712C78.4063 233.712 82.7961 236.779 87.1858 239.752C91.5756 242.726 95.7215 245.607 104.257 245.607C112.793 245.607 116.939 242.726 121.45 239.752C125.84 236.779 130.23 233.712 139.131 233.712C148.033 233.712 152.423 236.779 156.812 239.752C161.202 242.726 165.348 245.607 174.006 245.607C182.541 245.607 186.687 242.726 191.077 239.752C195.467 236.779 199.857 233.712 208.758 233.712C217.66 233.712 222.049 236.779 226.439 239.752C230.829 242.726 234.975 245.607 243.51 245.607C252.046 245.607 256.192 242.726 260.704 239.752C265.094 236.779 269.483 233.712 278.385 233.712C287.286 233.712 291.676 236.779 296.066 239.752C300.456 242.726 304.601 245.607 313.259 245.607C321.795 245.607 325.941 242.726 330.452 239.752C334.842 236.779 339.232 233.712 348.133 233.712C357.035 233.712 361.425 236.779 365.814 239.752C370.204 242.726 374.35 245.607 383.008 245.607C391.543 245.607 395.689 242.726 400.201 239.752C404.591 236.779 408.98 233.712 417.882 233.712C426.783 233.712 431.173 236.779 435.563 239.752C439.953 242.726 444.099 245.607 452.756 245.607V246.257Z" fill="#202994"/>
<path d="M452.756 257.966C443.855 257.966 439.465 254.899 435.075 251.926C430.685 248.952 426.539 246.071 417.882 246.071C409.224 246.071 405.2 248.952 400.689 251.926C396.299 254.899 391.909 257.966 383.007 257.966C374.106 257.966 369.716 254.899 365.326 251.926C360.937 248.952 356.791 246.071 348.133 246.071C339.598 246.071 335.452 248.952 330.94 251.926C326.55 254.899 322.16 257.966 313.259 257.966C304.357 257.966 299.968 254.899 295.578 251.926C291.188 248.952 287.042 246.071 278.385 246.071C269.849 246.071 265.703 248.952 261.191 251.926C256.802 254.899 252.412 257.966 243.51 257.966C234.609 257.966 230.219 254.899 225.829 251.926C221.44 248.952 217.294 246.071 208.758 246.071C200.222 246.071 196.076 248.952 191.687 251.926C187.297 254.899 182.907 257.966 174.006 257.966C165.104 257.966 160.714 254.899 156.325 251.926C151.935 248.952 147.789 246.071 139.131 246.071C130.596 246.071 126.45 248.952 121.938 251.926C117.548 254.899 113.159 257.966 104.257 257.966C95.3556 257.966 90.9658 254.899 86.576 251.926C82.1863 248.952 78.0404 246.071 69.5047 246.071C60.969 246.071 56.8231 248.952 52.4334 251.926C48.0436 254.899 43.6538 257.966 34.7523 257.966C25.8509 257.966 21.4611 254.899 17.0713 251.926C12.6816 248.952 8.53567 246.071 0 246.071V245.421C8.90148 245.421 13.2913 248.487 17.681 251.461C22.0708 254.435 26.2167 257.316 34.7523 257.316C43.288 257.316 47.4339 254.435 51.8237 251.461C56.2135 248.487 60.6032 245.421 69.5047 245.421C78.4062 245.421 82.796 248.487 87.1857 251.461C91.5755 254.435 95.7214 257.316 104.257 257.316C112.793 257.316 116.939 254.435 121.45 251.461C125.84 248.487 130.23 245.421 139.131 245.421C148.033 245.421 152.423 248.487 156.812 251.461C161.202 254.435 165.348 257.316 174.006 257.316C182.541 257.316 186.687 254.435 191.077 251.461C195.467 248.487 199.857 245.421 208.758 245.421C217.659 245.421 222.049 248.487 226.439 251.461C230.829 254.435 234.975 257.316 243.51 257.316C252.046 257.316 256.192 254.435 260.704 251.461C265.093 248.487 269.483 245.421 278.385 245.421C287.286 245.421 291.676 248.487 296.066 251.461C300.455 254.435 304.601 257.316 313.259 257.316C321.795 257.316 325.94 254.435 330.452 251.461C334.842 248.487 339.232 245.421 348.133 245.421C357.035 245.421 361.424 248.487 365.814 251.461C370.204 254.435 374.35 257.316 383.007 257.316C391.543 257.316 395.689 254.435 400.201 251.461C404.59 248.487 408.98 245.421 417.882 245.421C426.783 245.421 431.173 248.487 435.563 251.461C439.953 254.435 444.098 257.316 452.756 257.316V257.966Z" fill="#202994"/>
<path d="M452.756 269.582C443.855 269.582 439.465 266.515 435.075 263.541C430.685 260.568 426.539 257.687 417.882 257.687C409.224 257.687 405.2 260.568 400.689 263.541C396.299 266.515 391.909 269.582 383.007 269.582C374.106 269.582 369.716 266.515 365.326 263.541C360.937 260.568 356.791 257.687 348.133 257.687C339.598 257.687 335.452 260.568 330.94 263.541C326.55 266.515 322.16 269.582 313.259 269.582C304.357 269.582 299.968 266.515 295.578 263.541C291.188 260.568 287.042 257.687 278.385 257.687C269.849 257.687 265.703 260.568 261.191 263.541C256.802 266.515 252.412 269.582 243.51 269.582C234.609 269.582 230.219 266.515 225.829 263.541C221.44 260.568 217.294 257.687 208.758 257.687C200.222 257.687 196.076 260.568 191.687 263.541C187.297 266.515 182.907 269.582 174.006 269.582C165.104 269.582 160.714 266.515 156.325 263.541C151.935 260.568 147.789 257.687 139.131 257.687C130.596 257.687 126.45 260.568 121.938 263.541C117.548 266.515 113.159 269.582 104.257 269.582C95.3556 269.582 90.9658 266.515 86.576 263.541C82.1863 260.568 78.0404 257.687 69.5047 257.687C60.969 257.687 56.8231 260.568 52.4334 263.541C48.0436 266.515 43.6538 269.582 34.7523 269.582C25.8509 269.582 21.4611 266.515 17.0713 263.541C12.6816 260.568 8.53567 257.687 0 257.687V257.036C8.90148 257.036 13.2913 260.103 17.681 263.077C22.0708 266.05 26.2167 268.931 34.7523 268.931C43.288 268.931 47.4339 266.05 51.8237 263.077C56.2135 260.103 60.6032 257.036 69.5047 257.036C78.4062 257.036 82.796 260.103 87.1857 263.077C91.5755 266.05 95.7214 268.931 104.257 268.931C112.793 268.931 116.939 266.05 121.45 263.077C125.84 260.103 130.23 257.036 139.131 257.036C148.033 257.036 152.423 260.103 156.812 263.077C161.202 266.05 165.348 268.931 174.006 268.931C182.541 268.931 186.687 266.05 191.077 263.077C195.467 260.103 199.857 257.036 208.758 257.036C217.659 257.036 222.049 260.103 226.439 263.077C230.829 266.05 234.975 268.931 243.51 268.931C252.046 268.931 256.192 266.05 260.704 263.077C265.093 260.103 269.483 257.036 278.385 257.036C287.286 257.036 291.676 260.103 296.066 263.077C300.455 266.05 304.601 268.931 313.259 268.931C321.795 268.931 325.94 266.05 330.452 263.077C334.842 260.103 339.232 257.036 348.133 257.036C357.035 257.036 361.424 260.103 365.814 263.077C370.204 266.05 374.35 268.931 383.007 268.931C391.543 268.931 395.689 266.05 400.201 263.077C404.59 260.103 408.98 257.036 417.882 257.036C426.783 257.036 431.173 260.103 435.563 263.077C439.953 266.05 444.098 268.931 452.756 268.931V269.582Z" fill="#202994"/>
<path d="M452.756 281.291C443.855 281.291 439.465 278.225 435.075 275.251C430.685 272.277 426.539 269.397 417.882 269.397C409.224 269.397 405.2 272.277 400.689 275.251C396.299 278.225 391.909 281.291 383.007 281.291C374.106 281.291 369.716 278.225 365.326 275.251C360.937 272.277 356.791 269.397 348.133 269.397C339.598 269.397 335.452 272.277 330.94 275.251C326.55 278.225 322.16 281.291 313.259 281.291C304.357 281.291 299.968 278.225 295.578 275.251C291.188 272.277 287.042 269.397 278.385 269.397C269.849 269.397 265.703 272.277 261.191 275.251C256.802 278.225 252.412 281.291 243.51 281.291C234.609 281.291 230.219 278.225 225.829 275.251C221.44 272.277 217.294 269.397 208.758 269.397C200.222 269.397 196.076 272.277 191.687 275.251C187.297 278.225 182.907 281.291 174.006 281.291C165.104 281.291 160.714 278.225 156.325 275.251C151.935 272.277 147.789 269.397 139.131 269.397C130.596 269.397 126.45 272.277 121.938 275.251C117.548 278.225 113.159 281.291 104.257 281.291C95.3556 281.291 90.9658 278.225 86.576 275.251C82.1863 272.277 78.0404 269.397 69.5047 269.397C60.969 269.397 56.8231 272.277 52.4334 275.251C48.0436 278.225 43.6538 281.291 34.7523 281.291C25.8509 281.291 21.4611 278.225 17.0713 275.251C12.6816 272.277 8.53567 269.397 0 269.397V268.746C8.90148 268.746 13.2913 271.813 17.681 274.786C22.0708 277.76 26.2167 280.641 34.7523 280.641C43.288 280.641 47.4339 277.76 51.8237 274.786C56.2135 271.813 60.6032 268.746 69.5047 268.746C78.4062 268.746 82.796 271.813 87.1857 274.786C91.5755 277.76 95.7214 280.641 104.257 280.641C112.793 280.641 116.939 277.76 121.45 274.786C125.84 271.813 130.23 268.746 139.131 268.746C148.033 268.746 152.423 271.813 156.812 274.786C161.202 277.76 165.348 280.641 174.006 280.641C182.541 280.641 186.687 277.76 191.077 274.786C195.467 271.813 199.857 268.746 208.758 268.746C217.659 268.746 222.049 271.813 226.439 274.786C230.829 277.76 234.975 280.641 243.51 280.641C252.046 280.641 256.192 277.76 260.704 274.786C265.093 271.813 269.483 268.746 278.385 268.746C287.286 268.746 291.676 271.813 296.066 274.786C300.455 277.76 304.601 280.641 313.259 280.641C321.795 280.641 325.94 277.76 330.452 274.786C334.842 271.813 339.232 268.746 348.133 268.746C357.035 268.746 361.424 271.813 365.814 274.786C370.204 277.76 374.35 280.641 383.007 280.641C391.543 280.641 395.689 277.76 400.201 274.786C404.59 271.813 408.98 268.746 417.882 268.746C426.783 268.746 431.173 271.813 435.563 274.786C439.953 277.76 444.098 280.641 452.756 280.641V281.291Z" fill="#202994"/>
<path d="M452.756 293C443.855 293 439.465 289.933 435.075 286.96C430.685 283.986 426.539 281.105 417.882 281.105C409.224 281.105 405.2 283.986 400.689 286.96C396.299 289.933 391.909 293 383.007 293C374.106 293 369.716 289.933 365.326 286.96C360.937 283.986 356.791 281.105 348.133 281.105C339.598 281.105 335.452 283.986 330.94 286.96C326.55 289.933 322.16 293 313.259 293C304.357 293 299.968 289.933 295.578 286.96C291.188 283.986 287.042 281.105 278.385 281.105C269.849 281.105 265.703 283.986 261.191 286.96C256.802 289.933 252.412 293 243.51 293C234.609 293 230.219 289.933 225.829 286.96C221.44 283.986 217.294 281.105 208.758 281.105C200.222 281.105 196.076 283.986 191.687 286.96C187.297 289.933 182.907 293 174.006 293C165.104 293 160.714 289.933 156.325 286.96C151.935 283.986 147.789 281.105 139.131 281.105C130.596 281.105 126.45 283.986 121.938 286.96C117.548 289.933 113.159 293 104.257 293C95.3556 293 90.9658 289.933 86.576 286.96C82.1863 283.986 78.0404 281.105 69.5047 281.105C60.969 281.105 56.8231 283.986 52.4334 286.96C48.0436 289.933 43.6538 293 34.7523 293C25.8509 293 21.4611 289.933 17.0713 286.96C12.6816 283.986 8.53567 281.105 0 281.105V280.455C8.90148 280.455 13.2913 283.521 17.681 286.495C22.0708 289.469 26.2167 292.349 34.7523 292.349C43.288 292.349 47.4339 289.469 51.8237 286.495C56.2135 283.521 60.6032 280.455 69.5047 280.455C78.4062 280.455 82.796 283.521 87.1857 286.495C91.5755 289.469 95.7214 292.349 104.257 292.349C112.793 292.349 116.939 289.469 121.45 286.495C125.84 283.521 130.23 280.455 139.131 280.455C148.033 280.455 152.423 283.521 156.812 286.495C161.202 289.469 165.348 292.349 174.006 292.349C182.541 292.349 186.687 289.469 191.077 286.495C195.467 283.521 199.857 280.455 208.758 280.455C217.659 280.455 222.049 283.521 226.439 286.495C230.829 289.469 234.975 292.349 243.51 292.349C252.046 292.349 256.192 289.469 260.704 286.495C265.093 283.521 269.483 280.455 278.385 280.455C287.286 280.455 291.676 283.521 296.066 286.495C300.455 289.469 304.601 292.349 313.259 292.349C321.795 292.349 325.94 289.469 330.452 286.495C334.842 283.521 339.232 280.455 348.133 280.455C357.035 280.455 361.424 283.521 365.814 286.495C370.204 289.469 374.35 292.349 383.007 292.349C391.543 292.349 395.689 289.469 400.201 286.495C404.59 283.521 408.98 280.455 417.882 280.455C426.783 280.455 431.173 283.521 435.563 286.495C439.953 289.469 444.098 292.349 452.756 292.349V293Z" fill="#202994"/>
</svg>
