<svg width="493" height="403" viewBox="0 0 493 403" fill="none" xmlns="http://www.w3.org/2000/svg">
<path d="M567.589 17.255C552.596 17.255 545.202 13.0371 537.809 8.94703C530.415 4.85696 523.432 0.894703 508.849 0.894703C494.267 0.894703 487.49 4.85696 479.89 8.94703C472.497 13.0371 465.103 17.255 450.11 17.255C435.117 17.255 427.723 13.0371 420.329 8.94703C412.935 4.85696 405.952 0.894703 391.37 0.894703C376.993 0.894703 370.01 4.85696 362.411 8.94703C355.017 13.0371 347.623 17.255 332.63 17.255C317.637 17.255 310.244 13.0371 302.85 8.94703C295.456 4.85696 288.473 0.894703 273.891 0.894703C259.514 0.894703 252.531 4.85696 244.932 8.94703C237.538 13.0371 230.144 17.255 215.151 17.255C200.158 17.255 192.764 13.0371 185.37 8.94703C177.977 4.85696 170.994 0.894703 156.617 0.894703C142.24 0.894703 135.257 4.85696 127.863 8.94703C120.469 13.0371 113.075 17.255 98.0824 17.255C83.0894 17.255 75.6956 13.0371 68.3018 8.94703C60.9079 4.85696 53.9249 0.894703 39.3426 0.894703C24.9658 0.894703 17.9828 4.85696 10.3836 8.94703C2.98975 13.0371 -4.40406 17.255 -19.3971 17.255C-34.3901 17.255 -41.7839 13.0371 -49.1777 8.94703C-56.5715 4.85696 -63.5545 0.894703 -77.9314 0.894703C-92.3082 0.894703 -99.2913 4.85696 -106.685 8.94703C-114.079 13.0371 -121.473 17.255 -136.466 17.255C-151.459 17.255 -158.852 13.0371 -166.246 8.94703C-173.64 4.85696 -180.623 0.894703 -195 0.894703V0C-180.007 0 -172.613 4.21788 -165.219 8.30795C-157.826 12.398 -150.843 16.3603 -136.466 16.3603C-122.089 16.3603 -115.106 12.398 -107.712 8.30795C-100.318 4.21788 -92.9244 0 -77.9314 0C-62.9384 0 -55.5446 4.21788 -48.1508 8.30795C-40.7569 12.398 -33.7739 16.3603 -19.3971 16.3603C-5.02021 16.3603 1.96285 12.398 9.56204 8.30795C16.9558 4.21788 24.3496 0 39.3426 0C54.3356 0 61.7294 4.21788 69.1233 8.30795C76.5171 12.398 83.5001 16.3603 98.0824 16.3603C112.459 16.3603 119.442 12.398 126.836 8.30795C134.23 4.21788 141.624 0 156.617 0C171.61 0 179.003 4.21788 186.397 8.30795C193.791 12.398 200.774 16.3603 215.151 16.3603C229.528 16.3603 236.511 12.398 244.11 8.30795C251.504 4.21788 258.898 0 273.891 0C288.884 0 296.277 4.21788 303.671 8.30795C311.681 12.5258 318.664 16.3603 333.041 16.3603C347.418 16.3603 354.401 12.398 362 8.30795C369.394 4.21788 376.788 0 391.781 0C406.774 0 414.168 4.21788 421.561 8.30795C428.955 12.398 435.938 16.3603 450.521 16.3603C464.897 16.3603 471.88 12.398 479.48 8.30795C486.873 4.21788 494.267 0 509.26 0C524.253 0 531.647 4.21788 539.041 8.30795C546.435 12.398 553.418 16.3603 568 16.3603V17.255H567.589Z" fill="#202994"/>
<path d="M567.589 33.3594C552.596 33.3594 545.202 29.1415 537.809 25.0515C530.415 20.9614 523.432 16.9991 508.849 16.9991C494.267 16.9991 487.49 20.9614 479.89 25.0515C472.497 29.1415 465.103 33.3594 450.11 33.3594C435.117 33.3594 427.723 29.1415 420.329 25.0515C412.935 20.9614 405.952 16.9991 391.37 16.9991C376.993 16.9991 370.01 20.9614 362.411 25.0515C355.017 29.1415 347.623 33.3594 332.63 33.3594C317.637 33.3594 310.244 29.1415 302.85 25.0515C295.456 20.9614 288.473 16.9991 273.891 16.9991C259.514 16.9991 252.531 20.9614 244.932 25.0515C237.538 29.1415 230.144 33.3594 215.151 33.3594C200.158 33.3594 192.764 29.1415 185.37 25.0515C177.977 20.9614 170.994 16.9991 156.617 16.9991C142.24 16.9991 135.257 20.9614 127.863 25.0515C120.469 29.1415 113.075 33.3594 98.0824 33.3594C83.0894 33.3594 75.6956 29.1415 68.3018 25.0515C60.9079 20.9614 53.9249 16.9991 39.3426 16.9991C24.9658 16.9991 17.9828 20.9614 10.3836 25.0515C2.98975 29.1415 -4.40406 33.3594 -19.3971 33.3594C-34.3901 33.3594 -41.7839 29.1415 -49.1777 25.0515C-56.5715 20.9614 -63.5545 16.9991 -77.9314 16.9991C-92.3082 16.9991 -99.2913 20.9614 -106.685 25.0515C-114.079 29.1415 -121.473 33.3594 -136.466 33.3594C-151.459 33.3594 -158.852 29.1415 -166.246 25.0515C-173.64 20.9614 -180.623 16.9991 -195 16.9991V16.1044C-180.007 16.1044 -172.613 20.3223 -165.219 24.4124C-157.826 28.5025 -150.843 32.4647 -136.466 32.4647C-122.089 32.4647 -115.106 28.5025 -107.712 24.4124C-100.318 20.3223 -92.9244 16.1044 -77.9314 16.1044C-62.9384 16.1044 -55.5446 20.3223 -48.1508 24.4124C-40.7569 28.5025 -33.7739 32.4647 -19.3971 32.4647C-5.02021 32.4647 1.96285 28.5025 9.56204 24.4124C16.9558 20.3223 24.3496 16.1044 39.3426 16.1044C54.3356 16.1044 61.7294 20.3223 69.1233 24.4124C76.5171 28.5025 83.5001 32.4647 98.0824 32.4647C112.459 32.4647 119.442 28.5025 126.836 24.4124C134.23 20.3223 141.624 16.1044 156.617 16.1044C171.61 16.1044 179.003 20.3223 186.397 24.4124C193.791 28.5025 200.774 32.4647 215.151 32.4647C229.528 32.4647 236.511 28.5025 244.11 24.4124C251.504 20.3223 258.898 16.1044 273.891 16.1044C288.884 16.1044 296.277 20.3223 303.671 24.4124C311.065 28.5025 318.048 32.4647 332.63 32.4647C347.007 32.4647 353.99 28.5025 361.589 24.4124C368.983 20.3223 376.377 16.1044 391.37 16.1044C406.363 16.1044 413.757 20.3223 421.151 24.4124C428.545 28.5025 435.528 32.4647 450.11 32.4647C464.487 32.4647 471.47 28.5025 479.069 24.4124C486.463 20.3223 493.856 16.1044 508.849 16.1044C523.842 16.1044 531.236 20.3223 538.63 24.4124C546.024 28.5025 553.007 32.4647 567.589 32.4647V33.3594Z" fill="#202994"/>
<path d="M567.589 49.4638C552.596 49.4638 545.202 45.246 537.809 41.1559C530.415 37.0658 523.432 33.1036 508.849 33.1036C494.267 33.1036 487.49 37.0658 479.89 41.1559C472.497 45.246 465.103 49.4638 450.11 49.4638C435.117 49.4638 427.723 45.246 420.329 41.1559C412.935 37.0658 405.952 33.1036 391.37 33.1036C376.993 33.1036 370.01 37.0658 362.411 41.1559C355.017 45.246 347.623 49.4638 332.63 49.4638C317.637 49.4638 310.244 45.246 302.85 41.1559C295.456 37.0658 288.473 33.1036 273.891 33.1036C259.514 33.1036 252.531 37.0658 244.932 41.1559C237.538 45.246 230.144 49.4638 215.151 49.4638C200.158 49.4638 192.764 45.246 185.37 41.1559C177.977 37.0658 170.994 33.1036 156.617 33.1036C142.24 33.1036 135.257 37.0658 127.863 41.1559C120.469 45.246 113.075 49.4638 98.0824 49.4638C83.0894 49.4638 75.6956 45.246 68.3018 41.1559C60.9079 37.0658 53.9249 33.1036 39.3426 33.1036C24.9658 33.1036 17.9828 37.0658 10.3836 41.1559C2.98975 45.246 -4.40406 49.4638 -19.3971 49.4638C-34.3901 49.4638 -41.7839 45.246 -49.1777 41.1559C-56.5715 37.0658 -63.5545 33.1036 -77.9314 33.1036C-92.3082 33.1036 -99.2913 37.0658 -106.685 41.1559C-114.079 45.246 -121.473 49.4638 -136.466 49.4638C-151.459 49.4638 -158.852 45.246 -166.246 41.1559C-173.64 37.0658 -180.623 33.1036 -195 33.1036V32.2089C-180.007 32.2089 -172.613 36.4267 -165.219 40.5168C-157.826 44.6069 -150.843 48.5691 -136.466 48.5691C-122.089 48.5691 -115.106 44.6069 -107.712 40.5168C-100.318 36.4267 -92.9244 32.2089 -77.9314 32.2089C-62.9384 32.2089 -55.5446 36.4267 -48.1508 40.5168C-40.7569 44.6069 -33.7739 48.5691 -19.3971 48.5691C-5.02021 48.5691 1.96285 44.6069 9.56204 40.5168C16.9558 36.4267 24.3496 32.2089 39.3426 32.2089C54.3356 32.2089 61.7294 36.4267 69.1233 40.5168C76.5171 44.6069 83.5001 48.5691 98.0824 48.5691C112.459 48.5691 119.442 44.6069 126.836 40.5168C134.23 36.4267 141.624 32.2089 156.617 32.2089C171.61 32.2089 179.003 36.4267 186.397 40.5168C193.791 44.6069 200.774 48.5691 215.151 48.5691C229.528 48.5691 236.511 44.6069 244.11 40.5168C251.504 36.4267 258.898 32.2089 273.891 32.2089C288.884 32.2089 296.277 36.4267 303.671 40.5168C311.065 44.6069 318.048 48.5691 332.63 48.5691C347.007 48.5691 353.99 44.6069 361.589 40.5168C368.983 36.4267 376.377 32.2089 391.37 32.2089C406.363 32.2089 413.757 36.4267 421.151 40.5168C428.545 44.6069 435.528 48.5691 450.11 48.5691C464.487 48.5691 471.47 44.6069 479.069 40.5168C486.463 36.4267 493.856 32.2089 508.849 32.2089C523.842 32.2089 531.236 36.4267 538.63 40.5168C546.024 44.6069 553.007 48.5691 567.589 48.5691V49.4638Z" fill="#202994"/>
<path d="M567.589 65.4405C552.596 65.4405 545.202 61.2226 537.809 57.1325C530.415 53.0424 523.432 49.0802 508.849 49.0802C494.267 49.0802 487.49 53.0424 479.89 57.1325C472.497 61.2226 465.103 65.4405 450.11 65.4405C435.117 65.4405 427.723 61.2226 420.329 57.1325C412.935 53.0424 405.952 49.0802 391.37 49.0802C376.993 49.0802 370.01 53.0424 362.411 57.1325C355.017 61.2226 347.623 65.4405 332.63 65.4405C317.637 65.4405 310.244 61.2226 302.85 57.1325C295.456 53.0424 288.473 49.0802 273.891 49.0802C259.514 49.0802 252.531 53.0424 244.932 57.1325C237.538 61.2226 230.144 65.4405 215.151 65.4405C200.158 65.4405 192.764 61.2226 185.37 57.1325C177.977 53.0424 170.994 49.0802 156.617 49.0802C142.24 49.0802 135.257 53.0424 127.863 57.1325C120.469 61.2226 113.075 65.4405 98.0824 65.4405C83.0894 65.4405 75.6956 61.2226 68.3018 57.1325C60.9079 53.0424 53.9249 49.0802 39.3426 49.0802C24.9658 49.0802 17.9828 53.0424 10.3836 57.1325C2.98975 61.2226 -4.40406 65.4405 -19.3971 65.4405C-34.3901 65.4405 -41.7839 61.2226 -49.1777 57.1325C-56.5715 53.0424 -63.5545 49.0802 -77.9314 49.0802C-92.3082 49.0802 -99.2913 53.0424 -106.685 57.1325C-114.079 61.2226 -121.473 65.4405 -136.466 65.4405C-151.459 65.4405 -158.852 61.2226 -166.246 57.1325C-173.64 53.0424 -180.623 49.0802 -195 49.0802V48.3133C-180.007 48.3133 -172.613 52.5312 -165.219 56.6212C-157.826 60.7113 -150.843 64.6736 -136.466 64.6736C-122.089 64.6736 -115.106 60.7113 -107.712 56.6212C-100.318 52.5312 -92.9244 48.3133 -77.9314 48.3133C-62.9384 48.3133 -55.5446 52.5312 -48.1508 56.6212C-40.7569 60.7113 -33.7739 64.6736 -19.3971 64.6736C-5.02021 64.6736 1.96285 60.7113 9.56204 56.6212C16.9558 52.5312 24.3496 48.3133 39.3426 48.3133C54.3356 48.3133 61.7294 52.5312 69.1233 56.6212C76.5171 60.7113 83.5001 64.6736 98.0824 64.6736C112.459 64.6736 119.442 60.7113 126.836 56.6212C134.23 52.5312 141.624 48.3133 156.617 48.3133C171.61 48.3133 179.003 52.5312 186.397 56.6212C193.791 60.7113 200.774 64.6736 215.151 64.6736C229.528 64.6736 236.511 60.7113 244.11 56.6212C251.504 52.5312 258.898 48.3133 273.891 48.3133C288.884 48.3133 296.277 52.5312 303.671 56.6212C311.065 60.7113 318.048 64.6736 332.63 64.6736C347.007 64.6736 353.99 60.7113 361.589 56.6212C368.983 52.5312 376.377 48.3133 391.37 48.3133C406.363 48.3133 413.757 52.5312 421.151 56.6212C428.545 60.7113 435.528 64.6736 450.11 64.6736C464.487 64.6736 471.47 60.7113 479.069 56.6212C486.463 52.5312 493.856 48.3133 508.849 48.3133C523.842 48.3133 531.236 52.5312 538.63 56.6212C546.024 60.7113 553.007 64.6736 567.589 64.6736V65.4405Z" fill="#202994"/>
<path d="M567.588 81.5461C552.595 81.5461 545.201 77.3282 537.808 73.2381C530.414 69.148 523.431 65.1858 508.848 65.1858C494.266 65.1858 487.489 69.148 479.889 73.2381C472.496 77.3282 465.102 81.5461 450.109 81.5461C435.116 81.5461 427.722 77.3282 420.328 73.2381C412.934 69.148 405.951 65.1858 391.369 65.1858C376.992 65.1858 370.009 69.148 362.41 73.2381C355.632 77.3282 348.033 81.5461 333.04 81.5461C318.047 81.5461 310.653 77.3282 303.26 73.2381C295.866 69.148 288.883 65.1858 274.301 65.1858C259.924 65.1858 252.941 69.148 245.341 73.2381C237.948 77.3282 230.554 81.5461 215.561 81.5461C200.568 81.5461 193.174 77.3282 185.78 73.2381C178.386 69.148 171.403 65.1858 157.026 65.1858C142.65 65.1858 135.667 69.148 128.273 73.2381C120.879 77.3282 113.485 81.5461 98.4922 81.5461C83.4992 81.5461 76.1053 77.3282 68.7115 73.2381C61.3177 69.148 54.3347 65.1858 39.7525 65.1858C25.3757 65.1858 18.3926 69.148 10.7934 73.2381C3.3996 77.3282 -3.99421 81.5461 -18.9872 81.5461C-33.9802 81.5461 -41.374 77.3282 -48.7678 73.2381C-56.1616 69.148 -63.1447 65.1858 -77.5215 65.1858C-91.8984 65.1858 -98.8814 69.148 -106.275 73.2381C-113.669 77.3282 -121.063 81.5461 -136.056 81.5461C-151.049 81.5461 -158.443 77.3282 -165.836 73.2381C-173.23 69.148 -180.213 65.1858 -194.59 65.1858V64.2911C-179.597 64.2911 -172.203 68.5089 -164.81 72.599C-157.416 76.6891 -150.433 80.6513 -136.056 80.6513C-121.679 80.6513 -114.696 76.6891 -107.302 72.599C-99.9083 68.5089 -92.5145 64.2911 -77.5215 64.2911C-62.5285 64.2911 -55.1347 68.5089 -47.7409 72.599C-40.3471 76.6891 -33.3641 80.6513 -18.9872 80.6513C-4.61036 80.6513 2.3727 76.6891 9.97189 72.599C17.3657 68.5089 24.7595 64.2911 39.7525 64.2911C54.7455 64.2911 62.1393 68.5089 69.5331 72.599C76.9269 76.6891 83.9099 80.6513 98.4922 80.6513C112.869 80.6513 119.852 76.6891 127.246 72.599C134.64 68.5089 142.033 64.2911 157.026 64.2911C172.019 64.2911 179.413 68.5089 186.807 72.599C194.201 76.6891 201.184 80.6513 215.561 80.6513C229.938 80.6513 236.921 76.6891 244.52 72.599C251.914 68.5089 259.308 64.2911 274.301 64.2911C289.293 64.2911 296.687 68.5089 304.081 72.599C311.475 76.6891 318.458 80.6513 333.04 80.6513C347.417 80.6513 354.4 76.6891 361.999 72.599C369.393 68.5089 376.787 64.2911 391.78 64.2911C406.773 64.2911 414.167 68.5089 421.56 72.599C428.954 76.6891 435.937 80.6513 450.52 80.6513C464.896 80.6513 471.879 76.6891 479.479 72.599C486.872 68.5089 494.266 64.2911 509.259 64.2911C524.252 64.2911 531.646 68.5089 539.04 72.599C546.434 76.6891 553.417 80.6513 567.999 80.6513V81.5461H567.588Z" fill="#202994"/>
<path d="M567.589 97.6505C552.596 97.6505 545.202 93.4326 537.809 89.3425C530.415 85.2525 523.432 81.2902 508.849 81.2902C494.267 81.2902 487.49 85.2525 479.89 89.3425C472.497 93.4326 465.103 97.6505 450.11 97.6505C435.117 97.6505 427.723 93.4326 420.329 89.3425C412.935 85.2525 405.952 81.2902 391.37 81.2902C376.993 81.2902 370.01 85.2525 362.411 89.3425C355.017 93.4326 347.623 97.6505 332.63 97.6505C317.637 97.6505 310.244 93.4326 302.85 89.3425C295.456 85.2525 288.473 81.2902 273.891 81.2902C259.514 81.2902 252.531 85.2525 244.932 89.3425C237.538 93.4326 230.144 97.6505 215.151 97.6505C200.158 97.6505 192.764 93.4326 185.37 89.3425C177.977 85.2525 170.994 81.2902 156.617 81.2902C142.24 81.2902 135.257 85.2525 127.863 89.3425C120.469 93.4326 113.075 97.6505 98.0824 97.6505C83.0894 97.6505 75.6956 93.4326 68.3018 89.3425C60.9079 85.2525 53.9249 81.2902 39.3426 81.2902C24.9658 81.2902 17.9828 85.2525 10.3836 89.3425C2.98975 93.4326 -4.40406 97.6505 -19.3971 97.6505C-34.3901 97.6505 -41.7839 93.4326 -49.1777 89.3425C-56.5715 85.2525 -63.5545 81.2902 -77.9314 81.2902C-92.3082 81.2902 -99.2913 85.2525 -106.685 89.3425C-114.079 93.4326 -121.473 97.6505 -136.466 97.6505C-151.459 97.6505 -158.852 93.4326 -166.246 89.3425C-173.64 85.2525 -180.623 81.2902 -195 81.2902V80.3955C-180.007 80.3955 -172.613 84.6134 -165.219 88.7035C-157.826 92.7935 -150.843 96.7558 -136.466 96.7558C-122.089 96.7558 -115.106 92.7935 -107.712 88.7035C-100.318 84.6134 -92.9244 80.3955 -77.9314 80.3955C-62.9384 80.3955 -55.5446 84.6134 -48.1508 88.7035C-40.7569 92.7935 -33.7739 96.7558 -19.3971 96.7558C-5.02021 96.7558 1.96285 92.7935 9.56204 88.7035C16.9558 84.6134 24.3496 80.3955 39.3426 80.3955C54.3356 80.3955 61.7294 84.6134 69.1233 88.7035C76.5171 92.7935 83.5001 96.7558 98.0824 96.7558C112.459 96.7558 119.442 92.7935 126.836 88.7035C134.23 84.6134 141.624 80.3955 156.617 80.3955C171.61 80.3955 179.003 84.6134 186.397 88.7035C193.791 92.7935 200.774 96.7558 215.151 96.7558C229.528 96.7558 236.511 92.7935 244.11 88.7035C251.504 84.6134 258.898 80.3955 273.891 80.3955C288.884 80.3955 296.277 84.6134 303.671 88.7035C311.065 92.7935 318.048 96.7558 332.63 96.7558C347.007 96.7558 353.99 92.7935 361.589 88.7035C368.983 84.6134 376.377 80.3955 391.37 80.3955C406.363 80.3955 413.757 84.6134 421.151 88.7035C428.545 92.7935 435.528 96.7558 450.11 96.7558C464.487 96.7558 471.47 92.7935 479.069 88.7035C486.463 84.6134 493.856 80.3955 508.849 80.3955C523.842 80.3955 531.236 84.6134 538.63 88.7035C546.024 92.7935 553.007 96.7558 567.589 96.7558V97.6505Z" fill="#202994"/>
<path d="M567.589 113.755C552.596 113.755 545.202 109.537 537.809 105.447C530.415 101.357 523.432 97.3946 508.849 97.3946C494.267 97.3946 487.49 101.357 479.89 105.447C472.497 109.537 465.103 113.755 450.11 113.755C435.117 113.755 427.723 109.537 420.329 105.447C412.935 101.357 405.952 97.3946 391.37 97.3946C376.993 97.3946 370.01 101.357 362.411 105.447C355.017 109.537 347.623 113.755 332.63 113.755C317.637 113.755 310.244 109.537 302.85 105.447C295.456 101.357 288.473 97.3946 273.891 97.3946C259.514 97.3946 252.531 101.357 244.932 105.447C237.538 109.537 230.144 113.755 215.151 113.755C200.158 113.755 192.764 109.537 185.37 105.447C177.977 101.357 170.994 97.3946 156.617 97.3946C142.24 97.3946 135.257 101.357 127.863 105.447C120.469 109.537 113.075 113.755 98.0824 113.755C83.0894 113.755 75.6956 109.537 68.3018 105.447C60.9079 101.357 53.9249 97.3946 39.3426 97.3946C24.9658 97.3946 17.9828 101.357 10.3836 105.447C2.98975 109.537 -4.40406 113.755 -19.3971 113.755C-34.3901 113.755 -41.7839 109.537 -49.1777 105.447C-56.5715 101.357 -63.5545 97.3946 -77.9314 97.3946C-92.3082 97.3946 -99.2913 101.357 -106.685 105.447C-114.079 109.537 -121.473 113.755 -136.466 113.755C-151.459 113.755 -158.852 109.537 -166.246 105.447C-173.64 101.357 -180.623 97.3946 -195 97.3946V96.4999C-180.007 96.4999 -172.613 100.718 -165.219 104.808C-157.826 108.898 -150.843 112.86 -136.466 112.86C-122.089 112.86 -115.106 108.898 -107.712 104.808C-100.318 100.718 -92.9244 96.4999 -77.9314 96.4999C-62.9384 96.4999 -55.5446 100.718 -48.1508 104.808C-40.7569 108.898 -33.7739 112.86 -19.3971 112.86C-5.02021 112.86 1.96285 108.898 9.56204 104.808C16.9558 100.718 24.3496 96.4999 39.3426 96.4999C54.3356 96.4999 61.7294 100.718 69.1233 104.808C76.5171 108.898 83.5001 112.86 98.0824 112.86C112.459 112.86 119.442 108.898 126.836 104.808C134.23 100.718 141.624 96.4999 156.617 96.4999C171.61 96.4999 179.003 100.718 186.397 104.808C193.791 108.898 200.774 112.86 215.151 112.86C229.528 112.86 236.511 108.898 244.11 104.808C251.504 100.718 258.898 96.4999 273.891 96.4999C288.884 96.4999 296.277 100.718 303.671 104.808C311.065 108.898 318.048 112.86 332.63 112.86C347.007 112.86 353.99 108.898 361.589 104.808C368.983 100.718 376.377 96.4999 391.37 96.4999C406.363 96.4999 413.757 100.718 421.151 104.808C428.545 108.898 435.528 112.86 450.11 112.86C464.487 112.86 471.47 108.898 479.069 104.808C486.463 100.718 493.856 96.4999 508.849 96.4999C523.842 96.4999 531.236 100.718 538.63 104.808C546.024 108.898 553.007 112.86 567.589 112.86V113.755Z" fill="#202994"/>
<path d="M567.589 129.731C552.596 129.731 545.202 125.513 537.809 121.423C530.415 117.333 523.432 113.371 508.849 113.371C494.267 113.371 487.49 117.333 479.89 121.423C472.497 125.513 465.103 129.731 450.11 129.731C435.117 129.731 427.723 125.513 420.329 121.423C412.935 117.333 405.952 113.371 391.37 113.371C376.993 113.371 370.01 117.333 362.411 121.423C355.017 125.513 347.623 129.731 332.63 129.731C317.637 129.731 310.244 125.513 302.85 121.423C295.456 117.333 288.473 113.371 273.891 113.371C259.514 113.371 252.531 117.333 244.932 121.423C237.538 125.513 230.144 129.731 215.151 129.731C200.158 129.731 192.764 125.513 185.37 121.423C177.977 117.333 170.994 113.371 156.617 113.371C142.24 113.371 135.257 117.333 127.863 121.423C120.469 125.513 113.075 129.731 98.0824 129.731C83.0894 129.731 75.6956 125.513 68.3018 121.423C60.9079 117.333 53.9249 113.371 39.3426 113.371C24.9658 113.371 17.9828 117.333 10.3836 121.423C2.98975 125.513 -4.40406 129.731 -19.3971 129.731C-34.3901 129.731 -41.7839 125.513 -49.1777 121.423C-56.5715 117.333 -63.5545 113.371 -77.9314 113.371C-92.3082 113.371 -99.2913 117.333 -106.685 121.423C-114.079 125.513 -121.473 129.731 -136.466 129.731C-151.459 129.731 -158.852 125.513 -166.246 121.423C-173.64 117.333 -180.623 113.371 -195 113.371V112.476C-180.007 112.476 -172.613 116.694 -165.219 120.784C-157.826 124.874 -150.843 128.837 -136.466 128.837C-122.089 128.837 -115.106 124.874 -107.712 120.784C-100.318 116.694 -92.9244 112.476 -77.9314 112.476C-62.9384 112.476 -55.5446 116.694 -48.1508 120.784C-40.7569 124.874 -33.7739 128.837 -19.3971 128.837C-5.02021 128.837 1.96285 124.874 9.56204 120.784C16.9558 116.694 24.3496 112.476 39.3426 112.476C54.3356 112.476 61.7294 116.694 69.1233 120.784C76.5171 124.874 83.5001 128.837 98.0824 128.837C112.459 128.837 119.442 124.874 126.836 120.784C134.23 116.694 141.624 112.476 156.617 112.476C171.61 112.476 179.003 116.694 186.397 120.784C193.791 124.874 200.774 128.837 215.151 128.837C229.528 128.837 236.511 124.874 244.11 120.784C251.504 116.694 258.898 112.476 273.891 112.476C288.884 112.476 296.277 116.694 303.671 120.784C311.065 124.874 318.048 128.837 332.63 128.837C347.007 128.837 353.99 124.874 361.589 120.784C368.983 116.694 376.377 112.476 391.37 112.476C406.363 112.476 413.757 116.694 421.151 120.784C428.545 124.874 435.528 128.837 450.11 128.837C464.487 128.837 471.47 124.874 479.069 120.784C486.463 116.694 493.856 112.476 508.849 112.476C523.842 112.476 531.236 116.694 538.63 120.784C546.024 124.874 553.007 128.837 567.589 128.837V129.731Z" fill="#202994"/>
<path d="M567.589 145.836C552.596 145.836 545.202 141.618 537.809 137.528C530.415 133.438 523.432 129.475 508.849 129.475C494.267 129.475 487.49 133.438 479.89 137.528C472.497 141.618 465.103 145.836 450.11 145.836C435.117 145.836 427.723 141.618 420.329 137.528C412.935 133.438 405.952 129.475 391.37 129.475C376.993 129.475 370.01 133.438 362.411 137.528C355.017 141.618 347.623 145.836 332.63 145.836C317.637 145.836 310.244 141.618 302.85 137.528C295.456 133.438 288.473 129.475 273.891 129.475C259.514 129.475 252.531 133.438 244.932 137.528C237.538 141.618 230.144 145.836 215.151 145.836C200.158 145.836 192.764 141.618 185.37 137.528C177.977 133.438 170.994 129.475 156.617 129.475C142.24 129.475 135.257 133.438 127.863 137.528C120.469 141.618 113.075 145.836 98.0824 145.836C83.0894 145.836 75.6956 141.618 68.3018 137.528C60.9079 133.438 53.9249 129.475 39.3426 129.475C24.9658 129.475 17.9828 133.438 10.3836 137.528C2.98975 141.618 -4.40406 145.836 -19.3971 145.836C-34.3901 145.836 -41.7839 141.618 -49.1777 137.528C-56.5715 133.438 -63.5545 129.475 -77.9314 129.475C-92.3082 129.475 -99.2913 133.438 -106.685 137.528C-114.079 141.618 -121.473 145.836 -136.466 145.836C-151.459 145.836 -158.852 141.618 -166.246 137.528C-173.64 133.438 -180.623 129.475 -195 129.475V128.581C-180.007 128.581 -172.613 132.799 -165.219 136.889C-157.826 140.979 -150.843 144.941 -136.466 144.941C-122.089 144.941 -115.106 140.979 -107.712 136.889C-100.318 132.799 -92.9244 128.581 -77.9314 128.581C-62.9384 128.581 -55.5446 132.799 -48.1508 136.889C-40.7569 140.979 -33.7739 144.941 -19.3971 144.941C-5.02021 144.941 1.96285 140.979 9.56204 136.889C16.9558 132.799 24.3496 128.581 39.3426 128.581C54.3356 128.581 61.7294 132.799 69.1233 136.889C76.5171 140.979 83.5001 144.941 98.0824 144.941C112.459 144.941 119.442 140.979 126.836 136.889C134.23 132.799 141.624 128.581 156.617 128.581C171.61 128.581 179.003 132.799 186.397 136.889C193.791 140.979 200.774 144.941 215.151 144.941C229.528 144.941 236.511 140.979 244.11 136.889C251.504 132.799 258.898 128.581 273.891 128.581C288.884 128.581 296.277 132.799 303.671 136.889C311.065 140.979 318.048 144.941 332.63 144.941C347.007 144.941 353.99 140.979 361.589 136.889C368.983 132.799 376.377 128.581 391.37 128.581C406.363 128.581 413.757 132.799 421.151 136.889C428.545 140.979 435.528 144.941 450.11 144.941C464.487 144.941 471.47 140.979 479.069 136.889C486.463 132.799 493.856 128.581 508.849 128.581C523.842 128.581 531.236 132.799 538.63 136.889C546.024 140.979 553.007 144.941 567.589 144.941V145.836Z" fill="#202994"/>
<path d="M567.589 161.942C552.596 161.942 545.202 157.724 537.809 153.634C530.415 149.544 523.432 145.581 508.849 145.581C494.267 145.581 487.49 149.544 479.89 153.634C472.497 157.724 465.103 161.942 450.11 161.942C435.117 161.942 427.723 157.724 420.329 153.634C412.935 149.544 405.952 145.581 391.37 145.581C376.993 145.581 370.01 149.544 362.411 153.634C355.017 157.724 347.623 161.942 332.63 161.942C317.637 161.942 310.244 157.724 302.85 153.634C295.456 149.544 288.473 145.581 273.891 145.581C259.514 145.581 252.531 149.544 244.932 153.634C237.538 157.724 230.144 161.942 215.151 161.942C200.158 161.942 192.764 157.724 185.37 153.634C177.977 149.544 170.994 145.581 156.617 145.581C142.24 145.581 135.257 149.544 127.863 153.634C120.469 157.724 113.075 161.942 98.0824 161.942C83.0894 161.942 75.6956 157.724 68.3018 153.634C60.9079 149.544 53.9249 145.581 39.3426 145.581C24.9658 145.581 17.9828 149.544 10.3836 153.634C2.98975 157.724 -4.40406 161.942 -19.3971 161.942C-34.3901 161.942 -41.7839 157.724 -49.1777 153.634C-56.5715 149.544 -63.5545 145.581 -77.9314 145.581C-92.3082 145.581 -99.2913 149.544 -106.685 153.634C-114.079 157.724 -121.473 161.942 -136.466 161.942C-151.459 161.942 -158.852 157.724 -166.246 153.634C-173.64 149.544 -180.623 145.581 -195 145.581V144.687C-180.007 144.687 -172.613 148.904 -165.219 152.995C-157.826 157.085 -150.843 161.047 -136.466 161.047C-122.089 161.047 -115.106 157.085 -107.712 152.995C-100.318 148.904 -92.9244 144.687 -77.9314 144.687C-62.9384 144.687 -55.5446 148.904 -48.1508 152.995C-40.7569 157.085 -33.7739 161.047 -19.3971 161.047C-5.02021 161.047 1.96285 157.085 9.56204 152.995C16.9558 148.904 24.3496 144.687 39.3426 144.687C54.3356 144.687 61.7294 148.904 69.1233 152.995C76.5171 157.085 83.5001 161.047 98.0824 161.047C112.459 161.047 119.442 157.085 126.836 152.995C134.23 148.904 141.624 144.687 156.617 144.687C171.61 144.687 179.003 148.904 186.397 152.995C193.791 157.085 200.774 161.047 215.151 161.047C229.528 161.047 236.511 157.085 244.11 152.995C251.504 148.904 258.898 144.687 273.891 144.687C288.884 144.687 296.277 148.904 303.671 152.995C311.065 157.085 318.048 161.047 332.63 161.047C347.007 161.047 353.99 157.085 361.589 152.995C368.983 148.904 376.377 144.687 391.37 144.687C406.363 144.687 413.757 148.904 421.151 152.995C428.545 157.085 435.528 161.047 450.11 161.047C464.487 161.047 471.47 157.085 479.069 152.995C486.463 148.904 493.856 144.687 508.849 144.687C523.842 144.687 531.236 148.904 538.63 152.995C546.024 157.085 553.007 161.047 567.589 161.047V161.942Z" fill="#202994"/>
<path d="M567.589 178.045C552.596 178.045 545.202 173.827 537.809 169.737C530.415 165.647 523.432 161.684 508.849 161.684C494.267 161.684 487.49 165.647 479.89 169.737C472.497 173.827 465.103 178.045 450.11 178.045C435.117 178.045 427.723 173.827 420.329 169.737C412.935 165.647 405.952 161.684 391.37 161.684C376.993 161.684 370.01 165.647 362.411 169.737C355.017 173.827 347.623 178.045 332.63 178.045C317.637 178.045 310.244 173.827 302.85 169.737C295.456 165.647 288.473 161.684 273.891 161.684C259.514 161.684 252.531 165.647 244.932 169.737C237.538 173.827 230.144 178.045 215.151 178.045C200.158 178.045 192.764 173.827 185.37 169.737C177.977 165.647 170.994 161.684 156.617 161.684C142.24 161.684 135.257 165.647 127.863 169.737C120.469 173.827 113.075 178.045 98.0824 178.045C83.0894 178.045 75.6956 173.827 68.3018 169.737C60.9079 165.647 53.9249 161.684 39.3426 161.684C24.9658 161.684 17.9828 165.647 10.3836 169.737C2.98975 173.827 -4.40406 178.045 -19.3971 178.045C-34.3901 178.045 -41.7839 173.827 -49.1777 169.737C-56.5715 165.647 -63.5545 161.684 -77.9314 161.684C-92.3082 161.684 -99.2913 165.647 -106.685 169.737C-114.079 173.827 -121.473 178.045 -136.466 178.045C-151.459 178.045 -158.852 173.827 -166.246 169.737C-173.64 165.647 -180.623 161.684 -195 161.684V160.79C-180.007 160.79 -172.613 165.007 -165.219 169.098C-157.826 173.188 -150.843 177.15 -136.466 177.15C-122.089 177.15 -115.106 173.188 -107.712 169.098C-100.318 165.007 -92.9244 160.79 -77.9314 160.79C-62.9384 160.79 -55.5446 165.007 -48.1508 169.098C-40.7569 173.188 -33.7739 177.15 -19.3971 177.15C-5.02021 177.15 1.96285 173.188 9.56204 169.098C16.9558 165.007 24.3496 160.79 39.3426 160.79C54.3356 160.79 61.7294 165.007 69.1233 169.098C76.5171 173.188 83.5001 177.15 98.0824 177.15C112.459 177.15 119.442 173.188 126.836 169.098C134.23 165.007 141.624 160.79 156.617 160.79C171.61 160.79 179.003 165.007 186.397 169.098C193.791 173.188 200.774 177.15 215.151 177.15C229.528 177.15 236.511 173.188 244.11 169.098C251.504 165.007 258.898 160.79 273.891 160.79C288.884 160.79 296.277 165.007 303.671 169.098C311.065 173.188 318.048 177.15 332.63 177.15C347.007 177.15 353.99 173.188 361.589 169.098C368.983 165.007 376.377 160.79 391.37 160.79C406.363 160.79 413.757 165.007 421.151 169.098C428.545 173.188 435.528 177.15 450.11 177.15C464.487 177.15 471.47 173.188 479.069 169.098C486.463 165.007 493.856 160.79 508.849 160.79C523.842 160.79 531.236 165.007 538.63 169.098C546.024 173.188 553.007 177.15 567.589 177.15V178.045Z" fill="#202994"/>
<path d="M567.589 194.022C552.596 194.022 545.202 189.804 537.809 185.714C530.415 181.624 523.432 177.662 508.849 177.662C494.267 177.662 487.49 181.624 479.89 185.714C472.497 189.804 465.103 194.022 450.11 194.022C435.117 194.022 427.723 189.804 420.329 185.714C412.935 181.624 405.952 177.662 391.37 177.662C376.993 177.662 370.01 181.624 362.411 185.714C355.017 189.804 347.623 194.022 332.63 194.022C317.637 194.022 310.244 189.804 302.85 185.714C295.456 181.624 288.473 177.662 273.891 177.662C259.514 177.662 252.531 181.624 244.932 185.714C237.538 189.804 230.144 194.022 215.151 194.022C200.158 194.022 192.764 189.804 185.37 185.714C177.977 181.624 170.994 177.662 156.617 177.662C142.24 177.662 135.257 181.624 127.863 185.714C120.469 189.804 113.075 194.022 98.0824 194.022C83.0894 194.022 75.6956 189.804 68.3018 185.714C60.9079 181.624 53.9249 177.662 39.3426 177.662C24.9658 177.662 17.9828 181.624 10.3836 185.714C2.98975 189.804 -4.40406 194.022 -19.3971 194.022C-34.3901 194.022 -41.7839 189.804 -49.1777 185.714C-56.5715 181.624 -63.5545 177.662 -77.9314 177.662C-92.3082 177.662 -99.2913 181.624 -106.685 185.714C-114.079 189.804 -121.473 194.022 -136.466 194.022C-151.459 194.022 -158.852 189.804 -166.246 185.714C-173.64 181.624 -180.623 177.662 -195 177.662V176.767C-180.007 176.767 -172.613 180.985 -165.219 185.075C-157.826 189.165 -150.843 193.128 -136.466 193.128C-122.089 193.128 -115.106 189.165 -107.712 185.075C-100.318 180.985 -92.9244 176.767 -77.9314 176.767C-62.9384 176.767 -55.5446 180.985 -48.1508 185.075C-40.7569 189.165 -33.7739 193.128 -19.3971 193.128C-5.02021 193.128 1.96285 189.165 9.56204 185.075C16.9558 180.985 24.3496 176.767 39.3426 176.767C54.3356 176.767 61.7294 180.985 69.1233 185.075C76.5171 189.165 83.5001 193.128 98.0824 193.128C112.459 193.128 119.442 189.165 126.836 185.075C134.23 180.985 141.624 176.767 156.617 176.767C171.61 176.767 179.003 180.985 186.397 185.075C193.791 189.165 200.774 193.128 215.151 193.128C229.528 193.128 236.511 189.165 244.11 185.075C251.504 180.985 258.898 176.767 273.891 176.767C288.884 176.767 296.277 180.985 303.671 185.075C311.065 189.165 318.048 193.128 332.63 193.128C347.007 193.128 353.99 189.165 361.589 185.075C368.983 180.985 376.377 176.767 391.37 176.767C406.363 176.767 413.757 180.985 421.151 185.075C428.545 189.165 435.528 193.128 450.11 193.128C464.487 193.128 471.47 189.165 479.069 185.075C486.463 180.985 493.856 176.767 508.849 176.767C523.842 176.767 531.236 180.985 538.63 185.075C546.024 189.165 553.007 193.128 567.589 193.128V194.022Z" fill="#202994"/>
<path d="M567.589 210.128C552.596 210.128 545.202 205.91 537.809 201.82C530.415 197.73 523.432 193.768 508.849 193.768C494.267 193.768 487.49 197.73 479.89 201.82C472.497 205.91 465.103 210.128 450.11 210.128C435.117 210.128 427.723 205.91 420.329 201.82C412.935 197.73 405.952 193.768 391.37 193.768C376.993 193.768 370.01 197.73 362.411 201.82C355.017 205.91 347.623 210.128 332.63 210.128C317.637 210.128 310.244 205.91 302.85 201.82C295.456 197.73 288.473 193.768 273.891 193.768C259.514 193.768 252.531 197.73 244.932 201.82C237.538 205.91 230.144 210.128 215.151 210.128C200.158 210.128 192.764 205.91 185.37 201.82C177.977 197.73 170.994 193.768 156.617 193.768C142.24 193.768 135.257 197.73 127.863 201.82C120.469 205.91 113.075 210.128 98.0824 210.128C83.0894 210.128 75.6956 205.91 68.3018 201.82C60.9079 197.73 53.9249 193.768 39.3426 193.768C24.9658 193.768 17.9828 197.73 10.3836 201.82C2.98975 205.91 -4.40406 210.128 -19.3971 210.128C-34.3901 210.128 -41.7839 205.91 -49.1777 201.82C-56.5715 197.73 -63.5545 193.768 -77.9314 193.768C-92.3082 193.768 -99.2913 197.73 -106.685 201.82C-114.079 205.91 -121.473 210.128 -136.466 210.128C-151.459 210.128 -158.852 205.91 -166.246 201.82C-173.64 197.73 -180.623 193.768 -195 193.768V192.873C-180.007 192.873 -172.613 197.091 -165.219 201.181C-157.826 205.271 -150.843 209.233 -136.466 209.233C-122.089 209.233 -115.106 205.271 -107.712 201.181C-100.318 197.091 -92.9244 192.873 -77.9314 192.873C-62.9384 192.873 -55.5446 197.091 -48.1508 201.181C-40.7569 205.271 -33.7739 209.233 -19.3971 209.233C-5.02021 209.233 1.96285 205.271 9.56204 201.181C16.9558 197.091 24.3496 192.873 39.3426 192.873C54.3356 192.873 61.7294 197.091 69.1233 201.181C76.5171 205.271 83.5001 209.233 98.0824 209.233C112.459 209.233 119.442 205.271 126.836 201.181C134.23 197.091 141.624 192.873 156.617 192.873C171.61 192.873 179.003 197.091 186.397 201.181C193.791 205.271 200.774 209.233 215.151 209.233C229.528 209.233 236.511 205.271 244.11 201.181C251.504 197.091 258.898 192.873 273.891 192.873C288.884 192.873 296.277 197.091 303.671 201.181C311.065 205.271 318.048 209.233 332.63 209.233C347.007 209.233 353.99 205.271 361.589 201.181C368.983 197.091 376.377 192.873 391.37 192.873C406.363 192.873 413.757 197.091 421.151 201.181C428.545 205.271 435.528 209.233 450.11 209.233C464.487 209.233 471.47 205.271 479.069 201.181C486.463 197.091 493.856 192.873 508.849 192.873C523.842 192.873 531.236 197.091 538.63 201.181C546.024 205.271 553.007 209.233 567.589 209.233V210.128Z" fill="#202994"/>
<path d="M567.589 226.233C552.596 226.233 545.202 222.015 537.809 217.925C530.415 213.835 523.432 209.872 508.849 209.872C494.267 209.872 487.49 213.835 479.89 217.925C472.497 222.015 465.103 226.233 450.11 226.233C435.117 226.233 427.723 222.015 420.329 217.925C412.935 213.835 405.952 209.872 391.37 209.872C376.993 209.872 370.01 213.835 362.411 217.925C355.017 222.015 347.623 226.233 332.63 226.233C317.637 226.233 310.244 222.015 302.85 217.925C295.456 213.835 288.473 209.872 273.891 209.872C259.514 209.872 252.531 213.835 244.932 217.925C237.538 222.015 230.144 226.233 215.151 226.233C200.158 226.233 192.764 222.015 185.37 217.925C177.977 213.835 170.994 209.872 156.617 209.872C142.24 209.872 135.257 213.835 127.863 217.925C120.469 222.015 113.075 226.233 98.0824 226.233C83.0894 226.233 75.6956 222.015 68.3018 217.925C60.9079 213.835 53.9249 209.872 39.3426 209.872C24.9658 209.872 17.9828 213.835 10.3836 217.925C2.98975 222.015 -4.40406 226.233 -19.3971 226.233C-34.3901 226.233 -41.7839 222.015 -49.1777 217.925C-56.5715 213.835 -63.5545 209.872 -77.9314 209.872C-92.3082 209.872 -99.2913 213.835 -106.685 217.925C-114.079 222.015 -121.473 226.233 -136.466 226.233C-151.459 226.233 -158.852 222.015 -166.246 217.925C-173.64 213.835 -180.623 209.872 -195 209.872V208.978C-180.007 208.978 -172.613 213.196 -165.219 217.286C-157.826 221.376 -150.843 225.338 -136.466 225.338C-122.089 225.338 -115.106 221.376 -107.712 217.286C-100.318 213.196 -92.9244 208.978 -77.9314 208.978C-62.9384 208.978 -55.5446 213.196 -48.1508 217.286C-40.7569 221.376 -33.7739 225.338 -19.3971 225.338C-5.02021 225.338 1.96285 221.376 9.56204 217.286C16.9558 213.196 24.3496 208.978 39.3426 208.978C54.3356 208.978 61.7294 213.196 69.1233 217.286C76.5171 221.376 83.5001 225.338 98.0824 225.338C112.459 225.338 119.442 221.376 126.836 217.286C134.23 213.196 141.624 208.978 156.617 208.978C171.61 208.978 179.003 213.196 186.397 217.286C193.791 221.376 200.774 225.338 215.151 225.338C229.528 225.338 236.511 221.376 244.11 217.286C251.504 213.196 258.898 208.978 273.891 208.978C288.884 208.978 296.277 213.196 303.671 217.286C311.065 221.376 318.048 225.338 332.63 225.338C347.007 225.338 353.99 221.376 361.589 217.286C368.983 213.196 376.377 208.978 391.37 208.978C406.363 208.978 413.757 213.196 421.151 217.286C428.545 221.376 435.528 225.338 450.11 225.338C464.487 225.338 471.47 221.376 479.069 217.286C486.463 213.196 493.856 208.978 508.849 208.978C523.842 208.978 531.236 213.196 538.63 217.286C546.024 221.376 553.007 225.338 567.589 225.338V226.233Z" fill="#202994"/>
<path d="M567.589 242.209C552.596 242.209 545.202 237.991 537.809 233.901C530.415 229.811 523.432 225.849 508.849 225.849C494.267 225.849 487.49 229.811 479.89 233.901C472.497 237.991 465.103 242.209 450.11 242.209C435.117 242.209 427.723 237.991 420.329 233.901C412.935 229.811 405.952 225.849 391.37 225.849C376.993 225.849 370.01 229.811 362.411 233.901C355.017 237.991 347.623 242.209 332.63 242.209C317.637 242.209 310.244 237.991 302.85 233.901C295.456 229.811 288.473 225.849 273.891 225.849C259.514 225.849 252.531 229.811 244.932 233.901C237.538 237.991 230.144 242.209 215.151 242.209C200.158 242.209 192.764 237.991 185.37 233.901C177.977 229.811 170.994 225.849 156.617 225.849C142.24 225.849 135.257 229.811 127.863 233.901C120.469 237.991 113.075 242.209 98.0824 242.209C83.0894 242.209 75.6956 237.991 68.3018 233.901C60.9079 229.811 53.9249 225.849 39.3426 225.849C24.9658 225.849 17.9828 229.811 10.3836 233.901C2.98975 237.991 -4.40406 242.209 -19.3971 242.209C-34.3901 242.209 -41.7839 237.991 -49.1777 233.901C-56.5715 229.811 -63.5545 225.849 -77.9314 225.849C-92.3082 225.849 -99.2913 229.811 -106.685 233.901C-114.079 237.991 -121.473 242.209 -136.466 242.209C-151.459 242.209 -158.852 237.991 -166.246 233.901C-173.64 229.811 -180.623 225.849 -195 225.849V224.954C-180.007 224.954 -172.613 229.172 -165.219 233.262C-157.826 237.352 -150.843 241.314 -136.466 241.314C-122.089 241.314 -115.106 237.352 -107.712 233.262C-100.318 229.172 -92.9244 224.954 -77.9314 224.954C-62.9384 224.954 -55.5446 229.172 -48.1508 233.262C-40.7569 237.352 -33.7739 241.314 -19.3971 241.314C-5.02021 241.314 1.96285 237.352 9.56204 233.262C16.9558 229.172 24.3496 224.954 39.3426 224.954C54.3356 224.954 61.7294 229.172 69.1233 233.262C76.5171 237.352 83.5001 241.314 98.0824 241.314C112.459 241.314 119.442 237.352 126.836 233.262C134.23 229.172 141.624 224.954 156.617 224.954C171.61 224.954 179.003 229.172 186.397 233.262C193.791 237.352 200.774 241.314 215.151 241.314C229.528 241.314 236.511 237.352 244.11 233.262C251.504 229.172 258.898 224.954 273.891 224.954C288.884 224.954 296.277 229.172 303.671 233.262C311.065 237.352 318.048 241.314 332.63 241.314C347.007 241.314 353.99 237.352 361.589 233.262C368.983 229.172 376.377 224.954 391.37 224.954C406.363 224.954 413.757 229.172 421.151 233.262C428.545 237.352 435.528 241.314 450.11 241.314C464.487 241.314 471.47 237.352 479.069 233.262C486.463 229.172 493.856 224.954 508.849 224.954C523.842 224.954 531.236 229.172 538.63 233.262C546.024 237.352 553.007 241.314 567.589 241.314V242.209Z" fill="#202994"/>
<path d="M567.589 258.313C552.596 258.313 545.202 254.096 537.809 250.005C530.415 245.915 523.432 241.953 508.849 241.953C494.267 241.953 487.49 245.915 479.89 250.005C472.497 254.096 465.103 258.313 450.11 258.313C435.117 258.313 427.723 254.096 420.329 250.005C412.935 245.915 405.952 241.953 391.37 241.953C376.993 241.953 370.01 245.915 362.411 250.005C355.017 254.096 347.623 258.313 332.63 258.313C317.637 258.313 310.244 254.096 302.85 250.005C295.456 245.915 288.473 241.953 273.891 241.953C259.514 241.953 252.531 245.915 244.932 250.005C237.538 254.096 230.144 258.313 215.151 258.313C200.158 258.313 192.764 254.096 185.37 250.005C177.977 245.915 170.994 241.953 156.617 241.953C142.24 241.953 135.257 245.915 127.863 250.005C120.469 254.096 113.075 258.313 98.0824 258.313C83.0894 258.313 75.6956 254.096 68.3018 250.005C60.9079 245.915 53.9249 241.953 39.3426 241.953C24.9658 241.953 17.9828 245.915 10.3836 250.005C2.98975 254.096 -4.40406 258.313 -19.3971 258.313C-34.3901 258.313 -41.7839 254.096 -49.1777 250.005C-56.5715 245.915 -63.5545 241.953 -77.9314 241.953C-92.3082 241.953 -99.2913 245.915 -106.685 250.005C-114.079 254.096 -121.473 258.313 -136.466 258.313C-151.459 258.313 -158.852 254.096 -166.246 250.005C-173.64 245.915 -180.623 241.953 -195 241.953V241.058C-180.007 241.058 -172.613 245.276 -165.219 249.366C-157.826 253.456 -150.843 257.419 -136.466 257.419C-122.089 257.419 -115.106 253.456 -107.712 249.366C-100.318 245.276 -92.9244 241.058 -77.9314 241.058C-62.9384 241.058 -55.5446 245.276 -48.1508 249.366C-40.7569 253.456 -33.7739 257.419 -19.3971 257.419C-5.02021 257.419 1.96285 253.456 9.56204 249.366C16.9558 245.276 24.3496 241.058 39.3426 241.058C54.3356 241.058 61.7294 245.276 69.1233 249.366C76.5171 253.456 83.5001 257.419 98.0824 257.419C112.459 257.419 119.442 253.456 126.836 249.366C134.23 245.276 141.624 241.058 156.617 241.058C171.61 241.058 179.003 245.276 186.397 249.366C193.791 253.456 200.774 257.419 215.151 257.419C229.528 257.419 236.511 253.456 244.11 249.366C251.504 245.276 258.898 241.058 273.891 241.058C288.884 241.058 296.277 245.276 303.671 249.366C311.065 253.456 318.048 257.419 332.63 257.419C347.007 257.419 353.99 253.456 361.589 249.366C368.983 245.276 376.377 241.058 391.37 241.058C406.363 241.058 413.757 245.276 421.151 249.366C428.545 253.456 435.528 257.419 450.11 257.419C464.487 257.419 471.47 253.456 479.069 249.366C486.463 245.276 493.856 241.058 508.849 241.058C523.842 241.058 531.236 245.276 538.63 249.366C546.024 253.456 553.007 257.419 567.589 257.419V258.313Z" fill="#202994"/>
<path d="M567.589 274.418C552.596 274.418 545.202 270.2 537.809 266.11C530.415 262.02 523.432 258.058 508.849 258.058C494.267 258.058 487.49 262.02 479.89 266.11C472.497 270.2 465.103 274.418 450.11 274.418C435.117 274.418 427.723 270.2 420.329 266.11C412.935 262.02 405.952 258.058 391.37 258.058C376.993 258.058 370.01 262.02 362.411 266.11C355.017 270.2 347.623 274.418 332.63 274.418C317.637 274.418 310.244 270.2 302.85 266.11C295.456 262.02 288.473 258.058 273.891 258.058C259.514 258.058 252.531 262.02 244.932 266.11C237.538 270.2 230.144 274.418 215.151 274.418C200.158 274.418 192.764 270.2 185.37 266.11C177.977 262.02 170.994 258.058 156.617 258.058C142.24 258.058 135.257 262.02 127.863 266.11C120.469 270.2 113.075 274.418 98.0824 274.418C83.0894 274.418 75.6956 270.2 68.3018 266.11C60.9079 262.02 53.9249 258.058 39.3426 258.058C24.9658 258.058 17.9828 262.02 10.3836 266.11C2.98975 270.2 -4.40406 274.418 -19.3971 274.418C-34.3901 274.418 -41.7839 270.2 -49.1777 266.11C-56.5715 262.02 -63.5545 258.058 -77.9314 258.058C-92.3082 258.058 -99.2913 262.02 -106.685 266.11C-114.079 270.2 -121.473 274.418 -136.466 274.418C-151.459 274.418 -158.852 270.2 -166.246 266.11C-173.64 262.02 -180.623 258.058 -195 258.058V257.163C-180.007 257.163 -172.613 261.381 -165.219 265.471C-157.826 269.561 -150.843 273.523 -136.466 273.523C-122.089 273.523 -115.106 269.561 -107.712 265.471C-100.318 261.381 -92.9244 257.163 -77.9314 257.163C-62.9384 257.163 -55.5446 261.381 -48.1508 265.471C-40.7569 269.561 -33.7739 273.523 -19.3971 273.523C-5.02021 273.523 1.96285 269.561 9.56204 265.471C16.9558 261.381 24.3496 257.163 39.3426 257.163C54.3356 257.163 61.7294 261.381 69.1233 265.471C76.5171 269.561 83.5001 273.523 98.0824 273.523C112.459 273.523 119.442 269.561 126.836 265.471C134.23 261.381 141.624 257.163 156.617 257.163C171.61 257.163 179.003 261.381 186.397 265.471C193.791 269.561 200.774 273.523 215.151 273.523C229.528 273.523 236.511 269.561 244.11 265.471C251.504 261.381 258.898 257.163 273.891 257.163C288.884 257.163 296.277 261.381 303.671 265.471C311.065 269.561 318.048 273.523 332.63 273.523C347.007 273.523 353.99 269.561 361.589 265.471C368.983 261.381 376.377 257.163 391.37 257.163C406.363 257.163 413.757 261.381 421.151 265.471C428.545 269.561 435.528 273.523 450.11 273.523C464.487 273.523 471.47 269.561 479.069 265.471C486.463 261.381 493.856 257.163 508.849 257.163C523.842 257.163 531.236 261.381 538.63 265.471C546.024 269.561 553.007 273.523 567.589 273.523V274.418Z" fill="#202994"/>
<path d="M567.589 290.524C552.596 290.524 545.202 286.306 537.809 282.216C530.415 278.126 523.432 274.163 508.849 274.163C494.267 274.163 487.49 278.126 479.89 282.216C472.497 286.306 465.103 290.524 450.11 290.524C435.117 290.524 427.723 286.306 420.329 282.216C412.935 278.126 405.952 274.163 391.37 274.163C376.993 274.163 370.01 278.126 362.411 282.216C355.017 286.306 347.623 290.524 332.63 290.524C317.637 290.524 310.244 286.306 302.85 282.216C295.456 278.126 288.473 274.163 273.891 274.163C259.514 274.163 252.531 278.126 244.932 282.216C237.538 286.306 230.144 290.524 215.151 290.524C200.158 290.524 192.764 286.306 185.37 282.216C177.977 278.126 170.994 274.163 156.617 274.163C142.24 274.163 135.257 278.126 127.863 282.216C120.469 286.306 113.075 290.524 98.0824 290.524C83.0894 290.524 75.6956 286.306 68.3018 282.216C60.9079 278.126 53.9249 274.163 39.3426 274.163C24.9658 274.163 17.9828 278.126 10.3836 282.216C2.98975 286.306 -4.40406 290.524 -19.3971 290.524C-34.3901 290.524 -41.7839 286.306 -49.1777 282.216C-56.5715 278.126 -63.5545 274.163 -77.9314 274.163C-92.3082 274.163 -99.2913 278.126 -106.685 282.216C-114.079 286.306 -121.473 290.524 -136.466 290.524C-151.459 290.524 -158.852 286.306 -166.246 282.216C-173.64 278.126 -180.623 274.163 -195 274.163V273.269C-180.007 273.269 -172.613 277.487 -165.219 281.577C-157.826 285.667 -150.843 289.629 -136.466 289.629C-122.089 289.629 -115.106 285.667 -107.712 281.577C-100.318 277.487 -92.9244 273.269 -77.9314 273.269C-62.9384 273.269 -55.5446 277.487 -48.1508 281.577C-40.7569 285.667 -33.7739 289.629 -19.3971 289.629C-5.02021 289.629 1.96285 285.667 9.56204 281.577C16.9558 277.487 24.3496 273.269 39.3426 273.269C54.3356 273.269 61.7294 277.487 69.1233 281.577C76.5171 285.667 83.5001 289.629 98.0824 289.629C112.459 289.629 119.442 285.667 126.836 281.577C134.23 277.487 141.624 273.269 156.617 273.269C171.61 273.269 179.003 277.487 186.397 281.577C193.791 285.667 200.774 289.629 215.151 289.629C229.528 289.629 236.511 285.667 244.11 281.577C251.504 277.487 258.898 273.269 273.891 273.269C288.884 273.269 296.277 277.487 303.671 281.577C311.065 285.667 318.048 289.629 332.63 289.629C347.007 289.629 353.99 285.667 361.589 281.577C368.983 277.487 376.377 273.269 391.37 273.269C406.363 273.269 413.757 277.487 421.151 281.577C428.545 285.667 435.528 289.629 450.11 289.629C464.487 289.629 471.47 285.667 479.069 281.577C486.463 277.487 493.856 273.269 508.849 273.269C523.842 273.269 531.236 277.487 538.63 281.577C546.024 285.667 553.007 289.629 567.589 289.629V290.524Z" fill="#202994"/>
<path d="M567.589 306.5C552.596 306.5 545.202 302.282 537.809 298.192C530.415 294.102 523.432 290.14 508.849 290.14C494.267 290.14 487.49 294.102 479.89 298.192C472.497 302.282 465.103 306.5 450.11 306.5C435.117 306.5 427.723 302.282 420.329 298.192C412.935 294.102 405.952 290.14 391.37 290.14C376.993 290.14 370.01 294.102 362.411 298.192C355.017 302.282 347.623 306.5 332.63 306.5C317.637 306.5 310.244 302.282 302.85 298.192C295.456 294.102 288.473 290.14 273.891 290.14C259.514 290.14 252.531 294.102 244.932 298.192C237.538 302.282 230.144 306.5 215.151 306.5C200.158 306.5 192.764 302.282 185.37 298.192C177.977 294.102 170.994 290.14 156.617 290.14C142.24 290.14 135.257 294.102 127.863 298.192C120.469 302.282 113.075 306.5 98.0824 306.5C83.0894 306.5 75.6956 302.282 68.3018 298.192C60.9079 294.102 53.9249 290.14 39.3426 290.14C24.9658 290.14 17.9828 294.102 10.3836 298.192C2.98975 302.282 -4.40406 306.5 -19.3971 306.5C-34.3901 306.5 -41.7839 302.282 -49.1777 298.192C-56.5715 294.102 -63.5545 290.14 -77.9314 290.14C-92.3082 290.14 -99.2913 294.102 -106.685 298.192C-114.079 302.282 -121.473 306.5 -136.466 306.5C-151.459 306.5 -158.852 302.282 -166.246 298.192C-173.64 294.102 -180.623 290.14 -195 290.14V289.245C-180.007 289.245 -172.613 293.463 -165.219 297.553C-157.826 301.643 -150.843 305.605 -136.466 305.605C-122.089 305.605 -115.106 301.643 -107.712 297.553C-100.318 293.463 -92.9244 289.245 -77.9314 289.245C-62.9384 289.245 -55.5446 293.463 -48.1508 297.553C-40.7569 301.643 -33.7739 305.605 -19.3971 305.605C-5.02021 305.605 1.96285 301.643 9.56204 297.553C16.9558 293.463 24.3496 289.245 39.3426 289.245C54.3356 289.245 61.7294 293.463 69.1233 297.553C76.5171 301.643 83.5001 305.605 98.0824 305.605C112.459 305.605 119.442 301.643 126.836 297.553C134.23 293.463 141.624 289.245 156.617 289.245C171.61 289.245 179.003 293.463 186.397 297.553C193.791 301.643 200.774 305.605 215.151 305.605C229.528 305.605 236.511 301.643 244.11 297.553C251.504 293.463 258.898 289.245 273.891 289.245C288.884 289.245 296.277 293.463 303.671 297.553C311.065 301.643 318.048 305.605 332.63 305.605C347.007 305.605 353.99 301.643 361.589 297.553C368.983 293.463 376.377 289.245 391.37 289.245C406.363 289.245 413.757 293.463 421.151 297.553C428.545 301.643 435.528 305.605 450.11 305.605C464.487 305.605 471.47 301.643 479.069 297.553C486.463 293.463 493.856 289.245 508.849 289.245C523.842 289.245 531.236 293.463 538.63 297.553C546.024 301.643 553.007 305.605 567.589 305.605V306.5Z" fill="#202994"/>
<path d="M567.589 322.604C552.596 322.604 545.202 318.387 537.809 314.297C530.415 310.206 523.432 306.244 508.849 306.244C494.267 306.244 487.49 310.206 479.89 314.297C472.497 318.387 465.103 322.604 450.11 322.604C435.117 322.604 427.723 318.387 420.329 314.297C412.935 310.206 405.952 306.244 391.37 306.244C376.993 306.244 370.01 310.206 362.411 314.297C355.017 318.387 347.623 322.604 332.63 322.604C317.637 322.604 310.244 318.387 302.85 314.297C295.456 310.206 288.473 306.244 273.891 306.244C259.514 306.244 252.531 310.206 244.932 314.297C237.538 318.387 230.144 322.604 215.151 322.604C200.158 322.604 192.764 318.387 185.37 314.297C177.977 310.206 170.994 306.244 156.617 306.244C142.24 306.244 135.257 310.206 127.863 314.297C120.469 318.387 113.075 322.604 98.0824 322.604C83.0894 322.604 75.6956 318.387 68.3018 314.297C60.9079 310.206 53.9249 306.244 39.3426 306.244C24.9658 306.244 17.9828 310.206 10.3836 314.297C2.98975 318.387 -4.40406 322.604 -19.3971 322.604C-34.3901 322.604 -41.7839 318.387 -49.1777 314.297C-56.5715 310.206 -63.5545 306.244 -77.9314 306.244C-92.3082 306.244 -99.2913 310.206 -106.685 314.297C-114.079 318.387 -121.473 322.604 -136.466 322.604C-151.459 322.604 -158.852 318.387 -166.246 314.297C-173.64 310.206 -180.623 306.244 -195 306.244V305.35C-180.007 305.35 -172.613 309.567 -165.219 313.657C-157.826 317.748 -150.843 321.71 -136.466 321.71C-122.089 321.71 -115.106 317.748 -107.712 313.657C-100.318 309.567 -92.9244 305.35 -77.9314 305.35C-62.9384 305.35 -55.5446 309.567 -48.1508 313.657C-40.7569 317.748 -33.7739 321.71 -19.3971 321.71C-5.02021 321.71 1.96285 317.748 9.56204 313.657C16.9558 309.567 24.3496 305.35 39.3426 305.35C54.3356 305.35 61.7294 309.567 69.1233 313.657C76.5171 317.748 83.5001 321.71 98.0824 321.71C112.459 321.71 119.442 317.748 126.836 313.657C134.23 309.567 141.624 305.35 156.617 305.35C171.61 305.35 179.003 309.567 186.397 313.657C193.791 317.748 200.774 321.71 215.151 321.71C229.528 321.71 236.511 317.748 244.11 313.657C251.504 309.567 258.898 305.35 273.891 305.35C288.884 305.35 296.277 309.567 303.671 313.657C311.065 317.748 318.048 321.71 332.63 321.71C347.007 321.71 353.99 317.748 361.589 313.657C368.983 309.567 376.377 305.35 391.37 305.35C406.363 305.35 413.757 309.567 421.151 313.657C428.545 317.748 435.528 321.71 450.11 321.71C464.487 321.71 471.47 317.748 479.069 313.657C486.463 309.567 493.856 305.35 508.849 305.35C523.842 305.35 531.236 309.567 538.63 313.657C546.024 317.748 553.007 321.71 567.589 321.71V322.604Z" fill="#202994"/>
<path d="M567.589 338.709C552.596 338.709 545.203 334.491 537.809 330.401C530.415 326.311 523.432 322.349 508.85 322.349C494.267 322.349 487.49 326.311 479.891 330.401C472.497 334.491 465.103 338.709 450.11 338.709C435.117 338.709 427.723 334.491 420.329 330.401C412.936 326.311 405.953 322.349 391.37 322.349C376.993 322.349 370.01 326.311 362.411 330.401C355.017 334.491 347.624 338.709 332.631 338.709C317.638 338.709 310.244 334.491 302.85 330.401C295.456 326.311 288.473 322.349 273.891 322.349C259.514 322.349 252.531 326.311 244.932 330.401C237.538 334.491 230.144 338.709 215.151 338.709C200.158 338.709 192.764 334.491 185.371 330.401C177.977 326.311 170.994 322.349 156.617 322.349C142.24 322.349 135.257 326.311 127.863 330.401C120.469 334.491 113.076 338.709 98.0826 338.709C83.0896 338.709 75.6957 334.491 68.3019 330.401C60.9081 326.311 53.9251 322.349 39.3428 322.349C24.966 322.349 17.9829 326.311 10.3837 330.401C2.98993 334.491 -4.40388 338.709 -19.3969 338.709C-34.3899 338.709 -41.7837 334.491 -49.1775 330.401C-56.5713 326.311 -63.5543 322.349 -77.9312 322.349C-92.308 322.349 -99.2911 326.311 -106.685 330.401C-114.079 334.491 -121.473 338.709 -136.466 338.709C-151.459 338.709 -158.852 334.491 -166.246 330.401C-173.64 326.311 -180.623 322.349 -195 322.349V321.454C-180.007 321.454 -172.613 325.672 -165.219 329.762C-157.825 333.852 -150.842 337.814 -136.466 337.814C-122.089 337.814 -115.106 333.852 -107.712 329.762C-100.318 325.672 -92.9242 321.454 -77.9312 321.454C-62.9382 321.454 -55.5444 325.672 -48.1506 329.762C-40.7568 333.852 -33.7737 337.814 -19.3969 337.814C-5.02003 337.814 1.96303 333.852 9.56222 329.762C16.956 325.672 24.3498 321.454 39.3428 321.454C54.3358 321.454 61.7296 325.672 69.1234 329.762C76.5172 333.852 83.5003 337.814 98.0826 337.814C112.459 337.814 119.442 333.852 126.836 329.762C134.23 325.672 141.624 321.454 156.617 321.454C171.61 321.454 179.004 325.672 186.397 329.762C193.791 333.852 200.774 337.814 215.151 337.814C229.528 337.814 236.511 333.852 244.11 329.762C251.504 325.672 258.898 321.454 273.891 321.454C288.884 321.454 296.278 325.672 303.671 329.762C311.065 333.852 318.048 337.814 332.631 337.814C347.007 337.814 353.99 333.852 361.59 329.762C368.983 325.672 376.377 321.454 391.37 321.454C406.363 321.454 413.757 325.672 421.151 329.762C428.545 333.852 435.528 337.814 450.11 337.814C464.487 337.814 471.47 333.852 479.069 329.762C486.463 325.672 493.857 321.454 508.85 321.454C523.843 321.454 531.236 325.672 538.63 329.762C546.024 333.852 553.007 337.814 567.589 337.814V338.709Z" fill="#202994"/>
<path d="M567.589 354.813C552.596 354.813 545.202 350.595 537.809 346.505C530.415 342.415 523.432 338.453 508.849 338.453C494.267 338.453 487.49 342.415 479.89 346.505C472.497 350.595 465.103 354.813 450.11 354.813C435.117 354.813 427.723 350.595 420.329 346.505C412.935 342.415 405.952 338.453 391.37 338.453C376.993 338.453 370.01 342.415 362.411 346.505C355.017 350.595 347.623 354.813 332.63 354.813C317.637 354.813 310.244 350.595 302.85 346.505C295.456 342.415 288.473 338.453 273.891 338.453C259.514 338.453 252.531 342.415 244.932 346.505C237.538 350.595 230.144 354.813 215.151 354.813C200.158 354.813 192.764 350.595 185.37 346.505C177.977 342.415 170.994 338.453 156.617 338.453C142.24 338.453 135.257 342.415 127.863 346.505C120.469 350.595 113.075 354.813 98.0824 354.813C83.0894 354.813 75.6956 350.595 68.3018 346.505C60.9079 342.415 53.9249 338.453 39.3426 338.453C24.9658 338.453 17.9828 342.415 10.3836 346.505C2.98975 350.595 -4.40406 354.813 -19.3971 354.813C-34.3901 354.813 -41.7839 350.595 -49.1777 346.505C-56.5715 342.415 -63.5545 338.453 -77.9314 338.453C-92.3082 338.453 -99.2913 342.415 -106.685 346.505C-114.079 350.595 -121.473 354.813 -136.466 354.813C-151.459 354.813 -158.852 350.595 -166.246 346.505C-173.64 342.415 -180.623 338.453 -195 338.453V337.558C-180.007 337.558 -172.613 341.776 -165.219 345.866C-157.826 349.956 -150.843 353.919 -136.466 353.919C-122.089 353.919 -115.106 349.956 -107.712 345.866C-100.318 341.776 -92.9244 337.558 -77.9314 337.558C-62.9384 337.558 -55.5446 341.776 -48.1508 345.866C-40.7569 349.956 -33.7739 353.919 -19.3971 353.919C-5.02021 353.919 1.96285 349.956 9.56204 345.866C16.9558 341.776 24.3496 337.558 39.3426 337.558C54.3356 337.558 61.7294 341.776 69.1233 345.866C76.5171 349.956 83.5001 353.919 98.0824 353.919C112.459 353.919 119.442 349.956 126.836 345.866C134.23 341.776 141.624 337.558 156.617 337.558C171.61 337.558 179.003 341.776 186.397 345.866C193.791 349.956 200.774 353.919 215.151 353.919C229.528 353.919 236.511 349.956 244.11 345.866C251.504 341.776 258.898 337.558 273.891 337.558C288.884 337.558 296.277 341.776 303.671 345.866C311.065 349.956 318.048 353.919 332.63 353.919C347.007 353.919 353.99 349.956 361.589 345.866C368.983 341.776 376.377 337.558 391.37 337.558C406.363 337.558 413.757 341.776 421.151 345.866C428.545 349.956 435.528 353.919 450.11 353.919C464.487 353.919 471.47 349.956 479.069 345.866C486.463 341.776 493.856 337.558 508.849 337.558C523.842 337.558 531.236 341.776 538.63 345.866C546.024 349.956 553.007 353.919 567.589 353.919V354.813Z" fill="#202994"/>
<path d="M567.589 370.79C552.596 370.79 545.202 366.572 537.809 362.482C530.415 358.392 523.432 354.429 508.849 354.429C494.267 354.429 487.49 358.392 479.89 362.482C472.497 366.572 465.103 370.79 450.11 370.79C435.117 370.79 427.723 366.572 420.329 362.482C412.935 358.392 405.952 354.429 391.37 354.429C376.993 354.429 370.01 358.392 362.411 362.482C355.017 366.572 347.623 370.79 332.63 370.79C317.637 370.79 310.244 366.572 302.85 362.482C295.456 358.392 288.473 354.429 273.891 354.429C259.514 354.429 252.531 358.392 244.932 362.482C237.538 366.572 230.144 370.79 215.151 370.79C200.158 370.79 192.764 366.572 185.37 362.482C177.977 358.392 170.994 354.429 156.617 354.429C142.24 354.429 135.257 358.392 127.863 362.482C120.469 366.572 113.075 370.79 98.0824 370.79C83.0894 370.79 75.6956 366.572 68.3018 362.482C60.9079 358.392 53.9249 354.429 39.3426 354.429C24.9658 354.429 17.9828 358.392 10.3836 362.482C2.98975 366.572 -4.40406 370.79 -19.3971 370.79C-34.3901 370.79 -41.7839 366.572 -49.1777 362.482C-56.5715 358.392 -63.5545 354.429 -77.9314 354.429C-92.3082 354.429 -99.2913 358.392 -106.685 362.482C-114.079 366.572 -121.473 370.79 -136.466 370.79C-151.459 370.79 -158.852 366.572 -166.246 362.482C-173.64 358.392 -180.623 354.429 -195 354.429V353.535C-180.007 353.535 -172.613 357.753 -165.219 361.843C-157.826 365.933 -150.843 369.895 -136.466 369.895C-122.089 369.895 -115.106 365.933 -107.712 361.843C-100.318 357.753 -92.9244 353.535 -77.9314 353.535C-62.9384 353.535 -55.5446 357.753 -48.1508 361.843C-40.7569 365.933 -33.7739 369.895 -19.3971 369.895C-5.02021 369.895 1.96285 365.933 9.56204 361.843C16.9558 357.753 24.3496 353.535 39.3426 353.535C54.3356 353.535 61.7294 357.753 69.1233 361.843C76.5171 365.933 83.5001 369.895 98.0824 369.895C112.459 369.895 119.442 365.933 126.836 361.843C134.23 357.753 141.624 353.535 156.617 353.535C171.61 353.535 179.003 357.753 186.397 361.843C193.791 365.933 200.774 369.895 215.151 369.895C229.528 369.895 236.511 365.933 244.11 361.843C251.504 357.753 258.898 353.535 273.891 353.535C288.884 353.535 296.277 357.753 303.671 361.843C311.065 365.933 318.048 369.895 332.63 369.895C347.007 369.895 353.99 365.933 361.589 361.843C368.983 357.753 376.377 353.535 391.37 353.535C406.363 353.535 413.757 357.753 421.151 361.843C428.545 365.933 435.528 369.895 450.11 369.895C464.487 369.895 471.47 365.933 479.069 361.843C486.463 357.753 493.856 353.535 508.849 353.535C523.842 353.535 531.236 357.753 538.63 361.843C546.024 365.933 553.007 369.895 567.589 369.895V370.79Z" fill="#202994"/>
<path d="M567.589 386.896C552.596 386.896 545.202 382.678 537.809 378.588C530.415 374.497 523.432 370.535 508.849 370.535C494.267 370.535 487.49 374.497 479.89 378.588C472.497 382.678 465.103 386.896 450.11 386.896C435.117 386.896 427.723 382.678 420.329 378.588C412.935 374.497 405.952 370.535 391.37 370.535C376.993 370.535 370.01 374.497 362.411 378.588C355.017 382.678 347.623 386.896 332.63 386.896C317.637 386.896 310.244 382.678 302.85 378.588C295.456 374.497 288.473 370.535 273.891 370.535C259.514 370.535 252.531 374.497 244.932 378.588C237.538 382.678 230.144 386.896 215.151 386.896C200.158 386.896 192.764 382.678 185.37 378.588C177.977 374.497 170.994 370.535 156.617 370.535C142.24 370.535 135.257 374.497 127.863 378.588C120.469 382.678 113.075 386.896 98.0824 386.896C83.0894 386.896 75.6956 382.678 68.3018 378.588C60.9079 374.497 53.9249 370.535 39.3426 370.535C24.9658 370.535 17.9828 374.497 10.3836 378.588C2.98975 382.678 -4.40406 386.896 -19.3971 386.896C-34.3901 386.896 -41.7839 382.678 -49.1777 378.588C-56.5715 374.497 -63.5545 370.535 -77.9314 370.535C-92.3082 370.535 -99.2913 374.497 -106.685 378.588C-114.079 382.678 -121.473 386.896 -136.466 386.896C-151.459 386.896 -158.852 382.678 -166.246 378.588C-173.64 374.497 -180.623 370.535 -195 370.535V369.641C-180.007 369.641 -172.613 373.858 -165.219 377.948C-157.826 382.039 -150.843 386.001 -136.466 386.001C-122.089 386.001 -115.106 382.039 -107.712 377.948C-100.318 373.858 -92.9244 369.641 -77.9314 369.641C-62.9384 369.641 -55.5446 373.858 -48.1508 377.948C-40.7569 382.039 -33.7739 386.001 -19.3971 386.001C-5.02021 386.001 1.96285 382.039 9.56204 377.948C16.9558 373.858 24.3496 369.641 39.3426 369.641C54.3356 369.641 61.7294 373.858 69.1233 377.948C76.5171 382.039 83.5001 386.001 98.0824 386.001C112.459 386.001 119.442 382.039 126.836 377.948C134.23 373.858 141.624 369.641 156.617 369.641C171.61 369.641 179.003 373.858 186.397 377.948C193.791 382.039 200.774 386.001 215.151 386.001C229.528 386.001 236.511 382.039 244.11 377.948C251.504 373.858 258.898 369.641 273.891 369.641C288.884 369.641 296.277 373.858 303.671 377.948C311.065 382.039 318.048 386.001 332.63 386.001C347.007 386.001 353.99 382.039 361.589 377.948C368.983 373.858 376.377 369.641 391.37 369.641C406.363 369.641 413.757 373.858 421.151 377.948C428.545 382.039 435.528 386.001 450.11 386.001C464.487 386.001 471.47 382.039 479.069 377.948C486.463 373.858 493.856 369.641 508.849 369.641C523.842 369.641 531.236 373.858 538.63 377.948C546.024 382.039 553.007 386.001 567.589 386.001V386.896Z" fill="#202994"/>
<path d="M567.589 403C552.596 403 545.202 398.782 537.809 394.692C530.415 390.602 523.432 386.64 508.849 386.64C494.267 386.64 487.49 390.602 479.89 394.692C472.497 398.782 465.103 403 450.11 403C435.117 403 427.723 398.782 420.329 394.692C412.935 390.602 405.952 386.64 391.37 386.64C376.993 386.64 370.01 390.602 362.411 394.692C355.017 398.782 347.623 403 332.63 403C317.637 403 310.244 398.782 302.85 394.692C295.456 390.602 288.473 386.64 273.891 386.64C259.514 386.64 252.531 390.602 244.932 394.692C237.538 398.782 230.144 403 215.151 403C200.158 403 192.764 398.782 185.37 394.692C177.977 390.602 170.994 386.64 156.617 386.64C142.24 386.64 135.257 390.602 127.863 394.692C120.469 398.782 113.075 403 98.0824 403C83.0894 403 75.6956 398.782 68.3018 394.692C60.9079 390.602 53.9249 386.64 39.3426 386.64C24.9658 386.64 17.9828 390.602 10.3836 394.692C2.98975 398.782 -4.40406 403 -19.3971 403C-34.3901 403 -41.7839 398.782 -49.1777 394.692C-56.5715 390.602 -63.5545 386.64 -77.9314 386.64C-92.3082 386.64 -99.2913 390.602 -106.685 394.692C-114.079 398.782 -121.473 403 -136.466 403C-151.459 403 -158.852 398.782 -166.246 394.692C-173.64 390.602 -180.623 386.64 -195 386.64V385.745C-180.007 385.745 -172.613 389.963 -165.219 394.053C-157.826 398.143 -150.843 402.105 -136.466 402.105C-122.089 402.105 -115.106 398.143 -107.712 394.053C-100.318 389.963 -92.9244 385.745 -77.9314 385.745C-62.9384 385.745 -55.5446 389.963 -48.1508 394.053C-40.7569 398.143 -33.7739 402.105 -19.3971 402.105C-5.02021 402.105 1.96285 398.143 9.56204 394.053C16.9558 389.963 24.3496 385.745 39.3426 385.745C54.3356 385.745 61.7294 389.963 69.1233 394.053C76.5171 398.143 83.5001 402.105 98.0824 402.105C112.459 402.105 119.442 398.143 126.836 394.053C134.23 389.963 141.624 385.745 156.617 385.745C171.61 385.745 179.003 389.963 186.397 394.053C193.791 398.143 200.774 402.105 215.151 402.105C229.528 402.105 236.511 398.143 244.11 394.053C251.504 389.963 258.898 385.745 273.891 385.745C288.884 385.745 296.277 389.963 303.671 394.053C311.065 398.143 318.048 402.105 332.63 402.105C347.007 402.105 353.99 398.143 361.589 394.053C368.983 389.963 376.377 385.745 391.37 385.745C406.363 385.745 413.757 389.963 421.151 394.053C428.545 398.143 435.528 402.105 450.11 402.105C464.487 402.105 471.47 398.143 479.069 394.053C486.463 389.963 493.856 385.745 508.849 385.745C523.842 385.745 531.236 389.963 538.63 394.053C546.024 398.143 553.007 402.105 567.589 402.105V403Z" fill="#202994"/>
</svg>
