<svg width="535" height="403" viewBox="0 0 535 403" fill="none" xmlns="http://www.w3.org/2000/svg">
<path d="M762.589 17.255C747.596 17.255 740.202 13.0371 732.809 8.94703C725.415 4.85696 718.432 0.894703 703.849 0.894703C689.267 0.894703 682.49 4.85696 674.89 8.94703C667.497 13.0371 660.103 17.255 645.11 17.255C630.117 17.255 622.723 13.0371 615.329 8.94703C607.935 4.85696 600.952 0.894703 586.37 0.894703C571.993 0.894703 565.01 4.85696 557.411 8.94703C550.017 13.0371 542.623 17.255 527.63 17.255C512.637 17.255 505.244 13.0371 497.85 8.94703C490.456 4.85696 483.473 0.894703 468.891 0.894703C454.514 0.894703 447.531 4.85696 439.932 8.94703C432.538 13.0371 425.144 17.255 410.151 17.255C395.158 17.255 387.764 13.0371 380.37 8.94703C372.977 4.85696 365.994 0.894703 351.617 0.894703C337.24 0.894703 330.257 4.85696 322.863 8.94703C315.469 13.0371 308.075 17.255 293.082 17.255C278.089 17.255 270.696 13.0371 263.302 8.94703C255.908 4.85696 248.925 0.894703 234.343 0.894703C219.966 0.894703 212.983 4.85696 205.384 8.94703C197.99 13.0371 190.596 17.255 175.603 17.255C160.61 17.255 153.216 13.0371 145.822 8.94703C138.429 4.85696 131.445 0.894703 117.069 0.894703C102.692 0.894703 95.7087 4.85696 88.3149 8.94703C80.9211 13.0371 73.5273 17.255 58.5343 17.255C43.5413 17.255 36.1475 13.0371 28.7537 8.94703C21.3599 4.85696 14.3768 0.894703 0 0.894703V0C14.993 0 22.3868 4.21789 29.7806 8.30795C37.1744 12.398 44.1575 16.3603 58.5343 16.3603C72.9112 16.3603 79.8942 12.398 87.288 8.30795C94.6818 4.21789 102.076 0 117.069 0C132.062 0 139.455 4.21789 146.849 8.30795C154.243 12.398 161.226 16.3603 175.603 16.3603C189.98 16.3603 196.963 12.398 204.562 8.30795C211.956 4.21789 219.35 0 234.343 0C249.336 0 256.729 4.21789 264.123 8.30795C271.517 12.398 278.5 16.3603 293.082 16.3603C307.459 16.3603 314.442 12.398 321.836 8.30795C329.23 4.21789 336.624 0 351.617 0C366.61 0 374.003 4.21789 381.397 8.30795C388.791 12.398 395.774 16.3603 410.151 16.3603C424.528 16.3603 431.511 12.398 439.11 8.30795C446.504 4.21789 453.898 0 468.891 0C483.884 0 491.277 4.21789 498.671 8.30795C506.681 12.5258 513.664 16.3603 528.041 16.3603C542.418 16.3603 549.401 12.398 557 8.30795C564.394 4.21789 571.788 0 586.781 0C601.774 0 609.168 4.21789 616.561 8.30795C623.955 12.398 630.938 16.3603 645.521 16.3603C659.897 16.3603 666.88 12.398 674.48 8.30795C681.873 4.21789 689.267 0 704.26 0C719.253 0 726.647 4.21789 734.041 8.30795C741.435 12.398 748.418 16.3603 763 16.3603V17.255H762.589Z" fill="white"/>
<path d="M762.589 33.3594C747.596 33.3594 740.202 29.1415 732.809 25.0515C725.415 20.9614 718.432 16.9991 703.849 16.9991C689.267 16.9991 682.49 20.9614 674.89 25.0515C667.497 29.1415 660.103 33.3594 645.11 33.3594C630.117 33.3594 622.723 29.1415 615.329 25.0515C607.935 20.9614 600.952 16.9991 586.37 16.9991C571.993 16.9991 565.01 20.9614 557.411 25.0515C550.017 29.1415 542.623 33.3594 527.63 33.3594C512.637 33.3594 505.244 29.1415 497.85 25.0515C490.456 20.9614 483.473 16.9991 468.891 16.9991C454.514 16.9991 447.531 20.9614 439.932 25.0515C432.538 29.1415 425.144 33.3594 410.151 33.3594C395.158 33.3594 387.764 29.1415 380.37 25.0515C372.977 20.9614 365.994 16.9991 351.617 16.9991C337.24 16.9991 330.257 20.9614 322.863 25.0515C315.469 29.1415 308.075 33.3594 293.082 33.3594C278.089 33.3594 270.696 29.1415 263.302 25.0515C255.908 20.9614 248.925 16.9991 234.343 16.9991C219.966 16.9991 212.983 20.9614 205.384 25.0515C197.99 29.1415 190.596 33.3594 175.603 33.3594C160.61 33.3594 153.216 29.1415 145.822 25.0515C138.429 20.9614 131.445 16.9991 117.069 16.9991C102.692 16.9991 95.7087 20.9614 88.3149 25.0515C80.9211 29.1415 73.5273 33.3594 58.5343 33.3594C43.5413 33.3594 36.1475 29.1415 28.7537 25.0515C21.3599 20.9614 14.3768 16.9991 0 16.9991V16.1044C14.993 16.1044 22.3868 20.3223 29.7806 24.4124C37.1744 28.5025 44.1575 32.4647 58.5343 32.4647C72.9112 32.4647 79.8942 28.5025 87.288 24.4124C94.6818 20.3223 102.076 16.1044 117.069 16.1044C132.062 16.1044 139.455 20.3223 146.849 24.4124C154.243 28.5025 161.226 32.4647 175.603 32.4647C189.98 32.4647 196.963 28.5025 204.562 24.4124C211.956 20.3223 219.35 16.1044 234.343 16.1044C249.336 16.1044 256.729 20.3223 264.123 24.4124C271.517 28.5025 278.5 32.4647 293.082 32.4647C307.459 32.4647 314.442 28.5025 321.836 24.4124C329.23 20.3223 336.624 16.1044 351.617 16.1044C366.61 16.1044 374.003 20.3223 381.397 24.4124C388.791 28.5025 395.774 32.4647 410.151 32.4647C424.528 32.4647 431.511 28.5025 439.11 24.4124C446.504 20.3223 453.898 16.1044 468.891 16.1044C483.884 16.1044 491.277 20.3223 498.671 24.4124C506.065 28.5025 513.048 32.4647 527.63 32.4647C542.007 32.4647 548.99 28.5025 556.589 24.4124C563.983 20.3223 571.377 16.1044 586.37 16.1044C601.363 16.1044 608.757 20.3223 616.151 24.4124C623.545 28.5025 630.528 32.4647 645.11 32.4647C659.487 32.4647 666.47 28.5025 674.069 24.4124C681.463 20.3223 688.856 16.1044 703.849 16.1044C718.842 16.1044 726.236 20.3223 733.63 24.4124C741.024 28.5025 748.007 32.4647 762.589 32.4647V33.3594Z" fill="white"/>
<path d="M762.589 49.4638C747.596 49.4638 740.202 45.246 732.809 41.1559C725.415 37.0658 718.432 33.1036 703.849 33.1036C689.267 33.1036 682.49 37.0658 674.89 41.1559C667.497 45.246 660.103 49.4638 645.11 49.4638C630.117 49.4638 622.723 45.246 615.329 41.1559C607.935 37.0658 600.952 33.1036 586.37 33.1036C571.993 33.1036 565.01 37.0658 557.411 41.1559C550.017 45.246 542.623 49.4638 527.63 49.4638C512.637 49.4638 505.244 45.246 497.85 41.1559C490.456 37.0658 483.473 33.1036 468.891 33.1036C454.514 33.1036 447.531 37.0658 439.932 41.1559C432.538 45.246 425.144 49.4638 410.151 49.4638C395.158 49.4638 387.764 45.246 380.37 41.1559C372.977 37.0658 365.994 33.1036 351.617 33.1036C337.24 33.1036 330.257 37.0658 322.863 41.1559C315.469 45.246 308.075 49.4638 293.082 49.4638C278.089 49.4638 270.696 45.246 263.302 41.1559C255.908 37.0658 248.925 33.1036 234.343 33.1036C219.966 33.1036 212.983 37.0658 205.384 41.1559C197.99 45.246 190.596 49.4638 175.603 49.4638C160.61 49.4638 153.216 45.246 145.822 41.1559C138.429 37.0658 131.445 33.1036 117.069 33.1036C102.692 33.1036 95.7087 37.0658 88.3149 41.1559C80.9211 45.246 73.5273 49.4638 58.5343 49.4638C43.5413 49.4638 36.1475 45.246 28.7537 41.1559C21.3599 37.0658 14.3768 33.1036 0 33.1036V32.2089C14.993 32.2089 22.3868 36.4267 29.7806 40.5168C37.1744 44.6069 44.1575 48.5691 58.5343 48.5691C72.9112 48.5691 79.8942 44.6069 87.288 40.5168C94.6818 36.4267 102.076 32.2089 117.069 32.2089C132.062 32.2089 139.455 36.4267 146.849 40.5168C154.243 44.6069 161.226 48.5691 175.603 48.5691C189.98 48.5691 196.963 44.6069 204.562 40.5168C211.956 36.4267 219.35 32.2089 234.343 32.2089C249.336 32.2089 256.729 36.4267 264.123 40.5168C271.517 44.6069 278.5 48.5691 293.082 48.5691C307.459 48.5691 314.442 44.6069 321.836 40.5168C329.23 36.4267 336.624 32.2089 351.617 32.2089C366.61 32.2089 374.003 36.4267 381.397 40.5168C388.791 44.6069 395.774 48.5691 410.151 48.5691C424.528 48.5691 431.511 44.6069 439.11 40.5168C446.504 36.4267 453.898 32.2089 468.891 32.2089C483.884 32.2089 491.277 36.4267 498.671 40.5168C506.065 44.6069 513.048 48.5691 527.63 48.5691C542.007 48.5691 548.99 44.6069 556.589 40.5168C563.983 36.4267 571.377 32.2089 586.37 32.2089C601.363 32.2089 608.757 36.4267 616.151 40.5168C623.545 44.6069 630.528 48.5691 645.11 48.5691C659.487 48.5691 666.47 44.6069 674.069 40.5168C681.463 36.4267 688.856 32.2089 703.849 32.2089C718.842 32.2089 726.236 36.4267 733.63 40.5168C741.024 44.6069 748.007 48.5691 762.589 48.5691V49.4638Z" fill="white"/>
<path d="M762.589 65.4405C747.596 65.4405 740.202 61.2226 732.809 57.1325C725.415 53.0424 718.432 49.0802 703.849 49.0802C689.267 49.0802 682.49 53.0424 674.89 57.1325C667.497 61.2226 660.103 65.4405 645.11 65.4405C630.117 65.4405 622.723 61.2226 615.329 57.1325C607.935 53.0424 600.952 49.0802 586.37 49.0802C571.993 49.0802 565.01 53.0424 557.411 57.1325C550.017 61.2226 542.623 65.4405 527.63 65.4405C512.637 65.4405 505.244 61.2226 497.85 57.1325C490.456 53.0424 483.473 49.0802 468.891 49.0802C454.514 49.0802 447.531 53.0424 439.932 57.1325C432.538 61.2226 425.144 65.4405 410.151 65.4405C395.158 65.4405 387.764 61.2226 380.37 57.1325C372.977 53.0424 365.994 49.0802 351.617 49.0802C337.24 49.0802 330.257 53.0424 322.863 57.1325C315.469 61.2226 308.075 65.4405 293.082 65.4405C278.089 65.4405 270.696 61.2226 263.302 57.1325C255.908 53.0424 248.925 49.0802 234.343 49.0802C219.966 49.0802 212.983 53.0424 205.384 57.1325C197.99 61.2226 190.596 65.4405 175.603 65.4405C160.61 65.4405 153.216 61.2226 145.822 57.1325C138.429 53.0424 131.445 49.0802 117.069 49.0802C102.692 49.0802 95.7087 53.0424 88.3149 57.1325C80.9211 61.2226 73.5273 65.4405 58.5343 65.4405C43.5413 65.4405 36.1475 61.2226 28.7537 57.1325C21.3599 53.0424 14.3768 49.0802 0 49.0802V48.3133C14.993 48.3133 22.3868 52.5312 29.7806 56.6212C37.1744 60.7113 44.1575 64.6736 58.5343 64.6736C72.9112 64.6736 79.8942 60.7113 87.288 56.6212C94.6818 52.5312 102.076 48.3133 117.069 48.3133C132.062 48.3133 139.455 52.5312 146.849 56.6212C154.243 60.7113 161.226 64.6736 175.603 64.6736C189.98 64.6736 196.963 60.7113 204.562 56.6212C211.956 52.5312 219.35 48.3133 234.343 48.3133C249.336 48.3133 256.729 52.5312 264.123 56.6212C271.517 60.7113 278.5 64.6736 293.082 64.6736C307.459 64.6736 314.442 60.7113 321.836 56.6212C329.23 52.5312 336.624 48.3133 351.617 48.3133C366.61 48.3133 374.003 52.5312 381.397 56.6212C388.791 60.7113 395.774 64.6736 410.151 64.6736C424.528 64.6736 431.511 60.7113 439.11 56.6212C446.504 52.5312 453.898 48.3133 468.891 48.3133C483.884 48.3133 491.277 52.5312 498.671 56.6212C506.065 60.7113 513.048 64.6736 527.63 64.6736C542.007 64.6736 548.99 60.7113 556.589 56.6212C563.983 52.5312 571.377 48.3133 586.37 48.3133C601.363 48.3133 608.757 52.5312 616.151 56.6212C623.545 60.7113 630.528 64.6736 645.11 64.6736C659.487 64.6736 666.47 60.7113 674.069 56.6212C681.463 52.5312 688.856 48.3133 703.849 48.3133C718.842 48.3133 726.236 52.5312 733.63 56.6212C741.024 60.7113 748.007 64.6736 762.589 64.6736V65.4405Z" fill="white"/>
<path d="M762.588 81.5461C747.595 81.5461 740.201 77.3282 732.808 73.2381C725.414 69.148 718.431 65.1858 703.849 65.1858C689.266 65.1858 682.489 69.148 674.889 73.2381C667.496 77.3282 660.102 81.5461 645.109 81.5461C630.116 81.5461 622.722 77.3282 615.328 73.2381C607.934 69.148 600.951 65.1858 586.369 65.1858C571.992 65.1858 565.009 69.148 557.41 73.2381C550.632 77.3282 543.033 81.5461 528.04 81.5461C513.047 81.5461 505.653 77.3282 498.26 73.2381C490.866 69.148 483.883 65.1858 469.301 65.1858C454.924 65.1858 447.941 69.148 440.341 73.2381C432.948 77.3282 425.554 81.5461 410.561 81.5461C395.568 81.5461 388.174 77.3282 380.78 73.2381C373.386 69.148 366.403 65.1858 352.026 65.1858C337.65 65.1858 330.667 69.148 323.273 73.2381C315.879 77.3282 308.485 81.5461 293.492 81.5461C278.499 81.5461 271.105 77.3282 263.712 73.2381C256.318 69.148 249.335 65.1858 234.753 65.1858C220.376 65.1858 213.393 69.148 205.793 73.2381C198.4 77.3282 191.006 81.5461 176.013 81.5461C161.02 81.5461 153.626 77.3282 146.232 73.2381C138.838 69.148 131.855 65.1858 117.478 65.1858C103.102 65.1858 96.1186 69.148 88.7248 73.2381C81.331 77.3282 73.9372 81.5461 58.9442 81.5461C43.9512 81.5461 36.5574 77.3282 29.1636 73.2381C21.7697 69.148 14.7867 65.1858 0.409853 65.1858V64.2911C15.4029 64.2911 22.7967 68.5089 30.1905 72.599C37.5843 76.6891 44.5673 80.6513 58.9442 80.6513C73.321 80.6513 80.3041 76.6891 87.6979 72.599C95.0917 68.5089 102.485 64.2911 117.478 64.2911C132.471 64.2911 139.865 68.5089 147.259 72.599C154.653 76.6891 161.636 80.6513 176.013 80.6513C190.39 80.6513 197.373 76.6891 204.972 72.599C212.366 68.5089 219.76 64.2911 234.753 64.2911C249.745 64.2911 257.139 68.5089 264.533 72.599C271.927 76.6891 278.91 80.6513 293.492 80.6513C307.869 80.6513 314.852 76.6891 322.246 72.599C329.64 68.5089 337.033 64.2911 352.026 64.2911C367.019 64.2911 374.413 68.5089 381.807 72.599C389.201 76.6891 396.184 80.6513 410.561 80.6513C424.938 80.6513 431.921 76.6891 439.52 72.599C446.914 68.5089 454.307 64.2911 469.301 64.2911C484.293 64.2911 491.687 68.5089 499.081 72.599C506.475 76.6891 513.458 80.6513 528.04 80.6513C542.417 80.6513 549.4 76.6891 556.999 72.599C564.393 68.5089 571.787 64.2911 586.78 64.2911C601.773 64.2911 609.167 68.5089 616.56 72.599C623.954 76.6891 630.937 80.6513 645.52 80.6513C659.896 80.6513 666.879 76.6891 674.479 72.599C681.872 68.5089 689.266 64.2911 704.259 64.2911C719.252 64.2911 726.646 68.5089 734.04 72.599C741.434 76.6891 748.417 80.6513 762.999 80.6513V81.5461H762.588Z" fill="white"/>
<path d="M762.589 97.6505C747.596 97.6505 740.202 93.4326 732.809 89.3425C725.415 85.2524 718.432 81.2902 703.849 81.2902C689.267 81.2902 682.49 85.2524 674.89 89.3425C667.497 93.4326 660.103 97.6505 645.11 97.6505C630.117 97.6505 622.723 93.4326 615.329 89.3425C607.935 85.2524 600.952 81.2902 586.37 81.2902C571.993 81.2902 565.01 85.2524 557.411 89.3425C550.017 93.4326 542.623 97.6505 527.63 97.6505C512.637 97.6505 505.244 93.4326 497.85 89.3425C490.456 85.2524 483.473 81.2902 468.891 81.2902C454.514 81.2902 447.531 85.2524 439.932 89.3425C432.538 93.4326 425.144 97.6505 410.151 97.6505C395.158 97.6505 387.764 93.4326 380.37 89.3425C372.977 85.2524 365.994 81.2902 351.617 81.2902C337.24 81.2902 330.257 85.2524 322.863 89.3425C315.469 93.4326 308.075 97.6505 293.082 97.6505C278.089 97.6505 270.696 93.4326 263.302 89.3425C255.908 85.2524 248.925 81.2902 234.343 81.2902C219.966 81.2902 212.983 85.2524 205.384 89.3425C197.99 93.4326 190.596 97.6505 175.603 97.6505C160.61 97.6505 153.216 93.4326 145.822 89.3425C138.429 85.2524 131.445 81.2902 117.069 81.2902C102.692 81.2902 95.7087 85.2524 88.3149 89.3425C80.9211 93.4326 73.5273 97.6505 58.5343 97.6505C43.5413 97.6505 36.1475 93.4326 28.7537 89.3425C21.3599 85.2524 14.3768 81.2902 0 81.2902V80.3955C14.993 80.3955 22.3868 84.6134 29.7806 88.7035C37.1744 92.7935 44.1575 96.7558 58.5343 96.7558C72.9112 96.7558 79.8942 92.7935 87.288 88.7035C94.6818 84.6134 102.076 80.3955 117.069 80.3955C132.062 80.3955 139.455 84.6134 146.849 88.7035C154.243 92.7935 161.226 96.7558 175.603 96.7558C189.98 96.7558 196.963 92.7935 204.562 88.7035C211.956 84.6134 219.35 80.3955 234.343 80.3955C249.336 80.3955 256.729 84.6134 264.123 88.7035C271.517 92.7935 278.5 96.7558 293.082 96.7558C307.459 96.7558 314.442 92.7935 321.836 88.7035C329.23 84.6134 336.624 80.3955 351.617 80.3955C366.61 80.3955 374.003 84.6134 381.397 88.7035C388.791 92.7935 395.774 96.7558 410.151 96.7558C424.528 96.7558 431.511 92.7935 439.11 88.7035C446.504 84.6134 453.898 80.3955 468.891 80.3955C483.884 80.3955 491.277 84.6134 498.671 88.7035C506.065 92.7935 513.048 96.7558 527.63 96.7558C542.007 96.7558 548.99 92.7935 556.589 88.7035C563.983 84.6134 571.377 80.3955 586.37 80.3955C601.363 80.3955 608.757 84.6134 616.151 88.7035C623.545 92.7935 630.528 96.7558 645.11 96.7558C659.487 96.7558 666.47 92.7935 674.069 88.7035C681.463 84.6134 688.856 80.3955 703.849 80.3955C718.842 80.3955 726.236 84.6134 733.63 88.7035C741.024 92.7935 748.007 96.7558 762.589 96.7558V97.6505Z" fill="white"/>
<path d="M762.589 113.755C747.596 113.755 740.202 109.537 732.809 105.447C725.415 101.357 718.432 97.3946 703.849 97.3946C689.267 97.3946 682.49 101.357 674.89 105.447C667.497 109.537 660.103 113.755 645.11 113.755C630.117 113.755 622.723 109.537 615.329 105.447C607.935 101.357 600.952 97.3946 586.37 97.3946C571.993 97.3946 565.01 101.357 557.411 105.447C550.017 109.537 542.623 113.755 527.63 113.755C512.637 113.755 505.244 109.537 497.85 105.447C490.456 101.357 483.473 97.3946 468.891 97.3946C454.514 97.3946 447.531 101.357 439.932 105.447C432.538 109.537 425.144 113.755 410.151 113.755C395.158 113.755 387.764 109.537 380.37 105.447C372.977 101.357 365.994 97.3946 351.617 97.3946C337.24 97.3946 330.257 101.357 322.863 105.447C315.469 109.537 308.075 113.755 293.082 113.755C278.089 113.755 270.696 109.537 263.302 105.447C255.908 101.357 248.925 97.3946 234.343 97.3946C219.966 97.3946 212.983 101.357 205.384 105.447C197.99 109.537 190.596 113.755 175.603 113.755C160.61 113.755 153.216 109.537 145.822 105.447C138.429 101.357 131.445 97.3946 117.069 97.3946C102.692 97.3946 95.7087 101.357 88.3149 105.447C80.9211 109.537 73.5273 113.755 58.5343 113.755C43.5413 113.755 36.1475 109.537 28.7537 105.447C21.3599 101.357 14.3768 97.3946 0 97.3946V96.4999C14.993 96.4999 22.3868 100.718 29.7806 104.808C37.1744 108.898 44.1575 112.86 58.5343 112.86C72.9112 112.86 79.8942 108.898 87.288 104.808C94.6818 100.718 102.076 96.4999 117.069 96.4999C132.062 96.4999 139.455 100.718 146.849 104.808C154.243 108.898 161.226 112.86 175.603 112.86C189.98 112.86 196.963 108.898 204.562 104.808C211.956 100.718 219.35 96.4999 234.343 96.4999C249.336 96.4999 256.729 100.718 264.123 104.808C271.517 108.898 278.5 112.86 293.082 112.86C307.459 112.86 314.442 108.898 321.836 104.808C329.23 100.718 336.624 96.4999 351.617 96.4999C366.61 96.4999 374.003 100.718 381.397 104.808C388.791 108.898 395.774 112.86 410.151 112.86C424.528 112.86 431.511 108.898 439.11 104.808C446.504 100.718 453.898 96.4999 468.891 96.4999C483.884 96.4999 491.277 100.718 498.671 104.808C506.065 108.898 513.048 112.86 527.63 112.86C542.007 112.86 548.99 108.898 556.589 104.808C563.983 100.718 571.377 96.4999 586.37 96.4999C601.363 96.4999 608.757 100.718 616.151 104.808C623.545 108.898 630.528 112.86 645.11 112.86C659.487 112.86 666.47 108.898 674.069 104.808C681.463 100.718 688.856 96.4999 703.849 96.4999C718.842 96.4999 726.236 100.718 733.63 104.808C741.024 108.898 748.007 112.86 762.589 112.86V113.755Z" fill="white"/>
<path d="M762.589 129.731C747.596 129.731 740.202 125.513 732.809 121.423C725.415 117.333 718.432 113.371 703.849 113.371C689.267 113.371 682.49 117.333 674.89 121.423C667.497 125.513 660.103 129.731 645.11 129.731C630.117 129.731 622.723 125.513 615.329 121.423C607.935 117.333 600.952 113.371 586.37 113.371C571.993 113.371 565.01 117.333 557.411 121.423C550.017 125.513 542.623 129.731 527.63 129.731C512.637 129.731 505.244 125.513 497.85 121.423C490.456 117.333 483.473 113.371 468.891 113.371C454.514 113.371 447.531 117.333 439.932 121.423C432.538 125.513 425.144 129.731 410.151 129.731C395.158 129.731 387.764 125.513 380.37 121.423C372.977 117.333 365.994 113.371 351.617 113.371C337.24 113.371 330.257 117.333 322.863 121.423C315.469 125.513 308.075 129.731 293.082 129.731C278.089 129.731 270.696 125.513 263.302 121.423C255.908 117.333 248.925 113.371 234.343 113.371C219.966 113.371 212.983 117.333 205.384 121.423C197.99 125.513 190.596 129.731 175.603 129.731C160.61 129.731 153.216 125.513 145.822 121.423C138.429 117.333 131.445 113.371 117.069 113.371C102.692 113.371 95.7087 117.333 88.3149 121.423C80.9211 125.513 73.5273 129.731 58.5343 129.731C43.5413 129.731 36.1475 125.513 28.7537 121.423C21.3599 117.333 14.3768 113.371 0 113.371V112.476C14.993 112.476 22.3868 116.694 29.7806 120.784C37.1744 124.874 44.1575 128.837 58.5343 128.837C72.9112 128.837 79.8942 124.874 87.288 120.784C94.6818 116.694 102.076 112.476 117.069 112.476C132.062 112.476 139.455 116.694 146.849 120.784C154.243 124.874 161.226 128.837 175.603 128.837C189.98 128.837 196.963 124.874 204.562 120.784C211.956 116.694 219.35 112.476 234.343 112.476C249.336 112.476 256.729 116.694 264.123 120.784C271.517 124.874 278.5 128.837 293.082 128.837C307.459 128.837 314.442 124.874 321.836 120.784C329.23 116.694 336.624 112.476 351.617 112.476C366.61 112.476 374.003 116.694 381.397 120.784C388.791 124.874 395.774 128.837 410.151 128.837C424.528 128.837 431.511 124.874 439.11 120.784C446.504 116.694 453.898 112.476 468.891 112.476C483.884 112.476 491.277 116.694 498.671 120.784C506.065 124.874 513.048 128.837 527.63 128.837C542.007 128.837 548.99 124.874 556.589 120.784C563.983 116.694 571.377 112.476 586.37 112.476C601.363 112.476 608.757 116.694 616.151 120.784C623.545 124.874 630.528 128.837 645.11 128.837C659.487 128.837 666.47 124.874 674.069 120.784C681.463 116.694 688.856 112.476 703.849 112.476C718.842 112.476 726.236 116.694 733.63 120.784C741.024 124.874 748.007 128.837 762.589 128.837V129.731Z" fill="white"/>
<path d="M762.589 145.836C747.596 145.836 740.202 141.618 732.809 137.528C725.415 133.438 718.432 129.475 703.849 129.475C689.267 129.475 682.49 133.438 674.89 137.528C667.497 141.618 660.103 145.836 645.11 145.836C630.117 145.836 622.723 141.618 615.329 137.528C607.935 133.438 600.952 129.475 586.37 129.475C571.993 129.475 565.01 133.438 557.411 137.528C550.017 141.618 542.623 145.836 527.63 145.836C512.637 145.836 505.244 141.618 497.85 137.528C490.456 133.438 483.473 129.475 468.891 129.475C454.514 129.475 447.531 133.438 439.932 137.528C432.538 141.618 425.144 145.836 410.151 145.836C395.158 145.836 387.764 141.618 380.37 137.528C372.977 133.438 365.994 129.475 351.617 129.475C337.24 129.475 330.257 133.438 322.863 137.528C315.469 141.618 308.075 145.836 293.082 145.836C278.089 145.836 270.696 141.618 263.302 137.528C255.908 133.438 248.925 129.475 234.343 129.475C219.966 129.475 212.983 133.438 205.384 137.528C197.99 141.618 190.596 145.836 175.603 145.836C160.61 145.836 153.216 141.618 145.822 137.528C138.429 133.438 131.445 129.475 117.069 129.475C102.692 129.475 95.7087 133.438 88.3149 137.528C80.9211 141.618 73.5273 145.836 58.5343 145.836C43.5413 145.836 36.1475 141.618 28.7537 137.528C21.3599 133.438 14.3768 129.475 0 129.475V128.581C14.993 128.581 22.3868 132.799 29.7806 136.889C37.1744 140.979 44.1575 144.941 58.5343 144.941C72.9112 144.941 79.8942 140.979 87.288 136.889C94.6818 132.799 102.076 128.581 117.069 128.581C132.062 128.581 139.455 132.799 146.849 136.889C154.243 140.979 161.226 144.941 175.603 144.941C189.98 144.941 196.963 140.979 204.562 136.889C211.956 132.799 219.35 128.581 234.343 128.581C249.336 128.581 256.729 132.799 264.123 136.889C271.517 140.979 278.5 144.941 293.082 144.941C307.459 144.941 314.442 140.979 321.836 136.889C329.23 132.799 336.624 128.581 351.617 128.581C366.61 128.581 374.003 132.799 381.397 136.889C388.791 140.979 395.774 144.941 410.151 144.941C424.528 144.941 431.511 140.979 439.11 136.889C446.504 132.799 453.898 128.581 468.891 128.581C483.884 128.581 491.277 132.799 498.671 136.889C506.065 140.979 513.048 144.941 527.63 144.941C542.007 144.941 548.99 140.979 556.589 136.889C563.983 132.799 571.377 128.581 586.37 128.581C601.363 128.581 608.757 132.799 616.151 136.889C623.545 140.979 630.528 144.941 645.11 144.941C659.487 144.941 666.47 140.979 674.069 136.889C681.463 132.799 688.856 128.581 703.849 128.581C718.842 128.581 726.236 132.799 733.63 136.889C741.024 140.979 748.007 144.941 762.589 144.941V145.836Z" fill="white"/>
<path d="M762.589 161.942C747.596 161.942 740.202 157.724 732.809 153.634C725.415 149.544 718.432 145.581 703.849 145.581C689.267 145.581 682.49 149.544 674.89 153.634C667.497 157.724 660.103 161.942 645.11 161.942C630.117 161.942 622.723 157.724 615.329 153.634C607.935 149.544 600.952 145.581 586.37 145.581C571.993 145.581 565.01 149.544 557.411 153.634C550.017 157.724 542.623 161.942 527.63 161.942C512.637 161.942 505.244 157.724 497.85 153.634C490.456 149.544 483.473 145.581 468.891 145.581C454.514 145.581 447.531 149.544 439.932 153.634C432.538 157.724 425.144 161.942 410.151 161.942C395.158 161.942 387.764 157.724 380.37 153.634C372.977 149.544 365.994 145.581 351.617 145.581C337.24 145.581 330.257 149.544 322.863 153.634C315.469 157.724 308.075 161.942 293.082 161.942C278.089 161.942 270.696 157.724 263.302 153.634C255.908 149.544 248.925 145.581 234.343 145.581C219.966 145.581 212.983 149.544 205.384 153.634C197.99 157.724 190.596 161.942 175.603 161.942C160.61 161.942 153.216 157.724 145.822 153.634C138.429 149.544 131.445 145.581 117.069 145.581C102.692 145.581 95.7087 149.544 88.3149 153.634C80.9211 157.724 73.5273 161.942 58.5343 161.942C43.5413 161.942 36.1475 157.724 28.7537 153.634C21.3599 149.544 14.3768 145.581 0 145.581V144.687C14.993 144.687 22.3868 148.904 29.7806 152.995C37.1744 157.085 44.1575 161.047 58.5343 161.047C72.9112 161.047 79.8942 157.085 87.288 152.995C94.6818 148.904 102.076 144.687 117.069 144.687C132.062 144.687 139.455 148.904 146.849 152.995C154.243 157.085 161.226 161.047 175.603 161.047C189.98 161.047 196.963 157.085 204.562 152.995C211.956 148.904 219.35 144.687 234.343 144.687C249.336 144.687 256.729 148.904 264.123 152.995C271.517 157.085 278.5 161.047 293.082 161.047C307.459 161.047 314.442 157.085 321.836 152.995C329.23 148.904 336.624 144.687 351.617 144.687C366.61 144.687 374.003 148.904 381.397 152.995C388.791 157.085 395.774 161.047 410.151 161.047C424.528 161.047 431.511 157.085 439.11 152.995C446.504 148.904 453.898 144.687 468.891 144.687C483.884 144.687 491.277 148.904 498.671 152.995C506.065 157.085 513.048 161.047 527.63 161.047C542.007 161.047 548.99 157.085 556.589 152.995C563.983 148.904 571.377 144.687 586.37 144.687C601.363 144.687 608.757 148.904 616.151 152.995C623.545 157.085 630.528 161.047 645.11 161.047C659.487 161.047 666.47 157.085 674.069 152.995C681.463 148.904 688.856 144.687 703.849 144.687C718.842 144.687 726.236 148.904 733.63 152.995C741.024 157.085 748.007 161.047 762.589 161.047V161.942Z" fill="white"/>
<path d="M762.589 178.045C747.596 178.045 740.202 173.827 732.809 169.737C725.415 165.647 718.432 161.684 703.849 161.684C689.267 161.684 682.49 165.647 674.89 169.737C667.497 173.827 660.103 178.045 645.11 178.045C630.117 178.045 622.723 173.827 615.329 169.737C607.935 165.647 600.952 161.684 586.37 161.684C571.993 161.684 565.01 165.647 557.411 169.737C550.017 173.827 542.623 178.045 527.63 178.045C512.637 178.045 505.244 173.827 497.85 169.737C490.456 165.647 483.473 161.684 468.891 161.684C454.514 161.684 447.531 165.647 439.932 169.737C432.538 173.827 425.144 178.045 410.151 178.045C395.158 178.045 387.764 173.827 380.37 169.737C372.977 165.647 365.994 161.684 351.617 161.684C337.24 161.684 330.257 165.647 322.863 169.737C315.469 173.827 308.075 178.045 293.082 178.045C278.089 178.045 270.696 173.827 263.302 169.737C255.908 165.647 248.925 161.684 234.343 161.684C219.966 161.684 212.983 165.647 205.384 169.737C197.99 173.827 190.596 178.045 175.603 178.045C160.61 178.045 153.216 173.827 145.822 169.737C138.429 165.647 131.445 161.684 117.069 161.684C102.692 161.684 95.7087 165.647 88.3149 169.737C80.9211 173.827 73.5273 178.045 58.5343 178.045C43.5413 178.045 36.1475 173.827 28.7537 169.737C21.3599 165.647 14.3768 161.684 0 161.684V160.79C14.993 160.79 22.3868 165.007 29.7806 169.098C37.1744 173.188 44.1575 177.15 58.5343 177.15C72.9112 177.15 79.8942 173.188 87.288 169.098C94.6818 165.007 102.076 160.79 117.069 160.79C132.062 160.79 139.455 165.007 146.849 169.098C154.243 173.188 161.226 177.15 175.603 177.15C189.98 177.15 196.963 173.188 204.562 169.098C211.956 165.007 219.35 160.79 234.343 160.79C249.336 160.79 256.729 165.007 264.123 169.098C271.517 173.188 278.5 177.15 293.082 177.15C307.459 177.15 314.442 173.188 321.836 169.098C329.23 165.007 336.624 160.79 351.617 160.79C366.61 160.79 374.003 165.007 381.397 169.098C388.791 173.188 395.774 177.15 410.151 177.15C424.528 177.15 431.511 173.188 439.11 169.098C446.504 165.007 453.898 160.79 468.891 160.79C483.884 160.79 491.277 165.007 498.671 169.098C506.065 173.188 513.048 177.15 527.63 177.15C542.007 177.15 548.99 173.188 556.589 169.098C563.983 165.007 571.377 160.79 586.37 160.79C601.363 160.79 608.757 165.007 616.151 169.098C623.545 173.188 630.528 177.15 645.11 177.15C659.487 177.15 666.47 173.188 674.069 169.098C681.463 165.007 688.856 160.79 703.849 160.79C718.842 160.79 726.236 165.007 733.63 169.098C741.024 173.188 748.007 177.15 762.589 177.15V178.045Z" fill="white"/>
<path d="M762.589 194.022C747.596 194.022 740.202 189.804 732.809 185.714C725.415 181.624 718.432 177.662 703.849 177.662C689.267 177.662 682.49 181.624 674.89 185.714C667.497 189.804 660.103 194.022 645.11 194.022C630.117 194.022 622.723 189.804 615.329 185.714C607.935 181.624 600.952 177.662 586.37 177.662C571.993 177.662 565.01 181.624 557.411 185.714C550.017 189.804 542.623 194.022 527.63 194.022C512.637 194.022 505.244 189.804 497.85 185.714C490.456 181.624 483.473 177.662 468.891 177.662C454.514 177.662 447.531 181.624 439.932 185.714C432.538 189.804 425.144 194.022 410.151 194.022C395.158 194.022 387.764 189.804 380.37 185.714C372.977 181.624 365.994 177.662 351.617 177.662C337.24 177.662 330.257 181.624 322.863 185.714C315.469 189.804 308.075 194.022 293.082 194.022C278.089 194.022 270.696 189.804 263.302 185.714C255.908 181.624 248.925 177.662 234.343 177.662C219.966 177.662 212.983 181.624 205.384 185.714C197.99 189.804 190.596 194.022 175.603 194.022C160.61 194.022 153.216 189.804 145.822 185.714C138.429 181.624 131.445 177.662 117.069 177.662C102.692 177.662 95.7087 181.624 88.3149 185.714C80.9211 189.804 73.5273 194.022 58.5343 194.022C43.5413 194.022 36.1475 189.804 28.7537 185.714C21.3599 181.624 14.3768 177.662 0 177.662V176.767C14.993 176.767 22.3868 180.985 29.7806 185.075C37.1744 189.165 44.1575 193.128 58.5343 193.128C72.9112 193.128 79.8942 189.165 87.288 185.075C94.6818 180.985 102.076 176.767 117.069 176.767C132.062 176.767 139.455 180.985 146.849 185.075C154.243 189.165 161.226 193.128 175.603 193.128C189.98 193.128 196.963 189.165 204.562 185.075C211.956 180.985 219.35 176.767 234.343 176.767C249.336 176.767 256.729 180.985 264.123 185.075C271.517 189.165 278.5 193.128 293.082 193.128C307.459 193.128 314.442 189.165 321.836 185.075C329.23 180.985 336.624 176.767 351.617 176.767C366.61 176.767 374.003 180.985 381.397 185.075C388.791 189.165 395.774 193.128 410.151 193.128C424.528 193.128 431.511 189.165 439.11 185.075C446.504 180.985 453.898 176.767 468.891 176.767C483.884 176.767 491.277 180.985 498.671 185.075C506.065 189.165 513.048 193.128 527.63 193.128C542.007 193.128 548.99 189.165 556.589 185.075C563.983 180.985 571.377 176.767 586.37 176.767C601.363 176.767 608.757 180.985 616.151 185.075C623.545 189.165 630.528 193.128 645.11 193.128C659.487 193.128 666.47 189.165 674.069 185.075C681.463 180.985 688.856 176.767 703.849 176.767C718.842 176.767 726.236 180.985 733.63 185.075C741.024 189.165 748.007 193.128 762.589 193.128V194.022Z" fill="white"/>
<path d="M762.589 210.128C747.596 210.128 740.202 205.91 732.809 201.82C725.415 197.73 718.432 193.768 703.849 193.768C689.267 193.768 682.49 197.73 674.89 201.82C667.497 205.91 660.103 210.128 645.11 210.128C630.117 210.128 622.723 205.91 615.329 201.82C607.935 197.73 600.952 193.768 586.37 193.768C571.993 193.768 565.01 197.73 557.411 201.82C550.017 205.91 542.623 210.128 527.63 210.128C512.637 210.128 505.244 205.91 497.85 201.82C490.456 197.73 483.473 193.768 468.891 193.768C454.514 193.768 447.531 197.73 439.932 201.82C432.538 205.91 425.144 210.128 410.151 210.128C395.158 210.128 387.764 205.91 380.37 201.82C372.977 197.73 365.994 193.768 351.617 193.768C337.24 193.768 330.257 197.73 322.863 201.82C315.469 205.91 308.075 210.128 293.082 210.128C278.089 210.128 270.696 205.91 263.302 201.82C255.908 197.73 248.925 193.768 234.343 193.768C219.966 193.768 212.983 197.73 205.384 201.82C197.99 205.91 190.596 210.128 175.603 210.128C160.61 210.128 153.216 205.91 145.822 201.82C138.429 197.73 131.445 193.768 117.069 193.768C102.692 193.768 95.7087 197.73 88.3149 201.82C80.9211 205.91 73.5273 210.128 58.5343 210.128C43.5413 210.128 36.1475 205.91 28.7537 201.82C21.3599 197.73 14.3768 193.768 0 193.768V192.873C14.993 192.873 22.3868 197.091 29.7806 201.181C37.1744 205.271 44.1575 209.233 58.5343 209.233C72.9112 209.233 79.8942 205.271 87.288 201.181C94.6818 197.091 102.076 192.873 117.069 192.873C132.062 192.873 139.455 197.091 146.849 201.181C154.243 205.271 161.226 209.233 175.603 209.233C189.98 209.233 196.963 205.271 204.562 201.181C211.956 197.091 219.35 192.873 234.343 192.873C249.336 192.873 256.729 197.091 264.123 201.181C271.517 205.271 278.5 209.233 293.082 209.233C307.459 209.233 314.442 205.271 321.836 201.181C329.23 197.091 336.624 192.873 351.617 192.873C366.61 192.873 374.003 197.091 381.397 201.181C388.791 205.271 395.774 209.233 410.151 209.233C424.528 209.233 431.511 205.271 439.11 201.181C446.504 197.091 453.898 192.873 468.891 192.873C483.884 192.873 491.277 197.091 498.671 201.181C506.065 205.271 513.048 209.233 527.63 209.233C542.007 209.233 548.99 205.271 556.589 201.181C563.983 197.091 571.377 192.873 586.37 192.873C601.363 192.873 608.757 197.091 616.151 201.181C623.545 205.271 630.528 209.233 645.11 209.233C659.487 209.233 666.47 205.271 674.069 201.181C681.463 197.091 688.856 192.873 703.849 192.873C718.842 192.873 726.236 197.091 733.63 201.181C741.024 205.271 748.007 209.233 762.589 209.233V210.128Z" fill="white"/>
<path d="M762.589 226.233C747.596 226.233 740.202 222.015 732.809 217.925C725.415 213.835 718.432 209.872 703.849 209.872C689.267 209.872 682.49 213.835 674.89 217.925C667.497 222.015 660.103 226.233 645.11 226.233C630.117 226.233 622.723 222.015 615.329 217.925C607.935 213.835 600.952 209.872 586.37 209.872C571.993 209.872 565.01 213.835 557.411 217.925C550.017 222.015 542.623 226.233 527.63 226.233C512.637 226.233 505.244 222.015 497.85 217.925C490.456 213.835 483.473 209.872 468.891 209.872C454.514 209.872 447.531 213.835 439.932 217.925C432.538 222.015 425.144 226.233 410.151 226.233C395.158 226.233 387.764 222.015 380.37 217.925C372.977 213.835 365.994 209.872 351.617 209.872C337.24 209.872 330.257 213.835 322.863 217.925C315.469 222.015 308.075 226.233 293.082 226.233C278.089 226.233 270.696 222.015 263.302 217.925C255.908 213.835 248.925 209.872 234.343 209.872C219.966 209.872 212.983 213.835 205.384 217.925C197.99 222.015 190.596 226.233 175.603 226.233C160.61 226.233 153.216 222.015 145.822 217.925C138.429 213.835 131.445 209.872 117.069 209.872C102.692 209.872 95.7087 213.835 88.3149 217.925C80.9211 222.015 73.5273 226.233 58.5343 226.233C43.5413 226.233 36.1475 222.015 28.7537 217.925C21.3599 213.835 14.3768 209.872 0 209.872V208.978C14.993 208.978 22.3868 213.196 29.7806 217.286C37.1744 221.376 44.1575 225.338 58.5343 225.338C72.9112 225.338 79.8942 221.376 87.288 217.286C94.6818 213.196 102.076 208.978 117.069 208.978C132.062 208.978 139.455 213.196 146.849 217.286C154.243 221.376 161.226 225.338 175.603 225.338C189.98 225.338 196.963 221.376 204.562 217.286C211.956 213.196 219.35 208.978 234.343 208.978C249.336 208.978 256.729 213.196 264.123 217.286C271.517 221.376 278.5 225.338 293.082 225.338C307.459 225.338 314.442 221.376 321.836 217.286C329.23 213.196 336.624 208.978 351.617 208.978C366.61 208.978 374.003 213.196 381.397 217.286C388.791 221.376 395.774 225.338 410.151 225.338C424.528 225.338 431.511 221.376 439.11 217.286C446.504 213.196 453.898 208.978 468.891 208.978C483.884 208.978 491.277 213.196 498.671 217.286C506.065 221.376 513.048 225.338 527.63 225.338C542.007 225.338 548.99 221.376 556.589 217.286C563.983 213.196 571.377 208.978 586.37 208.978C601.363 208.978 608.757 213.196 616.151 217.286C623.545 221.376 630.528 225.338 645.11 225.338C659.487 225.338 666.47 221.376 674.069 217.286C681.463 213.196 688.856 208.978 703.849 208.978C718.842 208.978 726.236 213.196 733.63 217.286C741.024 221.376 748.007 225.338 762.589 225.338V226.233Z" fill="white"/>
<path d="M762.589 242.209C747.596 242.209 740.202 237.991 732.809 233.901C725.415 229.811 718.432 225.849 703.849 225.849C689.267 225.849 682.49 229.811 674.89 233.901C667.497 237.991 660.103 242.209 645.11 242.209C630.117 242.209 622.723 237.991 615.329 233.901C607.935 229.811 600.952 225.849 586.37 225.849C571.993 225.849 565.01 229.811 557.411 233.901C550.017 237.991 542.623 242.209 527.63 242.209C512.637 242.209 505.244 237.991 497.85 233.901C490.456 229.811 483.473 225.849 468.891 225.849C454.514 225.849 447.531 229.811 439.932 233.901C432.538 237.991 425.144 242.209 410.151 242.209C395.158 242.209 387.764 237.991 380.37 233.901C372.977 229.811 365.994 225.849 351.617 225.849C337.24 225.849 330.257 229.811 322.863 233.901C315.469 237.991 308.075 242.209 293.082 242.209C278.089 242.209 270.696 237.991 263.302 233.901C255.908 229.811 248.925 225.849 234.343 225.849C219.966 225.849 212.983 229.811 205.384 233.901C197.99 237.991 190.596 242.209 175.603 242.209C160.61 242.209 153.216 237.991 145.822 233.901C138.429 229.811 131.445 225.849 117.069 225.849C102.692 225.849 95.7087 229.811 88.3149 233.901C80.9211 237.991 73.5273 242.209 58.5343 242.209C43.5413 242.209 36.1475 237.991 28.7537 233.901C21.3599 229.811 14.3768 225.849 0 225.849V224.954C14.993 224.954 22.3868 229.172 29.7806 233.262C37.1744 237.352 44.1575 241.314 58.5343 241.314C72.9112 241.314 79.8942 237.352 87.288 233.262C94.6818 229.172 102.076 224.954 117.069 224.954C132.062 224.954 139.455 229.172 146.849 233.262C154.243 237.352 161.226 241.314 175.603 241.314C189.98 241.314 196.963 237.352 204.562 233.262C211.956 229.172 219.35 224.954 234.343 224.954C249.336 224.954 256.729 229.172 264.123 233.262C271.517 237.352 278.5 241.314 293.082 241.314C307.459 241.314 314.442 237.352 321.836 233.262C329.23 229.172 336.624 224.954 351.617 224.954C366.61 224.954 374.003 229.172 381.397 233.262C388.791 237.352 395.774 241.314 410.151 241.314C424.528 241.314 431.511 237.352 439.11 233.262C446.504 229.172 453.898 224.954 468.891 224.954C483.884 224.954 491.277 229.172 498.671 233.262C506.065 237.352 513.048 241.314 527.63 241.314C542.007 241.314 548.99 237.352 556.589 233.262C563.983 229.172 571.377 224.954 586.37 224.954C601.363 224.954 608.757 229.172 616.151 233.262C623.545 237.352 630.528 241.314 645.11 241.314C659.487 241.314 666.47 237.352 674.069 233.262C681.463 229.172 688.856 224.954 703.849 224.954C718.842 224.954 726.236 229.172 733.63 233.262C741.024 237.352 748.007 241.314 762.589 241.314V242.209Z" fill="white"/>
<path d="M762.589 258.313C747.596 258.313 740.202 254.096 732.809 250.005C725.415 245.915 718.432 241.953 703.849 241.953C689.267 241.953 682.49 245.915 674.89 250.005C667.497 254.096 660.103 258.313 645.11 258.313C630.117 258.313 622.723 254.096 615.329 250.005C607.935 245.915 600.952 241.953 586.37 241.953C571.993 241.953 565.01 245.915 557.411 250.005C550.017 254.096 542.623 258.313 527.63 258.313C512.637 258.313 505.244 254.096 497.85 250.005C490.456 245.915 483.473 241.953 468.891 241.953C454.514 241.953 447.531 245.915 439.932 250.005C432.538 254.096 425.144 258.313 410.151 258.313C395.158 258.313 387.764 254.096 380.37 250.005C372.977 245.915 365.994 241.953 351.617 241.953C337.24 241.953 330.257 245.915 322.863 250.005C315.469 254.096 308.075 258.313 293.082 258.313C278.089 258.313 270.696 254.096 263.302 250.005C255.908 245.915 248.925 241.953 234.343 241.953C219.966 241.953 212.983 245.915 205.384 250.005C197.99 254.096 190.596 258.313 175.603 258.313C160.61 258.313 153.216 254.096 145.822 250.005C138.429 245.915 131.445 241.953 117.069 241.953C102.692 241.953 95.7087 245.915 88.3149 250.005C80.9211 254.096 73.5273 258.313 58.5343 258.313C43.5413 258.313 36.1475 254.096 28.7537 250.005C21.3599 245.915 14.3768 241.953 0 241.953V241.058C14.993 241.058 22.3868 245.276 29.7806 249.366C37.1744 253.456 44.1575 257.419 58.5343 257.419C72.9112 257.419 79.8942 253.456 87.288 249.366C94.6818 245.276 102.076 241.058 117.069 241.058C132.062 241.058 139.455 245.276 146.849 249.366C154.243 253.456 161.226 257.419 175.603 257.419C189.98 257.419 196.963 253.456 204.562 249.366C211.956 245.276 219.35 241.058 234.343 241.058C249.336 241.058 256.729 245.276 264.123 249.366C271.517 253.456 278.5 257.419 293.082 257.419C307.459 257.419 314.442 253.456 321.836 249.366C329.23 245.276 336.624 241.058 351.617 241.058C366.61 241.058 374.003 245.276 381.397 249.366C388.791 253.456 395.774 257.419 410.151 257.419C424.528 257.419 431.511 253.456 439.11 249.366C446.504 245.276 453.898 241.058 468.891 241.058C483.884 241.058 491.277 245.276 498.671 249.366C506.065 253.456 513.048 257.419 527.63 257.419C542.007 257.419 548.99 253.456 556.589 249.366C563.983 245.276 571.377 241.058 586.37 241.058C601.363 241.058 608.757 245.276 616.151 249.366C623.545 253.456 630.528 257.419 645.11 257.419C659.487 257.419 666.47 253.456 674.069 249.366C681.463 245.276 688.856 241.058 703.849 241.058C718.842 241.058 726.236 245.276 733.63 249.366C741.024 253.456 748.007 257.419 762.589 257.419V258.313Z" fill="white"/>
<path d="M762.589 274.418C747.596 274.418 740.202 270.2 732.809 266.11C725.415 262.02 718.432 258.058 703.849 258.058C689.267 258.058 682.49 262.02 674.89 266.11C667.497 270.2 660.103 274.418 645.11 274.418C630.117 274.418 622.723 270.2 615.329 266.11C607.935 262.02 600.952 258.058 586.37 258.058C571.993 258.058 565.01 262.02 557.411 266.11C550.017 270.2 542.623 274.418 527.63 274.418C512.637 274.418 505.244 270.2 497.85 266.11C490.456 262.02 483.473 258.058 468.891 258.058C454.514 258.058 447.531 262.02 439.932 266.11C432.538 270.2 425.144 274.418 410.151 274.418C395.158 274.418 387.764 270.2 380.37 266.11C372.977 262.02 365.994 258.058 351.617 258.058C337.24 258.058 330.257 262.02 322.863 266.11C315.469 270.2 308.075 274.418 293.082 274.418C278.089 274.418 270.696 270.2 263.302 266.11C255.908 262.02 248.925 258.058 234.343 258.058C219.966 258.058 212.983 262.02 205.384 266.11C197.99 270.2 190.596 274.418 175.603 274.418C160.61 274.418 153.216 270.2 145.822 266.11C138.429 262.02 131.445 258.058 117.069 258.058C102.692 258.058 95.7087 262.02 88.3149 266.11C80.9211 270.2 73.5273 274.418 58.5343 274.418C43.5413 274.418 36.1475 270.2 28.7537 266.11C21.3599 262.02 14.3768 258.058 0 258.058V257.163C14.993 257.163 22.3868 261.381 29.7806 265.471C37.1744 269.561 44.1575 273.523 58.5343 273.523C72.9112 273.523 79.8942 269.561 87.288 265.471C94.6818 261.381 102.076 257.163 117.069 257.163C132.062 257.163 139.455 261.381 146.849 265.471C154.243 269.561 161.226 273.523 175.603 273.523C189.98 273.523 196.963 269.561 204.562 265.471C211.956 261.381 219.35 257.163 234.343 257.163C249.336 257.163 256.729 261.381 264.123 265.471C271.517 269.561 278.5 273.523 293.082 273.523C307.459 273.523 314.442 269.561 321.836 265.471C329.23 261.381 336.624 257.163 351.617 257.163C366.61 257.163 374.003 261.381 381.397 265.471C388.791 269.561 395.774 273.523 410.151 273.523C424.528 273.523 431.511 269.561 439.11 265.471C446.504 261.381 453.898 257.163 468.891 257.163C483.884 257.163 491.277 261.381 498.671 265.471C506.065 269.561 513.048 273.523 527.63 273.523C542.007 273.523 548.99 269.561 556.589 265.471C563.983 261.381 571.377 257.163 586.37 257.163C601.363 257.163 608.757 261.381 616.151 265.471C623.545 269.561 630.528 273.523 645.11 273.523C659.487 273.523 666.47 269.561 674.069 265.471C681.463 261.381 688.856 257.163 703.849 257.163C718.842 257.163 726.236 261.381 733.63 265.471C741.024 269.561 748.007 273.523 762.589 273.523V274.418Z" fill="white"/>
<path d="M762.589 290.524C747.596 290.524 740.202 286.306 732.809 282.216C725.415 278.126 718.432 274.163 703.849 274.163C689.267 274.163 682.49 278.126 674.89 282.216C667.497 286.306 660.103 290.524 645.11 290.524C630.117 290.524 622.723 286.306 615.329 282.216C607.935 278.126 600.952 274.163 586.37 274.163C571.993 274.163 565.01 278.126 557.411 282.216C550.017 286.306 542.623 290.524 527.63 290.524C512.637 290.524 505.244 286.306 497.85 282.216C490.456 278.126 483.473 274.163 468.891 274.163C454.514 274.163 447.531 278.126 439.932 282.216C432.538 286.306 425.144 290.524 410.151 290.524C395.158 290.524 387.764 286.306 380.37 282.216C372.977 278.126 365.994 274.163 351.617 274.163C337.24 274.163 330.257 278.126 322.863 282.216C315.469 286.306 308.075 290.524 293.082 290.524C278.089 290.524 270.696 286.306 263.302 282.216C255.908 278.126 248.925 274.163 234.343 274.163C219.966 274.163 212.983 278.126 205.384 282.216C197.99 286.306 190.596 290.524 175.603 290.524C160.61 290.524 153.216 286.306 145.822 282.216C138.429 278.126 131.445 274.163 117.069 274.163C102.692 274.163 95.7087 278.126 88.3149 282.216C80.9211 286.306 73.5273 290.524 58.5343 290.524C43.5413 290.524 36.1475 286.306 28.7537 282.216C21.3599 278.126 14.3768 274.163 0 274.163V273.269C14.993 273.269 22.3868 277.487 29.7806 281.577C37.1744 285.667 44.1575 289.629 58.5343 289.629C72.9112 289.629 79.8942 285.667 87.288 281.577C94.6818 277.487 102.076 273.269 117.069 273.269C132.062 273.269 139.455 277.487 146.849 281.577C154.243 285.667 161.226 289.629 175.603 289.629C189.98 289.629 196.963 285.667 204.562 281.577C211.956 277.487 219.35 273.269 234.343 273.269C249.336 273.269 256.729 277.487 264.123 281.577C271.517 285.667 278.5 289.629 293.082 289.629C307.459 289.629 314.442 285.667 321.836 281.577C329.23 277.487 336.624 273.269 351.617 273.269C366.61 273.269 374.003 277.487 381.397 281.577C388.791 285.667 395.774 289.629 410.151 289.629C424.528 289.629 431.511 285.667 439.11 281.577C446.504 277.487 453.898 273.269 468.891 273.269C483.884 273.269 491.277 277.487 498.671 281.577C506.065 285.667 513.048 289.629 527.63 289.629C542.007 289.629 548.99 285.667 556.589 281.577C563.983 277.487 571.377 273.269 586.37 273.269C601.363 273.269 608.757 277.487 616.151 281.577C623.545 285.667 630.528 289.629 645.11 289.629C659.487 289.629 666.47 285.667 674.069 281.577C681.463 277.487 688.856 273.269 703.849 273.269C718.842 273.269 726.236 277.487 733.63 281.577C741.024 285.667 748.007 289.629 762.589 289.629V290.524Z" fill="white"/>
<path d="M762.589 306.5C747.596 306.5 740.202 302.282 732.809 298.192C725.415 294.102 718.432 290.14 703.849 290.14C689.267 290.14 682.49 294.102 674.89 298.192C667.497 302.282 660.103 306.5 645.11 306.5C630.117 306.5 622.723 302.282 615.329 298.192C607.935 294.102 600.952 290.14 586.37 290.14C571.993 290.14 565.01 294.102 557.411 298.192C550.017 302.282 542.623 306.5 527.63 306.5C512.637 306.5 505.244 302.282 497.85 298.192C490.456 294.102 483.473 290.14 468.891 290.14C454.514 290.14 447.531 294.102 439.932 298.192C432.538 302.282 425.144 306.5 410.151 306.5C395.158 306.5 387.764 302.282 380.37 298.192C372.977 294.102 365.994 290.14 351.617 290.14C337.24 290.14 330.257 294.102 322.863 298.192C315.469 302.282 308.075 306.5 293.082 306.5C278.089 306.5 270.696 302.282 263.302 298.192C255.908 294.102 248.925 290.14 234.343 290.14C219.966 290.14 212.983 294.102 205.384 298.192C197.99 302.282 190.596 306.5 175.603 306.5C160.61 306.5 153.216 302.282 145.822 298.192C138.429 294.102 131.445 290.14 117.069 290.14C102.692 290.14 95.7087 294.102 88.3149 298.192C80.9211 302.282 73.5273 306.5 58.5343 306.5C43.5413 306.5 36.1475 302.282 28.7537 298.192C21.3599 294.102 14.3768 290.14 0 290.14V289.245C14.993 289.245 22.3868 293.463 29.7806 297.553C37.1744 301.643 44.1575 305.605 58.5343 305.605C72.9112 305.605 79.8942 301.643 87.288 297.553C94.6818 293.463 102.076 289.245 117.069 289.245C132.062 289.245 139.455 293.463 146.849 297.553C154.243 301.643 161.226 305.605 175.603 305.605C189.98 305.605 196.963 301.643 204.562 297.553C211.956 293.463 219.35 289.245 234.343 289.245C249.336 289.245 256.729 293.463 264.123 297.553C271.517 301.643 278.5 305.605 293.082 305.605C307.459 305.605 314.442 301.643 321.836 297.553C329.23 293.463 336.624 289.245 351.617 289.245C366.61 289.245 374.003 293.463 381.397 297.553C388.791 301.643 395.774 305.605 410.151 305.605C424.528 305.605 431.511 301.643 439.11 297.553C446.504 293.463 453.898 289.245 468.891 289.245C483.884 289.245 491.277 293.463 498.671 297.553C506.065 301.643 513.048 305.605 527.63 305.605C542.007 305.605 548.99 301.643 556.589 297.553C563.983 293.463 571.377 289.245 586.37 289.245C601.363 289.245 608.757 293.463 616.151 297.553C623.545 301.643 630.528 305.605 645.11 305.605C659.487 305.605 666.47 301.643 674.069 297.553C681.463 293.463 688.856 289.245 703.849 289.245C718.842 289.245 726.236 293.463 733.63 297.553C741.024 301.643 748.007 305.605 762.589 305.605V306.5Z" fill="white"/>
<path d="M762.589 322.604C747.596 322.604 740.202 318.387 732.809 314.297C725.415 310.206 718.432 306.244 703.849 306.244C689.267 306.244 682.49 310.206 674.89 314.297C667.497 318.387 660.103 322.604 645.11 322.604C630.117 322.604 622.723 318.387 615.329 314.297C607.935 310.206 600.952 306.244 586.37 306.244C571.993 306.244 565.01 310.206 557.411 314.297C550.017 318.387 542.623 322.604 527.63 322.604C512.637 322.604 505.244 318.387 497.85 314.297C490.456 310.206 483.473 306.244 468.891 306.244C454.514 306.244 447.531 310.206 439.932 314.297C432.538 318.387 425.144 322.604 410.151 322.604C395.158 322.604 387.764 318.387 380.37 314.297C372.977 310.206 365.994 306.244 351.617 306.244C337.24 306.244 330.257 310.206 322.863 314.297C315.469 318.387 308.075 322.604 293.082 322.604C278.089 322.604 270.696 318.387 263.302 314.297C255.908 310.206 248.925 306.244 234.343 306.244C219.966 306.244 212.983 310.206 205.384 314.297C197.99 318.387 190.596 322.604 175.603 322.604C160.61 322.604 153.216 318.387 145.822 314.297C138.429 310.206 131.445 306.244 117.069 306.244C102.692 306.244 95.7087 310.206 88.3149 314.297C80.9211 318.387 73.5273 322.604 58.5343 322.604C43.5413 322.604 36.1475 318.387 28.7537 314.297C21.3599 310.206 14.3768 306.244 0 306.244V305.35C14.993 305.35 22.3868 309.567 29.7806 313.657C37.1744 317.748 44.1575 321.71 58.5343 321.71C72.9112 321.71 79.8942 317.748 87.288 313.657C94.6818 309.567 102.076 305.35 117.069 305.35C132.062 305.35 139.455 309.567 146.849 313.657C154.243 317.748 161.226 321.71 175.603 321.71C189.98 321.71 196.963 317.748 204.562 313.657C211.956 309.567 219.35 305.35 234.343 305.35C249.336 305.35 256.729 309.567 264.123 313.657C271.517 317.748 278.5 321.71 293.082 321.71C307.459 321.71 314.442 317.748 321.836 313.657C329.23 309.567 336.624 305.35 351.617 305.35C366.61 305.35 374.003 309.567 381.397 313.657C388.791 317.748 395.774 321.71 410.151 321.71C424.528 321.71 431.511 317.748 439.11 313.657C446.504 309.567 453.898 305.35 468.891 305.35C483.884 305.35 491.277 309.567 498.671 313.657C506.065 317.748 513.048 321.71 527.63 321.71C542.007 321.71 548.99 317.748 556.589 313.657C563.983 309.567 571.377 305.35 586.37 305.35C601.363 305.35 608.757 309.567 616.151 313.657C623.545 317.748 630.528 321.71 645.11 321.71C659.487 321.71 666.47 317.748 674.069 313.657C681.463 309.567 688.856 305.35 703.849 305.35C718.842 305.35 726.236 309.567 733.63 313.657C741.024 317.748 748.007 321.71 762.589 321.71V322.604Z" fill="white"/>
<path d="M762.589 338.709C747.596 338.709 740.203 334.491 732.809 330.401C725.415 326.311 718.432 322.349 703.85 322.349C689.267 322.349 682.49 326.311 674.891 330.401C667.497 334.491 660.103 338.709 645.11 338.709C630.117 338.709 622.723 334.491 615.329 330.401C607.935 326.311 600.953 322.349 586.37 322.349C571.993 322.349 565.01 326.311 557.411 330.401C550.017 334.491 542.624 338.709 527.63 338.709C512.638 338.709 505.244 334.491 497.85 330.401C490.456 326.311 483.473 322.349 468.891 322.349C454.514 322.349 447.531 326.311 439.932 330.401C432.538 334.491 425.144 338.709 410.151 338.709C395.158 338.709 387.764 334.491 380.371 330.401C372.977 326.311 365.994 322.349 351.617 322.349C337.24 322.349 330.257 326.311 322.863 330.401C315.469 334.491 308.076 338.709 293.083 338.709C278.09 338.709 270.696 334.491 263.302 330.401C255.908 326.311 248.925 322.349 234.343 322.349C219.966 322.349 212.983 326.311 205.384 330.401C197.99 334.491 190.596 338.709 175.603 338.709C160.61 338.709 153.216 334.491 145.823 330.401C138.429 326.311 131.446 322.349 117.069 322.349C102.692 322.349 95.7089 326.311 88.3151 330.401C80.9213 334.491 73.5275 338.709 58.5345 338.709C43.5415 338.709 36.1477 334.491 28.7539 330.401C21.3601 326.311 14.377 322.349 0.000181304 322.349V321.454C14.9932 321.454 22.387 325.672 29.7808 329.762C37.1746 333.852 44.1576 337.814 58.5345 337.814C72.9113 337.814 79.8944 333.852 87.2882 329.762C94.682 325.672 102.076 321.454 117.069 321.454C132.062 321.454 139.456 325.672 146.849 329.762C154.243 333.852 161.226 337.814 175.603 337.814C189.98 337.814 196.963 333.852 204.562 329.762C211.956 325.672 219.35 321.454 234.343 321.454C249.336 321.454 256.73 325.672 264.123 329.762C271.517 333.852 278.5 337.814 293.083 337.814C307.459 337.814 314.442 333.852 321.836 329.762C329.23 325.672 336.624 321.454 351.617 321.454C366.61 321.454 374.004 325.672 381.397 329.762C388.791 333.852 395.774 337.814 410.151 337.814C424.528 337.814 431.511 333.852 439.11 329.762C446.504 325.672 453.898 321.454 468.891 321.454C483.884 321.454 491.278 325.672 498.671 329.762C506.065 333.852 513.048 337.814 527.63 337.814C542.007 337.814 548.99 333.852 556.59 329.762C563.983 325.672 571.377 321.454 586.37 321.454C601.363 321.454 608.757 325.672 616.151 329.762C623.545 333.852 630.528 337.814 645.11 337.814C659.487 337.814 666.47 333.852 674.069 329.762C681.463 325.672 688.857 321.454 703.85 321.454C718.843 321.454 726.236 325.672 733.63 329.762C741.024 333.852 748.007 337.814 762.589 337.814V338.709Z" fill="white"/>
<path d="M762.589 354.813C747.596 354.813 740.202 350.595 732.809 346.505C725.415 342.415 718.432 338.453 703.849 338.453C689.267 338.453 682.49 342.415 674.89 346.505C667.497 350.595 660.103 354.813 645.11 354.813C630.117 354.813 622.723 350.595 615.329 346.505C607.935 342.415 600.952 338.453 586.37 338.453C571.993 338.453 565.01 342.415 557.411 346.505C550.017 350.595 542.623 354.813 527.63 354.813C512.637 354.813 505.244 350.595 497.85 346.505C490.456 342.415 483.473 338.453 468.891 338.453C454.514 338.453 447.531 342.415 439.932 346.505C432.538 350.595 425.144 354.813 410.151 354.813C395.158 354.813 387.764 350.595 380.37 346.505C372.977 342.415 365.994 338.453 351.617 338.453C337.24 338.453 330.257 342.415 322.863 346.505C315.469 350.595 308.075 354.813 293.082 354.813C278.089 354.813 270.696 350.595 263.302 346.505C255.908 342.415 248.925 338.453 234.343 338.453C219.966 338.453 212.983 342.415 205.384 346.505C197.99 350.595 190.596 354.813 175.603 354.813C160.61 354.813 153.216 350.595 145.822 346.505C138.429 342.415 131.445 338.453 117.069 338.453C102.692 338.453 95.7087 342.415 88.3149 346.505C80.9211 350.595 73.5273 354.813 58.5343 354.813C43.5413 354.813 36.1475 350.595 28.7537 346.505C21.3599 342.415 14.3768 338.453 0 338.453V337.558C14.993 337.558 22.3868 341.776 29.7806 345.866C37.1744 349.956 44.1575 353.919 58.5343 353.919C72.9112 353.919 79.8942 349.956 87.288 345.866C94.6818 341.776 102.076 337.558 117.069 337.558C132.062 337.558 139.455 341.776 146.849 345.866C154.243 349.956 161.226 353.919 175.603 353.919C189.98 353.919 196.963 349.956 204.562 345.866C211.956 341.776 219.35 337.558 234.343 337.558C249.336 337.558 256.729 341.776 264.123 345.866C271.517 349.956 278.5 353.919 293.082 353.919C307.459 353.919 314.442 349.956 321.836 345.866C329.23 341.776 336.624 337.558 351.617 337.558C366.61 337.558 374.003 341.776 381.397 345.866C388.791 349.956 395.774 353.919 410.151 353.919C424.528 353.919 431.511 349.956 439.11 345.866C446.504 341.776 453.898 337.558 468.891 337.558C483.884 337.558 491.277 341.776 498.671 345.866C506.065 349.956 513.048 353.919 527.63 353.919C542.007 353.919 548.99 349.956 556.589 345.866C563.983 341.776 571.377 337.558 586.37 337.558C601.363 337.558 608.757 341.776 616.151 345.866C623.545 349.956 630.528 353.919 645.11 353.919C659.487 353.919 666.47 349.956 674.069 345.866C681.463 341.776 688.856 337.558 703.849 337.558C718.842 337.558 726.236 341.776 733.63 345.866C741.024 349.956 748.007 353.919 762.589 353.919V354.813Z" fill="white"/>
<path d="M762.589 370.79C747.596 370.79 740.202 366.572 732.809 362.482C725.415 358.392 718.432 354.429 703.849 354.429C689.267 354.429 682.49 358.392 674.89 362.482C667.497 366.572 660.103 370.79 645.11 370.79C630.117 370.79 622.723 366.572 615.329 362.482C607.935 358.392 600.952 354.429 586.37 354.429C571.993 354.429 565.01 358.392 557.411 362.482C550.017 366.572 542.623 370.79 527.63 370.79C512.637 370.79 505.244 366.572 497.85 362.482C490.456 358.392 483.473 354.429 468.891 354.429C454.514 354.429 447.531 358.392 439.932 362.482C432.538 366.572 425.144 370.79 410.151 370.79C395.158 370.79 387.764 366.572 380.37 362.482C372.977 358.392 365.994 354.429 351.617 354.429C337.24 354.429 330.257 358.392 322.863 362.482C315.469 366.572 308.075 370.79 293.082 370.79C278.089 370.79 270.696 366.572 263.302 362.482C255.908 358.392 248.925 354.429 234.343 354.429C219.966 354.429 212.983 358.392 205.384 362.482C197.99 366.572 190.596 370.79 175.603 370.79C160.61 370.79 153.216 366.572 145.822 362.482C138.429 358.392 131.445 354.429 117.069 354.429C102.692 354.429 95.7087 358.392 88.3149 362.482C80.9211 366.572 73.5273 370.79 58.5343 370.79C43.5413 370.79 36.1475 366.572 28.7537 362.482C21.3599 358.392 14.3768 354.429 0 354.429V353.535C14.993 353.535 22.3868 357.753 29.7806 361.843C37.1744 365.933 44.1575 369.895 58.5343 369.895C72.9112 369.895 79.8942 365.933 87.288 361.843C94.6818 357.753 102.076 353.535 117.069 353.535C132.062 353.535 139.455 357.753 146.849 361.843C154.243 365.933 161.226 369.895 175.603 369.895C189.98 369.895 196.963 365.933 204.562 361.843C211.956 357.753 219.35 353.535 234.343 353.535C249.336 353.535 256.729 357.753 264.123 361.843C271.517 365.933 278.5 369.895 293.082 369.895C307.459 369.895 314.442 365.933 321.836 361.843C329.23 357.753 336.624 353.535 351.617 353.535C366.61 353.535 374.003 357.753 381.397 361.843C388.791 365.933 395.774 369.895 410.151 369.895C424.528 369.895 431.511 365.933 439.11 361.843C446.504 357.753 453.898 353.535 468.891 353.535C483.884 353.535 491.277 357.753 498.671 361.843C506.065 365.933 513.048 369.895 527.63 369.895C542.007 369.895 548.99 365.933 556.589 361.843C563.983 357.753 571.377 353.535 586.37 353.535C601.363 353.535 608.757 357.753 616.151 361.843C623.545 365.933 630.528 369.895 645.11 369.895C659.487 369.895 666.47 365.933 674.069 361.843C681.463 357.753 688.856 353.535 703.849 353.535C718.842 353.535 726.236 357.753 733.63 361.843C741.024 365.933 748.007 369.895 762.589 369.895V370.79Z" fill="white"/>
<path d="M762.589 386.896C747.596 386.896 740.202 382.678 732.809 378.588C725.415 374.497 718.432 370.535 703.849 370.535C689.267 370.535 682.49 374.497 674.89 378.588C667.497 382.678 660.103 386.896 645.11 386.896C630.117 386.896 622.723 382.678 615.329 378.588C607.935 374.497 600.952 370.535 586.37 370.535C571.993 370.535 565.01 374.497 557.411 378.588C550.017 382.678 542.623 386.896 527.63 386.896C512.637 386.896 505.244 382.678 497.85 378.588C490.456 374.497 483.473 370.535 468.891 370.535C454.514 370.535 447.531 374.497 439.932 378.588C432.538 382.678 425.144 386.896 410.151 386.896C395.158 386.896 387.764 382.678 380.37 378.588C372.977 374.497 365.994 370.535 351.617 370.535C337.24 370.535 330.257 374.497 322.863 378.588C315.469 382.678 308.075 386.896 293.082 386.896C278.089 386.896 270.696 382.678 263.302 378.588C255.908 374.497 248.925 370.535 234.343 370.535C219.966 370.535 212.983 374.497 205.384 378.588C197.99 382.678 190.596 386.896 175.603 386.896C160.61 386.896 153.216 382.678 145.822 378.588C138.429 374.497 131.445 370.535 117.069 370.535C102.692 370.535 95.7087 374.497 88.3149 378.588C80.9211 382.678 73.5273 386.896 58.5343 386.896C43.5413 386.896 36.1475 382.678 28.7537 378.588C21.3599 374.497 14.3768 370.535 0 370.535V369.641C14.993 369.641 22.3868 373.858 29.7806 377.948C37.1744 382.039 44.1575 386.001 58.5343 386.001C72.9112 386.001 79.8942 382.039 87.288 377.948C94.6818 373.858 102.076 369.641 117.069 369.641C132.062 369.641 139.455 373.858 146.849 377.948C154.243 382.039 161.226 386.001 175.603 386.001C189.98 386.001 196.963 382.039 204.562 377.948C211.956 373.858 219.35 369.641 234.343 369.641C249.336 369.641 256.729 373.858 264.123 377.948C271.517 382.039 278.5 386.001 293.082 386.001C307.459 386.001 314.442 382.039 321.836 377.948C329.23 373.858 336.624 369.641 351.617 369.641C366.61 369.641 374.003 373.858 381.397 377.948C388.791 382.039 395.774 386.001 410.151 386.001C424.528 386.001 431.511 382.039 439.11 377.948C446.504 373.858 453.898 369.641 468.891 369.641C483.884 369.641 491.277 373.858 498.671 377.948C506.065 382.039 513.048 386.001 527.63 386.001C542.007 386.001 548.99 382.039 556.589 377.948C563.983 373.858 571.377 369.641 586.37 369.641C601.363 369.641 608.757 373.858 616.151 377.948C623.545 382.039 630.528 386.001 645.11 386.001C659.487 386.001 666.47 382.039 674.069 377.948C681.463 373.858 688.856 369.641 703.849 369.641C718.842 369.641 726.236 373.858 733.63 377.948C741.024 382.039 748.007 386.001 762.589 386.001V386.896Z" fill="white"/>
<path d="M762.589 403C747.596 403 740.202 398.782 732.809 394.692C725.415 390.602 718.432 386.64 703.849 386.64C689.267 386.64 682.49 390.602 674.89 394.692C667.497 398.782 660.103 403 645.11 403C630.117 403 622.723 398.782 615.329 394.692C607.935 390.602 600.952 386.64 586.37 386.64C571.993 386.64 565.01 390.602 557.411 394.692C550.017 398.782 542.623 403 527.63 403C512.637 403 505.244 398.782 497.85 394.692C490.456 390.602 483.473 386.64 468.891 386.64C454.514 386.64 447.531 390.602 439.932 394.692C432.538 398.782 425.144 403 410.151 403C395.158 403 387.764 398.782 380.37 394.692C372.977 390.602 365.994 386.64 351.617 386.64C337.24 386.64 330.257 390.602 322.863 394.692C315.469 398.782 308.075 403 293.082 403C278.089 403 270.696 398.782 263.302 394.692C255.908 390.602 248.925 386.64 234.343 386.64C219.966 386.64 212.983 390.602 205.384 394.692C197.99 398.782 190.596 403 175.603 403C160.61 403 153.216 398.782 145.822 394.692C138.429 390.602 131.445 386.64 117.069 386.64C102.692 386.64 95.7087 390.602 88.3149 394.692C80.9211 398.782 73.5273 403 58.5343 403C43.5413 403 36.1475 398.782 28.7537 394.692C21.3599 390.602 14.3768 386.64 0 386.64V385.745C14.993 385.745 22.3868 389.963 29.7806 394.053C37.1744 398.143 44.1575 402.105 58.5343 402.105C72.9112 402.105 79.8942 398.143 87.288 394.053C94.6818 389.963 102.076 385.745 117.069 385.745C132.062 385.745 139.455 389.963 146.849 394.053C154.243 398.143 161.226 402.105 175.603 402.105C189.98 402.105 196.963 398.143 204.562 394.053C211.956 389.963 219.35 385.745 234.343 385.745C249.336 385.745 256.729 389.963 264.123 394.053C271.517 398.143 278.5 402.105 293.082 402.105C307.459 402.105 314.442 398.143 321.836 394.053C329.23 389.963 336.624 385.745 351.617 385.745C366.61 385.745 374.003 389.963 381.397 394.053C388.791 398.143 395.774 402.105 410.151 402.105C424.528 402.105 431.511 398.143 439.11 394.053C446.504 389.963 453.898 385.745 468.891 385.745C483.884 385.745 491.277 389.963 498.671 394.053C506.065 398.143 513.048 402.105 527.63 402.105C542.007 402.105 548.99 398.143 556.589 394.053C563.983 389.963 571.377 385.745 586.37 385.745C601.363 385.745 608.757 389.963 616.151 394.053C623.545 398.143 630.528 402.105 645.11 402.105C659.487 402.105 666.47 398.143 674.069 394.053C681.463 389.963 688.856 385.745 703.849 385.745C718.842 385.745 726.236 389.963 733.63 394.053C741.024 398.143 748.007 402.105 762.589 402.105V403Z" fill="white"/>
</svg>
