<svg width="365" height="403" viewBox="0 0 365 403" fill="none" xmlns="http://www.w3.org/2000/svg">
<path d="M364.589 17.255C349.596 17.255 342.202 13.0371 334.809 8.94703C327.415 4.85696 320.432 0.894703 305.849 0.894703C291.267 0.894703 284.49 4.85696 276.89 8.94703C269.497 13.0371 262.103 17.255 247.11 17.255C232.117 17.255 224.723 13.0371 217.329 8.94703C209.935 4.85696 202.952 0.894703 188.37 0.894703C173.993 0.894703 167.01 4.85696 159.411 8.94703C152.017 13.0371 144.623 17.255 129.63 17.255C114.637 17.255 107.244 13.0371 99.8497 8.94703C92.4559 4.85696 85.4729 0.894703 70.8907 0.894703C56.5139 0.894703 49.5308 4.85696 41.9316 8.94703C34.5378 13.0371 27.144 17.255 12.151 17.255C-2.84201 17.255 -10.2358 13.0371 -17.6296 8.94703C-25.0234 4.85696 -32.0065 0.894703 -46.3833 0.894703C-60.7602 0.894703 -67.7432 4.85696 -75.137 8.94703C-82.5309 13.0371 -89.9246 17.255 -104.918 17.255C-119.911 17.255 -127.304 13.0371 -134.698 8.94703C-142.092 4.85696 -149.075 0.894703 -163.657 0.894703C-178.034 0.894703 -185.017 4.85696 -192.616 8.94703C-200.01 13.0371 -207.404 17.255 -222.397 17.255C-237.39 17.255 -244.784 13.0371 -252.178 8.94703C-259.571 4.85696 -266.555 0.894703 -280.931 0.894703C-295.308 0.894703 -302.291 4.85696 -309.685 8.94703C-317.079 13.0371 -324.473 17.255 -339.466 17.255C-354.459 17.255 -361.852 13.0371 -369.246 8.94703C-376.64 4.85696 -383.623 0.894703 -398 0.894703V0C-383.007 0 -375.613 4.21789 -368.219 8.30795C-360.826 12.398 -353.843 16.3603 -339.466 16.3603C-325.089 16.3603 -318.106 12.398 -310.712 8.30795C-303.318 4.21789 -295.924 0 -280.931 0C-265.938 0 -258.545 4.21789 -251.151 8.30795C-243.757 12.398 -236.774 16.3603 -222.397 16.3603C-208.02 16.3603 -201.037 12.398 -193.438 8.30795C-186.044 4.21789 -178.65 0 -163.657 0C-148.664 0 -141.271 4.21789 -133.877 8.30795C-126.483 12.398 -119.5 16.3603 -104.918 16.3603C-90.5408 16.3603 -83.5578 12.398 -76.1639 8.30795C-68.7701 4.21789 -61.3763 0 -46.3833 0C-31.3903 0 -23.9965 4.21789 -16.6027 8.30795C-9.20889 12.398 -2.22586 16.3603 12.151 16.3603C26.5278 16.3603 33.5109 12.398 41.1101 8.30795C48.5039 4.21789 55.8977 0 70.8907 0C85.8837 0 93.2775 4.21789 100.671 8.30795C108.681 12.5258 115.664 16.3603 130.041 16.3603C144.418 16.3603 151.401 12.398 159 8.30795C166.394 4.21789 173.788 0 188.781 0C203.774 0 211.168 4.21789 218.561 8.30795C225.955 12.398 232.938 16.3603 247.521 16.3603C261.897 16.3603 268.88 12.398 276.48 8.30795C283.873 4.21789 291.267 0 306.26 0C321.253 0 328.647 4.21789 336.041 8.30795C343.435 12.398 350.418 16.3603 365 16.3603V17.255H364.589Z" fill="#202994"/>
<path d="M364.589 33.3594C349.596 33.3594 342.202 29.1415 334.809 25.0515C327.415 20.9614 320.432 16.9991 305.849 16.9991C291.267 16.9991 284.49 20.9614 276.89 25.0515C269.497 29.1415 262.103 33.3594 247.11 33.3594C232.117 33.3594 224.723 29.1415 217.329 25.0515C209.935 20.9614 202.952 16.9991 188.37 16.9991C173.993 16.9991 167.01 20.9614 159.411 25.0515C152.017 29.1415 144.623 33.3594 129.63 33.3594C114.637 33.3594 107.244 29.1415 99.8497 25.0515C92.4559 20.9614 85.4729 16.9991 70.8907 16.9991C56.5139 16.9991 49.5308 20.9614 41.9316 25.0515C34.5378 29.1415 27.144 33.3594 12.151 33.3594C-2.84201 33.3594 -10.2358 29.1415 -17.6296 25.0515C-25.0234 20.9614 -32.0065 16.9991 -46.3833 16.9991C-60.7602 16.9991 -67.7432 20.9614 -75.137 25.0515C-82.5309 29.1415 -89.9246 33.3594 -104.918 33.3594C-119.911 33.3594 -127.304 29.1415 -134.698 25.0515C-142.092 20.9614 -149.075 16.9991 -163.657 16.9991C-178.034 16.9991 -185.017 20.9614 -192.616 25.0515C-200.01 29.1415 -207.404 33.3594 -222.397 33.3594C-237.39 33.3594 -244.784 29.1415 -252.178 25.0515C-259.571 20.9614 -266.555 16.9991 -280.931 16.9991C-295.308 16.9991 -302.291 20.9614 -309.685 25.0515C-317.079 29.1415 -324.473 33.3594 -339.466 33.3594C-354.459 33.3594 -361.852 29.1415 -369.246 25.0515C-376.64 20.9614 -383.623 16.9991 -398 16.9991V16.1044C-383.007 16.1044 -375.613 20.3223 -368.219 24.4124C-360.826 28.5025 -353.843 32.4647 -339.466 32.4647C-325.089 32.4647 -318.106 28.5025 -310.712 24.4124C-303.318 20.3223 -295.924 16.1044 -280.931 16.1044C-265.938 16.1044 -258.545 20.3223 -251.151 24.4124C-243.757 28.5025 -236.774 32.4647 -222.397 32.4647C-208.02 32.4647 -201.037 28.5025 -193.438 24.4124C-186.044 20.3223 -178.65 16.1044 -163.657 16.1044C-148.664 16.1044 -141.271 20.3223 -133.877 24.4124C-126.483 28.5025 -119.5 32.4647 -104.918 32.4647C-90.5408 32.4647 -83.5578 28.5025 -76.1639 24.4124C-68.7701 20.3223 -61.3763 16.1044 -46.3833 16.1044C-31.3903 16.1044 -23.9965 20.3223 -16.6027 24.4124C-9.20889 28.5025 -2.22586 32.4647 12.151 32.4647C26.5278 32.4647 33.5109 28.5025 41.1101 24.4124C48.5039 20.3223 55.8977 16.1044 70.8907 16.1044C85.8837 16.1044 93.2775 20.3223 100.671 24.4124C108.065 28.5025 115.048 32.4647 129.63 32.4647C144.007 32.4647 150.99 28.5025 158.589 24.4124C165.983 20.3223 173.377 16.1044 188.37 16.1044C203.363 16.1044 210.757 20.3223 218.151 24.4124C225.545 28.5025 232.528 32.4647 247.11 32.4647C261.487 32.4647 268.47 28.5025 276.069 24.4124C283.463 20.3223 290.856 16.1044 305.849 16.1044C320.842 16.1044 328.236 20.3223 335.63 24.4124C343.024 28.5025 350.007 32.4647 364.589 32.4647V33.3594Z" fill="#202994"/>
<path d="M364.589 49.4638C349.596 49.4638 342.202 45.246 334.809 41.1559C327.415 37.0658 320.432 33.1036 305.849 33.1036C291.267 33.1036 284.49 37.0658 276.89 41.1559C269.497 45.246 262.103 49.4638 247.11 49.4638C232.117 49.4638 224.723 45.246 217.329 41.1559C209.935 37.0658 202.952 33.1036 188.37 33.1036C173.993 33.1036 167.01 37.0658 159.411 41.1559C152.017 45.246 144.623 49.4638 129.63 49.4638C114.637 49.4638 107.244 45.246 99.8497 41.1559C92.4559 37.0658 85.4729 33.1036 70.8907 33.1036C56.5139 33.1036 49.5308 37.0658 41.9316 41.1559C34.5378 45.246 27.144 49.4638 12.151 49.4638C-2.84201 49.4638 -10.2358 45.246 -17.6296 41.1559C-25.0234 37.0658 -32.0065 33.1036 -46.3833 33.1036C-60.7602 33.1036 -67.7432 37.0658 -75.137 41.1559C-82.5309 45.246 -89.9246 49.4638 -104.918 49.4638C-119.911 49.4638 -127.304 45.246 -134.698 41.1559C-142.092 37.0658 -149.075 33.1036 -163.657 33.1036C-178.034 33.1036 -185.017 37.0658 -192.616 41.1559C-200.01 45.246 -207.404 49.4638 -222.397 49.4638C-237.39 49.4638 -244.784 45.246 -252.178 41.1559C-259.571 37.0658 -266.555 33.1036 -280.931 33.1036C-295.308 33.1036 -302.291 37.0658 -309.685 41.1559C-317.079 45.246 -324.473 49.4638 -339.466 49.4638C-354.459 49.4638 -361.852 45.246 -369.246 41.1559C-376.64 37.0658 -383.623 33.1036 -398 33.1036V32.2089C-383.007 32.2089 -375.613 36.4267 -368.219 40.5168C-360.826 44.6069 -353.843 48.5691 -339.466 48.5691C-325.089 48.5691 -318.106 44.6069 -310.712 40.5168C-303.318 36.4267 -295.924 32.2089 -280.931 32.2089C-265.938 32.2089 -258.545 36.4267 -251.151 40.5168C-243.757 44.6069 -236.774 48.5691 -222.397 48.5691C-208.02 48.5691 -201.037 44.6069 -193.438 40.5168C-186.044 36.4267 -178.65 32.2089 -163.657 32.2089C-148.664 32.2089 -141.271 36.4267 -133.877 40.5168C-126.483 44.6069 -119.5 48.5691 -104.918 48.5691C-90.5408 48.5691 -83.5578 44.6069 -76.1639 40.5168C-68.7701 36.4267 -61.3763 32.2089 -46.3833 32.2089C-31.3903 32.2089 -23.9965 36.4267 -16.6027 40.5168C-9.20889 44.6069 -2.22586 48.5691 12.151 48.5691C26.5278 48.5691 33.5109 44.6069 41.1101 40.5168C48.5039 36.4267 55.8977 32.2089 70.8907 32.2089C85.8837 32.2089 93.2775 36.4267 100.671 40.5168C108.065 44.6069 115.048 48.5691 129.63 48.5691C144.007 48.5691 150.99 44.6069 158.589 40.5168C165.983 36.4267 173.377 32.2089 188.37 32.2089C203.363 32.2089 210.757 36.4267 218.151 40.5168C225.545 44.6069 232.528 48.5691 247.11 48.5691C261.487 48.5691 268.47 44.6069 276.069 40.5168C283.463 36.4267 290.856 32.2089 305.849 32.2089C320.842 32.2089 328.236 36.4267 335.63 40.5168C343.024 44.6069 350.007 48.5691 364.589 48.5691V49.4638Z" fill="#202994"/>
<path d="M364.589 65.4405C349.596 65.4405 342.202 61.2226 334.809 57.1325C327.415 53.0424 320.432 49.0802 305.849 49.0802C291.267 49.0802 284.49 53.0424 276.89 57.1325C269.497 61.2226 262.103 65.4405 247.11 65.4405C232.117 65.4405 224.723 61.2226 217.329 57.1325C209.935 53.0424 202.952 49.0802 188.37 49.0802C173.993 49.0802 167.01 53.0424 159.411 57.1325C152.017 61.2226 144.623 65.4405 129.63 65.4405C114.637 65.4405 107.244 61.2226 99.8497 57.1325C92.4559 53.0424 85.4729 49.0802 70.8907 49.0802C56.5139 49.0802 49.5308 53.0424 41.9316 57.1325C34.5378 61.2226 27.144 65.4405 12.151 65.4405C-2.84201 65.4405 -10.2358 61.2226 -17.6296 57.1325C-25.0234 53.0424 -32.0065 49.0802 -46.3833 49.0802C-60.7602 49.0802 -67.7432 53.0424 -75.137 57.1325C-82.5309 61.2226 -89.9246 65.4405 -104.918 65.4405C-119.911 65.4405 -127.304 61.2226 -134.698 57.1325C-142.092 53.0424 -149.075 49.0802 -163.657 49.0802C-178.034 49.0802 -185.017 53.0424 -192.616 57.1325C-200.01 61.2226 -207.404 65.4405 -222.397 65.4405C-237.39 65.4405 -244.784 61.2226 -252.178 57.1325C-259.571 53.0424 -266.555 49.0802 -280.931 49.0802C-295.308 49.0802 -302.291 53.0424 -309.685 57.1325C-317.079 61.2226 -324.473 65.4405 -339.466 65.4405C-354.459 65.4405 -361.852 61.2226 -369.246 57.1325C-376.64 53.0424 -383.623 49.0802 -398 49.0802V48.3133C-383.007 48.3133 -375.613 52.5312 -368.219 56.6212C-360.826 60.7113 -353.843 64.6736 -339.466 64.6736C-325.089 64.6736 -318.106 60.7113 -310.712 56.6212C-303.318 52.5312 -295.924 48.3133 -280.931 48.3133C-265.938 48.3133 -258.545 52.5312 -251.151 56.6212C-243.757 60.7113 -236.774 64.6736 -222.397 64.6736C-208.02 64.6736 -201.037 60.7113 -193.438 56.6212C-186.044 52.5312 -178.65 48.3133 -163.657 48.3133C-148.664 48.3133 -141.271 52.5312 -133.877 56.6212C-126.483 60.7113 -119.5 64.6736 -104.918 64.6736C-90.5408 64.6736 -83.5578 60.7113 -76.1639 56.6212C-68.7701 52.5312 -61.3763 48.3133 -46.3833 48.3133C-31.3903 48.3133 -23.9965 52.5312 -16.6027 56.6212C-9.20889 60.7113 -2.22586 64.6736 12.151 64.6736C26.5278 64.6736 33.5109 60.7113 41.1101 56.6212C48.5039 52.5312 55.8977 48.3133 70.8907 48.3133C85.8837 48.3133 93.2775 52.5312 100.671 56.6212C108.065 60.7113 115.048 64.6736 129.63 64.6736C144.007 64.6736 150.99 60.7113 158.589 56.6212C165.983 52.5312 173.377 48.3133 188.37 48.3133C203.363 48.3133 210.757 52.5312 218.151 56.6212C225.545 60.7113 232.528 64.6736 247.11 64.6736C261.487 64.6736 268.47 60.7113 276.069 56.6212C283.463 52.5312 290.856 48.3133 305.849 48.3133C320.842 48.3133 328.236 52.5312 335.63 56.6212C343.024 60.7113 350.007 64.6736 364.589 64.6736V65.4405Z" fill="#202994"/>
<path d="M364.588 81.5461C349.595 81.5461 342.201 77.3282 334.808 73.2381C327.414 69.148 320.431 65.1858 305.849 65.1858C291.266 65.1858 284.489 69.148 276.889 73.2381C269.496 77.3282 262.102 81.5461 247.109 81.5461C232.116 81.5461 224.722 77.3282 217.328 73.2381C209.934 69.148 202.951 65.1858 188.369 65.1858C173.992 65.1858 167.009 69.148 159.41 73.2381C152.632 77.3282 145.033 81.5461 130.04 81.5461C115.047 81.5461 107.653 77.3282 100.26 73.2381C92.8658 69.148 85.8827 65.1858 71.3005 65.1858C56.9236 65.1858 49.9406 69.148 42.3414 73.2381C34.9476 77.3282 27.5538 81.5461 12.5608 81.5461C-2.43222 81.5461 -9.82602 77.3282 -17.2198 73.2381C-24.6136 69.148 -31.5967 65.1858 -45.9735 65.1858C-60.3504 65.1858 -67.3334 69.148 -74.7272 73.2381C-82.1211 77.3282 -89.5148 81.5461 -104.508 81.5461C-119.501 81.5461 -126.895 77.3282 -134.288 73.2381C-141.682 69.148 -148.665 65.1858 -163.247 65.1858C-177.624 65.1858 -184.607 69.148 -192.207 73.2381C-199.6 77.3282 -206.994 81.5461 -221.987 81.5461C-236.98 81.5461 -244.374 77.3282 -251.768 73.2381C-259.162 69.148 -266.145 65.1858 -280.522 65.1858C-294.898 65.1858 -301.881 69.148 -309.275 73.2381C-316.669 77.3282 -324.063 81.5461 -339.056 81.5461C-354.049 81.5461 -361.443 77.3282 -368.836 73.2381C-376.23 69.148 -383.213 65.1858 -397.59 65.1858V64.2911C-382.597 64.2911 -375.203 68.5089 -367.81 72.599C-360.416 76.6891 -353.433 80.6513 -339.056 80.6513C-324.679 80.6513 -317.696 76.6891 -310.302 72.599C-302.908 68.5089 -295.515 64.2911 -280.522 64.2911C-265.529 64.2911 -258.135 68.5089 -250.741 72.599C-243.347 76.6891 -236.364 80.6513 -221.987 80.6513C-207.61 80.6513 -200.627 76.6891 -193.028 72.599C-185.634 68.5089 -178.24 64.2911 -163.247 64.2911C-148.255 64.2911 -140.861 68.5089 -133.467 72.599C-126.073 76.6891 -119.09 80.6513 -104.508 80.6513C-90.131 80.6513 -83.148 76.6891 -75.7542 72.599C-68.3604 68.5089 -60.9666 64.2911 -45.9735 64.2911C-30.9805 64.2911 -23.5867 68.5089 -16.1929 72.599C-8.7991 76.6891 -1.81607 80.6513 12.5608 80.6513C26.9377 80.6513 33.9207 76.6891 41.5199 72.599C48.9137 68.5089 56.3075 64.2911 71.3005 64.2911C86.2935 64.2911 93.6873 68.5089 101.081 72.599C108.475 76.6891 115.458 80.6513 130.04 80.6513C144.417 80.6513 151.4 76.6891 158.999 72.599C166.393 68.5089 173.787 64.2911 188.78 64.2911C203.773 64.2911 211.167 68.5089 218.56 72.599C225.954 76.6891 232.937 80.6513 247.52 80.6513C261.896 80.6513 268.879 76.6891 276.479 72.599C283.872 68.5089 291.266 64.2911 306.259 64.2911C321.252 64.2911 328.646 68.5089 336.04 72.599C343.434 76.6891 350.417 80.6513 364.999 80.6513V81.5461H364.588Z" fill="#202994"/>
<path d="M364.589 97.6505C349.596 97.6505 342.202 93.4326 334.809 89.3425C327.415 85.2524 320.432 81.2902 305.849 81.2902C291.267 81.2902 284.49 85.2524 276.89 89.3425C269.497 93.4326 262.103 97.6505 247.11 97.6505C232.117 97.6505 224.723 93.4326 217.329 89.3425C209.935 85.2524 202.952 81.2902 188.37 81.2902C173.993 81.2902 167.01 85.2524 159.411 89.3425C152.017 93.4326 144.623 97.6505 129.63 97.6505C114.637 97.6505 107.244 93.4326 99.8497 89.3425C92.4559 85.2524 85.4729 81.2902 70.8907 81.2902C56.5139 81.2902 49.5308 85.2524 41.9316 89.3425C34.5378 93.4326 27.144 97.6505 12.151 97.6505C-2.84201 97.6505 -10.2358 93.4326 -17.6296 89.3425C-25.0234 85.2524 -32.0065 81.2902 -46.3833 81.2902C-60.7602 81.2902 -67.7432 85.2524 -75.137 89.3425C-82.5309 93.4326 -89.9246 97.6505 -104.918 97.6505C-119.911 97.6505 -127.304 93.4326 -134.698 89.3425C-142.092 85.2524 -149.075 81.2902 -163.657 81.2902C-178.034 81.2902 -185.017 85.2524 -192.616 89.3425C-200.01 93.4326 -207.404 97.6505 -222.397 97.6505C-237.39 97.6505 -244.784 93.4326 -252.178 89.3425C-259.571 85.2524 -266.555 81.2902 -280.931 81.2902C-295.308 81.2902 -302.291 85.2524 -309.685 89.3425C-317.079 93.4326 -324.473 97.6505 -339.466 97.6505C-354.459 97.6505 -361.852 93.4326 -369.246 89.3425C-376.64 85.2524 -383.623 81.2902 -398 81.2902V80.3955C-383.007 80.3955 -375.613 84.6134 -368.219 88.7035C-360.826 92.7935 -353.843 96.7558 -339.466 96.7558C-325.089 96.7558 -318.106 92.7935 -310.712 88.7035C-303.318 84.6134 -295.924 80.3955 -280.931 80.3955C-265.938 80.3955 -258.545 84.6134 -251.151 88.7035C-243.757 92.7935 -236.774 96.7558 -222.397 96.7558C-208.02 96.7558 -201.037 92.7935 -193.438 88.7035C-186.044 84.6134 -178.65 80.3955 -163.657 80.3955C-148.664 80.3955 -141.271 84.6134 -133.877 88.7035C-126.483 92.7935 -119.5 96.7558 -104.918 96.7558C-90.5408 96.7558 -83.5578 92.7935 -76.1639 88.7035C-68.7701 84.6134 -61.3763 80.3955 -46.3833 80.3955C-31.3903 80.3955 -23.9965 84.6134 -16.6027 88.7035C-9.20889 92.7935 -2.22586 96.7558 12.151 96.7558C26.5278 96.7558 33.5109 92.7935 41.1101 88.7035C48.5039 84.6134 55.8977 80.3955 70.8907 80.3955C85.8837 80.3955 93.2775 84.6134 100.671 88.7035C108.065 92.7935 115.048 96.7558 129.63 96.7558C144.007 96.7558 150.99 92.7935 158.589 88.7035C165.983 84.6134 173.377 80.3955 188.37 80.3955C203.363 80.3955 210.757 84.6134 218.151 88.7035C225.545 92.7935 232.528 96.7558 247.11 96.7558C261.487 96.7558 268.47 92.7935 276.069 88.7035C283.463 84.6134 290.856 80.3955 305.849 80.3955C320.842 80.3955 328.236 84.6134 335.63 88.7035C343.024 92.7935 350.007 96.7558 364.589 96.7558V97.6505Z" fill="#202994"/>
<path d="M364.589 113.755C349.596 113.755 342.202 109.537 334.809 105.447C327.415 101.357 320.432 97.3946 305.849 97.3946C291.267 97.3946 284.49 101.357 276.89 105.447C269.497 109.537 262.103 113.755 247.11 113.755C232.117 113.755 224.723 109.537 217.329 105.447C209.935 101.357 202.952 97.3946 188.37 97.3946C173.993 97.3946 167.01 101.357 159.411 105.447C152.017 109.537 144.623 113.755 129.63 113.755C114.637 113.755 107.244 109.537 99.8497 105.447C92.4559 101.357 85.4729 97.3946 70.8907 97.3946C56.5139 97.3946 49.5308 101.357 41.9316 105.447C34.5378 109.537 27.144 113.755 12.151 113.755C-2.84201 113.755 -10.2358 109.537 -17.6296 105.447C-25.0234 101.357 -32.0065 97.3946 -46.3833 97.3946C-60.7602 97.3946 -67.7432 101.357 -75.137 105.447C-82.5309 109.537 -89.9246 113.755 -104.918 113.755C-119.911 113.755 -127.304 109.537 -134.698 105.447C-142.092 101.357 -149.075 97.3946 -163.657 97.3946C-178.034 97.3946 -185.017 101.357 -192.616 105.447C-200.01 109.537 -207.404 113.755 -222.397 113.755C-237.39 113.755 -244.784 109.537 -252.178 105.447C-259.571 101.357 -266.555 97.3946 -280.931 97.3946C-295.308 97.3946 -302.291 101.357 -309.685 105.447C-317.079 109.537 -324.473 113.755 -339.466 113.755C-354.459 113.755 -361.852 109.537 -369.246 105.447C-376.64 101.357 -383.623 97.3946 -398 97.3946V96.4999C-383.007 96.4999 -375.613 100.718 -368.219 104.808C-360.826 108.898 -353.843 112.86 -339.466 112.86C-325.089 112.86 -318.106 108.898 -310.712 104.808C-303.318 100.718 -295.924 96.4999 -280.931 96.4999C-265.938 96.4999 -258.545 100.718 -251.151 104.808C-243.757 108.898 -236.774 112.86 -222.397 112.86C-208.02 112.86 -201.037 108.898 -193.438 104.808C-186.044 100.718 -178.65 96.4999 -163.657 96.4999C-148.664 96.4999 -141.271 100.718 -133.877 104.808C-126.483 108.898 -119.5 112.86 -104.918 112.86C-90.5408 112.86 -83.5578 108.898 -76.1639 104.808C-68.7701 100.718 -61.3763 96.4999 -46.3833 96.4999C-31.3903 96.4999 -23.9965 100.718 -16.6027 104.808C-9.20889 108.898 -2.22586 112.86 12.151 112.86C26.5278 112.86 33.5109 108.898 41.1101 104.808C48.5039 100.718 55.8977 96.4999 70.8907 96.4999C85.8837 96.4999 93.2775 100.718 100.671 104.808C108.065 108.898 115.048 112.86 129.63 112.86C144.007 112.86 150.99 108.898 158.589 104.808C165.983 100.718 173.377 96.4999 188.37 96.4999C203.363 96.4999 210.757 100.718 218.151 104.808C225.545 108.898 232.528 112.86 247.11 112.86C261.487 112.86 268.47 108.898 276.069 104.808C283.463 100.718 290.856 96.4999 305.849 96.4999C320.842 96.4999 328.236 100.718 335.63 104.808C343.024 108.898 350.007 112.86 364.589 112.86V113.755Z" fill="#202994"/>
<path d="M364.589 129.731C349.596 129.731 342.202 125.513 334.809 121.423C327.415 117.333 320.432 113.371 305.849 113.371C291.267 113.371 284.49 117.333 276.89 121.423C269.497 125.513 262.103 129.731 247.11 129.731C232.117 129.731 224.723 125.513 217.329 121.423C209.935 117.333 202.952 113.371 188.37 113.371C173.993 113.371 167.01 117.333 159.411 121.423C152.017 125.513 144.623 129.731 129.63 129.731C114.637 129.731 107.244 125.513 99.8497 121.423C92.4559 117.333 85.4729 113.371 70.8907 113.371C56.5139 113.371 49.5308 117.333 41.9316 121.423C34.5378 125.513 27.144 129.731 12.151 129.731C-2.84201 129.731 -10.2358 125.513 -17.6296 121.423C-25.0234 117.333 -32.0065 113.371 -46.3833 113.371C-60.7602 113.371 -67.7432 117.333 -75.137 121.423C-82.5309 125.513 -89.9246 129.731 -104.918 129.731C-119.911 129.731 -127.304 125.513 -134.698 121.423C-142.092 117.333 -149.075 113.371 -163.657 113.371C-178.034 113.371 -185.017 117.333 -192.616 121.423C-200.01 125.513 -207.404 129.731 -222.397 129.731C-237.39 129.731 -244.784 125.513 -252.178 121.423C-259.571 117.333 -266.555 113.371 -280.931 113.371C-295.308 113.371 -302.291 117.333 -309.685 121.423C-317.079 125.513 -324.473 129.731 -339.466 129.731C-354.459 129.731 -361.852 125.513 -369.246 121.423C-376.64 117.333 -383.623 113.371 -398 113.371V112.476C-383.007 112.476 -375.613 116.694 -368.219 120.784C-360.826 124.874 -353.843 128.837 -339.466 128.837C-325.089 128.837 -318.106 124.874 -310.712 120.784C-303.318 116.694 -295.924 112.476 -280.931 112.476C-265.938 112.476 -258.545 116.694 -251.151 120.784C-243.757 124.874 -236.774 128.837 -222.397 128.837C-208.02 128.837 -201.037 124.874 -193.438 120.784C-186.044 116.694 -178.65 112.476 -163.657 112.476C-148.664 112.476 -141.271 116.694 -133.877 120.784C-126.483 124.874 -119.5 128.837 -104.918 128.837C-90.5408 128.837 -83.5578 124.874 -76.1639 120.784C-68.7701 116.694 -61.3763 112.476 -46.3833 112.476C-31.3903 112.476 -23.9965 116.694 -16.6027 120.784C-9.20889 124.874 -2.22586 128.837 12.151 128.837C26.5278 128.837 33.5109 124.874 41.1101 120.784C48.5039 116.694 55.8977 112.476 70.8907 112.476C85.8837 112.476 93.2775 116.694 100.671 120.784C108.065 124.874 115.048 128.837 129.63 128.837C144.007 128.837 150.99 124.874 158.589 120.784C165.983 116.694 173.377 112.476 188.37 112.476C203.363 112.476 210.757 116.694 218.151 120.784C225.545 124.874 232.528 128.837 247.11 128.837C261.487 128.837 268.47 124.874 276.069 120.784C283.463 116.694 290.856 112.476 305.849 112.476C320.842 112.476 328.236 116.694 335.63 120.784C343.024 124.874 350.007 128.837 364.589 128.837V129.731Z" fill="#202994"/>
<path d="M364.589 145.836C349.596 145.836 342.202 141.618 334.809 137.528C327.415 133.438 320.432 129.475 305.849 129.475C291.267 129.475 284.49 133.438 276.89 137.528C269.497 141.618 262.103 145.836 247.11 145.836C232.117 145.836 224.723 141.618 217.329 137.528C209.935 133.438 202.952 129.475 188.37 129.475C173.993 129.475 167.01 133.438 159.411 137.528C152.017 141.618 144.623 145.836 129.63 145.836C114.637 145.836 107.244 141.618 99.8497 137.528C92.4559 133.438 85.4729 129.475 70.8907 129.475C56.5139 129.475 49.5308 133.438 41.9316 137.528C34.5378 141.618 27.144 145.836 12.151 145.836C-2.84201 145.836 -10.2358 141.618 -17.6296 137.528C-25.0234 133.438 -32.0065 129.475 -46.3833 129.475C-60.7602 129.475 -67.7432 133.438 -75.137 137.528C-82.5309 141.618 -89.9246 145.836 -104.918 145.836C-119.911 145.836 -127.304 141.618 -134.698 137.528C-142.092 133.438 -149.075 129.475 -163.657 129.475C-178.034 129.475 -185.017 133.438 -192.616 137.528C-200.01 141.618 -207.404 145.836 -222.397 145.836C-237.39 145.836 -244.784 141.618 -252.178 137.528C-259.571 133.438 -266.555 129.475 -280.931 129.475C-295.308 129.475 -302.291 133.438 -309.685 137.528C-317.079 141.618 -324.473 145.836 -339.466 145.836C-354.459 145.836 -361.852 141.618 -369.246 137.528C-376.64 133.438 -383.623 129.475 -398 129.475V128.581C-383.007 128.581 -375.613 132.799 -368.219 136.889C-360.826 140.979 -353.843 144.941 -339.466 144.941C-325.089 144.941 -318.106 140.979 -310.712 136.889C-303.318 132.799 -295.924 128.581 -280.931 128.581C-265.938 128.581 -258.545 132.799 -251.151 136.889C-243.757 140.979 -236.774 144.941 -222.397 144.941C-208.02 144.941 -201.037 140.979 -193.438 136.889C-186.044 132.799 -178.65 128.581 -163.657 128.581C-148.664 128.581 -141.271 132.799 -133.877 136.889C-126.483 140.979 -119.5 144.941 -104.918 144.941C-90.5408 144.941 -83.5578 140.979 -76.1639 136.889C-68.7701 132.799 -61.3763 128.581 -46.3833 128.581C-31.3903 128.581 -23.9965 132.799 -16.6027 136.889C-9.20889 140.979 -2.22586 144.941 12.151 144.941C26.5278 144.941 33.5109 140.979 41.1101 136.889C48.5039 132.799 55.8977 128.581 70.8907 128.581C85.8837 128.581 93.2775 132.799 100.671 136.889C108.065 140.979 115.048 144.941 129.63 144.941C144.007 144.941 150.99 140.979 158.589 136.889C165.983 132.799 173.377 128.581 188.37 128.581C203.363 128.581 210.757 132.799 218.151 136.889C225.545 140.979 232.528 144.941 247.11 144.941C261.487 144.941 268.47 140.979 276.069 136.889C283.463 132.799 290.856 128.581 305.849 128.581C320.842 128.581 328.236 132.799 335.63 136.889C343.024 140.979 350.007 144.941 364.589 144.941V145.836Z" fill="#202994"/>
<path d="M364.589 161.942C349.596 161.942 342.202 157.724 334.809 153.634C327.415 149.544 320.432 145.581 305.849 145.581C291.267 145.581 284.49 149.544 276.89 153.634C269.497 157.724 262.103 161.942 247.11 161.942C232.117 161.942 224.723 157.724 217.329 153.634C209.935 149.544 202.952 145.581 188.37 145.581C173.993 145.581 167.01 149.544 159.411 153.634C152.017 157.724 144.623 161.942 129.63 161.942C114.637 161.942 107.244 157.724 99.8497 153.634C92.4559 149.544 85.4729 145.581 70.8907 145.581C56.5139 145.581 49.5308 149.544 41.9316 153.634C34.5378 157.724 27.144 161.942 12.151 161.942C-2.84201 161.942 -10.2358 157.724 -17.6296 153.634C-25.0234 149.544 -32.0065 145.581 -46.3833 145.581C-60.7602 145.581 -67.7432 149.544 -75.137 153.634C-82.5309 157.724 -89.9246 161.942 -104.918 161.942C-119.911 161.942 -127.304 157.724 -134.698 153.634C-142.092 149.544 -149.075 145.581 -163.657 145.581C-178.034 145.581 -185.017 149.544 -192.616 153.634C-200.01 157.724 -207.404 161.942 -222.397 161.942C-237.39 161.942 -244.784 157.724 -252.178 153.634C-259.571 149.544 -266.555 145.581 -280.931 145.581C-295.308 145.581 -302.291 149.544 -309.685 153.634C-317.079 157.724 -324.473 161.942 -339.466 161.942C-354.459 161.942 -361.852 157.724 -369.246 153.634C-376.64 149.544 -383.623 145.581 -398 145.581V144.687C-383.007 144.687 -375.613 148.904 -368.219 152.995C-360.826 157.085 -353.843 161.047 -339.466 161.047C-325.089 161.047 -318.106 157.085 -310.712 152.995C-303.318 148.904 -295.924 144.687 -280.931 144.687C-265.938 144.687 -258.545 148.904 -251.151 152.995C-243.757 157.085 -236.774 161.047 -222.397 161.047C-208.02 161.047 -201.037 157.085 -193.438 152.995C-186.044 148.904 -178.65 144.687 -163.657 144.687C-148.664 144.687 -141.271 148.904 -133.877 152.995C-126.483 157.085 -119.5 161.047 -104.918 161.047C-90.5408 161.047 -83.5578 157.085 -76.1639 152.995C-68.7701 148.904 -61.3763 144.687 -46.3833 144.687C-31.3903 144.687 -23.9965 148.904 -16.6027 152.995C-9.20889 157.085 -2.22586 161.047 12.151 161.047C26.5278 161.047 33.5109 157.085 41.1101 152.995C48.5039 148.904 55.8977 144.687 70.8907 144.687C85.8837 144.687 93.2775 148.904 100.671 152.995C108.065 157.085 115.048 161.047 129.63 161.047C144.007 161.047 150.99 157.085 158.589 152.995C165.983 148.904 173.377 144.687 188.37 144.687C203.363 144.687 210.757 148.904 218.151 152.995C225.545 157.085 232.528 161.047 247.11 161.047C261.487 161.047 268.47 157.085 276.069 152.995C283.463 148.904 290.856 144.687 305.849 144.687C320.842 144.687 328.236 148.904 335.63 152.995C343.024 157.085 350.007 161.047 364.589 161.047V161.942Z" fill="#202994"/>
<path d="M364.589 178.045C349.596 178.045 342.202 173.827 334.809 169.737C327.415 165.647 320.432 161.684 305.849 161.684C291.267 161.684 284.49 165.647 276.89 169.737C269.497 173.827 262.103 178.045 247.11 178.045C232.117 178.045 224.723 173.827 217.329 169.737C209.935 165.647 202.952 161.684 188.37 161.684C173.993 161.684 167.01 165.647 159.411 169.737C152.017 173.827 144.623 178.045 129.63 178.045C114.637 178.045 107.244 173.827 99.8497 169.737C92.4559 165.647 85.4729 161.684 70.8907 161.684C56.5139 161.684 49.5308 165.647 41.9316 169.737C34.5378 173.827 27.144 178.045 12.151 178.045C-2.84201 178.045 -10.2358 173.827 -17.6296 169.737C-25.0234 165.647 -32.0065 161.684 -46.3833 161.684C-60.7602 161.684 -67.7432 165.647 -75.137 169.737C-82.5309 173.827 -89.9246 178.045 -104.918 178.045C-119.911 178.045 -127.304 173.827 -134.698 169.737C-142.092 165.647 -149.075 161.684 -163.657 161.684C-178.034 161.684 -185.017 165.647 -192.616 169.737C-200.01 173.827 -207.404 178.045 -222.397 178.045C-237.39 178.045 -244.784 173.827 -252.178 169.737C-259.571 165.647 -266.555 161.684 -280.931 161.684C-295.308 161.684 -302.291 165.647 -309.685 169.737C-317.079 173.827 -324.473 178.045 -339.466 178.045C-354.459 178.045 -361.852 173.827 -369.246 169.737C-376.64 165.647 -383.623 161.684 -398 161.684V160.79C-383.007 160.79 -375.613 165.007 -368.219 169.098C-360.826 173.188 -353.843 177.15 -339.466 177.15C-325.089 177.15 -318.106 173.188 -310.712 169.098C-303.318 165.007 -295.924 160.79 -280.931 160.79C-265.938 160.79 -258.545 165.007 -251.151 169.098C-243.757 173.188 -236.774 177.15 -222.397 177.15C-208.02 177.15 -201.037 173.188 -193.438 169.098C-186.044 165.007 -178.65 160.79 -163.657 160.79C-148.664 160.79 -141.271 165.007 -133.877 169.098C-126.483 173.188 -119.5 177.15 -104.918 177.15C-90.5408 177.15 -83.5578 173.188 -76.1639 169.098C-68.7701 165.007 -61.3763 160.79 -46.3833 160.79C-31.3903 160.79 -23.9965 165.007 -16.6027 169.098C-9.20889 173.188 -2.22586 177.15 12.151 177.15C26.5278 177.15 33.5109 173.188 41.1101 169.098C48.5039 165.007 55.8977 160.79 70.8907 160.79C85.8837 160.79 93.2775 165.007 100.671 169.098C108.065 173.188 115.048 177.15 129.63 177.15C144.007 177.15 150.99 173.188 158.589 169.098C165.983 165.007 173.377 160.79 188.37 160.79C203.363 160.79 210.757 165.007 218.151 169.098C225.545 173.188 232.528 177.15 247.11 177.15C261.487 177.15 268.47 173.188 276.069 169.098C283.463 165.007 290.856 160.79 305.849 160.79C320.842 160.79 328.236 165.007 335.63 169.098C343.024 173.188 350.007 177.15 364.589 177.15V178.045Z" fill="#202994"/>
<path d="M364.589 194.022C349.596 194.022 342.202 189.804 334.809 185.714C327.415 181.624 320.432 177.662 305.849 177.662C291.267 177.662 284.49 181.624 276.89 185.714C269.497 189.804 262.103 194.022 247.11 194.022C232.117 194.022 224.723 189.804 217.329 185.714C209.935 181.624 202.952 177.662 188.37 177.662C173.993 177.662 167.01 181.624 159.411 185.714C152.017 189.804 144.623 194.022 129.63 194.022C114.637 194.022 107.244 189.804 99.8497 185.714C92.4559 181.624 85.4729 177.662 70.8907 177.662C56.5139 177.662 49.5308 181.624 41.9316 185.714C34.5378 189.804 27.144 194.022 12.151 194.022C-2.84201 194.022 -10.2358 189.804 -17.6296 185.714C-25.0234 181.624 -32.0065 177.662 -46.3833 177.662C-60.7602 177.662 -67.7432 181.624 -75.137 185.714C-82.5309 189.804 -89.9246 194.022 -104.918 194.022C-119.911 194.022 -127.304 189.804 -134.698 185.714C-142.092 181.624 -149.075 177.662 -163.657 177.662C-178.034 177.662 -185.017 181.624 -192.616 185.714C-200.01 189.804 -207.404 194.022 -222.397 194.022C-237.39 194.022 -244.784 189.804 -252.178 185.714C-259.571 181.624 -266.555 177.662 -280.931 177.662C-295.308 177.662 -302.291 181.624 -309.685 185.714C-317.079 189.804 -324.473 194.022 -339.466 194.022C-354.459 194.022 -361.852 189.804 -369.246 185.714C-376.64 181.624 -383.623 177.662 -398 177.662V176.767C-383.007 176.767 -375.613 180.985 -368.219 185.075C-360.826 189.165 -353.843 193.128 -339.466 193.128C-325.089 193.128 -318.106 189.165 -310.712 185.075C-303.318 180.985 -295.924 176.767 -280.931 176.767C-265.938 176.767 -258.545 180.985 -251.151 185.075C-243.757 189.165 -236.774 193.128 -222.397 193.128C-208.02 193.128 -201.037 189.165 -193.438 185.075C-186.044 180.985 -178.65 176.767 -163.657 176.767C-148.664 176.767 -141.271 180.985 -133.877 185.075C-126.483 189.165 -119.5 193.128 -104.918 193.128C-90.5408 193.128 -83.5578 189.165 -76.1639 185.075C-68.7701 180.985 -61.3763 176.767 -46.3833 176.767C-31.3903 176.767 -23.9965 180.985 -16.6027 185.075C-9.20889 189.165 -2.22586 193.128 12.151 193.128C26.5278 193.128 33.5109 189.165 41.1101 185.075C48.5039 180.985 55.8977 176.767 70.8907 176.767C85.8837 176.767 93.2775 180.985 100.671 185.075C108.065 189.165 115.048 193.128 129.63 193.128C144.007 193.128 150.99 189.165 158.589 185.075C165.983 180.985 173.377 176.767 188.37 176.767C203.363 176.767 210.757 180.985 218.151 185.075C225.545 189.165 232.528 193.128 247.11 193.128C261.487 193.128 268.47 189.165 276.069 185.075C283.463 180.985 290.856 176.767 305.849 176.767C320.842 176.767 328.236 180.985 335.63 185.075C343.024 189.165 350.007 193.128 364.589 193.128V194.022Z" fill="#202994"/>
<path d="M364.589 210.128C349.596 210.128 342.202 205.91 334.809 201.82C327.415 197.73 320.432 193.768 305.849 193.768C291.267 193.768 284.49 197.73 276.89 201.82C269.497 205.91 262.103 210.128 247.11 210.128C232.117 210.128 224.723 205.91 217.329 201.82C209.935 197.73 202.952 193.768 188.37 193.768C173.993 193.768 167.01 197.73 159.411 201.82C152.017 205.91 144.623 210.128 129.63 210.128C114.637 210.128 107.244 205.91 99.8497 201.82C92.4559 197.73 85.4729 193.768 70.8907 193.768C56.5139 193.768 49.5308 197.73 41.9316 201.82C34.5378 205.91 27.144 210.128 12.151 210.128C-2.84201 210.128 -10.2358 205.91 -17.6296 201.82C-25.0234 197.73 -32.0065 193.768 -46.3833 193.768C-60.7602 193.768 -67.7432 197.73 -75.137 201.82C-82.5309 205.91 -89.9246 210.128 -104.918 210.128C-119.911 210.128 -127.304 205.91 -134.698 201.82C-142.092 197.73 -149.075 193.768 -163.657 193.768C-178.034 193.768 -185.017 197.73 -192.616 201.82C-200.01 205.91 -207.404 210.128 -222.397 210.128C-237.39 210.128 -244.784 205.91 -252.178 201.82C-259.571 197.73 -266.555 193.768 -280.931 193.768C-295.308 193.768 -302.291 197.73 -309.685 201.82C-317.079 205.91 -324.473 210.128 -339.466 210.128C-354.459 210.128 -361.852 205.91 -369.246 201.82C-376.64 197.73 -383.623 193.768 -398 193.768V192.873C-383.007 192.873 -375.613 197.091 -368.219 201.181C-360.826 205.271 -353.843 209.233 -339.466 209.233C-325.089 209.233 -318.106 205.271 -310.712 201.181C-303.318 197.091 -295.924 192.873 -280.931 192.873C-265.938 192.873 -258.545 197.091 -251.151 201.181C-243.757 205.271 -236.774 209.233 -222.397 209.233C-208.02 209.233 -201.037 205.271 -193.438 201.181C-186.044 197.091 -178.65 192.873 -163.657 192.873C-148.664 192.873 -141.271 197.091 -133.877 201.181C-126.483 205.271 -119.5 209.233 -104.918 209.233C-90.5408 209.233 -83.5578 205.271 -76.1639 201.181C-68.7701 197.091 -61.3763 192.873 -46.3833 192.873C-31.3903 192.873 -23.9965 197.091 -16.6027 201.181C-9.20889 205.271 -2.22586 209.233 12.151 209.233C26.5278 209.233 33.5109 205.271 41.1101 201.181C48.5039 197.091 55.8977 192.873 70.8907 192.873C85.8837 192.873 93.2775 197.091 100.671 201.181C108.065 205.271 115.048 209.233 129.63 209.233C144.007 209.233 150.99 205.271 158.589 201.181C165.983 197.091 173.377 192.873 188.37 192.873C203.363 192.873 210.757 197.091 218.151 201.181C225.545 205.271 232.528 209.233 247.11 209.233C261.487 209.233 268.47 205.271 276.069 201.181C283.463 197.091 290.856 192.873 305.849 192.873C320.842 192.873 328.236 197.091 335.63 201.181C343.024 205.271 350.007 209.233 364.589 209.233V210.128Z" fill="#202994"/>
<path d="M364.589 226.233C349.596 226.233 342.202 222.015 334.809 217.925C327.415 213.835 320.432 209.872 305.849 209.872C291.267 209.872 284.49 213.835 276.89 217.925C269.497 222.015 262.103 226.233 247.11 226.233C232.117 226.233 224.723 222.015 217.329 217.925C209.935 213.835 202.952 209.872 188.37 209.872C173.993 209.872 167.01 213.835 159.411 217.925C152.017 222.015 144.623 226.233 129.63 226.233C114.637 226.233 107.244 222.015 99.8497 217.925C92.4559 213.835 85.4729 209.872 70.8907 209.872C56.5139 209.872 49.5308 213.835 41.9316 217.925C34.5378 222.015 27.144 226.233 12.151 226.233C-2.84201 226.233 -10.2358 222.015 -17.6296 217.925C-25.0234 213.835 -32.0065 209.872 -46.3833 209.872C-60.7602 209.872 -67.7432 213.835 -75.137 217.925C-82.5309 222.015 -89.9246 226.233 -104.918 226.233C-119.911 226.233 -127.304 222.015 -134.698 217.925C-142.092 213.835 -149.075 209.872 -163.657 209.872C-178.034 209.872 -185.017 213.835 -192.616 217.925C-200.01 222.015 -207.404 226.233 -222.397 226.233C-237.39 226.233 -244.784 222.015 -252.178 217.925C-259.571 213.835 -266.555 209.872 -280.931 209.872C-295.308 209.872 -302.291 213.835 -309.685 217.925C-317.079 222.015 -324.473 226.233 -339.466 226.233C-354.459 226.233 -361.852 222.015 -369.246 217.925C-376.64 213.835 -383.623 209.872 -398 209.872V208.978C-383.007 208.978 -375.613 213.196 -368.219 217.286C-360.826 221.376 -353.843 225.338 -339.466 225.338C-325.089 225.338 -318.106 221.376 -310.712 217.286C-303.318 213.196 -295.924 208.978 -280.931 208.978C-265.938 208.978 -258.545 213.196 -251.151 217.286C-243.757 221.376 -236.774 225.338 -222.397 225.338C-208.02 225.338 -201.037 221.376 -193.438 217.286C-186.044 213.196 -178.65 208.978 -163.657 208.978C-148.664 208.978 -141.271 213.196 -133.877 217.286C-126.483 221.376 -119.5 225.338 -104.918 225.338C-90.5408 225.338 -83.5578 221.376 -76.1639 217.286C-68.7701 213.196 -61.3763 208.978 -46.3833 208.978C-31.3903 208.978 -23.9965 213.196 -16.6027 217.286C-9.20889 221.376 -2.22586 225.338 12.151 225.338C26.5278 225.338 33.5109 221.376 41.1101 217.286C48.5039 213.196 55.8977 208.978 70.8907 208.978C85.8837 208.978 93.2775 213.196 100.671 217.286C108.065 221.376 115.048 225.338 129.63 225.338C144.007 225.338 150.99 221.376 158.589 217.286C165.983 213.196 173.377 208.978 188.37 208.978C203.363 208.978 210.757 213.196 218.151 217.286C225.545 221.376 232.528 225.338 247.11 225.338C261.487 225.338 268.47 221.376 276.069 217.286C283.463 213.196 290.856 208.978 305.849 208.978C320.842 208.978 328.236 213.196 335.63 217.286C343.024 221.376 350.007 225.338 364.589 225.338V226.233Z" fill="#202994"/>
<path d="M364.589 242.209C349.596 242.209 342.202 237.991 334.809 233.901C327.415 229.811 320.432 225.849 305.849 225.849C291.267 225.849 284.49 229.811 276.89 233.901C269.497 237.991 262.103 242.209 247.11 242.209C232.117 242.209 224.723 237.991 217.329 233.901C209.935 229.811 202.952 225.849 188.37 225.849C173.993 225.849 167.01 229.811 159.411 233.901C152.017 237.991 144.623 242.209 129.63 242.209C114.637 242.209 107.244 237.991 99.8497 233.901C92.4559 229.811 85.4729 225.849 70.8907 225.849C56.5139 225.849 49.5308 229.811 41.9316 233.901C34.5378 237.991 27.144 242.209 12.151 242.209C-2.84201 242.209 -10.2358 237.991 -17.6296 233.901C-25.0234 229.811 -32.0065 225.849 -46.3833 225.849C-60.7602 225.849 -67.7432 229.811 -75.137 233.901C-82.5309 237.991 -89.9246 242.209 -104.918 242.209C-119.911 242.209 -127.304 237.991 -134.698 233.901C-142.092 229.811 -149.075 225.849 -163.657 225.849C-178.034 225.849 -185.017 229.811 -192.616 233.901C-200.01 237.991 -207.404 242.209 -222.397 242.209C-237.39 242.209 -244.784 237.991 -252.178 233.901C-259.571 229.811 -266.555 225.849 -280.931 225.849C-295.308 225.849 -302.291 229.811 -309.685 233.901C-317.079 237.991 -324.473 242.209 -339.466 242.209C-354.459 242.209 -361.852 237.991 -369.246 233.901C-376.64 229.811 -383.623 225.849 -398 225.849V224.954C-383.007 224.954 -375.613 229.172 -368.219 233.262C-360.826 237.352 -353.843 241.314 -339.466 241.314C-325.089 241.314 -318.106 237.352 -310.712 233.262C-303.318 229.172 -295.924 224.954 -280.931 224.954C-265.938 224.954 -258.545 229.172 -251.151 233.262C-243.757 237.352 -236.774 241.314 -222.397 241.314C-208.02 241.314 -201.037 237.352 -193.438 233.262C-186.044 229.172 -178.65 224.954 -163.657 224.954C-148.664 224.954 -141.271 229.172 -133.877 233.262C-126.483 237.352 -119.5 241.314 -104.918 241.314C-90.5408 241.314 -83.5578 237.352 -76.1639 233.262C-68.7701 229.172 -61.3763 224.954 -46.3833 224.954C-31.3903 224.954 -23.9965 229.172 -16.6027 233.262C-9.20889 237.352 -2.22586 241.314 12.151 241.314C26.5278 241.314 33.5109 237.352 41.1101 233.262C48.5039 229.172 55.8977 224.954 70.8907 224.954C85.8837 224.954 93.2775 229.172 100.671 233.262C108.065 237.352 115.048 241.314 129.63 241.314C144.007 241.314 150.99 237.352 158.589 233.262C165.983 229.172 173.377 224.954 188.37 224.954C203.363 224.954 210.757 229.172 218.151 233.262C225.545 237.352 232.528 241.314 247.11 241.314C261.487 241.314 268.47 237.352 276.069 233.262C283.463 229.172 290.856 224.954 305.849 224.954C320.842 224.954 328.236 229.172 335.63 233.262C343.024 237.352 350.007 241.314 364.589 241.314V242.209Z" fill="#202994"/>
<path d="M364.589 258.313C349.596 258.313 342.202 254.096 334.809 250.005C327.415 245.915 320.432 241.953 305.849 241.953C291.267 241.953 284.49 245.915 276.89 250.005C269.497 254.096 262.103 258.313 247.11 258.313C232.117 258.313 224.723 254.096 217.329 250.005C209.935 245.915 202.952 241.953 188.37 241.953C173.993 241.953 167.01 245.915 159.411 250.005C152.017 254.096 144.623 258.313 129.63 258.313C114.637 258.313 107.244 254.096 99.8497 250.005C92.4559 245.915 85.4729 241.953 70.8907 241.953C56.5139 241.953 49.5308 245.915 41.9316 250.005C34.5378 254.096 27.144 258.313 12.151 258.313C-2.84201 258.313 -10.2358 254.096 -17.6296 250.005C-25.0234 245.915 -32.0065 241.953 -46.3833 241.953C-60.7602 241.953 -67.7432 245.915 -75.137 250.005C-82.5309 254.096 -89.9246 258.313 -104.918 258.313C-119.911 258.313 -127.304 254.096 -134.698 250.005C-142.092 245.915 -149.075 241.953 -163.657 241.953C-178.034 241.953 -185.017 245.915 -192.616 250.005C-200.01 254.096 -207.404 258.313 -222.397 258.313C-237.39 258.313 -244.784 254.096 -252.178 250.005C-259.571 245.915 -266.555 241.953 -280.931 241.953C-295.308 241.953 -302.291 245.915 -309.685 250.005C-317.079 254.096 -324.473 258.313 -339.466 258.313C-354.459 258.313 -361.852 254.096 -369.246 250.005C-376.64 245.915 -383.623 241.953 -398 241.953V241.058C-383.007 241.058 -375.613 245.276 -368.219 249.366C-360.826 253.456 -353.843 257.419 -339.466 257.419C-325.089 257.419 -318.106 253.456 -310.712 249.366C-303.318 245.276 -295.924 241.058 -280.931 241.058C-265.938 241.058 -258.545 245.276 -251.151 249.366C-243.757 253.456 -236.774 257.419 -222.397 257.419C-208.02 257.419 -201.037 253.456 -193.438 249.366C-186.044 245.276 -178.65 241.058 -163.657 241.058C-148.664 241.058 -141.271 245.276 -133.877 249.366C-126.483 253.456 -119.5 257.419 -104.918 257.419C-90.5408 257.419 -83.5578 253.456 -76.1639 249.366C-68.7701 245.276 -61.3763 241.058 -46.3833 241.058C-31.3903 241.058 -23.9965 245.276 -16.6027 249.366C-9.20889 253.456 -2.22586 257.419 12.151 257.419C26.5278 257.419 33.5109 253.456 41.1101 249.366C48.5039 245.276 55.8977 241.058 70.8907 241.058C85.8837 241.058 93.2775 245.276 100.671 249.366C108.065 253.456 115.048 257.419 129.63 257.419C144.007 257.419 150.99 253.456 158.589 249.366C165.983 245.276 173.377 241.058 188.37 241.058C203.363 241.058 210.757 245.276 218.151 249.366C225.545 253.456 232.528 257.419 247.11 257.419C261.487 257.419 268.47 253.456 276.069 249.366C283.463 245.276 290.856 241.058 305.849 241.058C320.842 241.058 328.236 245.276 335.63 249.366C343.024 253.456 350.007 257.419 364.589 257.419V258.313Z" fill="#202994"/>
<path d="M364.589 274.418C349.596 274.418 342.202 270.2 334.809 266.11C327.415 262.02 320.432 258.058 305.849 258.058C291.267 258.058 284.49 262.02 276.89 266.11C269.497 270.2 262.103 274.418 247.11 274.418C232.117 274.418 224.723 270.2 217.329 266.11C209.935 262.02 202.952 258.058 188.37 258.058C173.993 258.058 167.01 262.02 159.411 266.11C152.017 270.2 144.623 274.418 129.63 274.418C114.637 274.418 107.244 270.2 99.8497 266.11C92.4559 262.02 85.4729 258.058 70.8907 258.058C56.5139 258.058 49.5308 262.02 41.9316 266.11C34.5378 270.2 27.144 274.418 12.151 274.418C-2.84201 274.418 -10.2358 270.2 -17.6296 266.11C-25.0234 262.02 -32.0065 258.058 -46.3833 258.058C-60.7602 258.058 -67.7432 262.02 -75.137 266.11C-82.5309 270.2 -89.9246 274.418 -104.918 274.418C-119.911 274.418 -127.304 270.2 -134.698 266.11C-142.092 262.02 -149.075 258.058 -163.657 258.058C-178.034 258.058 -185.017 262.02 -192.616 266.11C-200.01 270.2 -207.404 274.418 -222.397 274.418C-237.39 274.418 -244.784 270.2 -252.178 266.11C-259.571 262.02 -266.555 258.058 -280.931 258.058C-295.308 258.058 -302.291 262.02 -309.685 266.11C-317.079 270.2 -324.473 274.418 -339.466 274.418C-354.459 274.418 -361.852 270.2 -369.246 266.11C-376.64 262.02 -383.623 258.058 -398 258.058V257.163C-383.007 257.163 -375.613 261.381 -368.219 265.471C-360.826 269.561 -353.843 273.523 -339.466 273.523C-325.089 273.523 -318.106 269.561 -310.712 265.471C-303.318 261.381 -295.924 257.163 -280.931 257.163C-265.938 257.163 -258.545 261.381 -251.151 265.471C-243.757 269.561 -236.774 273.523 -222.397 273.523C-208.02 273.523 -201.037 269.561 -193.438 265.471C-186.044 261.381 -178.65 257.163 -163.657 257.163C-148.664 257.163 -141.271 261.381 -133.877 265.471C-126.483 269.561 -119.5 273.523 -104.918 273.523C-90.5408 273.523 -83.5578 269.561 -76.1639 265.471C-68.7701 261.381 -61.3763 257.163 -46.3833 257.163C-31.3903 257.163 -23.9965 261.381 -16.6027 265.471C-9.20889 269.561 -2.22586 273.523 12.151 273.523C26.5278 273.523 33.5109 269.561 41.1101 265.471C48.5039 261.381 55.8977 257.163 70.8907 257.163C85.8837 257.163 93.2775 261.381 100.671 265.471C108.065 269.561 115.048 273.523 129.63 273.523C144.007 273.523 150.99 269.561 158.589 265.471C165.983 261.381 173.377 257.163 188.37 257.163C203.363 257.163 210.757 261.381 218.151 265.471C225.545 269.561 232.528 273.523 247.11 273.523C261.487 273.523 268.47 269.561 276.069 265.471C283.463 261.381 290.856 257.163 305.849 257.163C320.842 257.163 328.236 261.381 335.63 265.471C343.024 269.561 350.007 273.523 364.589 273.523V274.418Z" fill="#202994"/>
<path d="M364.589 290.524C349.596 290.524 342.202 286.306 334.809 282.216C327.415 278.126 320.432 274.163 305.849 274.163C291.267 274.163 284.49 278.126 276.89 282.216C269.497 286.306 262.103 290.524 247.11 290.524C232.117 290.524 224.723 286.306 217.329 282.216C209.935 278.126 202.952 274.163 188.37 274.163C173.993 274.163 167.01 278.126 159.411 282.216C152.017 286.306 144.623 290.524 129.63 290.524C114.637 290.524 107.244 286.306 99.8497 282.216C92.4559 278.126 85.4729 274.163 70.8907 274.163C56.5139 274.163 49.5308 278.126 41.9316 282.216C34.5378 286.306 27.144 290.524 12.151 290.524C-2.84201 290.524 -10.2358 286.306 -17.6296 282.216C-25.0234 278.126 -32.0065 274.163 -46.3833 274.163C-60.7602 274.163 -67.7432 278.126 -75.137 282.216C-82.5309 286.306 -89.9246 290.524 -104.918 290.524C-119.911 290.524 -127.304 286.306 -134.698 282.216C-142.092 278.126 -149.075 274.163 -163.657 274.163C-178.034 274.163 -185.017 278.126 -192.616 282.216C-200.01 286.306 -207.404 290.524 -222.397 290.524C-237.39 290.524 -244.784 286.306 -252.178 282.216C-259.571 278.126 -266.555 274.163 -280.931 274.163C-295.308 274.163 -302.291 278.126 -309.685 282.216C-317.079 286.306 -324.473 290.524 -339.466 290.524C-354.459 290.524 -361.852 286.306 -369.246 282.216C-376.64 278.126 -383.623 274.163 -398 274.163V273.269C-383.007 273.269 -375.613 277.487 -368.219 281.577C-360.826 285.667 -353.843 289.629 -339.466 289.629C-325.089 289.629 -318.106 285.667 -310.712 281.577C-303.318 277.487 -295.924 273.269 -280.931 273.269C-265.938 273.269 -258.545 277.487 -251.151 281.577C-243.757 285.667 -236.774 289.629 -222.397 289.629C-208.02 289.629 -201.037 285.667 -193.438 281.577C-186.044 277.487 -178.65 273.269 -163.657 273.269C-148.664 273.269 -141.271 277.487 -133.877 281.577C-126.483 285.667 -119.5 289.629 -104.918 289.629C-90.5408 289.629 -83.5578 285.667 -76.1639 281.577C-68.7701 277.487 -61.3763 273.269 -46.3833 273.269C-31.3903 273.269 -23.9965 277.487 -16.6027 281.577C-9.20889 285.667 -2.22586 289.629 12.151 289.629C26.5278 289.629 33.5109 285.667 41.1101 281.577C48.5039 277.487 55.8977 273.269 70.8907 273.269C85.8837 273.269 93.2775 277.487 100.671 281.577C108.065 285.667 115.048 289.629 129.63 289.629C144.007 289.629 150.99 285.667 158.589 281.577C165.983 277.487 173.377 273.269 188.37 273.269C203.363 273.269 210.757 277.487 218.151 281.577C225.545 285.667 232.528 289.629 247.11 289.629C261.487 289.629 268.47 285.667 276.069 281.577C283.463 277.487 290.856 273.269 305.849 273.269C320.842 273.269 328.236 277.487 335.63 281.577C343.024 285.667 350.007 289.629 364.589 289.629V290.524Z" fill="#202994"/>
<path d="M364.589 306.5C349.596 306.5 342.202 302.282 334.809 298.192C327.415 294.102 320.432 290.14 305.849 290.14C291.267 290.14 284.49 294.102 276.89 298.192C269.497 302.282 262.103 306.5 247.11 306.5C232.117 306.5 224.723 302.282 217.329 298.192C209.935 294.102 202.952 290.14 188.37 290.14C173.993 290.14 167.01 294.102 159.411 298.192C152.017 302.282 144.623 306.5 129.63 306.5C114.637 306.5 107.244 302.282 99.8497 298.192C92.4559 294.102 85.4729 290.14 70.8907 290.14C56.5139 290.14 49.5308 294.102 41.9316 298.192C34.5378 302.282 27.144 306.5 12.151 306.5C-2.84201 306.5 -10.2358 302.282 -17.6296 298.192C-25.0234 294.102 -32.0065 290.14 -46.3833 290.14C-60.7602 290.14 -67.7432 294.102 -75.137 298.192C-82.5309 302.282 -89.9246 306.5 -104.918 306.5C-119.911 306.5 -127.304 302.282 -134.698 298.192C-142.092 294.102 -149.075 290.14 -163.657 290.14C-178.034 290.14 -185.017 294.102 -192.616 298.192C-200.01 302.282 -207.404 306.5 -222.397 306.5C-237.39 306.5 -244.784 302.282 -252.178 298.192C-259.571 294.102 -266.555 290.14 -280.931 290.14C-295.308 290.14 -302.291 294.102 -309.685 298.192C-317.079 302.282 -324.473 306.5 -339.466 306.5C-354.459 306.5 -361.852 302.282 -369.246 298.192C-376.64 294.102 -383.623 290.14 -398 290.14V289.245C-383.007 289.245 -375.613 293.463 -368.219 297.553C-360.826 301.643 -353.843 305.605 -339.466 305.605C-325.089 305.605 -318.106 301.643 -310.712 297.553C-303.318 293.463 -295.924 289.245 -280.931 289.245C-265.938 289.245 -258.545 293.463 -251.151 297.553C-243.757 301.643 -236.774 305.605 -222.397 305.605C-208.02 305.605 -201.037 301.643 -193.438 297.553C-186.044 293.463 -178.65 289.245 -163.657 289.245C-148.664 289.245 -141.271 293.463 -133.877 297.553C-126.483 301.643 -119.5 305.605 -104.918 305.605C-90.5408 305.605 -83.5578 301.643 -76.1639 297.553C-68.7701 293.463 -61.3763 289.245 -46.3833 289.245C-31.3903 289.245 -23.9965 293.463 -16.6027 297.553C-9.20889 301.643 -2.22586 305.605 12.151 305.605C26.5278 305.605 33.5109 301.643 41.1101 297.553C48.5039 293.463 55.8977 289.245 70.8907 289.245C85.8837 289.245 93.2775 293.463 100.671 297.553C108.065 301.643 115.048 305.605 129.63 305.605C144.007 305.605 150.99 301.643 158.589 297.553C165.983 293.463 173.377 289.245 188.37 289.245C203.363 289.245 210.757 293.463 218.151 297.553C225.545 301.643 232.528 305.605 247.11 305.605C261.487 305.605 268.47 301.643 276.069 297.553C283.463 293.463 290.856 289.245 305.849 289.245C320.842 289.245 328.236 293.463 335.63 297.553C343.024 301.643 350.007 305.605 364.589 305.605V306.5Z" fill="#202994"/>
<path d="M364.589 322.604C349.596 322.604 342.202 318.387 334.809 314.297C327.415 310.206 320.432 306.244 305.849 306.244C291.267 306.244 284.49 310.206 276.89 314.297C269.497 318.387 262.103 322.604 247.11 322.604C232.117 322.604 224.723 318.387 217.329 314.297C209.935 310.206 202.952 306.244 188.37 306.244C173.993 306.244 167.01 310.206 159.411 314.297C152.017 318.387 144.623 322.604 129.63 322.604C114.637 322.604 107.244 318.387 99.8497 314.297C92.4559 310.206 85.4729 306.244 70.8907 306.244C56.5139 306.244 49.5308 310.206 41.9316 314.297C34.5378 318.387 27.144 322.604 12.151 322.604C-2.84201 322.604 -10.2358 318.387 -17.6296 314.297C-25.0234 310.206 -32.0065 306.244 -46.3833 306.244C-60.7602 306.244 -67.7432 310.206 -75.137 314.297C-82.5309 318.387 -89.9246 322.604 -104.918 322.604C-119.911 322.604 -127.304 318.387 -134.698 314.297C-142.092 310.206 -149.075 306.244 -163.657 306.244C-178.034 306.244 -185.017 310.206 -192.616 314.297C-200.01 318.387 -207.404 322.604 -222.397 322.604C-237.39 322.604 -244.784 318.387 -252.178 314.297C-259.571 310.206 -266.555 306.244 -280.931 306.244C-295.308 306.244 -302.291 310.206 -309.685 314.297C-317.079 318.387 -324.473 322.604 -339.466 322.604C-354.459 322.604 -361.852 318.387 -369.246 314.297C-376.64 310.206 -383.623 306.244 -398 306.244V305.35C-383.007 305.35 -375.613 309.567 -368.219 313.657C-360.826 317.748 -353.843 321.71 -339.466 321.71C-325.089 321.71 -318.106 317.748 -310.712 313.657C-303.318 309.567 -295.924 305.35 -280.931 305.35C-265.938 305.35 -258.545 309.567 -251.151 313.657C-243.757 317.748 -236.774 321.71 -222.397 321.71C-208.02 321.71 -201.037 317.748 -193.438 313.657C-186.044 309.567 -178.65 305.35 -163.657 305.35C-148.664 305.35 -141.271 309.567 -133.877 313.657C-126.483 317.748 -119.5 321.71 -104.918 321.71C-90.5408 321.71 -83.5578 317.748 -76.1639 313.657C-68.7701 309.567 -61.3763 305.35 -46.3833 305.35C-31.3903 305.35 -23.9965 309.567 -16.6027 313.657C-9.20889 317.748 -2.22586 321.71 12.151 321.71C26.5278 321.71 33.5109 317.748 41.1101 313.657C48.5039 309.567 55.8977 305.35 70.8907 305.35C85.8837 305.35 93.2775 309.567 100.671 313.657C108.065 317.748 115.048 321.71 129.63 321.71C144.007 321.71 150.99 317.748 158.589 313.657C165.983 309.567 173.377 305.35 188.37 305.35C203.363 305.35 210.757 309.567 218.151 313.657C225.545 317.748 232.528 321.71 247.11 321.71C261.487 321.71 268.47 317.748 276.069 313.657C283.463 309.567 290.856 305.35 305.849 305.35C320.842 305.35 328.236 309.567 335.63 313.657C343.024 317.748 350.007 321.71 364.589 321.71V322.604Z" fill="#202994"/>
<path d="M364.589 338.709C349.596 338.709 342.203 334.491 334.809 330.401C327.415 326.311 320.432 322.349 305.85 322.349C291.267 322.349 284.49 326.311 276.891 330.401C269.497 334.491 262.103 338.709 247.11 338.709C232.117 338.709 224.723 334.491 217.329 330.401C209.935 326.311 202.953 322.349 188.37 322.349C173.993 322.349 167.01 326.311 159.411 330.401C152.017 334.491 144.624 338.709 129.63 338.709C114.638 338.709 107.244 334.491 99.8499 330.401C92.4561 326.311 85.4731 322.349 70.8909 322.349C56.514 322.349 49.531 326.311 41.9318 330.401C34.538 334.491 27.1442 338.709 12.1512 338.709C-2.84183 338.709 -10.2356 334.491 -17.6295 330.401C-25.0233 326.311 -32.0063 322.349 -46.3831 322.349C-60.76 322.349 -67.743 326.311 -75.1368 330.401C-82.5307 334.491 -89.9244 338.709 -104.917 338.709C-119.91 338.709 -127.304 334.491 -134.698 330.401C-142.092 326.311 -149.075 322.349 -163.657 322.349C-178.034 322.349 -185.017 326.311 -192.616 330.401C-200.01 334.491 -207.404 338.709 -222.397 338.709C-237.39 338.709 -244.784 334.491 -252.177 330.401C-259.571 326.311 -266.554 322.349 -280.931 322.349C-295.308 322.349 -302.291 326.311 -309.685 330.401C-317.079 334.491 -324.473 338.709 -339.466 338.709C-354.459 338.709 -361.852 334.491 -369.246 330.401C-376.64 326.311 -383.623 322.349 -398 322.349V321.454C-383.007 321.454 -375.613 325.672 -368.219 329.762C-360.825 333.852 -353.842 337.814 -339.466 337.814C-325.089 337.814 -318.106 333.852 -310.712 329.762C-303.318 325.672 -295.924 321.454 -280.931 321.454C-265.938 321.454 -258.544 325.672 -251.151 329.762C-243.757 333.852 -236.774 337.814 -222.397 337.814C-208.02 337.814 -201.037 333.852 -193.438 329.762C-186.044 325.672 -178.65 321.454 -163.657 321.454C-148.664 321.454 -141.27 325.672 -133.877 329.762C-126.483 333.852 -119.5 337.814 -104.917 337.814C-90.5406 337.814 -83.5576 333.852 -76.1638 329.762C-68.77 325.672 -61.3762 321.454 -46.3831 321.454C-31.3901 321.454 -23.9963 325.672 -16.6025 329.762C-9.20871 333.852 -2.22568 337.814 12.1512 337.814C26.528 337.814 33.5111 333.852 41.1103 329.762C48.5041 325.672 55.8979 321.454 70.8909 321.454C85.8839 321.454 93.2777 325.672 100.671 329.762C108.065 333.852 115.048 337.814 129.63 337.814C144.007 337.814 150.99 333.852 158.59 329.762C165.983 325.672 173.377 321.454 188.37 321.454C203.363 321.454 210.757 325.672 218.151 329.762C225.545 333.852 232.528 337.814 247.11 337.814C261.487 337.814 268.47 333.852 276.069 329.762C283.463 325.672 290.857 321.454 305.85 321.454C320.843 321.454 328.236 325.672 335.63 329.762C343.024 333.852 350.007 337.814 364.589 337.814V338.709Z" fill="#202994"/>
<path d="M364.589 354.813C349.596 354.813 342.202 350.595 334.809 346.505C327.415 342.415 320.432 338.453 305.849 338.453C291.267 338.453 284.49 342.415 276.89 346.505C269.497 350.595 262.103 354.813 247.11 354.813C232.117 354.813 224.723 350.595 217.329 346.505C209.935 342.415 202.952 338.453 188.37 338.453C173.993 338.453 167.01 342.415 159.411 346.505C152.017 350.595 144.623 354.813 129.63 354.813C114.637 354.813 107.244 350.595 99.8497 346.505C92.4559 342.415 85.4729 338.453 70.8907 338.453C56.5139 338.453 49.5308 342.415 41.9316 346.505C34.5378 350.595 27.144 354.813 12.151 354.813C-2.84201 354.813 -10.2358 350.595 -17.6296 346.505C-25.0234 342.415 -32.0065 338.453 -46.3833 338.453C-60.7602 338.453 -67.7432 342.415 -75.137 346.505C-82.5309 350.595 -89.9246 354.813 -104.918 354.813C-119.911 354.813 -127.304 350.595 -134.698 346.505C-142.092 342.415 -149.075 338.453 -163.657 338.453C-178.034 338.453 -185.017 342.415 -192.616 346.505C-200.01 350.595 -207.404 354.813 -222.397 354.813C-237.39 354.813 -244.784 350.595 -252.178 346.505C-259.571 342.415 -266.555 338.453 -280.931 338.453C-295.308 338.453 -302.291 342.415 -309.685 346.505C-317.079 350.595 -324.473 354.813 -339.466 354.813C-354.459 354.813 -361.852 350.595 -369.246 346.505C-376.64 342.415 -383.623 338.453 -398 338.453V337.558C-383.007 337.558 -375.613 341.776 -368.219 345.866C-360.826 349.956 -353.843 353.919 -339.466 353.919C-325.089 353.919 -318.106 349.956 -310.712 345.866C-303.318 341.776 -295.924 337.558 -280.931 337.558C-265.938 337.558 -258.545 341.776 -251.151 345.866C-243.757 349.956 -236.774 353.919 -222.397 353.919C-208.02 353.919 -201.037 349.956 -193.438 345.866C-186.044 341.776 -178.65 337.558 -163.657 337.558C-148.664 337.558 -141.271 341.776 -133.877 345.866C-126.483 349.956 -119.5 353.919 -104.918 353.919C-90.5408 353.919 -83.5578 349.956 -76.1639 345.866C-68.7701 341.776 -61.3763 337.558 -46.3833 337.558C-31.3903 337.558 -23.9965 341.776 -16.6027 345.866C-9.20889 349.956 -2.22586 353.919 12.151 353.919C26.5278 353.919 33.5109 349.956 41.1101 345.866C48.5039 341.776 55.8977 337.558 70.8907 337.558C85.8837 337.558 93.2775 341.776 100.671 345.866C108.065 349.956 115.048 353.919 129.63 353.919C144.007 353.919 150.99 349.956 158.589 345.866C165.983 341.776 173.377 337.558 188.37 337.558C203.363 337.558 210.757 341.776 218.151 345.866C225.545 349.956 232.528 353.919 247.11 353.919C261.487 353.919 268.47 349.956 276.069 345.866C283.463 341.776 290.856 337.558 305.849 337.558C320.842 337.558 328.236 341.776 335.63 345.866C343.024 349.956 350.007 353.919 364.589 353.919V354.813Z" fill="#202994"/>
<path d="M364.589 370.79C349.596 370.79 342.202 366.572 334.809 362.482C327.415 358.392 320.432 354.429 305.849 354.429C291.267 354.429 284.49 358.392 276.89 362.482C269.497 366.572 262.103 370.79 247.11 370.79C232.117 370.79 224.723 366.572 217.329 362.482C209.935 358.392 202.952 354.429 188.37 354.429C173.993 354.429 167.01 358.392 159.411 362.482C152.017 366.572 144.623 370.79 129.63 370.79C114.637 370.79 107.244 366.572 99.8497 362.482C92.4559 358.392 85.4729 354.429 70.8907 354.429C56.5139 354.429 49.5308 358.392 41.9316 362.482C34.5378 366.572 27.144 370.79 12.151 370.79C-2.84201 370.79 -10.2358 366.572 -17.6296 362.482C-25.0234 358.392 -32.0065 354.429 -46.3833 354.429C-60.7602 354.429 -67.7432 358.392 -75.137 362.482C-82.5309 366.572 -89.9246 370.79 -104.918 370.79C-119.911 370.79 -127.304 366.572 -134.698 362.482C-142.092 358.392 -149.075 354.429 -163.657 354.429C-178.034 354.429 -185.017 358.392 -192.616 362.482C-200.01 366.572 -207.404 370.79 -222.397 370.79C-237.39 370.79 -244.784 366.572 -252.178 362.482C-259.571 358.392 -266.555 354.429 -280.931 354.429C-295.308 354.429 -302.291 358.392 -309.685 362.482C-317.079 366.572 -324.473 370.79 -339.466 370.79C-354.459 370.79 -361.852 366.572 -369.246 362.482C-376.64 358.392 -383.623 354.429 -398 354.429V353.535C-383.007 353.535 -375.613 357.753 -368.219 361.843C-360.826 365.933 -353.843 369.895 -339.466 369.895C-325.089 369.895 -318.106 365.933 -310.712 361.843C-303.318 357.753 -295.924 353.535 -280.931 353.535C-265.938 353.535 -258.545 357.753 -251.151 361.843C-243.757 365.933 -236.774 369.895 -222.397 369.895C-208.02 369.895 -201.037 365.933 -193.438 361.843C-186.044 357.753 -178.65 353.535 -163.657 353.535C-148.664 353.535 -141.271 357.753 -133.877 361.843C-126.483 365.933 -119.5 369.895 -104.918 369.895C-90.5408 369.895 -83.5578 365.933 -76.1639 361.843C-68.7701 357.753 -61.3763 353.535 -46.3833 353.535C-31.3903 353.535 -23.9965 357.753 -16.6027 361.843C-9.20889 365.933 -2.22586 369.895 12.151 369.895C26.5278 369.895 33.5109 365.933 41.1101 361.843C48.5039 357.753 55.8977 353.535 70.8907 353.535C85.8837 353.535 93.2775 357.753 100.671 361.843C108.065 365.933 115.048 369.895 129.63 369.895C144.007 369.895 150.99 365.933 158.589 361.843C165.983 357.753 173.377 353.535 188.37 353.535C203.363 353.535 210.757 357.753 218.151 361.843C225.545 365.933 232.528 369.895 247.11 369.895C261.487 369.895 268.47 365.933 276.069 361.843C283.463 357.753 290.856 353.535 305.849 353.535C320.842 353.535 328.236 357.753 335.63 361.843C343.024 365.933 350.007 369.895 364.589 369.895V370.79Z" fill="#202994"/>
<path d="M364.589 386.896C349.596 386.896 342.202 382.678 334.809 378.588C327.415 374.497 320.432 370.535 305.849 370.535C291.267 370.535 284.49 374.497 276.89 378.588C269.497 382.678 262.103 386.896 247.11 386.896C232.117 386.896 224.723 382.678 217.329 378.588C209.935 374.497 202.952 370.535 188.37 370.535C173.993 370.535 167.01 374.497 159.411 378.588C152.017 382.678 144.623 386.896 129.63 386.896C114.637 386.896 107.244 382.678 99.8497 378.588C92.4559 374.497 85.4729 370.535 70.8907 370.535C56.5139 370.535 49.5308 374.497 41.9316 378.588C34.5378 382.678 27.144 386.896 12.151 386.896C-2.84201 386.896 -10.2358 382.678 -17.6296 378.588C-25.0234 374.497 -32.0065 370.535 -46.3833 370.535C-60.7602 370.535 -67.7432 374.497 -75.137 378.588C-82.5309 382.678 -89.9246 386.896 -104.918 386.896C-119.911 386.896 -127.304 382.678 -134.698 378.588C-142.092 374.497 -149.075 370.535 -163.657 370.535C-178.034 370.535 -185.017 374.497 -192.616 378.588C-200.01 382.678 -207.404 386.896 -222.397 386.896C-237.39 386.896 -244.784 382.678 -252.178 378.588C-259.571 374.497 -266.555 370.535 -280.931 370.535C-295.308 370.535 -302.291 374.497 -309.685 378.588C-317.079 382.678 -324.473 386.896 -339.466 386.896C-354.459 386.896 -361.852 382.678 -369.246 378.588C-376.64 374.497 -383.623 370.535 -398 370.535V369.641C-383.007 369.641 -375.613 373.858 -368.219 377.948C-360.826 382.039 -353.843 386.001 -339.466 386.001C-325.089 386.001 -318.106 382.039 -310.712 377.948C-303.318 373.858 -295.924 369.641 -280.931 369.641C-265.938 369.641 -258.545 373.858 -251.151 377.948C-243.757 382.039 -236.774 386.001 -222.397 386.001C-208.02 386.001 -201.037 382.039 -193.438 377.948C-186.044 373.858 -178.65 369.641 -163.657 369.641C-148.664 369.641 -141.271 373.858 -133.877 377.948C-126.483 382.039 -119.5 386.001 -104.918 386.001C-90.5408 386.001 -83.5578 382.039 -76.1639 377.948C-68.7701 373.858 -61.3763 369.641 -46.3833 369.641C-31.3903 369.641 -23.9965 373.858 -16.6027 377.948C-9.20889 382.039 -2.22586 386.001 12.151 386.001C26.5278 386.001 33.5109 382.039 41.1101 377.948C48.5039 373.858 55.8977 369.641 70.8907 369.641C85.8837 369.641 93.2775 373.858 100.671 377.948C108.065 382.039 115.048 386.001 129.63 386.001C144.007 386.001 150.99 382.039 158.589 377.948C165.983 373.858 173.377 369.641 188.37 369.641C203.363 369.641 210.757 373.858 218.151 377.948C225.545 382.039 232.528 386.001 247.11 386.001C261.487 386.001 268.47 382.039 276.069 377.948C283.463 373.858 290.856 369.641 305.849 369.641C320.842 369.641 328.236 373.858 335.63 377.948C343.024 382.039 350.007 386.001 364.589 386.001V386.896Z" fill="#202994"/>
<path d="M364.589 403C349.596 403 342.202 398.782 334.809 394.692C327.415 390.602 320.432 386.64 305.849 386.64C291.267 386.64 284.49 390.602 276.89 394.692C269.497 398.782 262.103 403 247.11 403C232.117 403 224.723 398.782 217.329 394.692C209.935 390.602 202.952 386.64 188.37 386.64C173.993 386.64 167.01 390.602 159.411 394.692C152.017 398.782 144.623 403 129.63 403C114.637 403 107.244 398.782 99.8497 394.692C92.4559 390.602 85.4729 386.64 70.8907 386.64C56.5139 386.64 49.5308 390.602 41.9316 394.692C34.5378 398.782 27.144 403 12.151 403C-2.84201 403 -10.2358 398.782 -17.6296 394.692C-25.0234 390.602 -32.0065 386.64 -46.3833 386.64C-60.7602 386.64 -67.7432 390.602 -75.137 394.692C-82.5309 398.782 -89.9246 403 -104.918 403C-119.911 403 -127.304 398.782 -134.698 394.692C-142.092 390.602 -149.075 386.64 -163.657 386.64C-178.034 386.64 -185.017 390.602 -192.616 394.692C-200.01 398.782 -207.404 403 -222.397 403C-237.39 403 -244.784 398.782 -252.178 394.692C-259.571 390.602 -266.555 386.64 -280.931 386.64C-295.308 386.64 -302.291 390.602 -309.685 394.692C-317.079 398.782 -324.473 403 -339.466 403C-354.459 403 -361.852 398.782 -369.246 394.692C-376.64 390.602 -383.623 386.64 -398 386.64V385.745C-383.007 385.745 -375.613 389.963 -368.219 394.053C-360.826 398.143 -353.843 402.105 -339.466 402.105C-325.089 402.105 -318.106 398.143 -310.712 394.053C-303.318 389.963 -295.924 385.745 -280.931 385.745C-265.938 385.745 -258.545 389.963 -251.151 394.053C-243.757 398.143 -236.774 402.105 -222.397 402.105C-208.02 402.105 -201.037 398.143 -193.438 394.053C-186.044 389.963 -178.65 385.745 -163.657 385.745C-148.664 385.745 -141.271 389.963 -133.877 394.053C-126.483 398.143 -119.5 402.105 -104.918 402.105C-90.5408 402.105 -83.5578 398.143 -76.1639 394.053C-68.7701 389.963 -61.3763 385.745 -46.3833 385.745C-31.3903 385.745 -23.9965 389.963 -16.6027 394.053C-9.20889 398.143 -2.22586 402.105 12.151 402.105C26.5278 402.105 33.5109 398.143 41.1101 394.053C48.5039 389.963 55.8977 385.745 70.8907 385.745C85.8837 385.745 93.2775 389.963 100.671 394.053C108.065 398.143 115.048 402.105 129.63 402.105C144.007 402.105 150.99 398.143 158.589 394.053C165.983 389.963 173.377 385.745 188.37 385.745C203.363 385.745 210.757 389.963 218.151 394.053C225.545 398.143 232.528 402.105 247.11 402.105C261.487 402.105 268.47 398.143 276.069 394.053C283.463 389.963 290.856 385.745 305.849 385.745C320.842 385.745 328.236 389.963 335.63 394.053C343.024 398.143 350.007 402.105 364.589 402.105V403Z" fill="#202994"/>
</svg>
