<svg width="18" height="18" viewBox="0 0 18 18" fill="none" xmlns="http://www.w3.org/2000/svg">
<path fill-rule="evenodd" clip-rule="evenodd" d="M4.54762 9.0001C4.54762 6.54496 6.54492 4.54762 9 4.54762C11.4551 4.54762 13.4524 6.54496 13.4524 9.0001C13.4524 11.4551 11.4551 13.4524 9 13.4524C6.54492 13.4524 4.54762 11.4551 4.54762 9.0001ZM6.0807 9C6.0807 10.6097 7.39036 11.9192 9 11.9192C10.6096 11.9192 11.9193 10.6097 11.9193 9C11.9193 7.39023 10.6097 6.08064 9 6.08064C7.39026 6.08064 6.0807 7.39023 6.0807 9Z" fill="white"/>
<path fill-rule="evenodd" clip-rule="evenodd" d="M5.19128 0.5H12.8085C15.3955 0.5 17.5001 2.60461 17.5 5.19139V12.8086C17.5 15.3954 15.3955 17.5 12.8085 17.5H5.19128C2.60451 17.5 0.5 15.3955 0.5 12.8086V5.19139C0.5 2.60461 2.60451 0.5 5.19128 0.5ZM12.8086 15.9917C14.5638 15.9917 15.9918 14.5638 15.9918 12.8086L15.9917 5.19139C15.9917 3.43631 14.5637 2.00833 12.8085 2.00833H5.19129C3.43621 2.00833 2.00833 3.43631 2.00833 5.19139V12.8086C2.00833 14.5638 3.43621 15.9918 5.19129 15.9917H12.8086Z" fill="white"/>
<ellipse cx="13.075" cy="4.09279" rx="0.898212" ry="0.898213" fill="white"/>
</svg>
