<svg width="179" height="24" viewBox="0 0 179 24" fill="none" xmlns="http://www.w3.org/2000/svg">
<path fill-rule="evenodd" clip-rule="evenodd" d="M9.49993 15.6041C5.84677 14.7278 2.33966 16.4814 1.46241 17.5037C0.878209 17.7968 4.23927 14.4348 4.53137 11.6579C4.67742 9.61131 3.50806 5.08186 3.21596 3.76645L4.96952 2.45105C6.28492 3.76646 10.5232 6.10517 12.4228 1.71985C11.5456 2.45105 8.62363 2.30405 7.01517 0.404446L3.21501 3.32735C2.92291 2.45105 4.23831 1.13565 4.53041 0.842596C4.82251 0.696546 4.67646 0.258396 4.09226 0.550496C2.1917 1.8659 -0.2921 3.4734 1.0233 9.61132C2.19266 14.7269 1.75451 16.4804 0 18.381C0 18.6731 0.43815 18.527 0.43815 18.8191C1.6075 18.0879 7.01517 16.1883 10.0832 19.4033L12.4219 14.7278C12.4219 14.7278 12.2758 14.4348 12.1288 14.4348C11.9847 14.7278 10.9614 15.8962 9.49993 15.6041ZM47.0586 1.42775C47.0586 1.42775 50.1276 9.46527 51.589 13.4115C53.3426 18.2349 53.6356 16.9195 53.9277 16.6274C54.2198 18.6731 51.0048 19.9885 50.1285 17.9419L48.521 13.8506H41.6519L40.9207 15.6041C41.3589 15.7502 41.944 15.7502 42.5282 16.1883C43.2594 16.6274 43.8436 15.8962 43.8436 15.8962C43.9897 15.7502 43.9897 15.8962 44.1367 15.8962L42.3822 18.9652C40.9207 17.5037 38.1448 17.7958 36.5363 18.9652L36.3903 18.8191C36.3903 17.6498 39.3132 15.4581 40.3365 15.6041C40.6286 15.166 45.013 4.35065 45.013 4.35065C43.8436 1.13565 43.1134 1.71985 42.2361 2.15895C42.0901 2.0129 42.2361 1.7208 42.6743 1.13565C43.6966 -0.325804 45.8893 -0.325804 46.6195 0.84355C46.6195 0.84355 46.9126 0.6975 47.3507 0.6975L46.9126 1.28265L47.0586 1.42775ZM47.4977 11.0737L45.159 5.37396L42.8213 11.0737H47.4977ZM77.1649 16.3344L77.457 16.0413V9.46527L77.1649 9.17317L82.5726 6.10421L86.3718 10.4886C85.0564 11.3658 80.2339 14.7269 80.2339 14.7269L83.1568 16.9186C83.888 16.6265 85.2034 15.4571 85.4946 15.019C86.0797 14.1417 86.6639 14.8729 86.2258 15.3111C86.0797 15.6041 83.0108 17.9419 81.4033 19.4033L77.1649 16.3344ZM83.595 11.804L80.526 8.00477V13.9966L83.595 11.804ZM12.861 9.32017L18.2687 5.66606L22.2149 8.44292L22.0688 8.73597V15.0199L22.2149 15.312L16.8072 19.1122L13.008 16.3353L13.3001 16.0423V9.61227L12.861 9.32017ZM16.076 14.8729L18.9989 17.3586V9.46622L16.076 7.27452V14.8729ZM27.7676 11.951L30.1063 9.61227L33.1753 11.0737L33.0292 11.5128V15.3111L33.1753 15.6041L27.9146 18.9652C24.9917 15.4571 23.6763 17.9419 23.6763 18.6721C22.0688 17.2116 23.8224 15.8962 23.8224 15.8962L25.4299 13.9966L23.6763 12.8273L23.8224 12.5342V9.02616L23.6763 8.73406C25.5759 7.56471 27.3295 6.5414 29.3761 5.51905C29.8142 6.39535 30.9836 6.8335 31.8608 6.39535L32.446 5.9572C32.592 6.68841 32.0078 8.00381 30.8385 8.58801C29.8152 9.02616 28.9379 8.73406 27.9156 8.29496L26.7462 7.27261V11.2188L27.7676 11.951ZM28.0597 11.951L24.6987 15.4581C25.868 15.0199 28.2058 14.5818 30.1063 16.6284V12.9743L28.0597 11.951Z" fill="black"/>
<path d="M9.20898 3.76562V16.0415" stroke="black" stroke-width="0.625246" stroke-miterlimit="2.613"/>
<path fill-rule="evenodd" clip-rule="evenodd" d="M57.8735 9.465V15.3108L58.6038 16.042C58.8968 16.3351 59.1889 16.042 59.481 15.8969L59.6271 16.042L57.4354 19.258L54.3664 16.6272L54.6585 16.3341V9.90411L53.4891 8.73475C53.3431 8.5887 52.9049 8.4417 52.6128 8.73475L52.4668 8.58871L54.8055 6.25L58.1666 8.8808L57.8735 9.465Z" fill="black"/>
<path fill-rule="evenodd" clip-rule="evenodd" d="M63.2812 9.465V15.3108L64.1575 16.042C64.4496 16.3351 64.7427 16.042 65.0338 15.8969L65.1799 16.042L62.9872 19.258L59.9183 16.6272L60.2104 16.3341V9.90411L58.8959 8.73475C58.7499 8.5887 58.4568 8.73475 58.1647 9.02685L57.7266 8.58871L60.3574 6.25L63.7184 8.8808L63.2812 9.465Z" fill="black"/>
<path fill-rule="evenodd" clip-rule="evenodd" d="M75.1191 9.02689L74.827 9.31994V16.7733C74.827 17.7966 75.5582 18.2347 76.2884 17.3584C76.2884 25.1029 70.2966 23.0582 68.1049 22.4721C66.0582 22.0339 65.0359 22.4721 64.7438 22.7651C64.4507 23.2033 64.3047 22.7651 64.3047 22.6191C65.474 20.8655 67.5197 18.9659 70.7357 20.2813C74.2428 21.5967 75.2661 19.9892 75.7042 18.6729C73.6576 20.1343 72.0501 18.2347 72.0501 17.7966L69.4203 19.5501L65.6201 16.6272L65.9132 16.3342V10.1962L65.7671 9.90414L71.1748 6.10494L75.1191 9.02689ZM68.9812 15.0188L71.9041 17.5035V10.0502L68.9812 7.85753V15.0188ZM90.3178 5.37373V15.3109L91.196 16.0421C91.3411 16.3351 91.7793 16.0421 92.0723 15.897L92.2174 16.0421L90.0247 19.258L87.2488 16.6272L87.3949 16.3342V5.81188L86.0795 4.64252C85.9334 4.35042 85.3483 4.35042 85.2032 4.64252L85.0571 4.49647L87.3959 2.01172L90.7569 4.78857L90.3178 5.37373ZM93.0956 16.3342L93.3868 16.0411V9.46504L93.0956 9.17294L98.5023 6.10398L102.302 10.4883C100.985 11.3656 96.1636 14.7267 96.1636 14.7267L99.0856 16.9184C99.8168 16.6263 101.133 15.4569 101.425 15.0188C102.008 14.1415 102.595 14.8727 102.156 15.3109C102.009 15.6039 98.7954 17.9417 97.333 19.4031L93.0956 16.3342ZM99.5266 11.8037L96.3106 8.00454V13.9964L99.5266 11.8037ZM107.271 11.9507L109.464 9.61204L112.533 11.0735L112.388 11.5126V15.3109L112.679 15.6039L107.272 18.965C104.496 15.4569 103.18 17.9417 103.18 18.6719C101.427 17.2114 103.18 15.896 103.18 15.896L104.934 13.9964L103.035 12.8271L103.328 12.534V9.02593L103.181 8.73383C104.962 7.54524 106.817 6.47139 108.734 5.51882C109.318 6.39512 110.342 6.83327 111.365 6.39512L111.948 5.95697C111.948 6.68818 111.365 8.00358 110.341 8.58778C109.172 9.02593 108.295 8.73383 107.272 8.29473L106.249 7.27238V11.2186L107.271 11.9507ZM107.564 11.9507L104.203 15.4579C105.226 15.0197 107.564 14.5816 109.465 16.6282V12.9741L107.564 11.9507ZM173.036 11.9507L175.374 9.61204L178.443 11.0735L178.298 11.5126V15.3109L178.591 15.6039L173.183 18.965C170.261 15.4569 168.945 17.9417 168.945 18.6719C167.338 17.2114 169.092 15.896 169.092 15.896L170.7 13.9964L168.945 12.8271L169.092 12.534V9.02593L168.945 8.73383C170.845 7.56448 172.599 6.54117 174.645 5.51882C175.083 6.39512 176.252 6.83327 177.131 6.39512L177.714 5.95697C177.861 6.68818 177.276 8.00358 176.106 8.58778C175.083 9.02593 174.207 8.73383 173.183 8.29473L172.014 7.27238V11.2186L173.036 11.9507ZM173.329 11.9507L170.113 15.4579C171.136 15.0197 173.474 14.5816 175.374 16.6282V12.9741L173.329 11.9507ZM158.568 16.3342L158.861 16.0411V9.46504L158.568 9.17294L163.975 6.10398L167.774 10.4883C166.605 11.3656 161.782 14.7267 161.782 14.7267L164.56 16.9184C165.291 16.6263 166.751 15.4569 167.044 15.0188C167.629 14.1415 168.213 14.8727 167.775 15.3109C167.482 15.6039 164.414 17.9417 162.806 19.4031L158.568 16.3342ZM165.144 11.8037L161.93 8.00454V13.9964L165.144 11.8037ZM144.83 9.46599V15.3118L145.708 16.043C145.999 16.3361 146.291 16.043 146.584 15.8979L146.731 16.043L144.539 19.259L141.761 16.6282L141.908 16.3351V9.75809L140.591 8.73574C140.446 8.58969 140.008 8.44269 139.715 8.73574L139.57 8.58969L141.908 6.25099L145.269 8.88179L144.83 9.46599Z" fill="black"/>
<path fill-rule="evenodd" clip-rule="evenodd" d="M150.383 9.465V15.3108L151.259 16.042C151.406 16.3351 151.699 16.042 152.137 15.8969L152.282 16.042L150.09 19.258L147.168 16.6272L147.459 16.3341V9.7571L145.997 8.73475C145.852 8.5887 145.414 8.73475 145.268 9.02685L144.828 8.58871L147.459 6.25L150.82 8.8808L150.383 9.465Z" fill="black"/>
<path fill-rule="evenodd" clip-rule="evenodd" d="M155.789 9.46453V15.3103L156.667 16.0416C156.958 16.3346 157.25 16.0416 157.543 15.8965L157.688 16.0416L155.497 19.2575L152.72 16.6267L152.867 16.3337V9.75663L151.55 8.73428C151.257 8.58823 150.967 8.73428 150.674 9.02638L150.236 8.58823L152.867 6.24953L156.228 8.88033L155.789 9.46453ZM138.252 9.46453V15.3103L139.128 16.0416C139.275 16.3346 139.568 16.0416 140.007 15.8965L140.152 16.0416L137.959 19.2575L135.037 16.6267L135.328 16.3337V9.75663L134.014 8.73428C133.721 8.58823 133.283 8.44123 133.136 8.73428L132.99 8.58823L135.328 6.24953L138.689 8.88033L138.252 9.46453ZM133.722 5.37227C134.16 5.08017 134.745 4.93412 135.476 5.66437C136.207 6.24857 137.96 6.10252 139.275 3.91082L139.128 3.76477C138.69 4.05687 136.938 3.91082 136.352 2.88847L133.722 5.37227ZM119.984 5.81042V5.95647C120.568 5.08017 121.737 3.03356 127.146 4.34897C130.945 5.37227 133.722 5.81042 134.598 2.15726L134.307 2.01121C134.014 2.44936 132.407 2.74242 127.437 1.71912C122.468 0.841861 120.13 2.15726 119.984 5.81042Z" fill="black"/>
<path fill-rule="evenodd" clip-rule="evenodd" d="M129.922 5.95574C125.247 3.17888 117.499 7.4172 119.254 14.2863C121.154 21.1545 131.822 22.0317 133.867 13.5551C134.015 13.263 133.867 12.8249 133.576 13.5551C132.845 15.1636 130.507 17.2092 127.877 17.2092C124.806 17.2092 122.175 14.1393 122.175 11.3634C122.175 8.58655 124.075 5.66364 127.877 5.66364C126.998 6.24784 123.929 8.14839 125.829 11.5104C127.729 15.0175 127.584 16.0399 126.852 17.2102L126.997 17.3562C128.167 16.1859 130.652 14.5794 128.752 11.0713C126.854 7.41719 126.999 5.22549 129.922 5.95574Z" fill="black"/>
<path d="M131.092 4.64062V16.9174" stroke="black" stroke-width="0.625246" stroke-miterlimit="2.613" stroke-linecap="square"/>
</svg>
