<svg width="16" height="16" viewBox="0 0 16 16" fill="none" xmlns="http://www.w3.org/2000/svg">
<g clip-path="url(#clip0_1_379)">
<path fill-rule="evenodd" clip-rule="evenodd" d="M0.666748 1.89208C0.666748 1.5671 0.795845 1.25544 1.02564 1.02564C1.25543 0.795847 1.5671 0.66675 1.89208 0.66675H14.1067C14.2678 0.666487 14.4273 0.697992 14.5762 0.759461C14.725 0.82093 14.8603 0.911156 14.9742 1.02497C15.0882 1.13879 15.1786 1.27397 15.2402 1.42276C15.3018 1.57155 15.3335 1.73103 15.3334 1.89208V14.1067C15.3336 14.2678 15.302 14.4274 15.2405 14.5762C15.1789 14.7251 15.0886 14.8604 14.9748 14.9743C14.8609 15.0882 14.7257 15.1786 14.5768 15.2402C14.428 15.3018 14.2685 15.3335 14.1074 15.3334H1.89208C1.73111 15.3334 1.57172 15.3017 1.42301 15.2401C1.2743 15.1785 1.1392 15.0881 1.0254 14.9743C0.911613 14.8604 0.821369 14.7253 0.75983 14.5765C0.69829 14.4278 0.666661 14.2684 0.666748 14.1074V1.89208ZM6.47208 6.25875H8.45808V7.25608C8.74475 6.68275 9.47808 6.16675 10.5801 6.16675C12.6927 6.16675 13.1934 7.30875 13.1934 9.40408V13.2854H11.0554V9.88142C11.0554 8.68808 10.7687 8.01475 10.0407 8.01475C9.03075 8.01475 8.61075 8.74075 8.61075 9.88142V13.2854H6.47208V6.25875ZM2.80542 13.1941H4.94408V6.16675H2.80542V13.1934V13.1941ZM5.25008 3.87475C5.25411 4.05786 5.22153 4.23994 5.15424 4.41029C5.08695 4.58064 4.98632 4.73584 4.85824 4.86677C4.73016 4.9977 4.57721 5.10173 4.40839 5.17275C4.23956 5.24378 4.05824 5.28036 3.87508 5.28036C3.69192 5.28036 3.51061 5.24378 3.34178 5.17275C3.17295 5.10173 3.02001 4.9977 2.89193 4.86677C2.76385 4.73584 2.66321 4.58064 2.59592 4.41029C2.52863 4.23994 2.49605 4.05786 2.50008 3.87475C2.508 3.51532 2.65634 3.17328 2.91334 2.92187C3.17034 2.67047 3.51556 2.52969 3.87508 2.52969C4.2346 2.52969 4.57982 2.67047 4.83682 2.92187C5.09383 3.17328 5.24217 3.51532 5.25008 3.87475Z" fill="white"/>
</g>
<defs>
<clipPath id="clip0_1_379">
<rect width="16" height="16" fill="white"/>
</clipPath>
</defs>
</svg>
