<svg width="196" height="74" viewBox="0 0 196 74" fill="none" xmlns="http://www.w3.org/2000/svg">
<path d="M7.63865 72.64L8.12727 70.3665H5.12872L5.40435 69.0524H10.846L9.80194 73.9582H1.21975C0.384503 73.9582 -0.141704 73.2824 0.033698 72.4564C0.417913 70.6293 0.81048 68.8105 1.21975 66.9666C1.42021 66.1156 2.16358 65.4982 3.03642 65.4648H11.6144L11.3388 66.7872H4.2893C3.91343 66.7998 3.59604 67.0709 3.52087 67.438C3.18259 68.9565 2.85684 70.4749 2.54362 71.9892C2.46845 72.3522 2.64803 72.64 3.03224 72.64L7.63865 72.6483V72.64Z" fill="#FAFAFA"/>
<path d="M17.9375 71.1925H15.1812L14.5881 73.9582H12.1826L13.9993 65.4607H22.0553C22.7068 65.4315 23.258 65.9362 23.2873 66.587C23.2914 66.7163 23.2789 66.8415 23.2413 66.9666C23.0409 67.8802 22.8321 68.7896 22.6483 69.699C22.452 70.55 21.7086 71.1632 20.8358 71.1966H20.4182L21.7796 73.954H19.3073L17.9417 71.1966L17.9375 71.1925ZM20.3889 69.2193C20.4975 68.6269 20.6395 68.0346 20.7732 67.438C20.84 67.1543 20.6688 66.8707 20.3848 66.8039C20.3388 66.7914 20.2971 66.7872 20.2511 66.7872H16.1292L15.461 69.8784H19.5829C19.9671 69.8617 20.2971 69.5947 20.3889 69.2235V69.2193Z" fill="#FAFAFA"/>
<path d="M33.619 72.6776L33.3392 73.9958H25.3876C24.7153 74.0167 24.1515 73.4869 24.1348 72.8152C24.1348 72.7068 24.1431 72.5983 24.1682 72.494C24.5524 70.6669 24.97 68.8397 25.3542 67.0042C25.5672 66.149 26.3189 65.5358 27.2001 65.5024H35.1517L34.8761 66.8248H28.4906C28.098 66.8332 27.7597 67.096 27.6553 67.4756C27.5301 68.0096 27.4382 68.5602 27.3421 69.0817H33.5856L33.3058 70.3999H27.0623C26.9245 70.9422 26.8452 71.4845 26.7115 72.0143C26.6322 72.2855 26.7867 72.565 27.0581 72.6442C27.1166 72.6609 27.1751 72.6692 27.2335 72.6651L33.6148 72.6818L33.619 72.6776Z" fill="#FAFAFA"/>
<path d="M43.6963 72.7902H38.8143L37.9039 74H35.2896L41.4328 65.5024H44.1557L46.7032 74H44.0471L43.6963 72.7902ZM43.3121 71.4678L42.2263 68.0388L39.7874 71.4678H43.3079H43.3121Z" fill="#FAFAFA"/>
<path d="M53.9198 66.6664L52.4205 73.8415H49.9774L51.5143 66.6664H47.8267L48.0939 65.344H57.8538L57.574 66.6664H53.9198Z" fill="#FAFAFA"/>
<path d="M67.5635 73.9582H65.1914L67.0039 65.4607H75.0557C75.7072 65.4315 76.2585 65.9362 76.2877 66.587C76.2919 66.7163 76.2793 66.8415 76.2418 66.9666C76.0413 67.8802 75.8325 68.7896 75.6487 69.699C75.4524 70.5459 74.7133 71.1591 73.8404 71.1966H68.1565L67.5635 73.9624V73.9582ZM73.3894 69.2235C73.498 68.6311 73.6441 68.0387 73.7736 67.4422C73.8404 67.1543 73.6608 66.8707 73.3727 66.8039C73.3226 66.7914 73.2683 66.7872 73.2182 66.7914H69.0962L68.4322 69.8867H72.5541C72.9509 69.8867 73.2975 69.6114 73.3894 69.2235Z" fill="#FAFAFA"/>
<path d="M83.7007 72.7902H78.8186L77.904 74H75.3022L81.4372 65.5024H84.1601L86.7076 74H84.0557L83.7049 72.7902H83.7007ZM83.3248 71.4678L82.239 68.0388L79.7917 71.4678H83.3206H83.3248Z" fill="#FAFAFA"/>
<path d="M97.0856 72.6776L96.81 73.9958H89.063C88.2278 73.9958 87.7016 73.32 87.877 72.494C88.2612 70.6669 88.6788 68.8397 89.063 67.0042C89.2635 66.1532 90.0027 65.54 90.8755 65.5024H98.6224L98.3426 66.8248H92.1367C91.7525 66.8332 91.4226 67.1002 91.3349 67.4756C91.0259 68.9941 90.6667 70.5084 90.3577 72.0268C90.2908 72.3105 90.4704 72.5983 90.7544 72.6651C90.7962 72.6734 90.8379 72.6776 90.8797 72.6776L97.0898 72.6859L97.0856 72.6776Z" fill="#FAFAFA"/>
<path d="M101.003 65.4607H103.375L101.563 73.9582H99.1904L101.007 65.4607H101.003Z" fill="#FAFAFA"/>
<path d="M106.344 73.9958H103.939L105.334 67.4965L105.442 67.0042C105.643 66.1574 106.378 65.54 107.251 65.5024H115.031L114.755 66.8248H108.545C108.165 66.8415 107.84 67.1043 107.744 67.4756C107.639 68.0137 107.497 68.5602 107.393 69.0817H113.465L113.189 70.3999H107.117L106.349 74L106.344 73.9958Z" fill="#FAFAFA"/>
<path d="M117.407 65.4607H119.779L117.967 73.9582H115.595L117.407 65.4607Z" fill="#FAFAFA"/>
<path d="M129.735 72.6776L129.46 73.9958H121.713C120.878 73.9958 120.351 73.32 120.527 72.494C120.911 70.6669 121.329 68.8397 121.713 67.0042C121.913 66.1574 122.648 65.5442 123.521 65.5024H131.26L130.98 66.8248H124.782C124.398 66.8332 124.064 67.1002 123.976 67.4756C123.667 68.9941 123.312 70.5084 122.999 72.0268C122.932 72.3105 123.112 72.5983 123.396 72.6651C123.438 72.6734 123.479 72.6776 123.521 72.6776L129.74 72.6859L129.735 72.6776Z" fill="#FAFAFA"/>
<path d="M143.922 71.1925H141.166L140.569 73.9582H138.163L139.98 65.4607H148.036C148.687 65.4315 149.239 65.9362 149.268 66.587C149.272 66.7163 149.259 66.8415 149.222 66.9666C149.021 67.8802 148.813 68.7896 148.629 69.699C148.432 70.55 147.689 71.1632 146.812 71.1966H146.394L147.756 73.954H145.279L143.918 71.1966L143.922 71.1925ZM146.365 69.2151C146.474 68.6227 146.62 68.0304 146.749 67.4338C146.816 67.1502 146.645 66.8665 146.361 66.7998C146.315 66.7872 146.273 66.7831 146.227 66.7831H142.105L141.441 69.8784H145.563C145.948 69.8617 146.273 69.5947 146.369 69.2235V69.2151H146.365Z" fill="#FAFAFA"/>
<path d="M157.959 72.7902H153.077L152.166 74H149.552L155.691 65.5024H158.41L160.965 74H158.305L157.954 72.7902H157.959ZM157.574 71.4678L156.489 68.0388L154.05 71.4678H157.57H157.574Z" fill="#FAFAFA"/>
<path d="M171.343 72.6776L171.068 73.9958H163.321C162.486 73.9958 161.959 73.32 162.135 72.494C162.519 70.6669 162.937 68.8397 163.321 67.0042C163.521 66.1532 164.26 65.54 165.133 65.5024H172.889L172.609 66.8248H166.382C165.998 66.8332 165.668 67.1002 165.58 67.4756C165.271 68.9941 164.916 70.5084 164.603 72.0268C164.536 72.3105 164.716 72.5983 165 72.6651C165.041 72.6734 165.083 72.6776 165.125 72.6776L171.339 72.6859L171.343 72.6776Z" fill="#FAFAFA"/>
<path d="M183.083 72.6776L182.807 73.9958H174.843C174.171 74.0167 173.607 73.491 173.586 72.8194C173.586 72.711 173.594 72.6025 173.619 72.494C174.004 70.6669 174.421 68.8397 174.805 67.0042C175.018 66.149 175.774 65.5358 176.655 65.5024H184.603L184.323 66.8248H177.946C177.553 66.8332 177.211 67.096 177.111 67.4756C176.985 68.0096 176.894 68.5602 176.797 69.0817H183.041L182.761 70.3999H176.518C176.38 70.9422 176.301 71.4845 176.171 72.0143C176.092 72.2813 176.246 72.565 176.513 72.6442C176.572 72.6609 176.635 72.6692 176.693 72.6651L183.087 72.6818L183.083 72.6776Z" fill="#FAFAFA"/>
<path d="M171.849 8.78125H135.716L127.042 17.4457H134.538H171.677C172.776 17.4457 173.757 17.867 174.626 18.7013C175.495 19.5398 175.929 20.5368 175.929 21.6923V28.0791C175.929 29.2346 175.495 30.2316 174.626 31.0701C173.757 31.9086 172.776 32.3257 171.677 32.3257H138.677L117.424 53.555H128.867L141.441 40.9943H160.581L173.156 53.555H184.599L172.02 40.9901C175.361 40.9484 178.28 39.6928 180.782 37.2232C183.329 34.7119 184.599 31.7501 184.599 28.3419V21.4379C184.599 18.0297 183.325 15.0678 180.782 12.5565C178.238 10.0452 175.261 8.78542 171.845 8.78542L171.849 8.78125Z" fill="#D95234"/>
<path d="M190.249 0C187.079 0 184.499 2.57805 184.499 5.74429C184.499 8.91053 187.079 11.4886 190.249 11.4886C193.419 11.4886 196 8.91053 196 5.74429C196 2.57805 193.419 0 190.249 0ZM190.249 8.57263C188.691 8.57263 187.422 7.30446 187.422 5.74846C187.422 4.19245 188.691 2.92429 190.249 2.92429C191.807 2.92429 193.077 4.19245 193.077 5.74846C193.077 7.30446 191.807 8.57263 190.249 8.57263Z" fill="#D95234"/>
<path d="M124.406 28.3377V21.4337C124.406 18.0255 123.133 15.0637 120.589 12.5524C118.046 10.0411 115.068 8.78125 111.652 8.78125H78.3341L69.66 17.4457H81.2199H105.872H111.485C112.583 17.4457 113.569 17.867 114.434 18.7013C115.302 19.5398 115.737 20.5368 115.737 21.6923V28.0791C115.737 29.2346 115.302 30.2316 114.434 31.0701C113.565 31.9086 112.583 32.3257 111.485 32.3257H76.3086L55.0557 53.555H66.4986L79.0733 40.9943H81.2199H87.5469H111.656C115.068 40.9943 118.046 39.7387 120.594 37.2232C123.141 34.7119 124.411 31.7501 124.411 28.3419L124.406 28.3377Z" fill="#D95234"/>
<path d="M61.6085 35.492V32.4092V26.8276H49.4848H22.0093V35.492H49.4848H50.2365H52.9302V39.9098V41.0736V44.1564L61.6085 35.492Z" fill="#D95234"/>
<path d="M47.9605 44.8697H18.9607H14.7928H12.9302C11.8318 44.8697 10.8462 44.4484 9.98172 43.6141C9.11306 42.7756 8.67873 41.7786 8.67873 40.6231V21.6882C8.67873 20.5327 9.11306 19.5356 9.98172 18.6972C10.8504 17.8587 11.8318 17.4415 12.9302 17.4415H61.6085V8.7771H12.7548C9.34276 8.7771 6.36509 10.0327 3.81758 12.5482C1.27424 15.0637 0.000488281 18.0214 0.000488281 21.4337V40.8859C0.000488281 44.2941 1.27424 47.2559 3.81758 49.7672C6.36092 52.2785 9.33858 53.5383 12.7548 53.5383H43.4209L52.0992 44.8697H47.9605Z" fill="#D95234"/>
</svg>
