<svg width="381" height="344" viewBox="0 0 381 344" fill="none" xmlns="http://www.w3.org/2000/svg">
<path d="M184.464 343.117V232.737C184.464 163.428 200.721 106.955 233.236 63.3164C266.607 18.8221 315.807 -10.2703 380.837 -23.9608V59.4659C351.745 66.3112 328.642 79.146 311.529 97.9705C294.416 115.939 283.292 137.759 278.158 163.428H355.168V343.117H184.464ZM-74.8008 343.117V232.737C-74.8008 163.428 -58.5433 106.955 -26.0282 63.3164C7.34245 18.8221 56.115 -10.2703 120.289 -23.9608V59.4659C91.197 66.3112 68.0942 79.146 50.981 97.9705C33.8679 115.939 22.7443 137.759 17.6104 163.428H94.6196V343.117H-74.8008Z" fill="#C74B30"/>
</svg>
