<svg width="14" height="14" viewBox="0 0 14 14" fill="none" xmlns="http://www.w3.org/2000/svg">
<path d="M13.9432 2.05832C13.4987 2.28524 13.0069 2.42274 12.5273 2.51351C12.7549 2.47035 13.0893 2.00537 13.2234 1.81715C13.4277 1.53016 13.5977 1.20356 13.6932 0.85027C13.7058 0.822683 13.7145 0.787977 13.69 0.767509C13.6592 0.753716 13.6395 0.760835 13.6151 0.774628C13.0799 1.09855 12.5257 1.33304 11.9361 1.49946C11.8876 1.51325 11.8509 1.49946 11.8205 1.46475C11.7716 1.40246 11.7259 1.34372 11.6738 1.29567C11.4261 1.05762 11.1603 0.871183 10.8606 0.733248C10.467 0.552152 10.0371 0.47562 9.61347 0.506766C9.20092 0.537023 8.79627 0.668285 8.43026 0.883642C8.06347 1.09989 7.73612 1.40068 7.47542 1.76331C7.20604 2.13841 7.00726 2.58158 6.90551 3.05145C6.8073 3.50442 6.81519 3.95337 6.87514 4.41123C6.88421 4.48732 6.87829 4.49755 6.81716 4.48732C4.51189 4.10021 2.60101 3.16981 1.04944 1.17509C0.981993 1.08832 0.945708 1.08832 0.890492 1.18176C0.211332 2.32974 0.541052 4.17407 1.38901 5.08044C1.50221 5.20147 1.61856 5.32205 1.74358 5.4324C1.69783 5.44308 1.13344 5.37411 0.630581 5.08044C0.563138 5.03239 0.529614 5.05997 0.523304 5.14629C0.516993 5.27044 0.526459 5.38434 0.541841 5.51872C0.671993 6.68272 1.38625 7.75906 2.36476 8.1791C2.48111 8.23427 2.60929 8.28277 2.73432 8.3068C2.51148 8.36197 2.28194 8.40113 1.64262 8.34462C1.56295 8.32727 1.53258 8.37221 1.56295 8.45853C2.04333 9.93533 3.08021 10.3749 3.85678 10.6254C3.96091 10.6459 4.06463 10.6459 4.16915 10.6735C4.16284 10.6842 4.15653 10.6842 4.15061 10.6944C3.89307 11.1376 3.00014 11.4669 2.58405 11.631C1.82798 11.9296 1.00447 12.0635 0.205022 11.9745C0.0772358 11.9532 0.0504165 11.955 0.0153148 11.9745C-0.019787 11.999 0.0109763 12.0337 0.0519941 12.0707C0.214093 12.1917 0.379347 12.2989 0.547362 12.4021C1.05496 12.7056 1.58424 12.9477 2.13759 13.1199C4.99542 14.0102 8.21453 13.3561 10.3605 10.9507C12.0453 9.06188 12.6362 6.45713 12.6362 3.84881C12.6362 3.74692 12.743 3.69041 12.8065 3.63657C13.2451 3.26503 13.5985 2.82008 13.9259 2.32351C13.9992 2.21183 14 2.11305 14 2.07211V2.05876C14 2.01694 13.9992 2.0294 13.9424 2.05876L13.9432 2.05832Z" fill="white"/>
</svg>
